<svg width="64" height="64" viewBox="0 0 64 64" fill="none" xmlns="http://www.w3.org/2000/svg">
<path d="M53.4133 7.62671L51.7066 9.86671C50.8 11.12 49.5733 12 48.2933 12C47.0133 12 45.7866 11.04 44.88 9.70671C43.0133 6.93337 40.4 5.36004 37.68 5.33337H37.5733C34.9066 5.33337 32.3466 6.82671 30.4266 9.49337L30.1066 10C28.24 12.6134 25.2266 12.6134 23.36 10L23.1466 9.68004C19.1466 3.97337 12.6666 3.97337 8.69331 9.68004L5.33331 14.4L9.14665 19.8667L12.5333 15.1467C14.4 12.5067 17.4133 12.5067 19.28 15.1467L19.4933 15.4667C23.4666 21.0934 29.5466 21.4667 33.8933 15.5734L34.2133 15.0934C35.12 13.84 36.3466 13.1467 37.6266 13.1467C38.9066 13.1734 40.1066 13.92 41.0133 15.2267C42.9066 18 45.4933 19.8134 48.2133 19.8134C50.9066 19.8134 53.52 18.0534 55.4133 15.28L55.5466 15.12L58.6666 10.96L54.88 5.38671L53.4133 7.62671ZM53.4133 27.0134L51.7066 29.2534C50.8 30.5067 49.5733 31.3867 48.2933 31.3867C47.0133 31.3867 45.7866 30.4267 44.88 29.12C43.0133 26.3467 40.4 24.7467 37.68 24.72H37.5733C34.9066 24.72 32.3466 26.2134 30.4266 28.9067L30.1066 29.3867C28.24 32 25.2266 32 23.36 29.3867L23.1466 29.0667C19.1466 23.36 12.6666 23.36 8.69331 29.0667L5.33331 33.8134L9.14665 39.28L12.5066 34.5334C14.3733 31.92 17.3866 31.92 19.2533 34.5334L19.4666 34.8534C23.44 40.48 29.52 40.8534 33.8666 34.96L34.1866 34.48C35.0933 33.2267 36.32 32.5334 37.6 32.56C38.88 32.56 40.08 33.3067 40.9866 34.6134C42.88 37.3867 45.4666 39.2 48.1866 39.2267C50.88 39.2267 53.4933 37.44 55.3867 34.6934L55.52 34.5334L58.6666 30.3467L54.88 24.8L53.4133 27.0134ZM53.4133 46.4L51.7066 48.64C50.8 49.8934 49.5733 50.7734 48.2933 50.7734C47.0133 50.7734 45.7866 49.8134 44.88 48.5067C43.0133 45.7334 40.4 44.16 37.68 44.1334H37.5733C34.9066 44.1334 32.3466 45.6 30.4266 48.2934L30.1066 48.7734C28.24 51.3867 25.2266 51.3867 23.36 48.7734L23.1466 48.48C19.1466 42.7734 12.6666 42.7734 8.69331 48.48L5.33331 53.2L9.14665 58.6667L12.5066 53.9467C14.3733 51.28 17.3866 51.28 19.2533 53.9467L19.4666 54.24C23.44 59.8934 29.52 60.2667 33.8666 54.3467L34.1866 53.8667C35.0933 52.6134 36.32 51.92 37.6 51.9467C38.88 51.9467 40.08 52.6934 40.9866 54C42.88 56.7734 45.4666 58.5867 48.1866 58.6134C50.88 58.6134 53.4933 56.8267 55.3867 54.08L55.52 53.92L58.6666 49.7334L54.88 44.1867L53.4133 46.4Z" fill="#EEE568"/>
</svg>
