<svg width="64" height="64" viewBox="0 0 64 64" fill="none" xmlns="http://www.w3.org/2000/svg">
<path d="M38.4534 40.3466C36.2667 40.9866 34.7734 39.6533 34.0534 37.6799C33.0667 34.9333 34.9334 31.8666 35.3334 31.7333C35.7867 31.5999 39.2001 32.9599 40.2134 35.8133C40.9334 37.7866 40.9601 39.5733 38.4534 40.3466ZM29.9201 37.6799C29.2267 39.6533 27.7334 40.9866 25.5467 40.3466C23.0401 39.5733 23.0667 37.7866 23.7867 35.8133C24.8001 32.9599 28.2134 31.5999 28.6667 31.7333C29.0667 31.8666 30.9334 34.9333 29.9467 37.6799H29.9201ZM41.0667 15.1199C38.6667 15.1199 36.2667 15.4399 33.8667 16.0266L32.8001 16.3199V15.8399C32.8001 11.9999 34.9334 8.53328 38.3201 6.77327C38.6667 6.61327 38.8534 6.13328 38.6667 5.75994C38.4801 5.41328 38.0267 5.22661 37.6534 5.41327C35.4115 6.54836 33.6105 8.39631 32.5334 10.6666C30.9828 8.43308 28.7425 6.76974 26.1559 5.93163C23.5693 5.09351 20.7792 5.12688 18.2134 6.02661L17.2001 6.39994L17.7334 7.19994C19.2278 9.44 21.4053 11.1379 23.9421 12.0412C26.4789 12.9444 29.2395 13.0048 31.8134 12.2133C31.4667 13.3599 31.2801 14.5599 31.2801 15.7599V16.2399L30.2134 15.9999C27.8667 15.4133 25.4667 15.0933 23.0134 15.0933C18.7438 15.1285 14.6623 16.8548 11.6632 19.8939C8.66414 22.9329 6.99207 27.0369 7.01338 31.3066C7.01338 40.2666 10.5867 48.9599 16.8801 55.2266C18.3205 56.6564 20.1072 57.6881 22.0656 58.221C24.024 58.7538 26.0871 58.7695 28.0534 58.2666L32.0001 57.2533L35.9467 58.2666C37.9156 58.7599 39.9791 58.7316 41.9337 58.1845C43.8884 57.6374 45.6667 56.5904 47.0934 55.1466L47.2001 55.0399C50.3171 51.9147 52.7863 48.2046 54.4657 44.1227C56.1452 40.0407 57.0019 35.6672 56.9867 31.2533C57.0149 29.1435 56.6242 27.0491 55.8371 25.0914C55.0501 23.1337 53.8823 21.3517 52.4015 19.8486C50.9207 18.3455 49.1564 17.1512 47.2107 16.3349C45.265 15.5187 43.1767 15.0966 41.0667 15.0933" fill="#E33131"/>
</svg>
