<svg width="64" height="64" viewBox="0 0 64 64" fill="none" xmlns="http://www.w3.org/2000/svg">
<path d="M58.1866 21.0933C51.4133 13.4399 42.4 9.06661 33.44 9.06661C31.68 9.06661 29.92 9.27994 28.24 9.59994C27.8933 7.89327 27.1733 6.34661 25.6533 5.49327C25.3892 5.34034 25.0766 5.29382 24.7794 5.36318C24.4822 5.43254 24.2225 5.61256 24.0533 5.86661C23.9689 5.99182 23.912 6.13354 23.8864 6.28238C23.8609 6.43123 23.8672 6.5838 23.905 6.73001C23.9428 6.87623 24.0113 7.01274 24.1058 7.13053C24.2003 7.24832 24.3188 7.34469 24.4533 7.41327C26.3466 8.47994 26.24 12.3199 26.16 14.8533L26.1333 16.3466C19.92 15.8399 14.56 17.5999 10.8 21.4133C8.81761 23.5893 7.31201 26.1557 6.37977 28.9478C5.44754 31.7399 5.10926 34.6961 5.38664 37.6266C5.49331 39.5733 5.86664 41.9466 6.55998 45.5466C6.95998 47.6266 7.49331 50.6933 7.70664 53.5466C7.91998 56.3733 10.5066 58.6666 13.5733 58.6666L14.1866 58.6399C37.5733 56.4266 40.1066 40.0533 40.1066 33.1199C40.1066 24.6666 34.1333 17.9199 28.4533 16.6399C28.4342 15.44 28.4342 14.2399 28.4533 13.0399C34.24 19.9733 44.9866 22.1599 51.7066 22.5333C53.76 22.6666 54.7466 22.7733 55.7066 22.8533L56.96 22.9866L57.6 23.0399C58.2666 23.0399 58.6666 22.6133 58.6666 21.9999C58.6666 21.6266 58.48 21.3866 58.1866 21.0933Z" fill="#FFC264"/>
</svg>
