<svg width="64" height="64" viewBox="0 0 64 64" fill="none" xmlns="http://www.w3.org/2000/svg">
<path d="M21.3057 39.1203C24.1291 39.1203 26.418 38.2747 26.418 37.2316C26.418 36.1884 24.1291 35.3428 21.3057 35.3428C18.4822 35.3428 16.1934 36.1884 16.1934 37.2316C16.1934 38.2747 18.4822 39.1203 21.3057 39.1203Z" fill="#46587A"/>
<path d="M42.6943 39.1203C45.5178 39.1203 47.8066 38.2747 47.8066 37.2316C47.8066 36.1884 45.5178 35.3428 42.6943 35.3428C39.8709 35.3428 37.582 36.1884 37.582 37.2316C37.582 38.2747 39.8709 39.1203 42.6943 39.1203Z" fill="#46587A"/>
<path d="M32.033 55.4706C44.8683 55.4706 55.2733 45.0656 55.2733 32.2303C55.2733 19.395 44.8683 8.98999 32.033 8.98999C19.1977 8.98999 8.79269 19.395 8.79269 32.2303C8.79269 45.0656 19.1977 55.4706 32.033 55.4706Z" stroke="#46587A" stroke-width="2"/>
<path d="M42.9893 33.4156C46.9993 33.4156 50.2501 30.1648 50.2501 26.1548C50.2501 22.1447 46.9993 18.8939 42.9893 18.8939C38.9792 18.8939 35.7284 22.1447 35.7284 26.1548C35.7284 30.1648 38.9792 33.4156 42.9893 33.4156Z" stroke="#46587A" stroke-width="2"/>
<path d="M21.0768 33.4156C25.0869 33.4156 28.3377 30.1648 28.3377 26.1548C28.3377 22.1447 25.0869 18.8939 21.0768 18.8939C17.0667 18.8939 13.8159 22.1447 13.8159 26.1548C13.8159 30.1648 17.0667 33.4156 21.0768 33.4156Z" stroke="#46587A" stroke-width="2"/>
<path d="M42.9892 29.1064C44.6193 29.1064 45.9408 27.7849 45.9408 26.1548C45.9408 24.5247 44.6193 23.2032 42.9892 23.2032C41.3591 23.2032 40.0377 24.5247 40.0377 26.1548C40.0377 27.7849 41.3591 29.1064 42.9892 29.1064Z" fill="#46587A"/>
<path d="M21.0768 29.1064C22.7069 29.1064 24.0284 27.7849 24.0284 26.1548C24.0284 24.5247 22.7069 23.2032 21.0768 23.2032C19.4467 23.2032 18.1252 24.5247 18.1252 26.1548C18.1252 27.7849 19.4467 29.1064 21.0768 29.1064Z" fill="#46587A"/>
<path d="M32.033 49.1584C34.413 49.1584 36.3424 46.9113 36.3424 44.1394C36.3424 41.3675 34.413 39.1204 32.033 39.1204C29.653 39.1204 27.7237 41.3675 27.7237 44.1394C27.7237 46.9113 29.653 49.1584 32.033 49.1584Z" stroke="#46587A" stroke-width="2"/>
</svg>
