<svg width="64" height="64" viewBox="0 0 64 64" fill="none" xmlns="http://www.w3.org/2000/svg">
<path d="M18.7355 63.0006C16.7026 64.5315 13.7186 64.2964 11.7679 62.3456C11.196 61.7737 10.7726 61.1135 10.4969 60.4135C8.66187 60.9969 6.51762 60.5177 4.99999 59.0001C3.48237 57.4825 3.00324 55.3382 3.58662 53.5032C2.88662 53.2275 2.22637 52.8041 1.65449 52.2322C-0.296258 50.2815 -0.531383 47.2975 0.999492 45.2646C0.921742 45.1956 24.3852 39.6149 24.3852 39.6149C24.3852 39.6149 18.8044 63.0784 18.7355 63.0006Z" fill="#E33131"/>
<path d="M39.6147 24.3853C39.6147 24.3853 45.1955 0.921678 45.2644 0.999553C47.2973 -0.531322 50.2813 -0.296197 52.232 1.65455C52.8039 2.22643 53.2273 2.88668 53.503 3.58668C55.338 3.0033 57.4823 3.48243 58.9999 5.00005C60.5175 6.51768 60.9966 8.66193 60.4133 10.4969C61.1133 10.7727 61.7735 11.1961 62.3454 11.7679C64.2961 13.7187 64.5313 16.7027 63.0004 18.7356C63.0783 18.8044 39.6147 24.3853 39.6147 24.3853Z" fill="#E33131"/>
<path d="M32.0007 32.0005H32.0006L32.0005 32.0007H32.0012L32.0008 32.0002L32.0007 32.0005Z" fill="black"/>
<path fill-rule="evenodd" clip-rule="evenodd" d="M40.9171 11.0878L40.9171 11.0879C43.6085 12.236 46.0339 13.8889 48.0722 15.9289C51.5901 19.4468 53.9588 24.1102 54.5714 29.3136C54.5719 29.317 54.5722 29.3207 54.5725 29.3249C54.6759 30.2016 54.7294 31.0949 54.7286 32.0005C54.7293 39.4381 51.1556 46.0405 45.6342 50.1882C45.6248 50.1954 45.6155 50.2025 45.6062 50.2095C41.8134 53.0476 37.1031 54.7296 32.0005 54.7288C28.7885 54.7288 25.7311 54.0633 22.9609 52.8611L22.9136 52.8404C20.2896 51.6942 17.924 50.0674 15.9287 48.0721C12.4035 44.5468 10.0302 39.8696 9.42503 34.6512L9.4224 34.6292C9.32165 33.7666 9.27127 32.8906 9.27127 31.9997C9.27127 24.575 12.8315 17.983 18.3373 13.835L18.3376 13.8348L18.3372 13.8349C22.1406 10.9685 26.8729 9.27136 31.9995 9.27136C35.1656 9.27136 38.1796 9.91836 40.917 11.0877L40.9171 11.0878Z" fill="#E33131"/>
</svg>
