<svg width="64" height="64" viewBox="0 0 64 64" fill="none" xmlns="http://www.w3.org/2000/svg">
<path fill-rule="evenodd" clip-rule="evenodd" d="M58.6667 5.33337C57.3334 9.70671 56.6934 13.6267 56.6934 17.12C56.6934 21.76 58.24 28.56 58.5867 35.52C57.1924 34.8768 55.6608 34.5875 54.1279 34.6778C52.595 34.7681 51.1081 35.2352 49.799 36.0378C48.4898 36.8403 47.3989 37.9534 46.6229 39.2785C45.8469 40.6036 45.4099 42.0996 45.3505 43.634C45.2911 45.1684 45.6112 46.6938 46.2825 48.0749C46.9537 49.456 47.9554 50.6501 49.1986 51.5514C50.4418 52.4527 51.8882 53.0334 53.4095 53.2419C54.9309 53.4504 56.4801 53.2803 57.92 52.7467C58.08 54.64 58.32 56.6134 58.6667 58.6667C55.84 59.4667 51.2 59.4667 44.72 58.6667C32.7733 58.3467 28.72 57.6 20.8267 57.6C15.5733 57.6 10.4267 57.9734 5.33335 58.6667C5.76001 56.2667 6.05335 53.6 6.26668 50.6667H6.66668C7.89235 50.6352 9.09981 50.3626 10.2201 49.8644C11.3404 49.3662 12.3517 48.6523 13.196 47.7633C14.0404 46.8744 14.7015 45.8278 15.1414 44.6834C15.5813 43.5389 15.7915 42.319 15.76 41.0934C15.7285 39.8677 15.4559 38.6602 14.9577 37.5399C14.4595 36.4196 13.7456 35.4084 12.8566 34.564C11.9677 33.7196 10.9211 33.0586 9.77666 32.6187C8.63223 32.1787 7.41235 31.9685 6.18668 32C5.92001 29.0134 5.54668 26.5067 5.33335 20.64C5.15646 15.5394 5.15646 10.4341 5.33335 5.33337C6.88001 6.32004 10.0533 6.85337 14.8267 6.93337C13.8795 8.39654 13.3609 10.0957 13.3297 11.8384C13.2985 13.5811 13.756 15.2978 14.6502 16.7939C15.5445 18.29 16.8398 19.5058 18.3895 20.3036C19.9392 21.1014 21.6813 21.4494 23.4186 21.308C25.1558 21.1666 26.8188 20.5416 28.2191 19.5038C29.6194 18.4659 30.7011 17.0566 31.3417 15.4356C31.9823 13.8146 32.1562 12.0466 31.8436 10.3319C31.5311 8.61712 30.7446 7.02415 29.5733 5.73337L31.6267 5.33337C36.1067 6.26671 40.8533 6.40004 45.8667 5.68004C45.4651 6.50807 45.2846 7.42592 45.3428 8.34436C45.4009 9.26279 45.6957 10.1505 46.1985 10.9213C46.7013 11.6921 47.395 12.3196 48.2122 12.743C49.0293 13.1663 49.9421 13.3709 50.8617 13.3371C51.7814 13.3032 52.6766 13.0319 53.4604 12.5497C54.2442 12.0674 54.8898 11.3905 55.3346 10.5849C55.7793 9.7792 56.008 8.87216 55.9985 7.95194C55.9889 7.03172 55.7414 6.12962 55.28 5.33337H58.6667ZM26.6667 42.6667C25.2522 42.6667 23.8956 43.2286 22.8954 44.2288C21.8953 45.229 21.3333 46.5856 21.3333 48C21.3333 49.4145 21.8953 50.7711 22.8954 51.7713C23.8956 52.7715 25.2522 53.3334 26.6667 53.3334C28.0812 53.3334 29.4377 52.7715 30.4379 51.7713C31.4381 50.7711 32 49.4145 32 48C32 46.5856 31.4381 45.229 30.4379 44.2288C29.4377 43.2286 28.0812 42.6667 26.6667 42.6667ZM42.6667 18.6667C41.2522 18.6667 39.8956 19.2286 38.8954 20.2288C37.8953 21.229 37.3333 22.5856 37.3333 24C37.3333 25.4145 37.8953 26.7711 38.8954 27.7713C39.8956 28.7715 41.2522 29.3334 42.6667 29.3334C44.0812 29.3334 45.4377 28.7715 46.4379 27.7713C47.4381 26.7711 48 25.4145 48 24C48 22.5856 47.4381 21.229 46.4379 20.2288C45.4377 19.2286 44.0812 18.6667 42.6667 18.6667Z" fill="#FDDB65"/>
</svg>
