<svg width="64" height="64" viewBox="0 0 64 64" fill="none" xmlns="http://www.w3.org/2000/svg">
<path d="M53.4134 7.62671L51.7067 9.86671C50.8 11.12 49.5734 12 48.2934 12C47.0134 12 45.7867 11.04 44.88 9.70671C43.0134 6.93337 40.4 5.36004 37.68 5.33337H37.5734C34.9067 5.33337 32.3467 6.82671 30.4267 9.49337L30.1067 10C28.24 12.6134 25.2267 12.6134 23.36 10L23.1467 9.68004C19.1467 3.97337 12.6667 3.97337 8.69337 9.68004L5.33337 14.4L9.14671 19.8667L12.5334 15.1467C14.4 12.5067 17.4134 12.5067 19.28 15.1467L19.4934 15.4667C23.4667 21.0934 29.5467 21.4667 33.8934 15.5734L34.2134 15.0934C35.12 13.84 36.3467 13.1467 37.6267 13.1467C38.9067 13.1734 40.1067 13.92 41.0134 15.2267C42.9067 18 45.4934 19.8134 48.2134 19.8134C50.9067 19.8134 53.52 18.0534 55.4134 15.28L55.5467 15.12L58.6667 10.96L54.88 5.38671L53.4134 7.62671ZM53.4134 27.0134L51.7067 29.2534C50.8 30.5067 49.5734 31.3867 48.2934 31.3867C47.0134 31.3867 45.7867 30.4267 44.88 29.12C43.0134 26.3467 40.4 24.7467 37.68 24.72H37.5734C34.9067 24.72 32.3467 26.2134 30.4267 28.9067L30.1067 29.3867C28.24 32 25.2267 32 23.36 29.3867L23.1467 29.0667C19.1467 23.36 12.6667 23.36 8.69337 29.0667L5.33337 33.8134L9.14671 39.28L12.5067 34.5334C14.3734 31.92 17.3867 31.92 19.2534 34.5334L19.4667 34.8534C23.44 40.48 29.52 40.8534 33.8667 34.96L34.1867 34.48C35.0934 33.2267 36.32 32.5334 37.6 32.56C38.88 32.56 40.08 33.3067 40.9867 34.6134C42.88 37.3867 45.4667 39.2 48.1867 39.2267C50.88 39.2267 53.4934 37.44 55.3867 34.6934L55.52 34.5334L58.6667 30.3467L54.88 24.8L53.4134 27.0134ZM53.4134 46.4L51.7067 48.64C50.8 49.8934 49.5734 50.7734 48.2934 50.7734C47.0134 50.7734 45.7867 49.8134 44.88 48.5067C43.0134 45.7334 40.4 44.16 37.68 44.1334H37.5734C34.9067 44.1334 32.3467 45.6 30.4267 48.2934L30.1067 48.7734C28.24 51.3867 25.2267 51.3867 23.36 48.7734L23.1467 48.48C19.1467 42.7734 12.6667 42.7734 8.69337 48.48L5.33337 53.2L9.14671 58.6667L12.5067 53.9467C14.3734 51.28 17.3867 51.28 19.2534 53.9467L19.4667 54.24C23.44 59.8934 29.52 60.2667 33.8667 54.3467L34.1867 53.8667C35.0934 52.6134 36.32 51.92 37.6 51.9467C38.88 51.9467 40.08 52.6934 40.9867 54C42.88 56.7734 45.4667 58.5867 48.1867 58.6134C50.88 58.6134 53.4934 56.8267 55.3867 54.08L55.52 53.92L58.6667 49.7334L54.88 44.1867L53.4134 46.4Z" fill="#DB9C30"/>
</svg>
