<svg width="64" height="64" viewBox="0 0 64 64" fill="none" xmlns="http://www.w3.org/2000/svg">
<path fill-rule="evenodd" clip-rule="evenodd" d="M38.9333 36.9333C38.9333 36.9333 38 36.56 37.1467 36.08C36.48 35.68 33.36 40.24 33.36 40.24L33.52 37.36C33.4667 36.9866 33.6 35.5733 33.52 35.5466C32 36.08 29.9733 36.1866 29.9733 36.1866C29.9733 36.1866 29.8933 36.1866 29.8133 37.52L29.5467 40.56L24.48 35.84L23.4933 35.52L22.2133 35.2C22.2133 35.2 22.9333 37.2533 24.56 38.9333C29.1733 44.48 29.4667 46.48 29.2533 51.2C29.0133 53.7333 28.4533 56.0533 28 57.2C27.68 58.0533 26 58.6666 26 58.6666C26 58.6666 26.5333 59.0933 28.64 59.0933C29.6533 59.0933 32.48 58.5866 33.6267 58.5066C34.2933 58.4533 35.2533 58.6933 35.9467 58.72C36.8 58.72 37.3333 58.5066 37.3333 58.5066C37.3333 58.5066 34.7467 57.7866 34.3733 56.9066C34.08 56.2933 33.84 55.4666 33.84 55.4666C33.84 55.4666 33.0933 52.5333 33.7067 45.8666C34.3123 42.3488 36.1801 39.1726 38.96 36.9333H38.9333ZM52.1867 22.8C52.1867 22.8 53.3867 17.0666 51.2267 14.5333C48.8533 11.7866 44.0267 11.7066 44.0267 11.7066C44.0267 11.7066 41.1467 6.10663 37.6267 5.46663C33.1467 4.6933 28.4533 7.4133 28.4533 7.4133C28.4533 7.4133 25.7333 5.0133 19.7867 6.07997C15.3333 6.8533 14.9067 11.52 14.9067 11.52C14.9067 11.52 10.8533 11.36 9.20001 13.6C7.41335 16.0266 9.30668 21.1466 9.30668 21.1466C9.30668 21.1466 7.44001 23.8133 8.16001 26.8266C8.80001 29.44 12.6133 29.5466 12.6133 29.5466C12.6133 29.5466 13.3333 33.68 16.64 33.84C19.3067 33.9733 22.24 32.48 22.24 32.48C22.24 32.48 25.6 34 29.0133 33.9466C32.5333 33.8933 36.1333 32.2666 36.1333 32.2666C36.1333 32.2666 38.72 34.72 41.9467 35.4133C45.1733 36.1333 47.9733 32.48 47.9733 32.48C47.9733 32.48 52.0267 33.28 53.3867 30.1866C54.8267 26.8266 52.1867 22.8266 52.1867 22.8266" fill="#724821"/>
</svg>
