<svg width="64" height="64" viewBox="0 0 64 64" fill="none" xmlns="http://www.w3.org/2000/svg">
<path fill-rule="evenodd" clip-rule="evenodd" d="M12.0625 0H51.9375V32.6099C52.0611 32.5101 52.1829 32.4088 52.3048 32.3075C52.6406 32.0283 52.9763 31.7491 53.3487 31.5008C54.099 31.0005 54.9986 30.625 56.3487 30.625V33.625V39.1738V42.1738V64H7.65125V42.1738V39.1738V33.625V30.625C9.00166 30.625 9.90096 31.0011 10.6512 31.5019C11.0227 31.7499 11.3576 32.0284 11.6926 32.3071C11.8153 32.4091 11.938 32.5112 12.0625 32.6118V0ZM15.8125 33.9948C17.8049 33.979 18.8106 33.1445 19.8162 32.31C20.8316 31.4675 21.8469 30.625 23.8775 30.625C23.9543 30.625 24.0298 30.6262 24.1038 30.6286V26.53H15.8125V33.9948ZM27.8538 32.2404C27.8817 32.2635 27.9095 32.2867 27.9374 32.3098C28.9527 33.1524 29.968 33.995 31.9987 33.995H32C34.0298 33.9944 35.0448 33.152 36.0597 32.3098C36.0886 32.2858 36.1174 32.2619 36.1463 32.238V26.53H27.8538V32.2404ZM39.8963 30.6285C39.9694 30.6262 40.044 30.625 40.12 30.625C42.1506 30.625 43.1659 31.4675 44.1812 32.31C45.1873 33.1449 46.1935 33.9797 48.1875 33.9948V26.53H39.8963V30.6285ZM24.1038 22.78H15.8125V15.14H24.1038V22.78ZM24.1038 11.39H15.8125V3.75H24.1038V11.39ZM36.1463 22.78H27.8538V15.14H36.1463V22.78ZM36.1463 11.39H27.8538V3.75H36.1463V11.39ZM48.1875 22.78H39.8963V15.14H48.1875V22.78ZM48.1875 11.39H39.8963V3.75H48.1875V11.39ZM53.3487 35.3124C52.2423 36.1326 50.6656 36.995 48.2425 36.995C45.1286 36.995 43.4122 35.5704 42.2958 34.6438L42.2655 34.6187C41.3505 33.8594 41.0391 33.625 40.12 33.625C39.2015 33.625 38.8904 33.8592 37.9759 34.6181L37.9452 34.6435C36.8293 35.5698 35.1136 36.994 32.0009 36.995H32H31.9987C28.8846 36.995 27.1682 35.5702 26.0518 34.6435L26.0217 34.6185C25.1067 33.8591 24.7956 33.625 23.8775 33.625C22.9584 33.625 22.647 33.8594 21.732 34.6187L21.7017 34.6438C20.5852 35.5704 18.8689 36.995 15.755 36.995C13.3338 36.995 11.7576 36.1339 10.6512 35.3142V39.6931C11.9799 40.1924 12.8942 40.9531 13.5792 41.523L13.6144 41.5522C14.5246 42.3092 14.8362 42.5438 15.755 42.5438C16.6741 42.5438 16.9855 42.3093 17.9005 41.5501L17.9308 41.5249C19.0472 40.5983 20.7636 39.1738 23.8775 39.1738C26.9907 39.1738 28.7069 40.5984 29.8229 41.5248L29.8536 41.5502C30.7682 42.3093 31.0797 42.5438 31.9987 42.5438H31.9991H32C32.918 42.5433 33.2295 42.3088 34.1441 41.5497L34.1741 41.5248C35.2904 40.5982 37.0065 39.1738 40.12 39.1738C43.2339 39.1738 44.9502 40.5983 46.0667 41.5249L46.097 41.5501C47.012 42.3093 47.3234 42.5438 48.2425 42.5438C49.1613 42.5438 49.4729 42.3093 50.3837 41.552L50.4183 41.5232C51.104 40.9529 52.0189 40.1919 53.3487 39.6927V35.3124Z" fill="#805414"/>
</svg>
