<svg width="64" height="64" viewBox="0 0 64 64" fill="none" xmlns="http://www.w3.org/2000/svg">
<path fill-rule="evenodd" clip-rule="evenodd" d="M47.7334 10.6666C48.0534 10.6666 48.3467 10.8 48.56 11.04C48.7734 11.2533 48.88 11.5733 48.8267 11.8933C48.8267 11.8933 48.88 13.2 48.8 15.36C54.08 17.28 57.52 22.1333 56.8 27.36C56.5452 28.9834 55.9411 30.5323 55.0295 31.8996C54.118 33.267 52.9206 34.4203 51.52 35.28C49.6534 36.4533 47.52 37.2 45.28 37.4133C42.2934 46.6133 36.8534 54.7466 26.9067 54.7466C4.10669 54.7733 5.33335 11.92 5.33335 11.92V11.68C5.36347 11.4495 5.46621 11.2347 5.62669 11.0666C5.84002 10.8266 6.16002 10.6933 6.48002 10.6933L47.7334 10.6666ZM48.64 18.4L48.6134 18.88C48.2934 23.1466 47.6267 28.8533 46.1334 34.4533C47.3067 34.1866 48.4267 33.7333 49.44 33.0933C50.5046 32.4333 51.4134 31.5504 52.104 30.5054C52.7945 29.4603 53.2503 28.2781 53.44 27.04C53.6296 25.284 53.2698 23.5126 52.41 21.9698C51.5503 20.4271 50.2331 19.1891 48.64 18.4266V18.4Z" fill="#805414"/>
</svg>
