<svg width="64" height="64" viewBox="0 0 64 64" fill="none" xmlns="http://www.w3.org/2000/svg">
<path d="M10.5067 24.9791C10.1698 27.7141 10.4303 30.5514 11.2882 33.4909C12.2889 36.9274 14.0213 39.8812 16.1445 42.5619C16.8827 43.5219 17.7063 44.4131 18.6052 45.2247V54.3543C18.6052 54.8737 18.8115 55.3718 19.1787 55.7391C19.546 56.1063 20.0441 56.3126 20.5635 56.3126H34.1742C34.6936 56.3126 35.1918 56.1063 35.559 55.7391C35.9263 55.3718 36.1326 54.8737 36.1326 54.3543V51.796C39.0436 52.0642 41.4568 52.0759 42.8111 52.2462C43.5114 52.3181 44.2129 52.4242 44.9138 52.4239C45.7348 52.4236 46.5296 52.2092 47.2096 51.6487C47.987 51.008 48.2036 50.0758 48.2144 49.0481C48.2361 46.9848 48.2677 44.9215 48.2749 42.8582C48.276 42.5336 48.3743 42.4076 48.6369 42.3466C49.3143 42.1895 49.9888 42.0154 50.6635 41.843C51.7808 41.5574 52.1763 40.1609 51.4106 39.204C51.2506 39.004 51.0789 38.8159 50.9129 38.6221C49.8986 37.4378 48.9256 36.2177 48.186 34.7828C47.8124 34.0684 47.6405 33.2658 47.6888 32.4611C47.7202 31.8967 47.7505 31.3281 47.8377 30.7726C48.0714 29.283 48.12 27.7952 47.8362 26.3124C47.7495 25.8596 47.6538 25.4151 47.5491 24.9791" stroke="#46587A" stroke-width="2"/>
<path d="M33.4906 26.189L28.5071 30.0059L19.0374 13.7307C18.8771 13.4627 18.8248 13.1437 18.891 12.8384C18.9572 12.5332 19.137 12.2646 19.394 12.087C19.634 11.9212 19.9251 11.846 20.2154 11.875C20.5056 11.9039 20.7762 12.035 20.9788 12.2449L33.4906 26.189Z" stroke="#46587A" stroke-width="2"/>
<path d="M33.8135 33.6563L35.4893 32.374L33.4906 26.1891L28.507 30.006L33.8135 33.6563Z" stroke="#46587A" stroke-width="2"/>
<path d="M33.1221 19.7028C33.9195 19.7028 34.5659 19.0564 34.5659 18.2591C34.5659 17.4617 33.9195 16.8153 33.1221 16.8153C32.3248 16.8153 31.6784 17.4617 31.6784 18.2591C31.6784 19.0564 32.3248 19.7028 33.1221 19.7028Z" stroke="#46587A" stroke-width="2"/>
<path d="M20.9788 28.546C21.7525 28.546 22.3797 27.9187 22.3797 27.145C22.3797 26.3713 21.7525 25.744 20.9788 25.744C20.205 25.744 19.5778 26.3713 19.5778 27.145C19.5778 27.9187 20.205 28.546 20.9788 28.546Z" stroke="#46587A" stroke-width="2"/>
<path d="M26.7802 33.8581C27.154 33.0927 26.8366 32.1692 26.0712 31.7954C25.3059 31.4216 24.3824 31.739 24.0086 32.5044C23.6348 33.2697 23.9522 34.1932 24.7175 34.567C25.4829 34.9408 26.4063 34.6234 26.7802 33.8581Z" stroke="#46587A" stroke-width="2"/>
<path d="M38.8761 29.5417C37.0683 28.0594 35.4553 24.8845 37.4785 22.9265C38.2343 22.195 39.2461 21.7991 40.2394 21.4533C40.9501 21.2058 41.7796 21.0763 42.4234 20.6733C43.8095 19.8055 42.6253 18.1892 41.9127 17.2805C38.4969 12.9246 31.0888 9.40716 25.9261 12.7628L25.8388 12.8202" stroke="#46587A" stroke-width="2"/>
<path d="M18.6071 18.8726C18.6071 18.8726 13.2328 26.1236 18.6159 33.1721C23.9989 40.2206 31.8793 39.2909 31.8793 39.2909" stroke="#46587A" stroke-width="2"/>
<path d="M38.1402 40.6356C38.6803 40.7637 39.8316 38.9221 40.0449 36.9629C40.1178 36.2928 40.2506 35.0733 39.4945 33.9126C39.3043 33.6207 38.6669 32.6422 37.3913 32.3588C35.9733 32.0437 34.8866 32.8365 34.7451 32.9434C34.6496 33.0155 33.058 34.2549 33.4684 35.7536C33.8449 37.1285 35.7104 37.8057 36.6795 37.5109C36.7941 37.476 36.8693 37.4357 36.9853 37.458C37.8327 37.6216 37.5032 40.4844 38.1402 40.6356Z" stroke="#46587A" stroke-width="2"/>
</svg>
