<svg width="64" height="64" viewBox="0 0 64 64" fill="none" xmlns="http://www.w3.org/2000/svg">
<g clip-path="url(#clip0)">
<path fill-rule="evenodd" clip-rule="evenodd" d="M37.1438 0V3.75H36.8775C35.9748 3.75 35.1642 4.14991 34.6135 4.78195C36.4792 5.73387 37.7563 7.67354 37.7563 9.9125C37.7563 12.4025 36.1751 14.5238 33.9626 15.3263V17.86H30.0376V15.3263C27.8251 14.5238 26.2438 12.4025 26.2438 9.9125C26.2438 7.22544 28.0833 4.96946 30.5721 4.33462C30.8965 3.49116 31.3857 2.72898 32 2.0875C33.23 0.80125 34.9613 0 36.8775 0H37.1438ZM61.5688 33.3699C61.5688 36.9662 58.4413 39.7937 54.8701 39.3712L54.8481 39.3686L51.2013 64H12.7988L9.15197 39.3686L9.13005 39.3712C5.5588 39.7937 2.4313 36.9662 2.4313 33.3699C2.4313 30.0349 5.13506 27.3312 8.47006 27.3312H55.5301C57.1976 27.3312 58.7076 28.0074 59.8001 29.0999C60.8926 30.1924 61.5688 31.7024 61.5688 33.3699ZM46.7838 42.3987C45.7407 42.3987 44.992 42.1544 44.3715 41.8037L42.98 60.25H47.965L50.8844 40.5338C50.7478 40.6426 50.614 40.7536 50.4801 40.8647C49.5561 41.6317 48.6321 42.3987 46.7838 42.3987ZM35.695 40.8651C35.1511 41.3165 34.6073 41.7679 33.875 42.0629V60.25H39.2188L40.7836 39.5046C40.3818 39.3951 39.9251 39.3312 39.3913 39.3312C37.543 39.3312 36.619 40.0982 35.695 40.8651ZM24.6076 39.3312C24.0743 39.3312 23.618 39.395 23.2164 39.5043L24.7813 60.25H30.125V42.0631C29.3921 41.7681 28.848 41.3165 28.3038 40.8649C27.3797 40.0981 26.4557 39.3312 24.6076 39.3312ZM13.52 40.865C13.3862 40.7539 13.2523 40.6428 13.1156 40.534L16.035 60.25H21.02L19.6285 41.803C19.0078 42.1541 18.2588 42.3987 17.2151 42.3987C15.3677 42.3987 14.444 41.6319 13.5201 40.8651L13.52 40.865Z" fill="#8A5221"/>
<path d="M50.3794 27.034L50.3799 27.0336C51.8246 26.0003 52.6781 24.3017 52.68 22.4883V22.4824C52.68 19.3619 50.1502 16.8312 47.0288 16.8312H16.9713C13.8487 16.8312 11.3171 19.3641 11.32 22.4873L11.32 22.4887L11.32 22.4895L50.3794 27.034ZM50.3794 27.034C49.9624 27.3325 49.6355 27.6013 49.3504 27.8358M50.3794 27.034L49.3504 27.8358M49.3504 27.8358C48.5325 28.5083 48.0578 28.8987 46.7838 28.8987M49.3504 27.8358L46.7838 28.8987M46.7838 28.8987C45.4915 28.8987 44.9194 28.4359 44.0455 27.7106M46.7838 28.8987L44.0455 27.7106M44.0455 27.7106L44.0281 27.6962M44.0455 27.7106L44.0281 27.6962M44.0281 27.6962C43.0561 26.8895 41.781 25.8312 39.3913 25.8312M44.0281 27.6962L39.3913 25.8312M39.3913 25.8312C37.0014 25.8312 35.7263 26.8896 34.7543 27.6965M39.3913 25.8312L34.7543 27.6965M34.7543 27.6965L34.7372 27.7107M34.7543 27.6965L34.7372 27.7107M34.7372 27.7107C33.8633 28.4361 33.2915 28.8987 32 28.8987M34.7372 27.7107L32 28.8987M32 28.8987C30.7078 28.8987 30.1356 28.4359 29.2617 27.7106M32 28.8987L29.2617 27.7106M29.2617 27.7106L29.2443 27.6962M29.2617 27.7106L29.2443 27.6962M29.2443 27.6962C28.2723 26.8894 26.9972 25.8312 24.6075 25.8312M29.2443 27.6962L24.6075 25.8312M24.6075 25.8312C22.2179 25.8312 20.9428 26.8894 19.9708 27.6962M24.6075 25.8312L19.9708 27.6962M19.9708 27.6962L19.9534 27.7106M19.9708 27.6962L19.9534 27.7106M19.9534 27.7106C19.0794 28.4359 18.5073 28.8987 17.215 28.8987M19.9534 27.7106L17.215 28.8987M17.215 28.8987C15.9419 28.8987 15.4683 28.5093 14.652 27.8382M17.215 28.8987L14.652 27.8382M14.652 27.8382C14.3662 27.6033 14.0385 27.3339 13.6199 27.0346L14.652 27.8382Z" stroke="#8A5221" stroke-width="3"/>
</g>
<defs>
<clipPath id="clip0">
<rect width="64" height="64" fill="white"/>
</clipPath>
</defs>
</svg>
