<svg width="64" height="64" viewBox="0 0 64 64" fill="none" xmlns="http://www.w3.org/2000/svg">
<path d="M52.24 15.1734C52.2401 15.5224 52.1033 15.8576 51.859 16.1069C51.6146 16.3562 51.2823 16.4997 50.9333 16.5067H37.8133C37.469 16.4929 37.1434 16.3464 36.9048 16.0978C36.6662 15.8492 36.5331 15.5179 36.5333 15.1734V12.3467C36.5333 11.6 37.0933 11.0134 37.8133 11.0134H50.9333C51.2823 11.0204 51.6146 11.1639 51.859 11.4132C52.1033 11.6625 52.2401 11.9977 52.24 12.3467V15.1734ZM52.24 5.33337H36.5067C35.6487 5.34382 34.8012 5.52316 34.0125 5.86118C33.2238 6.19919 32.5095 6.68925 31.9102 7.30337C31.3109 7.91749 30.8385 8.64364 30.5199 9.44034C30.2013 10.2371 30.0428 11.0887 30.0533 11.9467V18.4L29.4667 18.9334C29.4443 18.8059 29.3891 18.6864 29.3067 18.5867L26.3733 15.6C26.248 15.4744 26.0807 15.3995 25.9035 15.3897C25.7264 15.3798 25.5518 15.4357 25.4133 15.5467L24.2133 16.56C21.8133 13.4667 16.48 7.94671 8.66667 7.94671H6.85334C6.44777 7.9537 6.06119 8.11974 5.77688 8.40904C5.49256 8.69834 5.33328 9.08775 5.33334 9.49337V13.2C5.33334 14.0534 6.02667 14.7467 6.85334 14.7467H8.66667C13.7867 14.7467 17.5733 18.9334 19.1467 20.9867L18.0267 21.9734C17.9473 22.0419 17.8827 22.1259 17.8368 22.2202C17.7908 22.3145 17.7646 22.4172 17.7596 22.5219C17.7546 22.6267 17.771 22.7314 17.8077 22.8296C17.8445 22.9279 17.9008 23.0176 17.9733 23.0934L20.88 26.08L21.0667 26.2134L18.88 28.1334C17.5467 29.3867 16.7467 31.1734 16.7467 33.04V52.0534C16.7361 52.9114 16.8946 53.763 17.2132 54.5597C17.5318 55.3564 18.0043 56.0826 18.6035 56.6967C19.2028 57.3108 19.9171 57.8009 20.7058 58.1389C21.4945 58.4769 22.342 58.6563 23.2 58.6667H52.24C53.9681 58.6386 55.6147 57.9269 56.8193 56.6874C58.0238 55.4479 58.6881 53.7816 58.6667 52.0534V11.9467C58.6881 10.2185 58.0238 8.55218 56.8193 7.31268C55.6147 6.07317 53.9681 5.36146 52.24 5.33337Z" fill="#A4601C"/>
</svg>
