<svg width="64" height="64" viewBox="0 0 64 64" fill="none" xmlns="http://www.w3.org/2000/svg">
<path d="M38.24 31.8667L33.8133 36.2667C33.0933 36.9867 32.08 37.3867 31.0133 37.3867C29.8748 37.3844 28.7782 36.9563 27.9393 36.1865C27.1004 35.4167 26.5799 34.3609 26.48 33.2267C26.4 32.0267 26.8 30.88 27.6267 30.08L32 25.7067L26.4 20.1067C25.3871 19.1084 24.0221 18.5488 22.6 18.5488C21.1779 18.5488 19.8129 19.1084 18.8 20.1067C8.98667 29.84 6.16 39.52 5.46667 45.8934C4.88 51.76 5.94667 56.0534 6.32 57.2267C27.3067 63.8934 43.6533 45.2267 43.7867 45.04C44.2901 44.5478 44.691 43.9607 44.9664 43.3127C45.2417 42.6647 45.386 41.9686 45.391 41.2645C45.3959 40.5604 45.2614 39.8623 44.9952 39.2105C44.729 38.5587 44.3364 37.966 43.84 37.4667L38.2133 31.8667H38.24ZM54.3467 5.33337C53.2 5.33337 52.1067 5.78671 51.3067 6.58671L39.4667 19.6534L40.5333 20.72L29.3333 31.7867C29.1723 31.9499 29.0503 32.1474 28.9764 32.3645C28.9025 32.5815 28.8787 32.8125 28.9067 33.04C28.9333 33.52 29.1733 33.9734 29.5467 34.3467C29.9383 34.7325 30.4637 34.9522 31.0133 34.96C31.4133 34.96 31.8133 34.8267 32.08 34.56L43.28 23.4667L44.24 24.4267L57.44 12.6134C58.2344 11.81 58.6777 10.7243 58.6727 9.59453C58.6677 8.46472 58.2148 7.38303 57.4133 6.58671C56.6133 5.78671 55.4933 5.33337 54.3467 5.33337Z" fill="#8A5221"/>
</svg>
