<svg width="64" height="64" viewBox="0 0 64 64" fill="none" xmlns="http://www.w3.org/2000/svg">
<path d="M21.2211 37.6793C21.9308 39.984 23.3605 42.0006 25.3005 43.4331C27.2404 44.8656 29.5885 45.6385 32 45.6385C34.4115 45.6385 36.7596 44.8656 38.6995 43.4331C40.6395 42.0006 42.0692 39.984 42.7789 37.6793" stroke="#46587A" stroke-width="2"/>
<path d="M32.1515 55.4706C44.9868 55.4706 55.3919 45.0656 55.3919 32.2303C55.3919 19.395 44.9868 8.98999 32.1515 8.98999C19.3163 8.98999 8.91121 19.395 8.91121 32.2303C8.91121 45.0656 19.3163 55.4706 32.1515 55.4706Z" stroke="#46587A" stroke-width="2"/>
<path d="M43.1077 33.0453C47.1178 33.0453 50.3686 29.7945 50.3686 25.7844C50.3686 21.7744 47.1178 18.5236 43.1077 18.5236C39.0977 18.5236 35.8469 21.7744 35.8469 25.7844C35.8469 29.7945 39.0977 33.0453 43.1077 33.0453Z" stroke="#46587A" stroke-width="2"/>
<path d="M21.1953 33.0453C25.2054 33.0453 28.4562 29.7945 28.4562 25.7844C28.4562 21.7744 25.2054 18.5236 21.1953 18.5236C17.1853 18.5236 13.9345 21.7744 13.9345 25.7844C13.9345 29.7945 17.1853 33.0453 21.1953 33.0453Z" stroke="#46587A" stroke-width="2"/>
<path d="M43.1077 28.736C44.7379 28.736 46.0593 27.4146 46.0593 25.7845C46.0593 24.1543 44.7379 22.8329 43.1077 22.8329C41.4776 22.8329 40.1562 24.1543 40.1562 25.7845C40.1562 27.4146 41.4776 28.736 43.1077 28.736Z" fill="#46587A"/>
<path d="M21.1953 28.736C22.8254 28.736 24.1469 27.4146 24.1469 25.7845C24.1469 24.1543 22.8254 22.8329 21.1953 22.8329C19.5652 22.8329 18.2437 24.1543 18.2437 25.7845C18.2437 27.4146 19.5652 28.736 21.1953 28.736Z" fill="#46587A"/>
</svg>
