<svg width="64" height="64" viewBox="0 0 64 64" fill="none" xmlns="http://www.w3.org/2000/svg">
<path d="M31.7867 26.88C32.4597 26.8303 33.1357 26.9199 33.7725 27.1433C34.4092 27.3667 34.9931 27.719 35.4875 28.1783C35.9819 28.6375 36.3763 29.1938 36.646 29.8124C36.9157 30.431 37.0549 31.0985 37.0549 31.7733C37.0549 32.4481 36.9157 33.1157 36.646 33.7343C36.3763 34.3528 35.9819 34.9091 35.4875 35.3684C34.9931 35.8276 34.4092 36.18 33.7725 36.4034C33.1357 36.6267 32.4597 36.7164 31.7867 36.6667C30.5513 36.5754 29.3962 36.0202 28.5531 35.1126C27.7101 34.205 27.2415 33.0121 27.2415 31.7733C27.2415 30.5346 27.7101 29.3417 28.5531 28.434C29.3962 27.5264 30.5513 26.9713 31.7867 26.88ZM39.7867 31.2C39.7867 31.2 60.9601 36.9333 58.4534 26.72C55.9734 16.5067 39.7867 31.2 39.7867 31.2ZM38.1867 27.4133C38.1867 27.4133 59.6534 21.76 52.2667 14.0267C44.9067 6.29333 38.1867 27.4133 38.1867 27.4133ZM34.9334 24.7467C34.9334 24.7467 50.1334 9.14666 40.2667 6.16C30.4001 3.17333 34.9334 24.72 34.9334 24.72V24.7467ZM31.2001 24.1867C31.2001 24.1867 36.9334 3.04 26.7201 5.52C16.5067 8.02666 31.2001 24.1867 31.2001 24.1867ZM27.4134 26.32C27.4134 26.32 21.7601 4.93333 14.0267 12.2667C6.29339 19.6267 27.4134 26.3467 27.4134 26.3467V26.32ZM24.7467 29.5467C24.7467 29.5467 9.12005 13.52 6.13338 23.9467C3.14672 34.3467 24.6934 29.5467 24.6934 29.5467H24.7467ZM24.1601 33.3333C24.1601 33.3333 3.01338 27.6 5.49338 37.8133C8.00005 48.0267 24.1601 33.3333 24.1601 33.3333ZM26.2934 37.12C26.2934 37.12 4.88005 42.7733 12.2401 50.5067C19.6001 58.24 26.3201 37.12 26.3201 37.12H26.2934ZM29.0401 39.7867C29.0401 39.7867 13.8401 55.3867 23.7067 58.3733C33.5734 61.36 29.0401 39.8133 29.0401 39.8133V39.7867ZM33.3067 39.8133C33.3067 39.8133 27.5734 60.96 37.7867 58.48C48.0001 55.9733 33.3067 39.8133 33.3067 39.8133ZM36.5601 38.2133C36.5601 38.2133 42.2134 59.6533 49.9467 52.2667C57.68 44.9067 36.5601 38.1867 36.5601 38.1867V38.2133ZM39.2267 34.9867C39.2267 34.9867 54.8267 51.0133 57.8134 40.5867C60.8001 30.1867 39.2534 34.9867 39.2534 34.9867" fill="#FF7EC5"/>
</svg>
