<svg width="64" height="64" viewBox="0 0 64 64" fill="none" xmlns="http://www.w3.org/2000/svg">
<path d="M32.033 19.0911V24.8006" stroke="#46587A" stroke-width="2"/>
<path d="M32.033 37.7782V43.4877" stroke="#46587A" stroke-width="2"/>
<path d="M44.2314 31.2893H38.5193" stroke="#46587A" stroke-width="2"/>
<path d="M25.5441 31.2893H19.8347" stroke="#46587A" stroke-width="2"/>
<path d="M32.033 44.7656C44.8709 44.7656 55.2781 38.732 55.2781 31.2893C55.2781 23.8466 44.8709 17.8131 32.033 17.8131C19.1951 17.8131 8.7879 23.8466 8.7879 31.2893C8.7879 38.732 19.1951 44.7656 32.033 44.7656Z" stroke="#46587A" stroke-width="2"/>
<path d="M32.033 37.7783C35.6167 37.7783 38.5219 34.8731 38.5219 31.2894C38.5219 27.7057 35.6167 24.8005 32.033 24.8005C28.4493 24.8005 25.5442 27.7057 25.5442 31.2894C25.5442 34.8731 28.4493 37.7783 32.033 37.7783Z" stroke="#46587A" stroke-width="2"/>
<path d="M32.0331 41.3681C37.5994 41.3681 42.1118 36.8557 42.1118 31.2893C42.1118 25.723 37.5994 21.2106 32.0331 21.2106C26.4667 21.2106 21.9543 25.723 21.9543 31.2893C21.9543 36.8557 26.4667 41.3681 32.0331 41.3681Z" stroke="#46587A" stroke-width="2"/>
<path d="M32.033 32.8538C32.8971 32.8538 33.5975 32.1534 33.5975 31.2893C33.5975 30.4253 32.8971 29.7249 32.033 29.7249C31.169 29.7249 30.4686 30.4253 30.4686 31.2893C30.4686 32.1534 31.169 32.8538 32.033 32.8538Z" stroke="#46587A" stroke-width="2"/>
</svg>
