<svg width="64" height="64" viewBox="0 0 64 64" fill="none" xmlns="http://www.w3.org/2000/svg">
<path d="M50.0267 45.7867L49.84 45.6533C49.2267 46.4533 48.32 46.9867 47.28 47.0667L47.0933 47.0933V47.28C46.96 48.3467 46.48 49.2267 45.6533 49.8933C42.5382 52.2801 38.8507 53.8066 34.96 54.32L34.48 54.3466C33.6267 54.3466 32.7733 54.08 32.1067 53.52L31.9733 53.4133L31.8133 53.52C31.4096 53.8546 30.939 54.0991 30.4331 54.2371C29.9272 54.3751 29.3977 54.4033 28.88 54.32C25.0156 53.7992 21.3558 52.2727 18.2667 49.8933C17.877 49.5898 17.5514 49.2119 17.3088 48.7816C17.0662 48.3513 16.9114 47.8772 16.8533 47.3867L16.8267 47.2H16.64C15.6533 47.0667 14.7733 46.56 14.16 45.7867C11.7753 42.6804 10.2488 39.002 9.73332 35.12C9.57332 34.1067 9.86666 33.0667 10.5333 32.1867L10.64 32.0533L10.5333 31.8933C9.89332 31.1733 9.57332 30.0533 9.73332 29.0133C10.2667 25.0933 11.7867 21.4133 14.16 18.3467C14.7733 17.5467 15.7067 17.0133 16.72 16.9333L16.9067 16.9067V16.72C17.04 15.6533 17.52 14.7733 18.3467 14.1067C21.4618 11.7199 25.1493 10.1933 29.04 9.67999L29.52 9.65332C30.3733 9.65332 31.2267 9.91999 31.8933 10.48L32.0267 10.5867L32.1867 10.48C32.5895 10.1438 33.06 9.89838 33.5661 9.76033C34.0723 9.62229 34.6023 9.59488 35.12 9.67999C38.9867 10.2133 42.6667 11.7333 45.7333 14.1067C46.5333 14.6933 47.0133 15.6 47.1467 16.6133L47.1733 16.8H47.36C48.3467 16.9333 49.2267 17.44 49.84 18.2133C52.2225 21.3208 53.7488 24.9986 54.2667 28.88C54.4267 29.8933 54.1333 30.9333 53.4667 31.8133L53.36 31.9467L53.4667 32.1067C54.1333 32.8267 54.4267 33.9467 54.2667 34.9867C53.75 38.8683 52.2236 42.5464 49.84 45.6533L50.0267 45.7867ZM51.28 13.4133L51.12 13.2533L51.0667 13.28L50.8533 13.0667C45.8238 8.10237 39.037 5.32553 31.9702 5.34051C24.9034 5.3555 18.1284 8.16108 13.12 13.1467C8.19333 18.1232 5.40324 24.8259 5.34348 31.8283C5.28371 38.8308 7.95899 45.5801 12.8 50.64L13.1467 50.9067C18.1552 55.8884 24.9358 58.6793 32 58.6667C35.5151 58.6764 38.9974 57.9912 42.2467 56.6503C45.496 55.3093 48.4482 53.3393 50.9333 50.8533C55.8451 45.8829 58.6306 39.1965 58.7003 32.2089C58.7699 25.2213 56.1184 18.4807 51.3067 13.4133H51.28ZM36.88 29.8667C37.0933 30.4 37.5467 30.72 38.0533 30.72H50.56C50.96 30.72 51.3067 30.56 51.52 30.2933C51.7867 29.9733 51.8933 29.6267 51.84 29.28C51.3714 25.8183 50.0115 22.5378 47.8933 19.76C47.7726 19.6274 47.6263 19.5206 47.4633 19.4459C47.3003 19.3711 47.1239 19.33 46.9447 19.3251C46.7654 19.3201 46.587 19.3513 46.4201 19.4169C46.2532 19.4824 46.1012 19.581 45.9733 19.7067L37.1467 28.5067C36.9726 28.6758 36.8539 28.8939 36.8063 29.1319C36.7586 29.37 36.7844 29.6168 36.88 29.84V29.8667ZM35.3867 37.12C35.2076 36.9403 34.9793 36.8179 34.7306 36.7683C34.4819 36.7186 34.224 36.744 33.9897 36.8411C33.7554 36.9383 33.5553 37.1028 33.4147 37.3139C33.2741 37.525 33.1994 37.773 33.2 38.0267V50.5333C33.2 51.2533 33.76 51.84 34.48 51.84H34.7467C38.163 51.354 41.3961 49.9946 44.1333 47.8933C44.4 47.7066 44.5867 47.3867 44.6133 46.9867C44.6253 46.7987 44.5957 46.6105 44.5265 46.4353C44.4574 46.2602 44.3504 46.1024 44.2133 45.9733L35.3867 37.12ZM51.5733 33.6533C51.4499 33.5128 51.2982 33.3998 51.1282 33.3217C50.9582 33.2436 50.7737 33.2021 50.5867 33.2H38.0533C37.52 33.2 37.0933 33.4933 36.88 34C36.7777 34.2352 36.7485 34.4956 36.796 34.7476C36.8436 34.9997 36.9657 35.2316 37.1467 35.4133L46.0267 44.2667C46.1708 44.384 46.3374 44.4706 46.5163 44.521C46.6951 44.5715 46.8825 44.5847 47.0667 44.56C47.2344 44.5515 47.3988 44.5093 47.55 44.436C47.7012 44.3627 47.8361 44.2598 47.9467 44.1333C50.0662 41.3691 51.4184 38.0943 51.8667 34.64C51.894 34.4641 51.8819 34.2843 51.8312 34.1136C51.7804 33.9429 51.6923 33.7857 51.5733 33.6533ZM29.4133 36.72C29.2526 36.7173 29.0932 36.7493 28.946 36.8137C28.7988 36.8782 28.6671 36.9735 28.56 37.0933L19.7067 45.9733C19.44 46.24 19.28 46.6133 19.3067 46.9867C19.3333 47.3333 19.52 47.6533 19.7867 47.8667C22.5936 50.0218 25.9272 51.3847 29.44 51.8133C29.7867 51.8133 30.1067 51.68 30.32 51.44C30.5867 51.1733 30.72 50.88 30.72 50.5333V38.0267C30.72 37.2267 30.0533 36.72 29.4133 36.72ZM27.12 34.1333C27.0371 33.887 26.8796 33.6725 26.6693 33.5196C26.4591 33.3667 26.2066 33.283 25.9467 33.28H13.44C13.2581 33.2736 13.0771 33.3088 12.9108 33.3827C12.7445 33.4566 12.5972 33.5674 12.48 33.7067C12.3572 33.8428 12.2651 34.0037 12.2099 34.1785C12.1547 34.3534 12.1376 34.538 12.16 34.72C12.64 38.1867 14.0267 41.4667 16.1067 44.24C16.2292 44.3798 16.3813 44.4907 16.5519 44.5645C16.7226 44.6383 16.9075 44.6732 17.0933 44.6667C17.4667 44.6667 17.7867 44.5333 18.0267 44.2933L26.8533 35.4933C27.0274 35.3241 27.1461 35.1061 27.1937 34.8681C27.2413 34.63 27.2156 34.3831 27.12 34.16V34.1333ZM29.52 12.16H29.28C25.8537 12.6392 22.6103 13.9991 19.8667 16.1067C19.6 16.2933 19.44 16.6133 19.3867 17.0133C19.3867 17.3867 19.4933 17.7333 19.7867 18.0267L28.6133 26.88C28.96 27.2533 29.3867 27.28 29.4933 27.28C30.1333 27.28 30.8 26.8267 30.8 25.9733V13.4667C30.8035 13.2963 30.7731 13.127 30.7103 12.9686C30.6476 12.8102 30.5539 12.666 30.4346 12.5443C30.3154 12.4226 30.1731 12.3259 30.0161 12.2599C29.859 12.1939 29.6903 12.1599 29.52 12.16ZM13.4133 30.8H25.9467C26.48 30.8 26.9067 30.5067 27.12 30C27.2222 29.7648 27.2515 29.5043 27.2039 29.2523C27.1564 29.0003 27.0342 28.7684 26.8533 28.5867L17.9733 19.7333C17.7215 19.5143 17.4003 19.3915 17.0667 19.3867C16.8727 19.3864 16.6812 19.4294 16.5059 19.5124C16.3306 19.5955 16.176 19.7165 16.0533 19.8667C13.9381 22.6233 12.5861 25.8883 12.1333 29.3333C12.08 29.7067 12.1867 30.08 12.4267 30.3467C12.6933 30.6133 13.04 30.8 13.4133 30.8ZM34.1067 27.1733L34.5867 27.2533C34.9333 27.2533 35.2533 27.1467 35.4667 26.9067L44.2933 18.0267C44.56 17.76 44.72 17.3867 44.6933 17.0133C44.6782 16.8415 44.6277 16.6747 44.5451 16.5232C44.4625 16.3718 44.3496 16.2391 44.2133 16.1333C41.4491 14.0138 38.1743 12.6616 34.72 12.2133C34.5275 12.1843 34.3309 12.2005 34.1457 12.2607C33.9606 12.3209 33.792 12.4233 33.6533 12.56C33.4133 12.8267 33.28 13.12 33.28 13.4667V25.9733C33.28 26.5067 33.6 26.9867 34.08 27.1733" fill="#60F300"/>
</svg>
