<svg width="64" height="64" viewBox="0 0 64 64" fill="none" xmlns="http://www.w3.org/2000/svg">
<path d="M31.8409 8.11206C19.0165 8.11206 8.62028 18.5083 8.62028 31.3327C8.6184 33.7399 8.99115 36.1328 9.72513 38.4254C10.4554 38.3176 11.1991 38.497 11.7999 38.9259C12.4837 39.4152 12.9211 40.1797 13.1503 40.9953C13.5008 40.5426 13.8797 40.1126 14.2847 39.7078C18.62 35.3726 25.0255 34.7493 28.5919 38.3156C32.1583 41.882 31.5349 48.2875 27.1997 52.6228C26.7859 53.0367 26.3458 53.4232 25.882 53.7802C27.8265 54.2945 29.8295 54.5544 31.8409 54.5533C44.6653 54.5533 55.0615 44.1571 55.0615 31.3327C55.0615 18.5083 44.6653 8.11206 31.8409 8.11206Z" stroke="#46587A" stroke-width="2"/>
<path d="M37.6385 23.0529C37.6385 22.0111 38.0523 21.0119 38.789 20.2752C39.5257 19.5385 40.5249 19.1246 41.5668 19.1246C42.6086 19.1246 43.6078 19.5385 44.3445 20.2752C45.0812 21.0119 45.4951 22.0111 45.4951 23.0529" stroke="#46587A" stroke-width="2"/>
<path d="M18.1474 23.0529C18.1474 22.0111 18.5612 21.0119 19.2979 20.2752C20.0346 19.5385 21.0338 19.1246 22.0757 19.1246C23.1175 19.1246 24.1167 19.5385 24.8534 20.2752C25.5901 21.0119 26.004 22.0111 26.004 23.0529" stroke="#46587A" stroke-width="2"/>
<path d="M26.4484 36.7979H43.3709" stroke="#46587A" stroke-width="2"/>
<path d="M47.7637 29.7249H15.9181C15.4401 32.4514 15.6663 35.2548 16.5754 37.8694C20.6547 35.2816 25.6133 35.3371 28.5919 38.3156C31.1578 40.8816 31.5548 44.9172 29.9611 48.5941C30.585 48.6667 31.2127 48.7032 31.8409 48.7035C40.7697 48.7035 48.0079 41.4653 48.0079 32.5365C48.0081 31.594 47.9264 30.6532 47.7637 29.7249V29.7249Z" stroke="#46587A" stroke-width="2"/>
<path d="M28.5919 38.3157C25.6133 35.3372 20.6547 35.2817 16.5754 37.8695C15.7466 38.3964 14.9784 39.0129 14.2847 39.7079C13.8797 40.1127 13.5008 40.5427 13.1503 40.9954C12.9211 40.1797 12.4837 39.4153 11.7999 38.926C11.1991 38.497 10.4554 38.3176 9.72512 38.4255C9.67583 38.4332 9.62675 38.4424 9.5779 38.4529C9.19587 38.5362 8.83725 38.7038 8.52819 38.9433C8.21913 39.1829 7.96741 39.4884 7.79137 39.8375C7.3464 40.7502 7.49646 41.8349 7.74769 42.8187C8.26466 44.8432 9.16042 46.7418 10.0989 48.5997C10.3093 49.0162 10.5223 49.4314 10.7346 49.847C11.0298 51.4216 11.7432 52.8659 12.8925 54.0151C16.1124 57.235 21.6465 57.0392 25.882 53.7802C26.3458 53.4233 26.7859 53.0367 27.1997 52.6229C28.3651 51.4654 29.3019 50.0987 29.9611 48.5942C31.5548 44.9173 31.1578 40.8816 28.5919 38.3157Z" stroke="#46587A" stroke-width="2"/>
<path d="M11.6774 44.732C11.6774 44.732 12.1924 42.1028 13.1502 40.9954" stroke="#46587A" stroke-width="2"/>
</svg>
