<svg width="64" height="64" viewBox="0 0 64 64" fill="none" xmlns="http://www.w3.org/2000/svg">
<path d="M36.1867 15.9467L36 15.84C34.7554 15.2282 33.3869 14.91 32 14.91C30.6131 14.91 29.2446 15.2282 28 15.84L27.8133 15.9467C26.5715 16.5514 25.5194 17.4854 24.7718 18.6468C24.0242 19.8083 23.6096 21.1526 23.5733 22.5334C23.5733 26.7467 27.36 30.1867 32 30.1867C36.64 30.1867 40.4267 26.7467 40.4267 22.5334C40.4267 19.7334 38.72 17.2534 36.1867 15.9467ZM16.4267 20.64C17.9733 20.64 19.4933 20.9334 20.9067 21.4934C21.2 18.7467 22.7467 16.32 24.9867 14.6667C23.4234 13.4526 21.4993 12.7956 19.52 12.8C14.88 12.8 11.0933 16.2667 11.0933 20.4534C11.0933 20.9067 11.1467 21.36 11.2267 21.7867C12.8523 21.0199 14.6293 20.628 16.4267 20.64ZM20.8533 40.0534C18.3262 41.0504 15.5379 41.1725 12.9333 40.4C12.6133 41.2267 12.4267 42.1067 12.4267 43.0134C12.4267 47.2267 16.2133 50.6667 20.8533 50.6667C20.9333 48.88 21.52 47.2 22.56 45.7067C21.4434 44.1314 20.8383 42.2509 20.8267 40.32L20.8533 40.0534ZM21.5467 36.8C22.5364 34.4625 24.3351 32.5597 26.6133 31.44C25.2079 30.767 23.9736 29.7837 23.0036 28.5642C22.0335 27.3447 21.353 25.9208 21.0133 24.4C19.6247 23.578 18.0404 23.1451 16.4267 23.1467C11.7867 23.1467 8 26.56 8 30.7734C8 33.7067 9.86667 36.4 12.8 37.68C15.6 38.88 19.0667 38.5067 21.5467 36.8ZM39.0133 14.6667C40.1276 15.4616 41.0652 16.4784 41.7674 17.6533C42.4696 18.8281 42.921 20.1356 43.0933 21.4934C44.6398 20.8719 46.2981 20.5771 47.964 20.6275C49.6299 20.678 51.2674 21.0727 52.7733 21.7867C52.8533 21.36 52.9067 20.9067 52.9067 20.4534C52.9067 16.24 49.12 12.8267 44.48 12.8267C42.4533 12.8267 40.5333 13.4934 39.0133 14.6667ZM47.5733 23.1467C45.9467 23.1467 44.3467 23.5734 42.96 24.4C42.6203 25.9208 41.9398 27.3447 40.9698 28.5642C39.9997 29.7837 38.7654 30.767 37.36 31.44C39.6435 32.548 41.4517 34.4413 42.4533 36.7734C44.9333 38.5067 48.4 38.88 51.2 37.68C52.5912 37.1215 53.7877 36.1667 54.641 34.9341C55.4944 33.7015 55.9669 32.2455 56 30.7467C56 26.56 52.2133 23.1467 47.5733 23.1467ZM47.5733 40.9067C46.0533 40.9067 44.5333 40.6134 43.1467 40.08V40.32C43.1467 42.24 42.56 44.1067 41.44 45.7067C42.56 47.1467 43.0933 48.7467 43.1467 50.6667C47.7867 50.6667 51.5733 47.2267 51.5733 43.0134C51.5733 42.1067 51.3867 41.2267 51.04 40.4C49.9467 40.7467 48.7733 40.9334 47.5733 40.9334V40.9067ZM32 50.4267C29.2339 50.4411 26.5516 49.4778 24.4267 47.7067C23.8933 48.7467 23.5733 49.84 23.5733 51.0134C23.5733 55.2534 27.36 58.6667 32 58.6667C36.64 58.6667 40.4267 55.2534 40.4267 51.04C40.4267 49.7067 40.16 48.6934 39.6 47.7334C37.4681 49.5104 34.7753 50.4741 32 50.4534V50.4267ZM39.8667 37.6534C39.1868 36.1459 38.0784 34.8719 36.6795 33.9899C35.2807 33.1079 33.6533 32.657 32 32.6934C28.4 32.6934 25.3333 34.7467 24.1333 37.6534C24.1333 37.84 24.0267 38 23.92 38.1867C23.6936 38.8753 23.5767 39.5952 23.5733 40.32C23.5733 44.5334 27.36 47.9467 32 47.9467C34.5333 47.9467 36.9067 46.9334 38.5067 45.1467C39.3534 44.2192 39.9438 43.0871 40.2197 41.862C40.4956 40.6368 40.4474 39.3609 40.08 38.16C39.9668 38.0022 39.8936 37.8191 39.8667 37.6267V37.6534ZM29.68 12.6667C31.6871 12.2645 33.7645 12.3932 35.7067 13.04C35.9733 11.2534 35.7867 8.96004 34.4533 6.77338C33.6267 5.38671 31.7867 4.90671 30.3467 5.70671C28.9333 6.50671 28.4267 8.26671 29.28 9.62671C29.9733 10.8 29.8667 12 29.68 12.6667Z" fill="#8900C9"/>
</svg>
