<svg width="64" height="64" viewBox="0 0 64 64" fill="none" xmlns="http://www.w3.org/2000/svg">
<path d="M32.011 54.5492C44.8331 54.5492 55.2275 44.1549 55.2275 31.3327C55.2275 18.5106 44.8331 8.11621 32.011 8.11621C19.1888 8.11621 8.79443 18.5106 8.79443 31.3327C8.79443 44.1549 19.1888 54.5492 32.011 54.5492Z" stroke="#46587A" stroke-width="2"/>
<path d="M21.232 35.0404C21.9417 37.3451 23.3715 39.3617 25.3114 40.7942C27.2514 42.2267 29.5994 42.9996 32.011 42.9996C34.4225 42.9996 36.7705 42.2267 38.7105 40.7942C40.6504 39.3617 42.0802 37.3451 42.7899 35.0404H21.232Z" stroke="#46587A" stroke-width="2"/>
<path d="M37.8282 27.1179C37.8282 26.076 38.2421 25.0768 38.9788 24.3401C39.7155 23.6034 40.7146 23.1896 41.7565 23.1896C42.7983 23.1896 43.7975 23.6034 44.5342 24.3401C45.2709 25.0768 45.6848 26.076 45.6848 27.1179" stroke="#46587A" stroke-width="2"/>
<path d="M18.3371 27.1179C18.3371 26.602 18.4387 26.0912 18.6361 25.6146C18.8336 25.138 19.1229 24.7049 19.4877 24.3401C19.8525 23.9754 20.2855 23.686 20.7621 23.4886C21.2387 23.2912 21.7495 23.1896 22.2654 23.1896C22.7813 23.1896 23.2921 23.2912 23.7687 23.4886C24.2453 23.686 24.6784 23.9754 25.0431 24.3401C25.4079 24.7049 25.6973 25.138 25.8947 25.6146C26.0921 26.0912 26.1937 26.602 26.1937 27.1179" stroke="#46587A" stroke-width="2"/>
</svg>
