<svg width="64" height="64" viewBox="0 0 64 64" fill="none" xmlns="http://www.w3.org/2000/svg">
<path fill-rule="evenodd" clip-rule="evenodd" d="M54.24 28.5334C56.24 27.3067 60.16 24.4267 58.2667 22.16C55.7333 19.0934 50.4267 22.16 50.4267 22.16C50.4267 22.16 54.0267 19.28 50.8267 17.0934C47.0933 14.56 42.5867 18.2667 42.5867 18.2667C42.5867 18.2667 44.2933 15.2 40.6133 14C37.0933 12.8 32.4 17.4667 32.4 17.4667C32.4 17.4667 31.8133 13.7867 29.2533 13.3867C23.6267 12.5334 21.0133 20.5867 21.0133 20.5867C21.0133 20.5867 19.6533 16.1334 16.1067 18.8534C12.5867 21.5734 12.3733 29.1734 12.3733 29.1734C12.3733 29.1734 5.33334 20.9867 5.33334 32.1067C5.33334 37.44 8.64001 42.08 11.5467 45.1734C12.48 43.7067 14.16 41.44 16.8267 38.9067C16.5067 30.1067 21.0133 27.2267 21.0133 27.2267C19.2267 30.24 19.28 34.4267 19.4667 36.64C21.7498 34.8291 24.2062 33.2481 26.8 31.92C29.0133 24.3734 33.6267 22.9334 33.6267 22.9334C31.709 25.0592 30.4088 27.6688 29.8667 30.48C36.155 27.8662 42.8507 26.3683 49.6533 26.0534C49.6533 26.0534 41.5467 28.08 32.6667 32.8267C34.7467 33.6 37.8133 34.5867 40.2933 34.8267C40.2933 34.8267 38.48 36.48 29.7067 34.5067C27.2533 35.9734 24.8 37.6534 22.5067 39.5734C24.96 39.84 29.36 40.2134 32.5867 39.68C32.5867 39.68 30.9333 42.2667 19.36 42.4C17.6267 44.1334 16.0267 46.0267 14.6933 48.08L15.92 49.04C15.92 49.04 22.7733 53.7067 36.9067 50C51.04 46.32 36.1067 44.16 36.1067 44.16C36.1067 44.16 45.7067 44.56 48.48 43.0134C51.0933 41.4934 47.76 38.7467 44.72 38.5334C46.8533 38.48 51.7867 38.1334 53.76 36.5867C55.04 35.5734 54.1333 34.56 52.72 33.7334C55.44 32.8534 58.64 31.3867 57.4933 29.5734C56.9067 28.6667 55.28 28.5334 54.24 28.5334Z" fill="#9F0607"/>
</svg>
