<svg width="64" height="64" viewBox="0 0 64 64" fill="none" xmlns="http://www.w3.org/2000/svg">
<path d="M33.44 5.75998C33.7608 5.96636 34.0336 6.23917 34.24 6.55998L46.5867 25.9733C47.44 27.04 48.1867 28.1867 48.7733 29.44L48.9067 29.6533C50.3293 32.6779 50.9138 36.0291 50.5989 39.3567C50.2841 42.6843 49.0815 45.8664 47.1168 48.5705C45.1522 51.2746 42.4974 53.4016 39.4299 54.7293C36.3625 56.0569 32.9948 56.5366 29.6786 56.1182C26.3624 55.6998 23.2193 54.3987 20.5778 52.3506C17.9362 50.3026 15.893 47.5829 14.6616 44.4755C13.4302 41.3681 13.0557 37.9871 13.5772 34.6856C14.0988 31.384 15.4973 28.2831 17.6267 25.7067L29.7333 6.58665C29.9207 6.29071 30.1644 6.03456 30.4508 5.83285C30.7371 5.63113 31.0604 5.4878 31.4021 5.41103C31.7438 5.33426 32.0973 5.32557 32.4424 5.38544C32.7875 5.44532 33.1174 5.57259 33.4133 5.75998H33.44Z" fill="#FFD500"/>
</svg>
