<svg width="64" height="64" viewBox="0 0 64 64" fill="none" xmlns="http://www.w3.org/2000/svg">
<path d="M23.7751 16.1916C23.9579 16.1918 24.1406 16.2049 24.3216 16.2308C27.5226 16.6848 30.3758 19.3791 31.0104 22.5588C31.0677 22.8462 31.0654 23.1454 31.0844 23.3646C31.0705 23.6538 31.1077 23.8833 31.0413 24.0772C30.8233 24.7134 31.1259 25.1168 31.5524 25.5403C34.8033 28.7689 38.0429 32.0089 41.2709 35.2605C41.5212 35.5122 41.7057 35.8217 41.808 36.1616C41.9429 36.648 41.725 37.0748 41.2894 37.3354C41.0991 37.4544 40.8798 37.5191 40.6554 37.5223C40.4167 37.519 40.1844 37.4445 39.9882 37.3084C39.8151 37.1839 39.6548 37.0426 39.5095 36.8865C36.3028 33.6834 33.0995 30.4769 29.8996 27.2669C29.5235 26.8878 29.1724 26.6881 28.6679 26.6881C28.5615 26.6886 28.4553 26.6964 28.35 26.7115C28.1115 26.7449 27.871 26.7617 27.6301 26.7619C26.1676 26.7619 24.8698 26.1338 23.7067 25.2108C22.0057 23.861 20.8242 22.1766 20.5446 19.9571C20.2782 17.8411 21.751 16.1916 23.7751 16.1916H23.7751ZM23.7751 13.9694C22.9975 13.9636 22.2275 14.1232 21.5162 14.4377C20.805 14.7521 20.1688 15.2142 19.6497 15.7933C18.5949 16.9892 18.1297 18.5666 18.3398 20.2348C18.6699 22.855 20.0108 25.1148 22.3253 26.9515C24.0249 28.3002 25.8097 28.9841 27.6301 28.9841C27.8972 28.9839 28.1642 28.9694 28.4297 28.9406C30.9963 31.5271 33.6139 34.1404 36.1466 36.6689C36.7441 37.2655 37.3416 37.8621 37.939 38.4588L37.9576 38.4773C38.2009 38.7324 38.4701 38.9615 38.7609 39.1609C39.3211 39.5378 39.9802 39.7408 40.6554 39.7445C41.2815 39.7406 41.8949 39.567 42.4303 39.2424C43.0201 38.897 43.4912 38.3808 43.7814 37.762C44.0983 37.0743 44.1579 36.2957 43.9494 35.5677C43.7458 34.8605 43.3669 34.2162 42.8477 33.6946C39.6107 30.4352 36.395 27.2185 33.2867 24.1308C33.3025 23.9574 33.3083 23.7832 33.3039 23.6091C33.3032 23.5538 33.3026 23.5015 33.3041 23.4713C33.3088 23.3719 33.3069 23.2723 33.2984 23.1731C33.296 23.146 33.2929 23.0871 33.2902 23.0352C33.2796 22.7293 33.246 22.4247 33.1896 22.1239C32.3708 18.0214 28.7725 14.6177 24.6337 14.0306C24.3493 13.9901 24.0624 13.9697 23.7751 13.9694H23.7751Z" fill="#46587A"/>
<path d="M40.4555 16.0744H40.4559H40.4555ZM40.4555 16.0744C40.1204 17.0897 39.801 18.0134 39.5173 18.9478C39.4453 19.1849 39.4174 19.4787 39.491 19.7073C39.5868 20.0049 39.8425 20.1626 40.1528 20.1626C40.327 20.1595 40.4982 20.1171 40.6536 20.0386C41.5965 19.5804 42.5317 19.1064 43.4707 18.6401C43.6134 18.5692 43.7589 18.504 44.0011 18.3902C43.9112 18.6084 43.867 18.7375 43.8067 18.8586C43.3319 19.8121 42.8596 20.767 42.3742 21.7152C42.1923 22.0705 42.159 22.4062 42.4334 22.7181C42.5032 22.8038 42.5914 22.8727 42.6914 22.9197C42.7914 22.9667 42.9007 22.9905 43.0112 22.9895C43.1512 22.9863 43.2897 22.9599 43.4211 22.9116C44.3451 22.5943 45.2763 22.2979 46.3346 21.9505C46.1743 22.1438 46.1061 22.2405 46.0238 22.3231C45.1549 23.1954 44.2767 24.0584 43.4153 24.9379C42.496 25.8764 41.3965 26.3527 40.0764 26.3608C38.698 26.3694 38.1306 26.3804 36.6309 27.4794C36.5821 27.4419 35.4581 26.3435 34.9226 25.8089C35.6381 24.9909 35.7353 24.4597 35.9244 23.3922C36.0269 22.8139 36.0127 22.2159 36.092 21.6324C36.2143 20.7325 36.572 19.9259 37.21 19.2716C38.2069 18.2492 39.2231 17.2456 40.2324 16.2353C40.3036 16.1774 40.3781 16.1236 40.4555 16.0744L40.4555 16.0744ZM40.4555 13.8522C40.4483 13.8522 40.4412 13.8522 40.434 13.8523L40.4333 13.8523L40.4314 13.8523C39.9697 13.8566 39.521 14.0052 39.148 14.2773C39.1262 14.2927 39.1084 14.3046 39.0935 14.3146C38.9379 14.4164 38.7928 14.5335 38.6607 14.6644C38.395 14.9303 38.1294 15.1956 37.8636 15.4603C37.1263 16.1958 36.3638 16.9564 35.619 17.7202C34.6678 18.7063 34.0612 19.9738 33.89 21.3332C33.8441 21.671 33.8236 21.9916 33.8055 22.2745C33.7948 22.5188 33.7717 22.7625 33.7363 23.0045C33.5667 23.9618 33.553 23.9994 33.2499 24.3459C32.8786 24.7705 32.6826 25.3204 32.7016 25.8841C32.7207 26.4478 32.9534 26.9832 33.3526 27.3817C33.3692 27.3982 35.0153 29.0407 35.2785 29.2426C35.6599 29.5352 36.1259 29.6962 36.6066 29.7015C37.0873 29.7067 37.5567 29.556 37.9444 29.2719C38.5881 28.8002 38.8558 28.6912 39.0013 28.6503C39.2109 28.5913 39.5352 28.5865 40.0902 28.583C42.0031 28.5712 43.6559 27.8679 45.0028 26.4929C45.5461 25.9383 46.1102 25.3762 46.6558 24.8327C46.9646 24.5251 47.2838 24.207 47.5981 23.8915C47.7139 23.7732 47.8228 23.6484 47.9244 23.5177C47.9573 23.4767 47.9961 23.4283 48.0452 23.369C48.3426 23.0106 48.5198 22.5678 48.5519 22.1032C48.584 21.6386 48.4693 21.1757 48.224 20.7798C47.9788 20.384 47.6153 20.0752 47.185 19.897C46.7548 19.7189 46.2794 19.6805 45.8261 19.7872C45.8917 19.6493 45.9401 19.5268 45.987 19.408C46.0067 19.3583 46.0288 19.3022 46.0557 19.2367C46.2264 18.8225 46.2679 18.3664 46.1748 17.9281C46.0817 17.4899 45.8582 17.09 45.5338 16.781C45.2094 16.472 44.7992 16.2683 44.357 16.1966C43.9147 16.1248 43.4611 16.1885 43.0557 16.3791C42.9743 16.4174 42.9043 16.4499 42.8418 16.4789C42.763 16.5155 42.6907 16.5491 42.6194 16.5831C42.6956 16.2576 42.6974 15.9192 42.6248 15.5929C42.5521 15.2666 42.4068 14.9609 42.1997 14.6985C41.9927 14.436 41.7291 14.2237 41.4286 14.0772C41.1282 13.9307 40.7985 13.8538 40.4643 13.8522H40.4634H40.4626L40.4555 13.8522L40.4555 13.8522Z" fill="#46587A"/>
<path d="M30.1218 30.5836C30.6996 31.1627 31.2412 31.7055 31.8025 32.268C31.7549 32.3229 28.7489 35.3645 27.1121 36.9749C26.8854 37.206 26.6043 37.3764 26.2945 37.4705C26.2008 37.495 26.1043 37.5076 26.0073 37.5078C25.7997 37.5051 25.597 37.4448 25.4216 37.3336C25.2463 37.2225 25.1053 37.0648 25.0142 36.8782C24.8925 36.6518 24.8488 36.3915 24.8899 36.1377C24.9311 35.884 25.0548 35.6508 25.2419 35.4745C26.9851 33.7158 28.3811 32.3237 30.1218 30.5836ZM30.1218 28.3613C29.5326 28.3613 28.9674 28.5954 28.5507 29.012L27.7718 29.7904C26.3613 31.2001 25.1432 32.4174 23.6636 33.9101C22.5929 34.9902 22.3477 36.5548 23.0389 37.8961C23.3804 38.5772 23.9457 39.1203 24.6399 39.4344C25.3341 39.7485 26.1152 39.8146 26.8523 39.6215C27.5399 39.4301 28.1662 39.064 28.6706 38.559C29.9283 37.3215 33.2998 33.933 33.4807 33.7247C33.8489 33.3004 34.0428 32.7524 34.0233 32.1909C34.0038 31.6294 33.7724 31.0962 33.3756 30.6985L32.6707 29.992L31.6949 29.014C31.4887 28.8073 31.2437 28.6432 30.974 28.5312C30.7044 28.4193 30.4152 28.3615 30.1232 28.3613L30.1218 28.3613Z" fill="#46587A"/>
<path d="M28.6524 23.5136L28.5914 23.3545C28.5688 23.2972 28.5448 23.2392 28.5201 23.1814C28.4713 23.0656 28.4173 22.9505 28.3628 22.8363C28.2517 22.6083 28.1308 22.3853 28.0007 22.1703C27.7484 21.7474 27.4509 21.3532 27.1133 20.9948C26.7988 20.6583 26.4357 20.3709 26.0361 20.1419C25.6641 19.9312 25.2575 19.7889 24.8354 19.7214C24.685 19.6964 24.5413 19.6408 24.4132 19.558C24.2851 19.4753 24.1754 19.3671 24.0908 19.2402C24.0063 19.1133 23.9486 18.9704 23.9215 18.8203C23.8944 18.6702 23.8983 18.5162 23.9332 18.3677C23.968 18.2192 24.0329 18.0795 24.1239 17.9571C24.2149 17.8347 24.33 17.7323 24.4622 17.6563C24.5944 17.5802 24.7407 17.532 24.8923 17.5148C25.0438 17.4976 25.1972 17.5117 25.3431 17.5561L25.3676 17.5639C26.015 17.764 26.6216 18.0776 27.159 18.4903C27.4183 18.6882 27.6608 18.9071 27.8843 19.1446C28.1023 19.3742 28.304 19.6187 28.488 19.8763C28.8423 20.3739 29.1416 20.9085 29.3806 21.4706C29.4992 21.7459 29.6045 22.0249 29.6965 22.3076C29.7418 22.4495 29.7857 22.5913 29.8246 22.7361C29.8443 22.8084 29.8633 22.881 29.8813 22.955L29.9078 23.0671L29.9349 23.192C29.9702 23.3546 29.9427 23.5245 29.8581 23.6677C29.7735 23.811 29.6379 23.917 29.4785 23.9646C29.3191 24.0122 29.1476 23.9978 28.9983 23.9243C28.849 23.8509 28.7329 23.7238 28.6733 23.5685L28.6524 23.5136Z" fill="#46587A"/>
<path d="M33.424 7.68042C19.8144 7.68042 8.78158 16.2398 8.78158 26.7984C8.78158 32.9478 12.5247 38.4182 18.3388 41.9154C16.0082 46.4156 10.8785 51.4663 10.8785 51.4663C18.2648 52.6391 24.5145 48.304 27.7591 45.408C29.6283 45.7477 31.5243 45.9178 33.424 45.9164C47.0337 45.9164 58.0666 37.357 58.0666 26.7984C58.0666 16.2398 47.0337 7.68042 33.424 7.68042Z" stroke="#46587A" stroke-width="2"/>
</svg>
