<svg width="64" height="64" viewBox="0 0 64 64" fill="none" xmlns="http://www.w3.org/2000/svg">
<path d="M61.7988 53.9806H55.539C54.8883 52.9177 54.1801 51.9242 53.4207 51.0003C59.4835 45.5268 56.0313 34.2872 46.8441 34.2872C42.1858 34.2872 38.2901 37.6111 37.4023 42.0114C34.9187 41.6516 32.391 41.6496 29.9071 42.0033L27.956 20.1901C33.4721 22.3412 37.3252 28.5542 36.2833 34.4858C35.8986 36.6761 38.6343 37.9761 40.0973 36.3279C47.1025 28.4369 43.6951 18.4229 36.3383 15.0378C39.8162 15.0219 43.3013 16.2816 45.7218 18.8232C47.2311 20.4082 49.9322 19.0332 49.4691 16.8486C46.6167 3.39468 30.3153 2.00943 24.7597 12.7949C19.2057 2.03018 2.9102 3.36818 0.0520776 16.8488C-0.406672 19.0128 2.27483 20.4239 3.79933 18.8232C6.0912 16.4167 9.48795 15.0364 13.1187 15.0364C13.14 15.0364 13.161 15.0379 13.1822 15.0379C5.82583 18.4233 2.4192 28.4376 9.42358 36.3279C10.8777 37.9659 13.624 36.6847 13.2376 34.4857C12.1975 28.5644 16.0415 22.3421 21.5657 20.1894L19.2512 46.0472C16.2928 48.0184 13.6817 50.6657 11.6502 53.9804H5.39008C4.17445 53.9804 3.18895 54.9659 3.18895 56.1816C3.18895 57.3972 4.17445 58.3827 5.39008 58.3827C9.6062 58.3827 59.6596 58.3827 61.7987 58.3827C63.0143 58.3827 63.9998 57.3972 63.9998 56.1816C64 54.9661 63.0145 53.9806 61.7988 53.9806Z" fill="#35D5DA"/>
</svg>
