<svg width="64" height="64" viewBox="0 0 64 64" fill="none" xmlns="http://www.w3.org/2000/svg">
<path d="M31.7867 26.88C32.4596 26.8303 33.1356 26.9199 33.7724 27.1433C34.4092 27.3667 34.993 27.719 35.4874 28.1783C35.9819 28.6375 36.3762 29.1938 36.6459 29.8124C36.9156 30.431 37.0548 31.0985 37.0548 31.7733C37.0548 32.4481 36.9156 33.1157 36.6459 33.7343C36.3762 34.3528 35.9819 34.9091 35.4874 35.3684C34.993 35.8276 34.4092 36.18 33.7724 36.4034C33.1356 36.6267 32.4596 36.7164 31.7867 36.6667C30.5513 36.5754 29.3961 36.0202 28.5531 35.1126C27.71 34.205 27.2415 33.0121 27.2415 31.7733C27.2415 30.5346 27.71 29.3417 28.5531 28.434C29.3961 27.5264 30.5513 26.9713 31.7867 26.88ZM39.7867 31.2C39.7867 31.2 60.96 36.9333 58.4533 26.72C55.9733 16.5067 39.7867 31.2 39.7867 31.2ZM38.1867 27.4133C38.1867 27.4133 59.6533 21.76 52.2667 14.0267C44.9067 6.29333 38.1867 27.4133 38.1867 27.4133ZM34.9333 24.7467C34.9333 24.7467 50.1333 9.14666 40.2667 6.16C30.4 3.17333 34.9333 24.72 34.9333 24.72V24.7467ZM31.2 24.1867C31.2 24.1867 36.9333 3.04 26.72 5.52C16.5067 8.02666 31.2 24.1867 31.2 24.1867ZM27.4133 26.32C27.4133 26.32 21.76 4.93333 14.0267 12.2667C6.29333 19.6267 27.4133 26.3467 27.4133 26.3467V26.32ZM24.7467 29.5467C24.7467 29.5467 9.12 13.52 6.13333 23.9467C3.14666 34.3467 24.6933 29.5467 24.6933 29.5467H24.7467ZM24.16 33.3333C24.16 33.3333 3.01333 27.6 5.49333 37.8133C8 48.0267 24.16 33.3333 24.16 33.3333ZM26.2933 37.12C26.2933 37.12 4.88 42.7733 12.24 50.5067C19.6 58.24 26.32 37.12 26.32 37.12H26.2933ZM29.04 39.7867C29.04 39.7867 13.84 55.3867 23.7067 58.3733C33.5733 61.36 29.04 39.8133 29.04 39.8133V39.7867ZM33.3067 39.8133C33.3067 39.8133 27.5733 60.96 37.7867 58.48C48 55.9733 33.3067 39.8133 33.3067 39.8133ZM36.56 38.2133C36.56 38.2133 42.2133 59.6533 49.9467 52.2667C57.68 44.9067 36.56 38.1867 36.56 38.1867V38.2133ZM39.2267 34.9867C39.2267 34.9867 54.8267 51.0133 57.8133 40.5867C60.8 30.1867 39.2533 34.9867 39.2533 34.9867" fill="#E5ACFF"/>
</svg>
