<svg width="64" height="64" viewBox="0 0 64 64" fill="none" xmlns="http://www.w3.org/2000/svg">
<path d="M56.1104 29.9554C55.8946 30.7054 55.7478 31.4841 55.4496 32.1998C54.6612 34.0918 53.2989 35.4622 51.4296 36.3097C51.1308 36.4452 51.0128 36.5937 51.0149 36.9403C51.0403 41.1368 48.0093 44.5412 43.8251 44.9977C42.6323 45.1333 41.4244 44.976 40.3061 44.5395C40.0199 44.4276 39.8963 44.4775 39.7395 44.7382C36.5886 49.9777 29.1425 49.968 25.9897 44.72C25.8397 44.4702 25.725 44.4417 25.4587 44.5348C20.7231 46.189 15.878 43.4532 14.8557 38.5389C14.74 37.9826 14.7393 37.3987 14.7255 36.8267C14.7194 36.5751 14.6418 36.4613 14.415 36.3583C11.238 34.9163 9.36038 31.8921 9.66121 28.426C9.93585 25.2619 11.6083 22.9999 14.5244 21.7012C14.8564 21.5533 14.9219 21.4192 14.8487 21.0645C13.947 16.6941 17.1125 12.2902 21.5385 11.7001C23.0962 11.4855 24.6827 11.72 26.1117 12.376C26.1913 12.2806 26.272 12.1949 26.3404 12.1003C27.6731 10.2585 29.4575 9.15263 31.7064 8.79953C31.7937 8.77862 31.8792 8.75046 31.9618 8.71533H33.7775C33.8146 8.74122 33.8554 8.7613 33.8985 8.77486C36.2339 9.11598 38.0915 10.2392 39.4464 12.175C39.588 12.3774 39.7108 12.3499 39.9002 12.2683C41.2782 11.6746 42.7085 11.5021 44.1987 11.699C48.6194 12.283 51.787 16.6942 50.8888 21.0631C50.8154 21.4205 50.8928 21.555 51.2239 21.6962C53.2354 22.5537 54.6826 23.9993 55.508 26.0227C55.7835 26.698 55.9138 27.4326 56.1104 28.14V29.9554Z" stroke="#46587A" stroke-width="2"/>
<path d="M12.343 54.8314C11.9491 54.8288 11.5647 54.7095 11.2386 54.4886C10.9124 54.2676 10.6591 53.9549 10.5107 53.59C10.3622 53.2251 10.3252 52.8244 10.4045 52.4385C10.4837 52.0526 10.6756 51.6989 10.9559 51.422C11.2361 51.1451 11.5921 50.9576 11.979 50.883C12.3658 50.8085 12.7661 50.8503 13.1291 51.0032C13.4922 51.1561 13.8018 51.4132 14.0188 51.742C14.2357 52.0708 14.3503 52.4566 14.3481 52.8505C14.3489 53.1129 14.2973 53.3728 14.1965 53.6151C14.0957 53.8573 13.9477 54.0771 13.761 54.2615C13.5743 54.4459 13.3528 54.5912 13.1093 54.6891C12.8659 54.7869 12.6054 54.8353 12.343 54.8314Z" stroke="#46587A" stroke-width="2"/>
<path d="M23.4123 50.587C23.4256 52.1634 22.1484 53.4891 20.6079 53.498C18.9232 53.5077 17.6166 52.2661 17.6051 50.6446C17.5934 48.9979 18.8439 47.7011 20.4536 47.6905C22.1137 47.6796 23.3985 48.9373 23.4123 50.587Z" stroke="#46587A" stroke-width="2"/>
<path d="M34.9658 18.8761H41.5228L34.9658 26.8442H41.5228" stroke="#46587A" stroke-width="2"/>
<path d="M32.4435 35.1132H36.3826L32.4435 39.8999H36.3826" stroke="#46587A" stroke-width="2"/>
<path d="M22.1027 25.048H27.7812L22.1027 31.9483H27.7812" stroke="#46587A" stroke-width="2"/>
</svg>
