<svg width="64" height="64" viewBox="0 0 64 64" fill="none" xmlns="http://www.w3.org/2000/svg">
<path d="M27.2415 36.2556L25.3951 35.0246C23.0524 33.4627 20.8269 31.7007 18.7805 29.7878C18.0597 29.114 16.9401 29.114 16.2195 29.7881C14.1759 31.699 11.9514 33.4598 9.6075 35.0221L7.75625 36.2567C2.89937 39.4946 0 44.9126 0 50.75C0 56.0916 4.34587 60.4375 9.6875 60.4375H25.3125C30.6541 60.4375 35 56.0916 35 50.75C35 44.9124 32.0995 39.4939 27.2415 36.2556ZM19.375 50.4375C19.375 51.473 18.5355 52.3125 17.5 52.3125C16.4645 52.3125 15.625 51.473 15.625 50.4375V42.9375C15.625 41.902 16.4645 41.0625 17.5 41.0625C18.5355 41.0625 19.375 41.902 19.375 42.9375V50.4375Z" fill="#CE861E"/>
<path d="M53.1804 15.2211L51.4054 14.0378C47.4417 11.3951 43.9829 8.123 41.125 4.3125C40.7709 3.84038 40.2152 3.5625 39.625 3.5625C39.0347 3.5625 38.4791 3.84038 38.125 4.3125C35.2671 8.123 31.8082 11.3951 27.8446 14.0378L26.0696 15.2211C23.3649 17.0243 21.084 19.3125 19.2905 22.0225C18.5465 23.1466 17.9032 24.3201 17.3604 25.5359C17.407 25.5347 17.4534 25.5326 17.5001 25.5326C18.9316 25.5326 20.2959 26.0711 21.3415 27.0487C22.1687 27.822 23.0292 28.5669 23.915 29.2833C25.1519 26.138 27.3289 23.3954 30.2319 21.4604L32.0042 20.2789C34.25 18.7816 36.3832 17.0929 38.3447 15.2592C39.0655 14.5856 40.1849 14.5856 40.9055 15.2592C42.8668 17.0929 45.0002 18.7818 47.246 20.2789L49.0185 21.4605C53.7031 24.5831 56.5 29.8083 56.5 35.4375C56.5 40.6069 52.2944 44.8125 47.125 44.8125H37.9029C38.4576 46.716 38.75 48.7116 38.75 50.75C38.75 51.2785 38.7182 51.7998 38.6586 52.3125H47.125C56.4299 52.3125 64 44.7424 64 35.4375C64 27.2951 59.9554 19.7376 53.1804 15.2211Z" fill="#CE861E"/>
<path d="M52.75 35.4375C52.75 31.0651 50.5774 27.0064 46.9384 24.5807L45.1657 23.399C43.2305 22.1087 41.3725 20.686 39.625 19.1567C37.8775 20.686 36.0195 22.1087 34.0842 23.399L32.3117 24.5806C29.7632 26.2794 27.9354 28.7795 27.0677 31.6269C27.2035 31.7195 27.3385 31.8135 27.4751 31.9046L29.3215 33.1355C32.3716 35.1687 34.7846 37.9101 36.4066 41.0626H47.125C50.2266 41.0625 52.75 38.5391 52.75 35.4375ZM41.5 35.4375C41.5 36.473 40.6605 37.3125 39.625 37.3125C38.5895 37.3125 37.75 36.473 37.75 35.4375V27.9375C37.75 26.902 38.5895 26.0625 39.625 26.0625C40.6605 26.0625 41.5 26.902 41.5 27.9375V35.4375Z" fill="#CE861E"/>
</svg>
