<svg width="64" height="64" viewBox="0 0 64 64" fill="none" xmlns="http://www.w3.org/2000/svg">
<path fill-rule="evenodd" clip-rule="evenodd" d="M41.5466 41.4667C40.3017 42.7134 38.8234 43.7027 37.1962 44.378C35.5689 45.0534 33.8246 45.4016 32.0627 45.4029C30.3009 45.4041 28.5561 45.0583 26.9279 44.3852C25.2997 43.7122 23.82 42.725 22.5733 41.48C20.0555 38.9658 18.6396 35.5543 18.6371 31.9961C18.6346 28.4379 20.0457 25.0245 22.56 22.5067C25.0742 19.9889 28.4857 18.573 32.0439 18.5705C35.6021 18.568 39.0155 19.9791 41.5333 22.4934C44.0511 25.0076 45.467 28.4191 45.4695 31.9773C45.472 35.5355 44.0609 38.9489 41.5466 41.4667ZM40.8267 17.0934C38.4533 15.0134 35.4933 14.6934 32.64 14.16C29.6533 13.6267 26.7733 14.6934 24.16 15.9467C22.1067 16.9067 20.16 18.4267 18.56 20.08C16.7145 21.694 15.4265 23.8501 14.88 26.24C14.56 28.2934 13.8933 30.3467 14.0266 32.3734C14.32 37.3067 17.04 41.1734 20.3733 44.8534C21.2266 45.52 22.1866 46.3734 23.2 47.0934C29.0666 51.2 34.9867 50.8267 41.0133 47.44C42.8909 46.5348 44.4927 45.1447 45.6533 43.4134C46.8533 41.3867 48.2133 39.44 49.12 37.3067C50.1333 35.0134 49.9733 32.4534 49.4666 30.1067C48.9333 27.6267 48.8267 24.96 46.96 22.9334C46 21.8667 45.2 20.6134 44.16 19.6267C43.1466 18.6667 41.8666 18.0267 40.8267 17.0934ZM35.3333 35.1734C34.8962 35.6853 34.3579 36.1013 33.7522 36.3952C33.1466 36.689 32.4867 36.8544 31.814 36.8809C31.1413 36.9074 30.4705 36.7944 29.8436 36.5491C29.2167 36.3037 28.6474 35.9314 28.1713 35.4553C27.6953 34.9793 27.323 34.41 27.0776 33.7831C26.8323 33.1562 26.7193 32.4853 26.7458 31.8127C26.7723 31.14 26.9377 30.4801 27.2315 29.8745C27.5254 29.2688 27.9414 28.7305 28.4533 28.2934C29.3871 27.4961 30.5871 27.0801 31.814 27.1284C33.0409 27.1768 34.2045 27.6858 35.0727 28.554C35.9409 29.4222 36.4499 30.5858 36.4982 31.8127C36.5466 33.0396 36.1306 34.2396 35.3333 35.1734ZM26.1333 26.1067C25.3198 26.8371 24.6634 27.7254 24.2043 28.7176C23.7452 29.7098 23.493 30.7851 23.4629 31.878C23.4328 32.9708 23.6256 34.0584 24.0295 35.0743C24.4333 36.0903 25.0398 37.0134 25.8119 37.7874C26.5841 38.5613 27.5058 39.17 28.5208 39.5762C29.5358 39.9824 30.6229 40.1778 31.7158 40.1503C32.8087 40.1227 33.8846 39.873 34.8779 39.4162C35.8712 38.9594 36.7611 38.3052 37.4933 37.4934C38.8265 35.9543 39.5273 33.9673 39.4544 31.9324C39.3816 29.8975 38.5407 27.9657 37.1008 26.5259C35.661 25.086 33.7292 24.2451 31.6943 24.1722C29.6594 24.0994 27.6724 24.8001 26.1333 26.1334V26.1067ZM32 10.0534C37.8206 10.0534 43.4028 12.3656 47.5186 16.4814C51.6344 20.5972 53.9466 26.1794 53.9466 32C53.9466 37.8207 51.6344 43.4029 47.5186 47.5187C43.4028 51.6345 37.8206 53.9467 32 53.9467C26.1794 53.9467 20.5971 51.6345 16.4813 47.5187C12.3655 43.4029 10.0533 37.8207 10.0533 32C10.0533 26.1794 12.3655 20.5972 16.4813 16.4814C20.5971 12.3656 26.1794 10.0534 32 10.0534ZM57.5466 32V30.8534H57.6C57.6534 30.7799 57.7278 30.7241 57.8133 30.6934C58.08 30.6134 58.3733 30.4267 58.6133 30.2134C58.4739 28.1767 58.0981 26.1632 57.4933 24.2134L56.4 24.3734C56.2992 24.0514 56.1925 23.7314 56.08 23.4134C56.4 23.2 56.6933 22.9067 56.96 22.6134C56.191 20.5959 55.1791 18.6795 53.9466 16.9067L52.96 17.3867L52.48 16.72C52.7466 16.4534 52.9333 16.1334 53.12 15.8134C51.7333 14 50.1333 12.3467 48.32 10.96C48.0013 11.1454 47.7207 11.3898 47.4933 11.68L46.4267 10.9067C46.56 10.5334 46.6667 10.0534 46.5067 9.70671V9.65337C45.3181 8.87962 44.0697 8.20191 42.7733 7.62671C42.56 7.94671 42.24 8.21337 41.9733 8.48004L40.9067 8.05337C40.96 7.65337 40.9333 7.20004 40.7467 6.90671L40.6933 6.80004C38.6405 6.09698 36.5089 5.64917 34.3466 5.46671L33.8133 6.53337C33.3783 6.50447 32.9426 6.48669 32.5066 6.48004C32.451 6.0872 32.3245 5.70772 32.1333 5.36004L32 5.33337C29.9733 5.33337 28 5.60004 26.1333 6.02671L26.1866 7.14671C25.8023 7.2261 25.4199 7.31502 25.04 7.41337L24.5066 6.53337L24.48 6.42671C23.4667 6.72004 22.5066 7.06671 21.5466 7.46671L21.8933 8.53337C21.534 8.69412 21.1783 8.86306 20.8266 9.04004C20.6118 8.72755 20.3612 8.44117 20.08 8.18671C17.84 9.30671 15.7866 10.7467 13.9466 12.4267L14.08 13.8134L12.6933 15.28C12.3888 15.0604 12.0572 14.8811 11.7066 14.7467C9.94665 16.8 8.50665 19.12 7.43998 21.6267V21.68C7.54665 21.68 7.70665 21.7067 7.75998 21.8934C7.89332 22.16 8.02665 22.4 8.26665 22.56C8.13332 22.88 7.99998 23.2 7.91998 23.4934C7.54665 23.44 7.19998 23.4134 6.85332 23.3334L6.79998 23.3067C6.42665 24.3734 6.10665 25.52 5.89332 26.6667C6.26665 27.0134 6.47998 27.52 6.77332 27.9467L6.61332 29.12C6.41046 29.0809 6.20128 29.0894 6.00228 29.145C5.80329 29.2005 5.61992 29.3015 5.46665 29.44C5.28342 31.2487 5.28342 33.0713 5.46665 34.88C5.57332 34.88 5.67998 34.88 5.75998 34.96C6.02665 35.1734 6.37332 35.36 6.69332 35.44L6.82665 36.3467L6.74665 36.3734C6.34665 36.5067 6.07998 36.9067 5.86665 37.28C6.13332 38.5334 6.47998 39.76 6.90665 40.96H7.03998L8.13332 41.12L8.47998 41.9467C8.18665 42.2134 7.86665 42.4 7.54665 42.5867C7.91998 43.4934 8.37332 44.3467 8.87998 45.2C9.27998 45.12 9.67998 45.2267 10.0266 45.12H10.08L10.48 45.7334C10.3791 46.1297 10.1434 46.4786 9.81332 46.72C10.64 47.9734 11.6 49.1734 12.64 50.2934C12.6714 50.2442 12.7148 50.2037 12.7661 50.1757C12.8174 50.1477 12.8749 50.1332 12.9333 50.1334C13.2533 50.1334 13.5466 50.0534 13.7866 49.92L14.56 50.64C14.4533 51.04 14.2933 51.44 14.24 51.84C15.84 53.28 17.6266 54.5067 19.52 55.5467C19.8933 55.3867 20.1866 55.0934 20.48 54.8L21.44 55.2534V56.48C24.08 57.6267 26.9333 58.3467 29.92 58.5867C30.16 58.2667 30.32 57.8667 30.48 57.4934L31.4133 57.52C31.4133 57.8934 31.4133 58.2934 31.4667 58.6667H32C33.3867 58.6667 34.72 58.56 36.0266 58.3734C36.1867 58 36.2133 57.5734 36.16 57.2L37.0133 57.04C37.28 57.36 37.4933 57.7067 37.7066 58.0267C39.6666 57.6038 41.5721 56.9597 43.3867 56.1067C43.3867 55.7867 43.4133 55.4667 43.4933 55.1734L43.36 54.96V54.88L44 54.56L44.6133 55.4667C46.2933 54.56 47.84 53.4934 49.28 52.2667C49.1115 51.9222 48.9689 51.5657 48.8533 51.2L49.44 50.6667C49.76 50.8267 50.08 51.0667 50.4 51.28C52.0745 49.6789 53.5355 47.8684 54.7467 45.8934C54.4427 45.6855 54.149 45.463 53.8666 45.2267L54.4 44.32C54.8 44.2667 55.2 44.2934 55.6266 44.3467C56.3733 42.9334 56.9866 41.4134 57.4933 39.8667L56.56 39.0667L56.7467 38.4267L57.5733 38.24L57.9466 38.1334C58.4 36.32 58.64 34.4 58.6666 32.4534C58.2838 32.3268 57.9097 32.1754 57.5466 32Z" fill="#CD792F"/>
</svg>
