<svg width="64" height="64" viewBox="0 0 64 64" fill="none" xmlns="http://www.w3.org/2000/svg">
<path d="M9.97331 50.6667C9.97331 50.9779 9.84969 51.2763 9.62965 51.4964C9.40961 51.7164 9.11117 51.84 8.79998 51.84C8.48879 51.84 8.19035 51.7164 7.97031 51.4964C7.75027 51.2763 7.62665 50.9779 7.62665 50.6667C7.62665 50.3555 7.75027 50.0571 7.97031 49.837C8.19035 49.617 8.48879 49.4934 8.79998 49.4934C9.11117 49.4934 9.40961 49.617 9.62965 49.837C9.84969 50.0571 9.97331 50.3555 9.97331 50.6667ZM14.6133 56.96C14.6387 57.1271 14.6277 57.2977 14.5811 57.4601C14.5345 57.6226 14.4533 57.773 14.3432 57.9012C14.233 58.0294 14.0965 58.1322 13.9429 58.2027C13.7893 58.2733 13.6223 58.3098 13.4533 58.3098C13.2843 58.3098 13.1173 58.2733 12.9637 58.2027C12.8102 58.1322 12.6736 58.0294 12.5635 57.9012C12.4533 57.773 12.3721 57.6226 12.3255 57.4601C12.2789 57.2977 12.2679 57.1271 12.2933 56.96C12.3355 56.6826 12.4757 56.4295 12.6885 56.2466C12.9014 56.0637 13.1727 55.9631 13.4533 55.9631C13.7339 55.9631 14.0053 56.0637 14.2181 56.2466C14.4309 56.4295 14.5711 56.6826 14.6133 56.96ZM7.67998 57.4934C7.67998 57.8046 7.55636 58.103 7.33632 58.323C7.11628 58.5431 6.81783 58.6667 6.50665 58.6667C6.19546 58.6667 5.89702 58.5431 5.67697 58.323C5.45693 58.103 5.33331 57.8046 5.33331 57.4934C5.3755 57.2159 5.51572 56.9628 5.72854 56.7799C5.94136 56.597 6.21269 56.4964 6.49331 56.4964C6.77393 56.4964 7.04526 56.597 7.25809 56.7799C7.47091 56.9628 7.61113 57.2159 7.65331 57.4934H7.67998ZM41.6533 6.24004C40.32 4.9067 38.3466 5.0667 37.2 6.53337L15.7333 34.5334C15.4133 34.9334 15.2266 35.3867 15.0933 35.8667C15.2 36.6667 15.5466 37.4667 16.16 38.1067L25.9733 47.92C26.5866 48.5334 27.4133 48.9067 28.1866 48.9867C28.6666 48.88 29.1466 48.6934 29.52 48.3734L57.44 26.8267C58.9067 25.7067 59.04 23.68 57.7066 22.3467L41.6533 6.24004ZM14.4 39.92C14.0583 39.5676 13.7626 39.1734 13.52 38.7467C12.3651 40.3879 11.8256 42.3837 11.9963 44.3833C12.167 46.3829 13.0369 48.2583 14.4533 49.68C15.8662 51.11 17.7412 51.9915 19.7437 52.1674C21.7463 52.3432 23.7462 51.8019 25.3866 50.64C24.96 50.3734 24.56 50.1067 24.2133 49.76L14.4 39.92Z" fill="#333333"/>
</svg>
