<svg width="64" height="64" viewBox="0 0 64 64" fill="none" xmlns="http://www.w3.org/2000/svg">
<path d="M41.92 34.5867C41.6267 35.8667 41.0667 37.0933 40.2933 38.16L42.2933 41.12L39.0667 39.5733C38.1067 40.48 36.9867 41.2 35.76 41.7067L35.84 45.28L33.9733 42.2133C32.679 42.4671 31.3477 42.4671 30.0533 42.2133L28.1867 45.28L28.24 41.7067C27.0099 41.2166 25.8869 40.4921 24.9333 39.5733L21.7333 41.12L23.7067 38.16C22.9333 37.0933 22.3733 35.8667 22.08 34.5867L18.5333 34.16L21.8133 32.72C21.7208 31.3993 21.9023 30.0738 22.3467 28.8267L19.6267 26.56L23.1467 27.1467C23.7867 25.9733 24.6667 24.96 25.7067 24.16L24.64 20.7467L27.3067 23.1467C28.4533 22.5333 29.7333 22.16 31.0667 22.0267L32 18.5867L32.9333 22.0533C34.2667 22.16 35.5467 22.5333 36.72 23.12L39.3867 20.7467L38.2933 24.16C39.3333 24.96 40.2133 25.9733 40.8533 27.1467L44.3733 26.56L41.6267 28.8267C42.0693 30.0838 42.2596 31.4159 42.1867 32.7467L45.4667 34.16L41.92 34.5867ZM57.6533 29.0933L56.16 28.4533L57.3867 27.4133L58.16 26.8C57.3387 22.6831 55.5571 18.8183 52.96 15.52L52.0267 15.68L50.4267 15.9467L50.9333 14.4L51.2 13.52C48.2933 10.48 44.6933 8.18667 40.7467 6.8L40.08 7.41334L38.88 8.48L38.4533 6.93333L38.2133 6.05334C34.1284 5.07874 29.8716 5.07874 25.7867 6.05334L25.52 6.93333L25.12 8.48L23.92 7.41334L23.2533 6.8C19.2896 8.18824 15.7085 10.4904 12.8 13.52L13.0667 14.4L13.5467 15.92L11.9467 15.6533L11.04 15.52C8.44295 18.8183 6.66129 22.6831 5.84 26.8L6.61333 27.4133L7.84 28.4533L6.37334 29.0933L5.46667 29.4933C5.07987 33.6592 5.66405 37.858 7.17333 41.76L8.18667 41.8667L9.78667 42.08L8.90667 43.4133L8.32 44.2933C10.24 47.9733 13.0133 51.2 16.3733 53.6267L17.36 53.1733L18.8 52.48L18.7733 54.08L18.7467 55.1733C22.3658 57.2478 26.4211 58.4443 30.5867 58.6667L31.1467 57.7333L32 56.3467L32.8533 57.7333L33.4133 58.6667C37.5767 58.4525 41.6319 57.2652 45.2533 55.2V54.08L45.2 52.48L46.64 53.1733L47.6267 53.6533C50.9867 51.2 53.76 47.9733 55.68 44.2933L55.0933 43.4133L54.2133 42.08L55.8133 41.8667L56.8267 41.76C58.3542 37.8627 58.939 33.6596 58.5333 29.4933L57.6267 29.0933H57.6533Z" fill="#FFC000"/>
</svg>
