<svg width="64" height="64" viewBox="0 0 64 64" fill="none" xmlns="http://www.w3.org/2000/svg">
<path d="M58.1867 21.0933C51.4134 13.4399 42.4 9.06661 33.44 9.06661C31.68 9.06661 29.92 9.27994 28.24 9.59994C27.8934 7.89327 27.1734 6.34661 25.6534 5.49327C25.3892 5.34034 25.0767 5.29382 24.7795 5.36318C24.4822 5.43254 24.2226 5.61256 24.0534 5.86661C23.9689 5.99182 23.9121 6.13354 23.8865 6.28238C23.8609 6.43123 23.8673 6.5838 23.9051 6.73001C23.9429 6.87623 24.0113 7.01274 24.1058 7.13053C24.2004 7.24832 24.3188 7.34469 24.4534 7.41327C26.3467 8.47994 26.24 12.3199 26.16 14.8533L26.1334 16.3466C19.92 15.8399 14.56 17.5999 10.8 21.4133C8.81767 23.5893 7.31207 26.1557 6.37983 28.9478C5.4476 31.7399 5.10932 34.6961 5.3867 37.6266C5.49337 39.5733 5.8667 41.9466 6.56004 45.5466C6.96004 47.6266 7.49337 50.6933 7.7067 53.5466C7.92004 56.3733 10.5067 58.6666 13.5734 58.6666L14.1867 58.6399C37.5734 56.4266 40.1067 40.0533 40.1067 33.1199C40.1067 24.6666 34.1334 17.9199 28.4534 16.6399C28.4342 15.44 28.4342 14.2399 28.4534 13.0399C34.24 19.9733 44.9867 22.1599 51.7067 22.5333C53.76 22.6666 54.7467 22.7733 55.7067 22.8533L56.96 22.9866L57.6 23.0399C58.2667 23.0399 58.6667 22.6133 58.6667 21.9999C58.6667 21.6266 58.48 21.3866 58.1867 21.0933Z" fill="#5C18AB"/>
</svg>
