<svg width="64" height="64" viewBox="0 0 64 64" fill="none" xmlns="http://www.w3.org/2000/svg">
<path fill-rule="evenodd" clip-rule="evenodd" d="M58.3467 36.2667C58.5403 37.7384 58.3881 39.2351 57.902 40.6377C57.4159 42.0403 56.6095 43.3103 55.5467 44.3467C53.7867 45.9467 51.8134 47.28 49.84 48.2667C44.2934 50.9867 38.64 53.4133 32.7467 56.1067C33.6 52.64 35.2534 50.5333 37.2534 49.1733C40.4534 46.9333 43.7867 45.0933 47.0667 43.0933L58.3467 36.24V36.2667ZM5.33337 34.9333C10.4 40.6933 16.24 42.2933 21.5467 45.4667C23.9467 46.88 26.2667 48.6667 28.3734 50.7467C29.6534 51.9733 30.48 54.0267 31.4934 55.7333L31.0134 56C26.48 53.9467 21.9467 51.9733 17.4934 49.7867C14.5914 48.4208 11.8084 46.8152 9.17337 44.9867C6.61337 43.1467 5.46671 39.8667 5.33337 34.9333ZM12.72 26.0533C17.7867 30.6933 22.8267 35.3867 27.92 39.9733C29.0666 40.9596 29.9778 42.19 30.5869 43.5743C31.196 44.9586 31.4875 46.4617 31.44 47.9733C26.56 44.7467 21.7867 41.6533 17.04 38.4267C12.7467 35.52 11.4134 32 12.2134 26.1333C12.4 26.1333 12.6134 25.9733 12.7467 26.1067L12.72 26.0533ZM51.6 25.6C52.56 30.6667 51.8667 33.9733 49.2534 36.5067C48.08 37.6533 46.7467 38.5067 45.44 39.3867C41.2267 42.2667 36.96 45.0933 32.6934 47.9467C32.4267 44.0267 34.24 41.6 36.64 39.4933C40.7467 35.92 44.8 32.24 48.8267 28.56C49.7867 27.7067 50.6134 26.6667 51.6 25.6ZM44.8 19.9733C45.92 24.6933 45.6267 26.8267 42.8267 29.52C39.6267 32.6133 36.24 35.36 32.72 38.4533C32.5338 37.2488 32.6243 36.0177 32.9847 34.8533C33.3451 33.689 33.9659 32.622 34.8 31.7333L44.8 20V19.9733ZM19.3334 20.0267L29.12 31.52C30.48 33.12 31.68 34.8 31.4934 37.9733C30.8 37.5733 30.1867 37.3333 29.68 36.9067C26.88 34.5067 24 32.2133 21.3067 29.6267C18.5067 26.9333 18.16 24.6667 19.3334 20.0267ZM38.2667 14.96C39.6534 20.6133 38.4267 23.84 32.9334 28.64C32.0534 23.28 33.8667 18.7733 38.2667 14.9867V14.96ZM25.76 14.2133C28.96 18.32 32.08 21.7867 31.4934 28.2933C26.64 26.1067 24.56 21.2533 25.76 14.2133ZM32.0534 8C35.3067 11.0933 34.9067 15.3333 32.08 18.16C28.88 14.5067 28.8267 11.6267 32.0534 8Z" fill="#709C39"/>
</svg>
