<svg width="64" height="64" viewBox="0 0 64 64" fill="none" xmlns="http://www.w3.org/2000/svg">
<path d="M32 55.9921C44.8221 55.9921 55.2165 45.5977 55.2165 32.7756C55.2165 19.9535 44.8221 9.55908 32 9.55908C19.1779 9.55908 8.78348 19.9535 8.78348 32.7756C8.78348 45.5977 19.1779 55.9921 32 55.9921Z" stroke="#46587A" stroke-width="2"/>
<path d="M21.2211 36.4833C21.9308 38.788 23.3605 40.8046 25.3005 42.237C27.2404 43.6695 29.5885 44.4425 32 44.4425C34.4115 44.4425 36.7596 43.6695 38.6995 42.237C40.6395 40.8046 42.0692 38.788 42.7789 36.4833" stroke="#46587A" stroke-width="2"/>
<path d="M26.1828 24.6324C26.1828 25.6743 25.7689 26.6735 25.0322 27.4102C24.2955 28.1469 23.2963 28.5607 22.2545 28.5607C21.2126 28.5607 20.2134 28.1469 19.4767 27.4102C18.74 26.6735 18.3262 25.6743 18.3262 24.6324" stroke="#46587A" stroke-width="2"/>
<path d="M45.6738 24.6324C45.6738 25.6743 45.26 26.6735 44.5233 27.4102C43.7866 28.1469 42.7874 28.5607 41.7455 28.5607C40.7037 28.5607 39.7045 28.1469 38.9678 27.4102C38.2311 26.6735 37.8172 25.6743 37.8172 24.6324" stroke="#46587A" stroke-width="2"/>
</svg>
