<svg width="64" height="64" viewBox="0 0 64 64" fill="none" xmlns="http://www.w3.org/2000/svg">
<path d="M57.2266 55.4134C57.1466 55.4134 49.4133 55.68 41.1466 51.9467L39.3867 51.12C41.52 49.6 44.72 45.92 41.8666 38.5867C41.8666 38.5867 34.9333 40.7734 36 49.12C33.1524 47.2387 30.6305 44.9059 28.5333 42.2134C30.48 41.3067 39.4666 36.32 34.2666 22.56C34.2666 22.56 24.3733 25.5734 25.4133 37.36C23.8933 34.48 22.7466 31.28 21.8933 27.76C23.0133 25.92 29.4933 14.24 17.7866 5.33337C17.7866 5.33337 8.61331 17.5734 19.1466 28.3734C19.4133 29.5734 19.7333 30.72 20.08 31.84C17.0933 29.2 11.4666 26.5067 5.33331 35.1467C5.33331 35.1467 12.6933 47.3867 22.1866 37.28C23.6722 40.4758 25.6123 43.4399 27.9466 46.08C24.8533 45.76 20.7466 47.12 18.4266 55.04C18.4266 55.04 27.3866 61.9734 32.6133 50.48C35.1733 52.48 37.8133 53.9467 40.24 55.0134C45.6173 57.3912 51.4271 58.6349 57.3066 58.6667C58.1066 58.64 58.6933 57.8667 58.6666 56.9867C58.64 56.1067 58.0266 55.3867 57.2266 55.4134Z" fill="#71B16D"/>
</svg>
