<svg width="64" height="64" viewBox="0 0 64 64" fill="none" xmlns="http://www.w3.org/2000/svg">
<path d="M54.32 41.2534C53.76 41.3067 53.2533 40.8267 53.2267 40.1867C53.1733 39.52 53.6 38.9867 54.1867 38.9334C54.72 38.9067 55.2533 39.3867 55.2533 40.0267C55.3067 40.6667 54.88 41.2267 54.32 41.2534ZM55.6533 37.0934C54.5333 37.84 52.32 38.3467 48.96 37.6C48.16 37.4134 47.9467 37.6267 47.0933 39.2534C46.6933 40.0267 46.24 40.8534 45.5733 41.6C43.44 43.84 40.1333 43.5467 35.68 40.6934C30.2133 37.1734 29.9467 37.2 25.8133 41.3867C25.0716 42.1807 24.1556 42.7916 23.1375 43.171C22.1194 43.5505 21.0271 43.6882 19.9467 43.5734C18.3714 43.2867 16.8701 42.6855 15.5322 41.8059C14.1944 40.9262 13.0475 39.786 12.16 38.4534C10.5333 35.8134 8.29332 28.4267 12.3467 23.6C15.2 20.2134 18.1333 19.12 23.6 18L23.8666 17.9467C32.64 16.2134 35.3333 13.4667 36.1333 12C37.4933 9.60004 37.7333 7.06671 37.7067 5.33337C33.6533 15.92 22.8267 13.2 14.88 16.2134C12.0054 17.3104 9.53819 19.2656 7.81332 21.8134C4.23998 27.1734 4.69332 34.3467 8.18665 40.6134C9.95236 43.7652 12.5548 46.3677 15.7067 48.1334C16.5867 48.9334 16.5867 49.7867 16.6933 51.44L16.9067 56.8C17.04 57.8667 17.84 58.6667 18.72 58.6134H20.64C21.6 58.5334 22.3733 57.44 22.2933 56.2934C22.1066 53.7867 22.4533 51.3067 23.36 50.6934C24.48 49.8934 26.72 52.4 31.84 51.4134C35.2 50.7734 35.1467 52.0267 35.3867 56.6934C35.4667 57.84 36.2667 58.72 37.2267 58.6667H39.1467C40.0533 58.5867 40.7467 57.52 40.6933 56.4L40.7733 54.4534C40.6933 52.8267 41.28 51.3867 42.5333 50.32C49.28 43.84 48.4533 44.2934 56.08 44.8267C57.0667 44.9067 58.6133 43.3067 58.6667 42.16C58.6933 41.2534 56.6667 38.5334 55.6267 37.0934H55.6533ZM24.32 20.3734L24.0533 20.4C18.4533 21.5734 16.32 22.6134 14.16 25.2C10.96 29.04 13.0933 35.3334 14.16 37.0934C14.96 38.3467 17.4933 40.8267 20.1867 41.12C20.9205 41.2143 21.6663 41.1274 22.3589 40.8671C23.0515 40.6068 23.6698 40.181 24.16 39.6267C29.04 34.64 30.6133 34.5334 36.9333 38.56C40.2933 40.7467 42.64 41.1734 43.8667 39.8934C44.32 39.4134 44.6666 38.72 45.0133 38.08C45.7867 36.6134 46.8266 34.5867 49.4667 35.1734C52.4267 35.8667 53.8133 35.3334 54.24 35.0934L53.7867 34.4267C51.6267 31.3067 47.76 31.1467 45.0667 33.4934C43.3333 35.1734 41.4667 36.56 39.4667 34.8267C28.8 25.44 21.3333 35.36 19.0667 34.24C18.3733 33.8934 19.8133 30.9867 22.8267 30.24C35.68 27.12 49.0667 20.56 40.08 5.97337C40.0614 8.50757 39.4204 10.9984 38.2133 13.2267C36.4 16.4534 31.6 18.9334 24.32 20.3734Z" fill="#535353"/>
</svg>
