<svg width="64" height="64" viewBox="0 0 64 64" fill="none" xmlns="http://www.w3.org/2000/svg">
<path d="M49.04 26C48.88 26.3467 48.7467 26.8 48.5867 26.9867C48.16 27.9734 46.5067 27.9734 46.08 26.9867C45.92 26.72 45.7867 26.3467 45.6267 26C44.88 24.32 45.92 22.6934 47.4133 22.6934C48.7467 22.48 49.7867 24.24 49.0133 26H49.04ZM46.6667 38.7467C46.5067 39.0934 46.3733 39.52 46.2133 39.7334C45.7867 40.72 44.16 40.72 43.7067 39.7334C43.5467 39.4667 43.4133 39.0934 43.2533 38.7467C42.5067 37.0667 43.5467 35.44 45.04 35.44C46.2933 35.36 47.4133 37.04 46.6667 38.7467ZM41.1733 45.2267C41.04 45.5734 40.9067 46 40.7467 46.2134C40.2933 47.2 38.6667 47.2 38.2133 46.2134C38.0579 45.8904 37.9156 45.5612 37.7867 45.2267C37.04 43.52 38.0533 41.92 39.5467 41.92C40.8267 41.84 41.84 43.52 41.1733 45.2267ZM38.88 29.04C40.2933 29.04 41.3333 30.72 40.6667 32.3467C40.5067 32.6934 40.3733 33.12 40.2133 33.3334C39.7867 34.32 38.16 34.32 37.7067 33.3334C37.5467 33.0667 37.4133 32.6934 37.2533 32.3467C36.3733 30.64 37.4133 29.04 38.88 29.04ZM33.7867 51.6267C33.6267 51.9734 33.4933 52.4267 33.3333 52.6134C32.88 53.6 31.2533 53.6 30.8267 52.6134C30.6667 52.3467 30.5067 51.9734 30.3733 51.6267C29.6267 49.9467 30.6667 48.32 32.16 48.32C33.5467 48.24 34.4533 50 33.76 51.6267H33.7867ZM31.92 35.44C33.3333 35.44 34.3733 37.12 33.7067 38.7467C33.5467 39.0934 33.4133 39.52 33.2533 39.7334C32.8267 40.72 31.1733 40.72 30.7467 39.7334C30.5867 39.4667 30.4533 39.0934 30.2933 38.7467C29.4933 37.1467 30.5067 35.44 31.92 35.44ZM26.88 32.3467C26.7467 32.6934 26.6133 33.12 26.4533 33.3334C26 34.32 24.3733 34.32 23.92 33.3334L23.4933 32.3467C22.7467 30.64 23.76 29.04 25.2533 29.04C26.7467 29.04 27.6533 30.64 26.88 32.3467ZM26.3467 45.2267C26.2133 45.5734 26.08 46 25.92 46.2134C25.4933 47.2 23.84 47.2 23.4133 46.2134C23.2533 45.9467 23.12 45.5734 22.96 45.2267C22.2133 43.52 23.2533 41.92 24.7467 41.92C26.16 41.84 27.04 43.52 26.3467 45.2267ZM20.8267 38.7467C20.6667 39.0934 20.5067 39.52 20.3733 39.7334C19.92 40.72 18.2933 40.72 17.84 39.7334L17.4133 38.7467C16.6667 37.0667 17.68 35.44 19.1733 35.44C20.5067 35.36 21.5733 37.04 20.8267 38.7467ZM15.5467 27.0134C15.28 26.64 15.12 26.2934 14.96 26C14.2133 24.32 15.2533 22.6934 16.7467 22.6934C18.16 22.6934 19.1733 24.3734 18.5067 26C18.3733 26.3467 18.24 26.8 18.08 26.9867C17.6267 27.9734 16 27.9734 15.5467 26.9867V27.0134ZM31.92 22.7734C33.3333 22.7734 34.3733 24.4534 33.7067 26.08C33.5467 26.4267 33.4133 26.8534 33.2533 27.0667C32.8267 28.0534 31.1733 28.0534 30.7467 27.0667C30.5867 26.8 30.4533 26.4267 30.2933 26.08C29.4933 24.48 30.5067 22.7734 31.92 22.7734ZM44.1067 17.4934C50.24 15.7067 50.96 9.60004 50.96 9.60004C44.4533 8.32004 39.4667 9.68004 36.56 14.1334C36.7733 10.6667 34.8533 7.62671 31.9467 5.33337C31.9467 5.33337 27.04 8.80004 27.5467 14.3467C24.6667 9.73337 19.6267 8.29337 12.9867 9.60004C12.9867 9.60004 13.7333 15.7067 19.8667 17.4934C12.8 18.3467 8 20.8534 8 28.4C8 39.7334 24.08 58.6667 32 58.6667C39.92 58.6667 56 39.7334 56 28.4C56 20.8534 51.2 18.32 44.1067 17.4667" fill="#CB003A"/>
</svg>
