<svg width="64" height="64" viewBox="0 0 64 64" fill="none" xmlns="http://www.w3.org/2000/svg">
<path fill-rule="evenodd" clip-rule="evenodd" d="M45.44 41.3067C45.44 50.0534 45.44 50.0534 42.72 52.1867C42.72 52.1867 32.8533 59.04 32.64 59.3067C32.1333 59.7067 32.0533 60.0534 32.0533 60.0534C32.0533 60.0534 31.8933 59.6534 31.6266 59.3867C31.3866 59.1734 21.4933 52.24 21.4933 52.24C18.9066 50.16 18.7466 50.0534 18.7466 42.8267V41.36L29.4933 49.3067C31.2266 50.72 31.8933 51.2534 32.0533 53.92C32.2133 51.1734 32.8533 50.72 34.72 49.2534L45.44 41.3067ZM45.44 29.2534C45.44 37.9734 45.44 37.9734 42.88 40.1067C42.88 40.1067 33.04 47.04 32.8 47.2534C32.2933 47.6534 32.2133 48 32.2133 48C32.2133 48 32.0533 47.6534 31.7333 47.2534L21.5466 40.1067C18.8266 37.92 18.8266 37.92 18.8266 29.2534L29.5733 37.1734C31.3066 38.5867 31.9733 39.12 32.1333 41.7867C32.2933 39.12 32.88 38.64 34.6933 37.1734L45.44 29.2534ZM45.44 17.3867C45.44 26.0534 45.44 26.0534 42.72 28.2667C42.72 28.2667 32.8533 35.12 32.8 35.3867C32.2933 35.7867 32.2133 36.1334 32.2133 36.1334C32.2133 36.1334 32.0533 35.7867 31.7333 35.3867L21.5466 28.2667C18.8266 26.0534 18.8266 26.0534 18.8266 17.3867L29.6 25.3334C31.3333 26.72 32 27.2534 32.16 29.92C32.32 27.2534 32.9066 26.8 34.72 25.3334L45.44 17.3867ZM45.44 5.33337C45.44 14 45.44 14 42.72 16.2134C42.72 16.2134 32.8533 23.1467 32.64 23.3334C32.1333 23.7334 32.0533 24.08 32.0533 24.08C32.0533 24.08 31.8933 23.7334 31.5466 23.3334L21.4133 16.2134C18.88 14.1867 18.6666 14.0267 18.6666 7.41337V5.33337L29.5733 13.28C31.3066 14.6667 31.9733 15.2 32.1333 17.8667C32.2933 15.2 32.88 14.7467 34.6933 13.28L45.44 5.33337Z" fill="black"/>
</svg>
