<svg width="64" height="64" viewBox="0 0 64 64" fill="none" xmlns="http://www.w3.org/2000/svg">
<path fill-rule="evenodd" clip-rule="evenodd" d="M25.0133 10.6666V18.8533L19.1467 21.4133C18.8491 21.5419 18.5952 21.7538 18.4153 22.0235C18.2355 22.2932 18.1376 22.6092 18.1333 22.9333V40.6666C18.1333 41.6 18.9067 42.3466 19.84 42.3466H33.5733C34.5067 42.3466 35.2533 41.6 35.2533 40.6666V22.9333C35.2514 22.6121 35.1574 22.2982 34.9825 22.0289C34.8076 21.7595 34.5592 21.5458 34.2667 21.4133L28.4 18.8266V10.6666H47.7333C48.0533 10.6666 48.3467 10.8 48.56 11.04C48.7733 11.2533 48.88 11.5733 48.8267 11.8933C48.8267 11.8933 48.88 13.2 48.8 15.36C54.08 17.28 57.52 22.1333 56.8 27.36C56.5452 28.9834 55.9411 30.5323 55.0295 31.8996C54.118 33.267 52.9206 34.4203 51.52 35.28C49.6533 36.4533 47.52 37.2 45.28 37.4133C42.2933 46.6133 36.8533 54.7466 26.9067 54.7466C4.10667 54.7733 5.33334 11.92 5.33334 11.92V11.68C5.36345 11.4495 5.4662 11.2347 5.62667 11.0666C5.84001 10.8266 6.16001 10.6933 6.48001 10.6933H25.0133V10.6666ZM48.64 18.4L48.6133 18.88C48.2933 23.1466 47.6267 28.8533 46.1333 34.4533C47.3067 34.1866 48.4267 33.7333 49.44 33.0933C50.5046 32.4333 51.4134 31.5504 52.104 30.5054C52.7945 29.4603 53.2503 28.2781 53.44 27.04C53.6296 25.284 53.2698 23.5126 52.41 21.9698C51.5503 20.4271 50.2331 19.1891 48.64 18.4266V18.4Z" fill="#CE861E"/>
</svg>
