<svg width="64" height="64" viewBox="0 0 64 64" fill="none" xmlns="http://www.w3.org/2000/svg">
<path d="M16.8835 32.3039L14.4539 34.6671C14.2958 34.8208 14.0887 34.9139 13.8688 34.9301C13.6489 34.9462 13.4304 34.8844 13.2516 34.7554L13.1413 34.6754L10.4834 32.7554L11.7741 32.7629L8.65371 34.2842C8.53327 34.3429 8.39587 34.3568 8.2661 34.3235C8.13633 34.2901 8.02268 34.2117 7.94549 34.1021C7.86829 33.9926 7.83261 33.8592 7.84482 33.7258C7.85702 33.5923 7.91633 33.4676 8.01211 33.3739L10.4939 30.9466C10.6461 30.7977 10.846 30.7074 11.0583 30.6915C11.2707 30.6756 11.4818 30.7352 11.6544 30.8598L11.7847 30.9541L14.4425 32.8741L13.1299 32.8824L16.0963 31.2428C16.2376 31.1647 16.4024 31.1405 16.5602 31.1748C16.7179 31.209 16.8579 31.2994 16.954 31.429C17.0502 31.5587 17.0961 31.7188 17.0831 31.8797C17.0701 32.0406 16.9992 32.1913 16.8835 32.3039H16.8835Z" fill="#46587A"/>
<path d="M53.2191 32.3039L50.7895 34.6671C50.6315 34.8208 50.4243 34.9139 50.2045 34.9301C49.9846 34.9462 49.766 34.8844 49.5872 34.7554L49.4769 34.6754L46.819 32.7554L48.1098 32.7629L44.9893 34.2842C44.8689 34.3429 44.7315 34.3568 44.6017 34.3235C44.472 34.2901 44.3583 34.2117 44.2811 34.1021C44.2039 33.9926 44.1682 33.8592 44.1804 33.7258C44.1927 33.5923 44.252 33.4676 44.3477 33.3739L46.8295 30.9466C46.9817 30.7977 47.1816 30.7074 47.394 30.6915C47.6063 30.6756 47.8174 30.7352 47.9901 30.8598L48.1203 30.9541L50.7782 32.8741L49.4656 32.8824L52.432 31.2428C52.5732 31.1647 52.7381 31.1405 52.8958 31.1748C53.0535 31.209 53.1935 31.2994 53.2897 31.429C53.3858 31.5587 53.4317 31.7188 53.4187 31.8797C53.4057 32.0406 53.3348 32.1913 53.2191 32.3039Z" fill="#46587A"/>
<path d="M30.8597 17.3188C31.0537 17.3196 31.2459 17.3551 31.4273 17.4236C32.0657 17.6609 32.4591 18.2403 32.4614 18.9914C32.4676 20.9363 32.4637 22.8814 32.4638 24.8264C32.4638 27.207 32.4643 29.5877 32.4652 31.9684C32.4661 32.5651 32.7909 32.9283 33.2924 32.9283C33.3267 32.9283 33.3619 32.9266 33.3979 32.9232C33.85 32.8798 34.1413 32.5412 34.1443 32.0142C34.1518 30.6761 34.1473 29.3379 34.1474 27.9998C34.1475 25.8992 34.1476 23.7985 34.1476 21.6979C34.1476 21.5579 34.1417 21.4171 34.1539 21.2781C34.2254 20.4648 34.8517 19.8432 35.5919 19.8433C35.595 19.8433 35.5981 19.8433 35.6012 19.8433C36.3276 19.8484 36.9442 20.4524 37.027 21.2507C37.0403 21.4369 37.044 21.6237 37.0381 21.8104C37.0386 25.1713 37.0376 28.5323 37.0349 31.8933C37.0342 32.2943 37.1104 32.6376 37.4934 32.8383C37.6164 32.9046 37.7538 32.9399 37.8936 32.9412C38.3384 32.9412 38.7155 32.5599 38.7189 31.996C38.7282 30.4867 38.7219 28.9774 38.7221 27.4681C38.7223 26.55 38.7082 25.6317 38.7274 24.714C38.7467 23.7928 39.2664 23.2165 40.0423 23.2078C40.0496 23.2077 40.0568 23.2077 40.0639 23.2077C40.5958 23.2077 40.9404 23.4312 41.0937 23.9477C41.1841 24.2604 41.2302 24.5844 41.2306 24.91C41.2415 27.3528 41.2366 29.7958 41.2366 32.2387C41.2366 34.5105 41.2365 36.7822 41.2364 39.054C41.2342 43.7496 38.3302 47.2232 33.7023 48.0216C32.9186 48.1594 32.1245 48.2299 31.3288 48.2323C29.2989 48.2323 27.3461 47.7413 25.5142 46.6367C22.9274 45.0768 21.6268 42.7298 21.3522 39.7348C21.0725 36.6849 20.6916 33.6444 20.3754 30.5977C20.3353 30.2115 20.0966 29.7784 20.5282 29.4282C20.8651 29.1397 21.2922 28.9779 21.7358 28.9709C21.904 28.9713 22.0713 28.995 22.233 29.0413C22.5027 29.1175 22.7886 29.4179 22.9089 29.6872C23.2421 30.4377 23.5295 31.2077 23.7692 31.993C24.1702 33.2993 24.5289 34.6189 24.8889 35.9373C25.0096 36.3792 25.2574 36.657 25.7161 36.6986C27.8449 36.8915 29.9346 38.8837 30.033 41.7939C30.0537 42.406 30.3879 42.7953 30.8387 42.7953C30.9503 42.7941 31.0607 42.7726 31.1646 42.732C31.5457 42.5876 31.705 42.2985 31.7183 41.9003C31.8192 38.9042 29.7144 36.0129 26.8193 35.21C26.5074 35.1235 26.372 34.9892 26.2827 34.6795C25.7927 32.9794 25.2713 31.2884 24.7677 29.5922C24.7302 29.4423 24.7141 29.288 24.7199 29.1336C24.7171 26.6129 24.7169 24.0922 24.7192 21.5715C24.7142 21.4161 24.7241 21.2606 24.7489 21.1072C24.896 20.3595 25.4825 19.8431 26.1636 19.8432C26.1772 19.8432 26.191 19.8434 26.2047 19.8438C26.9118 19.8653 27.5082 20.4577 27.5958 21.2372C27.6104 21.4234 27.6147 21.6102 27.6086 21.7968C27.6092 25.1578 27.5998 28.5188 27.6247 31.8796C27.627 32.1827 27.7702 32.5728 27.987 32.7682C28.1143 32.8852 28.281 32.95 28.4539 32.9496C28.6588 32.9426 28.8545 32.8628 29.0061 32.7247C29.1577 32.5866 29.2552 32.3991 29.2812 32.1957C29.2962 32.0252 29.2999 31.8538 29.2923 31.6828C29.2927 27.4661 29.2934 23.2493 29.2941 19.0325C29.295 18.0309 30.0084 17.3188 30.8597 17.3188V17.3188ZM30.8598 15.0966H30.8597C30.3496 15.0981 29.8451 15.2037 29.3772 15.4069C28.9093 15.6102 28.4877 15.9067 28.1384 16.2785C27.7338 16.7105 27.4329 17.2288 27.2583 17.7943C26.9394 17.6906 26.6075 17.6328 26.2724 17.6226C26.2359 17.6215 26.1996 17.6209 26.1636 17.6209C25.2835 17.6226 24.4348 17.9478 23.7789 18.5345C23.1536 19.0987 22.7287 19.851 22.5685 20.6779C22.5149 20.9709 22.491 21.2686 22.4969 21.5664C22.4956 23.5087 22.4953 25.225 22.496 26.8218C22.2455 26.7733 21.9909 26.7488 21.7358 26.7486C20.7822 26.7547 19.8603 27.0919 19.128 27.7026C18.8332 27.9381 18.5879 28.2295 18.406 28.56C18.2241 28.8906 18.1093 29.2538 18.0682 29.6288C18.0325 30.0199 18.0618 30.4143 18.1549 30.7959C18.1593 30.8164 18.1649 30.8427 18.1685 30.8603C18.2918 32.047 18.4264 33.2473 18.5567 34.4084C18.7602 36.2232 18.9707 38.0998 19.1392 39.9377C19.3088 41.7866 19.818 43.4407 20.6527 44.854C21.5329 46.3444 22.7825 47.5844 24.3666 48.5397C26.4738 49.8103 28.8162 50.4546 31.3288 50.4546C32.2511 50.4518 33.1715 50.3704 34.0801 50.2115C36.8733 49.7296 39.2338 48.4211 40.9064 46.4276C42.5748 44.4391 43.4573 41.8897 43.4586 39.055C43.4594 37.4749 43.4595 35.8948 43.459 34.3146L43.4588 32.2387C43.4588 31.6583 43.459 31.0779 43.4593 30.4975C43.4602 28.6638 43.4611 26.7677 43.4528 24.9001C43.4521 24.3636 43.375 23.83 43.224 23.3153C43.0262 22.6089 42.5931 21.9912 41.9965 21.5645C41.4485 21.1802 40.7983 20.9854 40.0639 20.9854C40.0483 20.9854 40.0326 20.9855 40.0168 20.9857C39.7563 20.9882 39.4968 21.0183 39.2426 21.0755C39.241 21.0575 39.2392 21.0394 39.2374 21.0212C39.0376 19.096 37.4811 17.6342 35.6168 17.6211L35.5919 17.621C35.2236 17.6208 34.8575 17.678 34.5068 17.7905C34.3988 17.4339 34.2393 17.095 34.0334 16.7845C33.5918 16.1209 32.9502 15.6151 32.2017 15.3407C31.7726 15.1799 31.3181 15.0972 30.8598 15.0966H30.8598Z" fill="#46587A"/>
<path d="M43.1061 20.9776L43.153 17.5886C43.1561 17.3682 43.2367 17.1558 43.3808 16.989C43.5249 16.8221 43.7232 16.7113 43.9408 16.6761L44.0753 16.6545L47.3124 16.1328L46.3944 17.0402L47.5252 13.758C47.5688 13.6313 47.6561 13.5243 47.7715 13.4562C47.8868 13.388 48.0227 13.3631 48.1547 13.386C48.2867 13.4088 48.4063 13.4779 48.492 13.5809C48.5777 13.6839 48.624 13.814 48.6225 13.948L48.584 17.4193C48.5817 17.6322 48.5042 17.8374 48.3653 17.9988C48.2264 18.1601 48.0349 18.2673 47.8247 18.3013L47.666 18.3267L44.4289 18.8485L45.3512 17.9144L44.413 21.1714C44.3683 21.3265 44.2689 21.4601 44.1331 21.5474C43.9974 21.6347 43.8345 21.6698 43.6749 21.6462C43.5152 21.6225 43.3695 21.5417 43.2649 21.4187C43.1603 21.2958 43.1039 21.1391 43.1061 20.9776V20.9776Z" fill="#46587A"/>
<path d="M13.7408 50.343L13.7877 46.954C13.7907 46.7335 13.8714 46.5212 14.0155 46.3543C14.1595 46.1874 14.3578 46.0766 14.5754 46.0414L14.71 46.0199L17.947 45.4982L17.029 46.4056L18.1598 43.1234C18.2034 42.9967 18.2908 42.8897 18.4061 42.8215C18.5215 42.7533 18.6573 42.7285 18.7893 42.7513C18.9214 42.7742 19.0409 42.8433 19.1266 42.9463C19.2124 43.0492 19.2586 43.1794 19.2571 43.3134L19.2187 46.7846C19.2163 46.9976 19.1388 47.2028 18.9999 47.3641C18.861 47.5255 18.6696 47.6326 18.4594 47.6666L18.3007 47.6921L15.0636 48.2138L15.9859 47.2798L15.0477 50.5367C15.003 50.6918 14.9035 50.8255 14.7678 50.9128C14.632 51.0001 14.4692 51.0352 14.3095 51.0115C14.1498 50.9879 14.0042 50.907 13.8996 50.7841C13.795 50.6611 13.7386 50.5044 13.7408 50.343H13.7408Z" fill="#46587A"/>
<path d="M43.7133 44.2128L45.7918 44.0655C46.0033 44.0505 46.2127 44.115 46.3792 44.2463C46.5456 44.3776 46.6571 44.5662 46.6917 44.7754L46.7259 44.9878L47.2476 48.2249L46.3402 47.3068L49.6224 48.4376C49.7491 48.4812 49.8561 48.5686 49.9243 48.6839C49.9925 48.7993 50.0173 48.9351 49.9945 49.0671C49.9716 49.1992 49.9025 49.3187 49.7995 49.4045C49.6965 49.4902 49.5664 49.5364 49.4324 49.5349L45.9612 49.4965C45.7482 49.4941 45.543 49.4166 45.3817 49.2777C45.2203 49.1388 45.1132 48.9474 45.0792 48.7372L45.0537 48.5785L44.532 45.3414L45.466 46.2637L43.5196 45.5197C43.3757 45.4647 43.2549 45.3623 43.1772 45.2294C43.0994 45.0964 43.0693 44.9409 43.0919 44.7885C43.1145 44.6362 43.1884 44.4961 43.3014 44.3914C43.4144 44.2867 43.5597 44.2237 43.7133 44.2128Z" fill="#46587A"/>
<path d="M13.0374 14.6531L16.4265 14.7C16.6469 14.7031 16.8592 14.7837 17.0261 14.9278C17.193 15.0719 17.3038 15.2701 17.339 15.4878L17.3605 15.6223L17.8823 18.8594L16.9749 17.9414L21.6244 19.3089C21.7563 19.3477 21.8694 19.4337 21.9421 19.5505C22.0148 19.6672 22.042 19.8067 22.0185 19.9422C21.9951 20.0778 21.9226 20.1999 21.8149 20.2855C21.7071 20.3711 21.5717 20.414 21.4344 20.4062L16.5958 20.131C16.3786 20.1187 16.1721 20.0325 16.0105 19.8869C15.8489 19.7413 15.7418 19.5448 15.707 19.3301L15.6884 19.213L15.1666 15.9759L16.1006 16.8982L12.8437 15.96C12.6886 15.9153 12.555 15.8159 12.4676 15.6801C12.3803 15.5444 12.3452 15.3815 12.3689 15.2219C12.3926 15.0622 12.4734 14.9165 12.5963 14.8119C12.7193 14.7073 12.876 14.6509 13.0374 14.6531Z" fill="#46587A"/>
<path d="M31.7684 14.3872L29.4213 12.33C29.236 12.1676 29.1213 11.9393 29.1016 11.6937C29.0819 11.4481 29.1587 11.2045 29.3158 11.0147L29.4115 10.8994L31.3286 8.58891L31.3205 9.99809L29.7737 7.20973C29.7092 7.0935 29.6877 6.95827 29.7131 6.82778C29.7384 6.69729 29.8088 6.57989 29.9121 6.49619C30.0153 6.41249 30.1448 6.36784 30.2777 6.37008C30.4106 6.37232 30.5384 6.4213 30.6388 6.50844L33.0468 8.59872C33.227 8.75519 33.3389 8.97596 33.3585 9.21384C33.3782 9.45172 33.3039 9.68784 33.1518 9.87172L33.0387 10.0079L31.1217 12.3184L31.1119 10.8878L32.7735 13.5298C32.8589 13.6656 32.8925 13.8275 32.8683 13.986C32.8441 14.1445 32.7637 14.289 32.6417 14.3931C32.5197 14.4972 32.3643 14.5538 32.2039 14.5528C32.0436 14.5517 31.889 14.4929 31.7684 14.3872L31.7684 14.3872Z" fill="#46587A"/>
<path d="M31.8078 57.9874L29.4897 56.4114C29.3721 56.3313 29.2737 56.2262 29.2016 56.1035C29.1294 55.9809 29.0854 55.8438 29.0725 55.7021C29.0596 55.5604 29.0783 55.4176 29.1272 55.284C29.176 55.1503 29.2539 55.0292 29.3551 54.9292L29.4784 54.8092L31.3917 52.9443L31.3828 54.5267L29.7928 52.1587C29.7196 52.0496 29.6864 51.9185 29.6991 51.7877C29.7117 51.6569 29.7693 51.5346 29.8621 51.4415C29.9549 51.3485 30.0771 51.2905 30.2079 51.2775C30.3386 51.2644 30.4698 51.2972 30.5791 51.3701L32.9518 52.9531C33.067 53.0301 33.1636 53.1317 33.2346 53.2507C33.3056 53.3696 33.3492 53.5028 33.3623 53.6407C33.3755 53.7786 33.3577 53.9177 33.3105 54.0479C33.2632 54.1781 33.1875 54.2961 33.0889 54.3935L32.9429 54.5356L31.0296 56.4006L31.0183 54.7984L32.7165 57.0285C32.8128 57.1548 32.8609 57.3113 32.8524 57.47C32.8438 57.6286 32.7791 57.779 32.6699 57.8943C32.5606 58.0096 32.4139 58.0823 32.2559 58.0994C32.098 58.1164 31.9391 58.0767 31.8078 57.9874H31.8078Z" fill="#46587A"/>
</svg>
