<svg width="64" height="64" viewBox="0 0 64 64" fill="none" xmlns="http://www.w3.org/2000/svg">
<path d="M7.54667 5.33337C5.41334 9.33337 7.46667 13.52 5.33334 18.3734L8.26667 28.16L7.2 28.9067C8.85334 32.64 10.6933 36.3734 14.2133 39.6267L12.7733 40.5067C14.9613 43.6249 17.8949 46.1459 21.3067 47.84L20.6133 49.36C23.3333 51.6534 26.9067 52.72 30.5333 53.7867L30.0533 55.6267L41.2 57.12L41.84 58.2667C45.4133 58.4534 49.04 59.2 53.04 58C52.64 56.7734 52.4 55.6 51.8933 54.5334C49.2 48.6667 44.2667 44.3734 38.8 40.5067C33.84 37.04 28.6667 33.7334 23.76 30.2134C15.4667 24.24 9.86667 16.8 8.26667 7.30671C8.16 6.77337 7.86667 6.24004 7.52 5.33337H7.54667ZM55.2 55.2534C57.347 51.7648 58.5422 47.7745 58.6667 43.68L57.3067 42.5867L54.9067 32.9334L52.6133 33.0667C50.781 29.7924 48.2609 26.9539 45.2267 24.7467L43.9467 25.2L34.08 18.48L33.1733 20.2134L22.5867 14.1334L20.9067 15.04C17.12 13.12 14.1333 10.24 10.56 7.54671C10.7467 8.40004 10.88 9.28004 11.2 10.1067C13.4667 16.0534 17.3333 21.0934 22.88 25.04C28.5067 29.04 34.3733 32.8267 40.08 36.7467C46.72 41.28 52.24 46.6134 54.4267 54.0267C54.5067 54.2667 54.6933 54.48 55.1733 55.2534" fill="#B89471"/>
</svg>
