<svg width="64" height="64" viewBox="0 0 64 64" fill="none" xmlns="http://www.w3.org/2000/svg">
<path fill-rule="evenodd" clip-rule="evenodd" d="M36.4533 15.4934C39.2864 15.4652 42.0973 15.9954 44.7255 17.0536C47.3536 18.1119 49.7476 19.6774 51.7708 21.6609C53.7939 23.6444 55.4065 26.007 56.5164 28.6137C57.6264 31.2204 58.2121 34.0203 58.24 36.8534C58.24 48.6667 48.48 58.2134 36.4533 58.2134C30.7362 58.2703 25.2303 56.0554 21.1452 52.0553C17.0601 48.0552 14.73 42.5971 14.6666 36.8801C14.6666 25.0667 24.4266 15.4934 36.4533 15.4934ZM6.69331 5.68005C6.90665 5.76005 9.62665 7.28005 11.12 7.52005C13.3333 7.86672 15.12 7.44005 17.28 7.09339C19.5733 6.74672 22.16 5.70672 24.4533 5.46672C25.7066 5.33339 27.7066 6.10672 28.2133 8.10672C28.4266 10.1601 28.2933 10.9334 27.8933 12.6934C27.8933 12.6934 27.68 13.6001 26.8266 14.2934C25.1945 15.7009 23.2437 16.689 21.1433 17.1723C19.043 17.6556 16.8565 17.6193 14.7733 17.0667C10.3466 15.8667 7.83998 12.7734 6.23998 8.90672L5.46665 6.66672C5.19998 5.94672 5.33331 5.60005 5.67998 5.41339C5.94665 5.22672 6.37331 5.60005 6.69331 5.70672V5.68005Z" fill="#A0D45E"/>
</svg>
