<svg width="64" height="64" viewBox="0 0 64 64" fill="none" xmlns="http://www.w3.org/2000/svg">
<path d="M30.1066 5.33337C28.7466 5.33337 27.3866 5.33337 26.0266 5.44004C15.8133 6.40004 7.81331 11.9467 5.33331 19.76L18.9866 22.88C21.2266 14.6667 25.3866 8.24004 30.1333 5.33337H30.1066ZM44.8 28.72L58.4533 31.84C60.0533 22.48 53.5466 12.96 42.9866 8.26671C43.8133 9.60004 44.48 11.2534 44.96 13.1467C46.0614 18.2866 45.9976 23.608 44.7733 28.72H44.8ZM54.2933 39.12L46.3733 46.8534H28.6933L34.0266 26.2667L41.8666 28.0534C43.0133 22.72 43.0933 17.5734 42.0533 13.3867C41.04 9.33337 39.0933 6.72004 36.72 6.16004C36.2385 6.05522 35.7433 6.02821 35.2533 6.08004C30.9066 6.48004 24.8533 12.6934 21.92 23.52L29.6533 25.28L23.92 46.88H12.2666L5.33331 58.5867H10.6666L14.8266 51.9734H22.56L20.8 58.56L25.6 58.64L27.3333 51.9734H46.9333L49.5466 58.5867H54.56L50.9866 49.44L57.7333 43.04C57.9977 42.8289 58.2161 42.566 58.3751 42.2673C58.5341 41.9687 58.6303 41.6406 58.6577 41.3034C58.6852 40.9662 58.6434 40.6269 58.5349 40.3065C58.4263 39.986 58.2534 39.6912 58.0266 39.44C57.0933 38.3734 55.4133 38.2134 54.2933 39.1467" fill="#35D5DA"/>
</svg>
