<svg width="64" height="64" viewBox="0 0 64 64" fill="none" xmlns="http://www.w3.org/2000/svg">
<path d="M53.2154 35.3598C53.2494 35.3598 53.2832 35.3586 53.3168 35.3572H53.3245V35.357C53.9551 35.3286 54.5496 35.0549 54.9812 34.5943C55.4128 34.1337 55.6473 33.5226 55.6347 32.8915C55.622 32.2604 55.3632 31.6592 54.9134 31.2163C54.4637 30.7733 53.8586 30.5237 53.2274 30.5206C53.3977 29.9476 53.36 29.3329 53.1212 28.7849C52.8823 28.2369 52.4576 27.7908 51.922 27.5255C51.3863 27.2601 50.7742 27.1924 50.1935 27.3344C49.6128 27.4764 49.101 27.8189 48.7482 28.3015C48.6784 27.4926 48.299 26.742 47.689 26.2061C47.0791 25.6703 46.2858 25.3907 45.4747 25.4257C44.6636 25.4606 43.8973 25.8075 43.3357 26.3938C42.7742 26.9802 42.4608 27.7607 42.4609 28.5726C42.4609 28.6316 42.4628 28.6901 42.466 28.7483C42.128 28.558 41.7482 28.4543 41.3604 28.4463C40.9727 28.4384 40.5889 28.5265 40.2435 28.7028C39.898 28.8791 39.6015 29.1381 39.3804 29.4568C39.1592 29.7755 39.0204 30.1439 38.9762 30.5292C38.9101 30.5238 38.8434 30.5203 38.7759 30.5203C38.6139 30.5203 38.4524 30.5364 38.2936 30.5685C38.5824 32.1829 38.9547 33.7813 39.4088 35.3572H53.114C53.1476 35.3586 53.1814 35.3598 53.2154 35.3598Z" stroke="#46587A" stroke-width="2"/>
<path d="M37.9545 19.7408H43.7306L33.133 7.49023L22.5354 19.7408H28.3115C28.3115 19.7408 29.6744 26.2889 26.5592 36.3574C26.2605 37.3138 25.903 38.2508 25.4888 39.1631C25.9052 38.662 26.4818 38.3199 27.1212 38.1948C27.7607 38.0696 28.4237 38.169 28.9983 38.4762C29.5729 38.7834 30.0238 39.2795 30.2749 39.8808C30.526 40.482 30.5618 41.1515 30.3764 41.7761C31.0804 41.7795 31.7552 42.0579 32.2568 42.5519C32.7584 43.0459 33.047 43.7164 33.0612 44.4203C33.0753 45.1242 32.8138 45.8057 32.3324 46.3194C31.8511 46.8332 31.188 47.1385 30.4847 47.1701V47.1703H30.4761C30.4386 47.1719 30.4009 47.1732 30.363 47.1732C30.325 47.1732 30.2874 47.1719 30.2499 47.1703H20.4502C16.6161 51.9781 12.6214 55.227 12.6214 55.227H53.6446C53.6446 55.227 42.822 46.4258 39.7068 36.3574C39.6024 36.0199 39.503 35.6865 39.4088 35.3573C38.9547 33.7813 38.5824 32.183 38.2936 30.5685C37.0993 23.8525 37.9545 19.7408 37.9545 19.7408Z" stroke="#46587A" stroke-width="2"/>
<path d="M30.363 47.1732C30.4009 47.1732 30.4386 47.1719 30.4761 47.1704H30.4847V47.1702C31.188 47.1385 31.8511 46.8332 32.3324 46.3195C32.8138 45.8057 33.0753 45.1242 33.0612 44.4203C33.047 43.7164 32.7584 43.046 32.2568 42.5519C31.7552 42.0579 31.0804 41.7795 30.3764 41.7761C30.562 41.1515 30.5263 40.4819 30.2753 39.8805C30.0243 39.2791 29.5733 38.7829 28.9986 38.4757C28.4239 38.1684 27.7608 38.069 27.1213 38.1943C26.4818 38.3196 25.9051 38.6618 25.4888 39.1632C25.4515 39.2081 25.4153 39.2539 25.3807 39.3011C25.3029 38.399 24.8796 37.5618 24.1994 36.9642C23.5191 36.3665 22.6344 36.0547 21.7297 36.0937C20.8251 36.1327 19.9705 36.5196 19.3442 37.1735C18.7179 37.8275 18.3683 38.698 18.3684 39.6035C18.3684 39.6693 18.3706 39.7345 18.3742 39.7994C17.9972 39.5872 17.5736 39.4715 17.1411 39.4626C16.7086 39.4538 16.2807 39.5521 15.8954 39.7487C15.51 39.9453 15.1794 40.2342 14.9327 40.5896C14.6861 40.945 14.5313 41.3559 14.482 41.7857C14.4082 41.7797 14.3339 41.7758 14.2586 41.7758C13.5428 41.7758 12.8564 42.0601 12.3503 42.5662C11.8442 43.0723 11.5598 43.7588 11.5598 44.4745C11.5598 45.1903 11.8442 45.8767 12.3503 46.3828C12.8564 46.8889 13.5428 47.1732 14.2586 47.1732C14.3178 47.1732 14.3763 47.1707 14.4346 47.1669V47.1704H30.2499C30.2874 47.1719 30.325 47.1732 30.363 47.1732Z" stroke="#46587A" stroke-width="2"/>
</svg>
