<svg width="64" height="64" viewBox="0 0 64 64" fill="none" xmlns="http://www.w3.org/2000/svg">
<path d="M39.6 38.16C39.1733 39.0134 37.0933 38.9334 36.3467 39.7067C35.6 40.3467 35.7067 42.1867 34.7467 42.4534H34.6667C33.7067 42.6134 32.7467 41.5467 31.76 41.44L31.36 41.4934C30.6933 41.6 29.7867 42.1067 29.12 42.2134C28.891 42.2699 28.6507 42.2607 28.4267 42.1867C27.5467 41.7867 27.8933 40 27.2267 39.3067C26.5867 38.6134 24.7733 38.3467 24.3467 37.3334C24.1067 36.4534 25.52 35.5734 25.52 34.5067C25.6533 33.44 24.24 32.0534 24.6933 31.2C25.12 30.32 27.0933 30.5867 27.84 29.9467C28.5867 29.3067 28.48 27.44 29.4133 27.0667L29.5467 27.04C30.48 26.9067 31.5467 28.72 32.5333 28.8534H32.6667C33.6267 28.6934 34.6933 27.4667 35.52 27.36C35.6533 27.36 35.7867 27.3067 35.9467 27.4134C36.8267 27.84 36.3733 29.76 37.0133 30.5867C37.6533 31.28 39.3067 31.1734 39.68 32.0534C39.9467 32.9334 38.6933 33.92 38.6933 34.9867C38.6667 35.92 40.08 37.3067 39.6267 38.16H39.6ZM58.6667 25.7334L57.0133 24.8C52.1385 22.1889 46.595 21.0931 41.0933 21.6534C39.8307 15.407 36.6631 9.70543 32.0267 5.33337C27.3907 9.69904 24.2151 15.3891 22.9333 21.6267C16.6133 20.96 10.5067 22.48 5.36 25.6267L6.16 27.44C8.8 32.7734 12.6933 36.96 17.28 39.7867C14.7932 45.7369 14.1702 52.3016 15.4933 58.6134L17.36 58.3467C22.8387 57.4027 27.9198 54.8714 31.9733 51.0667C36.4772 55.334 42.2578 58.0041 48.4267 58.6667C49.7532 52.3595 49.1492 45.799 46.6933 39.84C52.0711 36.5168 56.2615 31.5797 58.6667 25.7334Z" fill="#D8D0CF"/>
</svg>
