<svg width="64" height="64" viewBox="0 0 64 64" fill="none" xmlns="http://www.w3.org/2000/svg">
<path d="M43.28 27.68C42.366 27.68 41.461 27.4999 40.6165 27.1502C39.7721 26.8004 39.0048 26.2877 38.3585 25.6414C37.7122 24.9951 37.1996 24.2279 36.8498 23.3834C36.5 22.539 36.32 21.634 36.32 20.72C36.32 19.806 36.5 18.9009 36.8498 18.0565C37.1996 17.2121 37.7122 16.4448 38.3585 15.7985C39.0048 15.1522 39.7721 14.6395 40.6165 14.2898C41.461 13.94 42.366 13.76 43.28 13.76C45.1259 13.76 46.8962 14.4932 48.2015 15.7985C49.5067 17.1038 50.24 18.8741 50.24 20.72C50.24 22.5659 49.5067 24.3362 48.2015 25.6414C46.8962 26.9467 45.1259 27.68 43.28 27.68ZM43.28 10.9866C41.9572 10.9174 40.6341 11.1182 39.3913 11.5768C38.1486 12.0353 37.0122 12.7421 36.0514 13.6539C35.0906 14.5658 34.3254 15.6637 33.8025 16.8808C33.2797 18.0979 33.01 19.4086 33.01 20.7333C33.01 22.0579 33.2797 23.3687 33.8025 24.5858C34.3254 25.8029 35.0906 26.9008 36.0514 27.8127C37.0122 28.7245 38.1486 29.4313 39.3913 29.8898C40.6341 30.3484 41.9572 30.5492 43.28 30.48C45.737 30.298 48.0342 29.1935 49.7107 27.3882C51.3873 25.5829 52.319 23.2103 52.319 20.7466C52.319 18.2829 51.3873 15.9104 49.7107 14.1051C48.0342 12.2998 45.737 11.1953 43.28 11.0133V10.9866ZM43.28 16.6133C42.1838 16.6133 41.1324 17.0488 40.3573 17.8239C39.5821 18.5991 39.1467 19.6504 39.1467 20.7466C39.1467 21.8429 39.5821 22.8942 40.3573 23.6693C41.1324 24.4445 42.1838 24.88 43.28 24.88C44.3762 24.88 45.4276 24.4445 46.2027 23.6693C46.9779 22.8942 47.4133 21.8429 47.4133 20.7466C47.4133 19.6504 46.9779 18.5991 46.2027 17.8239C45.4276 17.0488 44.3762 16.6133 43.28 16.6133ZM55.6 20.72C55.6 22.3414 55.2806 23.9469 54.6602 25.4448C54.0397 26.9428 53.1302 28.3039 51.9837 29.4504C50.8373 30.5969 49.4762 31.5063 47.9782 32.1268C46.4802 32.7473 44.8747 33.0666 43.2533 33.0666C41.6319 33.0666 40.0264 32.7473 38.5285 32.1268C37.0305 31.5063 35.6694 30.5969 34.5229 29.4504C33.3764 28.3039 32.467 26.9428 31.8465 25.4448C31.226 23.9469 30.9067 22.3414 30.9067 20.72C30.9067 17.4454 32.2075 14.305 34.5229 11.9896C36.8384 9.6741 39.9788 8.3733 43.2533 8.3733C46.5279 8.3733 49.6683 9.6741 51.9837 11.9896C54.2992 14.305 55.6 17.4454 55.6 20.72ZM43.28 5.3333C38.16 5.3333 33.3867 7.86663 30.5333 12.08L22.0533 20.5333L21.6 16.0533C21.5769 15.8145 21.506 15.5829 21.3914 15.3721C21.2769 15.1614 21.1211 14.9759 20.9333 14.8266C20.796 14.7168 20.6375 14.6364 20.4678 14.5905C20.298 14.5447 20.1206 14.5343 19.9467 14.56L17.5733 14.9066C16.9333 15.0133 16.4267 15.5733 16.32 16.3466L14.64 28L12.1333 30.5066C8.96706 32.6163 6.69469 35.8242 5.75495 39.511C4.81522 43.1978 5.27477 47.1021 7.04489 50.4699C8.815 53.8378 11.7701 56.4304 15.3397 57.7472C18.9093 59.064 22.8402 59.0115 26.3733 57.6C29.4667 57.2 32.9867 56.8 35.5733 56.5333L37.8933 56.2933C38.64 56.2133 39.2 55.76 39.3067 55.1733L39.68 53.04C39.7082 52.8823 39.7038 52.7205 39.6672 52.5646C39.6305 52.4086 39.5622 52.2619 39.4667 52.1333C39.3242 51.9532 39.1469 51.8036 38.9453 51.6937C38.7436 51.5837 38.5219 51.5155 38.2933 51.4933L34.3733 50.96L51.7867 33.5733C54.5763 31.7612 56.7022 29.0925 57.8448 25.9684C58.9874 22.8443 59.0849 19.4337 58.1227 16.2494C57.1605 13.0652 55.1906 10.2793 52.5091 8.31075C49.8277 6.3422 46.5796 5.29734 43.2533 5.3333" fill="#7F3F3F"/>
</svg>
