<svg width="48" height="48" viewBox="0 0 48 48" fill="none" xmlns="http://www.w3.org/2000/svg">
<path d="M14.0253 37.425C11.6253 37.425 9.67529 35.475 9.67529 33.075C9.67529 30.675 11.6253 28.725 14.0253 28.725C16.4253 28.725 18.3753 30.675 18.3753 33.075C18.3753 35.475 16.4253 37.425 14.0253 37.425ZM14.0253 29.55C12.0753 29.55 10.4253 31.125 10.4253 33.15C10.4253 35.1 12.0003 36.75 14.0253 36.75C15.9753 36.75 17.6253 35.175 17.6253 33.15C17.6253 31.125 15.9753 29.55 14.0253 29.55ZM14.0253 35.25C12.9003 35.25 11.9253 34.275 11.9253 33.15C11.9253 32.025 12.9003 31.05 14.0253 31.05C15.1503 31.05 16.1253 32.025 16.1253 33.15C16.1253 34.275 15.1503 35.25 14.0253 35.25ZM14.0253 31.725C13.2753 31.725 12.6753 32.325 12.6753 33.075C12.6753 33.825 13.2753 34.425 14.0253 34.425C14.7753 34.425 15.3753 33.825 15.3753 33.075C15.3753 32.4 14.7753 31.725 14.0253 31.725Z" fill="#46587A"/>
<path d="M35.1747 37.425C32.7747 37.425 30.8247 35.475 30.8247 33.075C30.8247 30.675 32.7747 28.725 35.1747 28.725C37.5747 28.725 39.5247 30.675 39.5247 33.075C39.5247 35.475 37.5747 37.425 35.1747 37.425ZM35.1747 29.55C33.2247 29.55 31.5747 31.125 31.5747 33.15C31.5747 35.1 33.1497 36.75 35.1747 36.75C37.1247 36.75 38.7747 35.175 38.7747 33.15C38.7747 31.125 37.1997 29.55 35.1747 29.55ZM35.1747 35.25C34.0497 35.25 33.0747 34.275 33.0747 33.15C33.0747 32.025 34.0497 31.05 35.1747 31.05C36.2997 31.05 37.2747 32.025 37.2747 33.15C37.2747 34.275 36.3747 35.25 35.1747 35.25ZM35.1747 31.725C34.4247 31.725 33.8247 32.325 33.8247 33.075C33.8247 33.825 34.4247 34.425 35.1747 34.425C35.9247 34.425 36.5247 33.825 36.5247 33.075C36.5247 32.4 35.9247 31.725 35.1747 31.725Z" fill="#46587A"/>
<path d="M40.5751 33.45H39.1501C38.9251 33.45 38.7751 33.3 38.7751 33.075C38.7751 32.85 38.9251 32.7 39.1501 32.7H40.5751C40.8001 32.7 41.5501 32.025 41.5501 31.725V27.3C41.5501 21.6 37.5001 16.725 31.8751 15.675L28.6501 15C28.4251 14.925 28.3501 14.775 28.3501 14.55C28.4251 14.325 28.6501 14.25 28.8001 14.25L31.9501 15C37.9501 16.05 42.2251 21.3 42.2251 27.375V31.8C42.3001 32.475 41.1751 33.45 40.5751 33.45ZM31.2001 33.45H28.7251C28.5001 33.45 28.3501 33.3 28.3501 33.075C28.3501 32.85 28.5001 32.7 28.7251 32.7H31.2001C31.4251 32.7 31.5751 32.85 31.5751 33.075C31.5751 33.3 31.4251 33.45 31.2001 33.45Z" fill="#46587A"/>
<path d="M39.1503 26.325H31.4253C31.2003 26.325 31.0503 26.175 31.0503 25.95V18.45C31.0503 18.375 31.1253 18.225 31.2003 18.15C31.2753 18.075 31.4253 18.075 31.5003 18.075L33.1503 18.3C36.8253 18.975 39.5253 22.2 39.5253 25.95C39.5253 26.175 39.3753 26.325 39.1503 26.325ZM31.8003 25.575H38.7753C38.6253 22.35 36.2253 19.65 33.0003 19.05L31.8003 18.825V25.575Z" fill="#46587A"/>
<path d="M28.275 33.45H18.075C17.85 33.45 17.7 33.3 17.7 33.075C17.7 32.85 17.85 32.7 18.075 32.7H28.275C28.35 32.7 28.35 32.7 28.35 32.625V11.325C28.35 11.25 28.35 11.25 28.275 11.25H6.075C6 11.25 6 11.25 6 11.325V32.7C6 32.775 6 32.775 6.075 32.775H9.825C10.05 32.775 10.2 32.925 10.2 33.15C10.2 33.375 10.05 33.525 9.825 33.525H6.075C5.625 33.525 5.25 33.15 5.25 32.7V11.325C5.25 10.875 5.625 10.5 6.075 10.5H28.275C28.725 10.5 29.1 10.875 29.1 11.325V32.7C29.1 33.15 28.725 33.45 28.275 33.45Z" fill="#46587A"/>
<path d="M12.8251 22.35L8.8501 18.225L12.8251 14.175V16.8H19.0501V19.725H12.8251V22.35Z" fill="#93E5B7"/>
<path d="M12.825 22.725C12.75 22.725 12.6 22.65 12.525 22.575L8.55 18.45C8.4 18.3 8.4 18.075 8.55 17.925L12.525 13.8C12.6 13.725 12.825 13.65 12.9 13.725C13.05 13.8 13.125 13.95 13.125 14.1V16.35H18.9C19.125 16.35 19.275 16.5 19.275 16.725V19.65C19.275 19.875 19.125 20.025 18.9 20.025H13.125V22.275C13.125 22.425 13.05 22.575 12.9 22.65C12.975 22.725 12.9 22.725 12.825 22.725ZM9.375 18.225L12.45 21.375V19.65C12.45 19.425 12.6 19.275 12.825 19.275H18.6V17.175H12.825C12.6 17.175 12.45 17.025 12.45 16.8V15.075L9.375 18.225Z" fill="#46587A"/>
<path d="M21.3754 27.975V25.35H15.1504V22.425H21.3754V19.8L25.3504 23.85L21.3754 27.975Z" fill="#93E5B7"/>
<path d="M21.3751 28.35C21.3001 28.35 21.3001 28.35 21.2251 28.35C21.0751 28.275 21.0001 28.125 21.0001 27.975V25.725H15.2251C15.0001 25.725 14.8501 25.575 14.8501 25.35V22.425C14.8501 22.2 15.0001 22.05 15.2251 22.05H21.0001V19.8C21.0001 19.65 21.0751 19.5 21.2251 19.425C21.3751 19.35 21.5251 19.425 21.6001 19.5L25.5751 23.625C25.7251 23.775 25.7251 24 25.5751 24.15L21.6001 28.275C21.5251 28.35 21.4501 28.35 21.3751 28.35ZM15.5251 24.975H21.3001C21.5251 24.975 21.6751 25.125 21.6751 25.35V27.075L24.7501 23.925L21.7501 20.7V22.425C21.7501 22.65 21.6001 22.8 21.3751 22.8H15.6001V24.975H15.5251Z" fill="#46587A"/>
</svg>
