<svg width="48" height="48" viewBox="0 0 48 48" fill="none" xmlns="http://www.w3.org/2000/svg">
<path d="M18.4021 34.125C18.1771 34.125 18.0271 33.975 18.0271 33.75V30.9L14.5771 25.575C14.2771 25.125 14.2021 24.525 14.2771 24C14.4271 23.475 14.7271 22.95 15.1771 22.65C15.6271 22.35 16.2271 22.275 16.7521 22.35C17.2771 22.5 17.8021 22.8 18.1021 23.25V14.925C18.1771 13.725 19.1521 12.75 20.3521 12.75C21.5521 12.75 22.4521 13.725 22.4521 14.85V19.125C22.8271 18.825 23.2771 18.6 23.8021 18.6C24.7021 18.6 25.4521 19.125 25.7521 19.95C26.1271 19.575 26.6521 19.275 27.2521 19.275C28.1521 19.275 28.9021 19.8 29.2021 20.55C29.5771 20.1 30.1771 19.875 30.7771 19.875C31.9771 19.875 32.8771 20.85 32.8771 21.975V33.075C32.8771 33.3 32.7271 33.45 32.5021 33.45C32.2771 33.45 32.1271 33.3 32.1271 33.075V22.05C32.1271 21.3 31.5271 20.7 30.7771 20.7C30.0271 20.7 29.4271 21.3 29.4271 22.05C29.4271 22.275 29.2771 22.425 29.0521 22.425C28.8271 22.425 28.6771 22.275 28.6771 22.05V21.45C28.6771 20.7 28.0771 20.1 27.3271 20.1C26.5771 20.1 25.9771 20.7 25.9771 21.45V22.05C25.9771 22.275 25.8271 22.425 25.6021 22.425C25.3771 22.425 25.2271 22.275 25.2271 22.05V20.775C25.2271 20.025 24.6271 19.425 23.8771 19.425C23.1271 19.425 22.5271 20.025 22.5271 20.775V22.05C22.5271 22.275 22.3771 22.425 22.1521 22.425C21.9271 22.425 21.7771 22.275 21.7771 22.05V14.925C21.7771 14.175 21.1771 13.575 20.4271 13.575C19.6771 13.575 18.9271 14.175 18.9271 14.925V24.075L19.7521 25.8C19.8271 25.95 19.7521 26.175 19.6021 26.25C19.4521 26.325 19.2271 26.325 19.0771 26.1L17.5021 23.7C17.2771 23.4 16.9771 23.175 16.6021 23.1C16.2271 23.025 15.8521 23.1 15.5521 23.325C15.2521 23.55 15.0271 23.85 14.9521 24.225C14.8771 24.6 14.9521 24.975 15.1771 25.275L18.6271 30.675C18.7771 30.675 18.7771 30.75 18.7771 30.825V33.75C18.7771 33.975 18.6271 34.125 18.4021 34.125Z" fill="#46587A"/>
<path d="M17.3521 33.75V40.05H33.477V33.75H17.3521ZM30.552 38.325C29.802 38.325 29.202 37.725 29.202 36.975C29.202 36.225 29.802 35.625 30.552 35.625C31.302 35.625 31.902 36.225 31.902 36.975C31.902 37.725 31.302 38.325 30.552 38.325Z" fill="#93E5B7"/>
<path d="M33.477 40.5H17.3521C17.1271 40.5 16.9771 40.35 16.9771 40.125V33.75C16.9771 33.525 17.1271 33.375 17.3521 33.375H33.477C33.702 33.375 33.852 33.525 33.852 33.75V40.05C33.852 40.35 33.702 40.5 33.477 40.5ZM17.7271 39.75H33.102V34.2H17.7271V39.75ZM30.552 38.7C29.5771 38.7 28.827 37.95 28.827 36.975C28.827 36 29.5771 35.25 30.552 35.25C31.5271 35.25 32.277 36 32.277 36.975C32.277 37.875 31.5271 38.7 30.552 38.7ZM30.552 36C30.0271 36 29.577 36.45 29.577 36.975C29.577 37.5 30.0271 37.95 30.552 37.95C31.0771 37.95 31.527 37.5 31.527 36.975C31.527 36.375 31.0771 36 30.552 36Z" fill="#46587A"/>
<path d="M22.0772 16.725C21.9272 16.725 21.8522 16.65 21.7772 16.575C21.6272 16.425 21.7022 16.2 21.8522 16.05C22.6022 15.525 23.0522 14.775 23.0522 13.875C23.0522 12.45 21.8522 11.25 20.4272 11.25C19.0022 11.25 17.8022 12.45 17.8022 13.875C17.8022 14.7 18.1772 15.45 18.7772 15.9C18.9272 16.05 19.0022 16.275 18.8522 16.425C18.7772 16.65 18.5522 16.65 18.3272 16.5C17.5022 15.825 17.0522 14.925 17.0522 13.875C17.0522 12 18.5522 10.5 20.4272 10.5C22.3022 10.5 23.8022 12 23.8022 13.875C23.8022 15 23.2022 16.05 22.3022 16.65C22.2272 16.725 22.1522 16.725 22.0772 16.725Z" fill="#46587A"/>
<path d="M24.4771 17.775C24.4021 17.775 24.3271 17.775 24.2521 17.7C24.1021 17.55 24.1021 17.325 24.1771 17.175C24.9271 16.275 25.3771 15.15 25.3771 13.95C25.3771 11.175 23.1271 9 20.4271 9C17.7271 9 15.4771 11.25 15.4771 13.95C15.4771 15.15 15.9271 16.275 16.6771 17.175C16.8271 17.325 16.8271 17.55 16.6771 17.7C16.5271 17.85 16.3021 17.85 16.1521 17.7C15.2521 16.65 14.7271 15.375 14.7271 14.025C14.7271 10.8 17.2771 8.25 20.4271 8.25C23.5771 8.25 26.1271 10.8 26.1271 13.95C26.1271 15.3 25.6021 16.65 24.7771 17.625C24.7021 17.775 24.6271 17.775 24.4771 17.775Z" fill="#46587A"/>
</svg>
