<svg width="48" height="48" viewBox="0 0 48 48" fill="none" xmlns="http://www.w3.org/2000/svg">
<path d="M28.0315 39.9L21.2065 27.375L21.8065 27L27.9565 38.25L30.0565 33.975L34.7815 34.5L29.6065 25.05L30.2065 24.675L36.1315 35.4L30.5065 34.8L28.0315 39.9Z" fill="#46587A"/>
<path d="M19.0312 39.45C18.8812 39.45 18.7313 39.375 18.7313 39.225L16.5562 34.8L11.6813 35.325C11.5313 35.325 11.3813 35.25 11.3063 35.175C11.2313 35.025 11.2313 34.875 11.3063 34.8L16.9312 24.525C17.0062 24.375 17.2313 24.3 17.4563 24.375C17.6063 24.45 17.6813 24.675 17.6063 24.9L12.2812 34.5L16.7063 33.975C16.8563 33.975 17.0062 34.05 17.0813 34.2L19.0312 38.175L23.2313 30.675C23.3063 30.525 23.5313 30.45 23.7563 30.525C23.9063 30.6 23.9812 30.825 23.9062 31.05L19.4062 39.225C19.3313 39.375 19.1813 39.45 19.0312 39.45Z" fill="#46587A"/>
<path d="M23.5313 28.425C29.2061 28.425 33.8063 23.8247 33.8063 18.15C33.8063 12.4753 29.2061 7.875 23.5313 7.875C17.8566 7.875 13.2563 12.4753 13.2563 18.15C13.2563 23.8247 17.8566 28.425 23.5313 28.425Z" fill="#93E5B7"/>
<path d="M23.5313 28.875C17.6813 28.875 12.8813 24.075 12.8813 18.225C12.8813 12.3 17.6063 7.5 23.5313 7.5C29.3813 7.5 34.1813 12.3 34.1813 18.15C34.1813 24.075 29.3813 28.875 23.5313 28.875ZM23.5313 8.25C18.0563 8.25 13.6313 12.675 13.6313 18.15C13.6313 23.625 18.0563 28.05 23.5313 28.05C29.0063 28.05 33.4313 23.625 33.4313 18.15C33.4313 12.675 29.0063 8.25 23.5313 8.25Z" fill="#46587A"/>
<path d="M23.5313 24.675C27.135 24.675 30.0563 21.7537 30.0563 18.15C30.0563 14.5463 27.135 11.625 23.5313 11.625C19.9277 11.625 17.0063 14.5463 17.0063 18.15C17.0063 21.7537 19.9277 24.675 23.5313 24.675Z" fill="white"/>
<path d="M23.5313 25.05C19.7063 25.05 16.6313 21.975 16.6313 18.15C16.6313 14.325 19.7063 11.25 23.5313 11.25C27.3563 11.25 30.4313 14.325 30.4313 18.15C30.4313 21.975 27.3563 25.05 23.5313 25.05ZM23.5313 12C20.1563 12 17.3813 14.775 17.3813 18.15C17.3813 21.525 20.1563 24.3 23.5313 24.3C26.9063 24.3 29.6813 21.525 29.6813 18.15C29.6813 14.775 26.9063 12 23.5313 12Z" fill="#46587A"/>
</svg>
