<svg width="48" height="48" viewBox="0 0 48 48" fill="none" xmlns="http://www.w3.org/2000/svg">
<path d="M22.6502 29.175C27.6002 20.625 22.6502 13.5 22.6502 13.5C22.6502 13.5 17.7002 20.625 22.6502 29.175Z" fill="#93E5B7"/>
<path d="M22.65 29.55C22.5 29.55 22.425 29.475 22.35 29.325C17.325 20.625 22.35 13.35 22.35 13.275C22.5 13.05 22.8 13.05 22.95 13.275C23.025 13.35 27.975 20.625 22.95 29.325C22.875 29.475 22.8 29.55 22.65 29.55ZM22.65 14.25C21.675 15.975 19.125 21.675 22.65 28.425C26.175 21.675 23.625 15.975 22.65 14.25Z" fill="#46587A"/>
<path d="M22.6499 29.55C19.7249 21.75 12.5249 21.15 12.5249 21.15C12.5249 21.15 14.4749 28.125 22.6499 29.55Z" fill="#93E5B7"/>
<path d="M22.6499 29.925C22.6499 29.925 22.5749 29.925 22.6499 29.925C14.2499 28.5 12.1499 21.375 12.1499 21.3C12.1499 21.15 12.1499 21.075 12.2249 20.925C12.2999 20.85 12.4499 20.775 12.5249 20.775C12.5999 20.775 20.0249 21.45 23.0249 29.4C23.0999 29.55 23.0249 29.7 22.9499 29.775C22.8749 29.85 22.7249 29.925 22.6499 29.925ZM13.0499 21.6C13.7249 23.175 16.0499 27.675 22.0499 29.025C19.6499 23.4 14.7749 21.975 13.0499 21.6Z" fill="#46587A"/>
<path d="M22.65 29.625C17.1 27.75 13.5 31.425 13.5 31.425C13.5 31.425 18.225 33.45 22.65 29.625Z" fill="#93E5B7"/>
<path d="M16.575 32.325C14.7 32.325 13.425 31.8 13.35 31.8C13.275 31.725 13.125 31.65 13.125 31.5C13.125 31.35 13.125 31.275 13.2 31.2C13.2 31.125 16.95 27.375 22.725 29.25C22.875 29.325 22.95 29.4 22.95 29.55C22.95 29.7 22.95 29.85 22.8 29.925C20.7 31.8 18.375 32.325 16.575 32.325ZM14.25 31.275C15.525 31.65 18.675 32.175 21.825 29.775C18.075 28.725 15.3 30.45 14.25 31.275Z" fill="#46587A"/>
<path d="M22.6499 29.55C25.5749 21.75 32.7749 21.15 32.7749 21.15C32.7749 21.15 30.8249 28.125 22.6499 29.55Z" fill="#93E5B7"/>
<path d="M22.6499 29.925C22.5749 29.925 22.4249 29.85 22.3499 29.775C22.2749 29.7 22.2749 29.55 22.2749 29.4C25.2749 21.525 32.6999 20.775 32.7749 20.775C32.9249 20.775 32.9999 20.85 33.0749 20.925C33.1499 21 33.1499 21.15 33.1499 21.3C33.1499 21.375 31.0499 28.5 22.6499 29.925ZM32.2499 21.6C30.5249 21.9 25.7249 23.325 23.2499 29.025C29.2499 27.75 31.5749 23.25 32.2499 21.6Z" fill="#46587A"/>
<path d="M22.6499 29.625C28.1999 27.75 31.7999 31.425 31.7999 31.425C31.7999 31.425 27.0749 33.45 22.6499 29.625Z" fill="#93E5B7"/>
<path d="M28.7249 32.325C26.9249 32.325 24.5999 31.8 22.4249 29.85C22.3499 29.775 22.2749 29.625 22.2749 29.475C22.2749 29.325 22.4249 29.25 22.4999 29.175C28.1999 27.225 31.9499 31.05 32.0249 31.125C32.0999 31.2 32.1749 31.35 32.0999 31.425C32.0999 31.575 32.0249 31.65 31.8749 31.725C31.8749 31.8 30.5999 32.325 28.7249 32.325ZM23.3999 29.775C26.5499 32.175 29.6999 31.65 30.9749 31.275C29.9999 30.45 27.2999 28.725 23.3999 29.775Z" fill="#46587A"/>
<path d="M22.6499 35.1C22.4249 35.1 22.2749 34.95 22.2749 34.725V29.925C22.2749 29.7 22.4249 29.55 22.6499 29.55C22.8749 29.55 23.0249 29.7 23.0249 29.925V34.725C23.0249 34.95 22.8749 35.1 22.6499 35.1Z" fill="#46587A"/>
<path d="M24.8248 33.3C24.6748 33.3 24.5998 33.225 24.5248 33.15L22.3498 29.775C22.1998 29.625 22.2748 29.4 22.4248 29.25C22.5748 29.175 22.7998 29.175 22.9498 29.325L25.1248 32.7C25.2748 32.85 25.1998 33.075 25.0498 33.225C24.9748 33.225 24.8998 33.3 24.8248 33.3Z" fill="#46587A"/>
<path d="M20.475 33.3C20.4 33.3 20.325 33.3 20.25 33.225C20.1 33.075 20.025 32.85 20.175 32.7L22.35 29.325C22.5 29.175 22.725 29.1 22.875 29.25C23.025 29.4 23.1 29.625 22.95 29.775L20.775 33.15C20.7 33.225 20.55 33.3 20.475 33.3Z" fill="#46587A"/>
<path d="M22.65 38.55C14.7 38.55 8.25 32.1 8.25 24.15C8.25 16.2 14.7 9.75 22.65 9.75C30.6 9.75 37.05 16.2 37.05 24.15C37.05 32.1 30.6 38.55 22.65 38.55ZM22.65 10.5C15.15 10.5 9 16.65 9 24.15C9 31.65 15.15 37.8 22.65 37.8C30.15 37.8 36.3 31.65 36.3 24.15C36.3 16.65 30.15 10.5 22.65 10.5Z" fill="#46587A"/>
<path d="M26.1 38.55H22.5C22.275 38.55 22.125 38.4 22.125 38.175C22.125 37.95 22.275 37.8 22.5 37.8H26.1C33.6 37.8 39.75 31.65 39.75 24.15C39.675 16.65 33.6 10.5 26.1 10.5H22.875C22.65 10.5 22.5 10.35 22.5 10.125C22.5 9.9 22.65 9.75 22.875 9.75H26.1C34.05 9.75 40.5 16.2 40.5 24.15C40.425 32.1 33.975 38.55 26.1 38.55Z" fill="#46587A"/>
</svg>
