<svg width="65" height="64" viewBox="0 0 65 64" fill="none" xmlns="http://www.w3.org/2000/svg">
<path d="M32.4297 32.425C40.8597 32.425 47.6897 25.595 47.6897 17.165C39.2697 17.165 32.4297 23.995 32.4297 32.425Z" fill="#93E5B7"/>
<path d="M32.4297 32.925C32.1497 32.925 31.9297 32.705 31.9297 32.425C31.9297 23.735 38.9997 16.665 47.6897 16.665C47.9697 16.665 48.1897 16.885 48.1897 17.165C48.1897 25.855 41.1197 32.925 32.4297 32.925ZM47.1897 17.675C39.4597 17.935 33.2097 24.185 32.9497 31.915C40.6797 31.655 46.9197 25.415 47.1897 17.675Z" fill="#46587A"/>
<path d="M32.4297 32.425C32.4297 40.855 39.2597 47.685 47.6897 47.685C47.6897 39.265 40.8597 32.425 32.4297 32.425Z" fill="#93E5B7"/>
<path d="M47.6897 48.185C38.9997 48.185 31.9297 41.115 31.9297 32.425C31.9297 32.145 32.1497 31.925 32.4297 31.925C41.1197 31.925 48.1897 38.995 48.1897 47.685C48.1897 47.965 47.9697 48.185 47.6897 48.185ZM32.9397 32.935C33.1997 40.675 39.4497 46.915 47.1797 47.175C46.9197 39.445 40.6797 33.205 32.9397 32.935Z" fill="#46587A"/>
<path d="M32.4299 32.425C32.4299 23.995 25.5999 17.165 17.1699 17.165C17.1699 25.595 24.0099 32.425 32.4299 32.425Z" fill="#93E5B7"/>
<path d="M32.4299 32.925C23.7399 32.925 16.6699 25.855 16.6699 17.165C16.6699 16.885 16.8899 16.665 17.1699 16.665C25.8599 16.665 32.9299 23.735 32.9299 32.425C32.9299 32.705 32.7099 32.925 32.4299 32.925ZM17.6799 17.675C17.9399 25.415 24.1899 31.655 31.9199 31.915C31.6599 24.185 25.4199 17.935 17.6799 17.675Z" fill="#46587A"/>
<path d="M32.4299 32.425C23.9999 32.425 17.1699 39.255 17.1699 47.685C25.5999 47.685 32.4299 40.855 32.4299 32.425Z" fill="#93E5B7"/>
<path d="M17.1699 48.185C16.8899 48.185 16.6699 47.965 16.6699 47.685C16.6699 38.995 23.7399 31.925 32.4299 31.925C32.7099 31.925 32.9299 32.145 32.9299 32.425C32.9299 41.115 25.8599 48.185 17.1699 48.185ZM31.9299 32.935C24.1899 33.205 17.9499 39.445 17.6799 47.175C25.4199 46.915 31.6599 40.675 31.9299 32.935Z" fill="#46587A"/>
<path d="M32.43 52.865C32.27 52.865 32.12 52.785 32.03 52.655L26.21 44.695C26.05 44.475 26.1 44.155 26.32 43.995C26.54 43.835 26.86 43.885 27.02 44.105L32.44 51.505L37.86 44.105C38.02 43.885 38.34 43.835 38.56 43.995C38.78 44.155 38.83 44.475 38.67 44.695L32.85 52.655C32.74 52.785 32.59 52.865 32.43 52.865Z" fill="#46587A"/>
<path d="M44.4098 38.755C44.2598 38.755 44.0998 38.685 44.0098 38.545C43.8498 38.325 43.8998 38.005 44.1198 37.845L51.5298 32.425L44.1198 27.005C43.8998 26.845 43.8498 26.525 44.0098 26.305C44.1698 26.085 44.4898 26.035 44.7098 26.195L52.6698 32.015C52.7998 32.105 52.8698 32.255 52.8698 32.415C52.8698 32.575 52.7898 32.725 52.6698 32.815L44.7098 38.635C44.6198 38.715 44.5098 38.755 44.4098 38.755Z" fill="#46587A"/>
<path d="M20.46 38.755C20.36 38.755 20.25 38.725 20.17 38.655L12.2 32.835C12.08 32.735 12 32.585 12 32.425C12 32.265 12.08 32.115 12.2 32.025L20.16 26.205C20.38 26.045 20.7 26.095 20.86 26.315C21.02 26.535 20.97 26.855 20.75 27.015L13.34 32.435L20.75 37.855C20.97 38.015 21.02 38.335 20.86 38.555C20.76 38.675 20.61 38.755 20.46 38.755Z" fill="#46587A"/>
<path d="M26.61 20.955C26.51 20.955 26.4 20.925 26.32 20.855C26.1 20.695 26.05 20.375 26.21 20.155L32.03 12.195C32.22 11.935 32.65 11.935 32.84 12.195L38.66 20.155C38.82 20.375 38.77 20.695 38.55 20.855C38.33 21.015 38.01 20.965 37.85 20.745L32.43 13.335L27.01 20.745C26.92 20.875 26.76 20.955 26.61 20.955Z" fill="#46587A"/>
<path d="M27.6001 37.685C27.4701 37.685 27.3401 37.635 27.2501 37.535C27.0501 37.335 27.0501 37.025 27.2501 36.825L36.7601 27.315C36.9601 27.115 37.2701 27.115 37.4701 27.315C37.6701 27.515 37.6701 27.825 37.4701 28.025L27.9601 37.535C27.8601 37.635 27.7301 37.685 27.6001 37.685Z" fill="#46587A"/>
<path d="M37.1101 37.685C36.9801 37.685 36.8501 37.635 36.7601 37.535L27.2501 28.025C27.0501 27.825 27.0501 27.515 27.2501 27.315C27.4501 27.115 27.7601 27.115 27.9601 27.315L37.4701 36.825C37.6701 37.025 37.6701 37.335 37.4701 37.535C37.3701 37.635 37.2401 37.685 37.1101 37.685Z" fill="#46587A"/>
</svg>
