<svg width="48" height="48" viewBox="0 0 48 48" fill="none" xmlns="http://www.w3.org/2000/svg">
<path d="M21.1567 16.2H17.0317C16.8067 16.2 16.6567 16.05 16.6567 15.825C16.6567 15.6 16.8067 15.45 17.0317 15.45H21.1567C21.3817 15.45 21.5317 15.6 21.5317 15.825C21.5317 16.05 21.3817 16.2 21.1567 16.2Z" fill="#46587A"/>
<path d="M36.3817 9.375H21.5317L15.5317 13.35L16.8067 15.675L16.8817 15.825H22.8817H26.5567L32.5567 19.875L29.9317 24.525L26.5567 22.35V31.65H36.3817V15.9L39.8317 18L42.4567 13.35L36.3817 9.375Z" fill="#93E5B7"/>
<path d="M36.3819 32.025H26.5569C26.3319 32.025 26.1819 31.875 26.1819 31.65V22.35C26.1819 22.2 26.2569 22.125 26.4069 22.05C26.5569 21.975 26.7069 21.975 26.7819 22.05L29.8569 24L32.1069 19.95L26.4069 16.2H16.8819C16.7319 16.2 16.6569 16.125 16.5819 16.05L16.5069 15.825L15.2319 13.5C15.1569 13.35 15.1569 13.125 15.3819 12.975L21.4569 9C21.3819 9 21.4569 9 21.5319 9H36.3819C36.4569 9 36.5319 9 36.6069 9.075L42.6819 13.05C42.8319 13.125 42.9069 13.35 42.8319 13.575L40.2069 18.225C40.1319 18.3 40.0569 18.375 39.9819 18.375C39.9069 18.375 39.7569 18.375 39.6819 18.3L36.7569 16.575V31.725C36.7569 31.875 36.6069 32.025 36.3819 32.025ZM26.9319 31.275H36.0069V15.9C36.0069 15.75 36.0819 15.675 36.2319 15.6C36.3819 15.525 36.5319 15.525 36.6069 15.6L39.6819 17.55L41.9319 13.5L36.2319 9.75H21.6819L15.9819 13.5L17.1069 15.525H26.4819C26.5569 15.525 26.6319 15.525 26.7069 15.6L32.7819 19.575C32.9319 19.65 33.0069 19.875 32.9319 20.1L30.3069 24.75C30.2319 24.825 30.1569 24.9 30.0819 24.9C30.0069 24.9 29.8569 24.9 29.7819 24.825L26.9319 23.025V31.275Z" fill="#46587A"/>
<path d="M32.7822 9.375C32.7822 11.475 29.0322 14.325 29.0322 14.325C29.0322 14.325 25.2822 11.475 25.2822 9.375H32.7822Z" fill="white"/>
<path d="M28.957 14.7C28.882 14.7 28.807 14.7 28.732 14.625C28.582 14.475 24.832 11.625 24.832 9.375C24.832 9.15 24.982 9 25.207 9H32.782C33.007 9 33.157 9.15 33.157 9.375C33.157 11.625 29.407 14.475 29.257 14.625C29.107 14.625 29.032 14.7 28.957 14.7ZM25.657 9.75C25.957 11.175 27.982 12.975 29.032 13.8C30.082 12.975 32.032 11.175 32.407 9.75H25.657Z" fill="#46587A"/>
<path d="M26.5568 38.55H11.7068C11.4818 38.55 11.3318 38.4 11.3318 38.175V23.025L8.48176 24.825C8.40676 24.9 8.25676 24.9 8.18176 24.9C8.10676 24.9 8.03176 24.825 7.95676 24.75L5.33176 20.1C5.18176 19.875 5.25676 19.65 5.40676 19.5L11.4818 15.525C11.5568 15.45 11.6318 15.45 11.7068 15.45H26.5568C26.6318 15.45 26.7068 15.45 26.7818 15.525L32.8568 19.5C33.0068 19.575 33.0818 19.8 33.0068 20.025L30.3818 24.675C30.3068 24.75 30.2318 24.825 30.1568 24.825C30.0818 24.825 29.9318 24.825 29.8568 24.75L27.0068 22.95V38.1C26.9318 38.4 26.7068 38.55 26.5568 38.55ZM12.0818 37.8H26.1818V22.35C26.1818 22.2 26.2568 22.125 26.4068 22.05C26.5568 21.975 26.7068 21.975 26.7818 22.05L29.8568 24L32.1068 19.95L26.4068 16.2H11.7818L6.08176 19.95L8.33176 24L11.4068 22.05C11.5568 21.975 11.6318 21.975 11.7818 22.05C11.9318 22.125 12.0068 22.275 12.0068 22.35V37.8H12.0818Z" fill="#46587A"/>
<path d="M19.1318 20.025C16.8818 20.025 15.0068 18.15 15.0068 15.9C15.0068 15.675 15.1568 15.525 15.3818 15.525H22.9568C23.1818 15.525 23.3318 15.675 23.3318 15.9C23.2568 18.15 21.3818 20.025 19.1318 20.025ZM15.7568 16.2C15.9818 17.925 17.4068 19.2 19.1318 19.2C20.8568 19.2 22.3568 17.85 22.5068 16.2H15.7568Z" fill="#46587A"/>
<path d="M19.2065 32.025C18.9815 32.025 18.8315 31.875 18.8315 31.65V23.625C18.8315 23.4 18.9815 23.25 19.2065 23.25C19.4315 23.25 19.5815 23.4 19.5815 23.625V31.65C19.5815 31.875 19.4315 32.025 19.2065 32.025Z" fill="#46587A"/>
<path d="M17.1816 31.125C17.0316 31.125 16.9566 31.05 16.8816 30.975C16.7316 30.825 16.8066 30.6 16.9566 30.45L18.9066 29.175L22.7316 25.2C22.8816 25.05 23.1066 25.05 23.2566 25.2C23.4066 25.35 23.4066 25.575 23.2566 25.725L19.3566 29.775L17.3316 31.125C17.3316 31.05 17.2566 31.125 17.1816 31.125Z" fill="#46587A"/>
<path d="M21.2317 31.125C21.1567 31.125 21.0817 31.125 21.0067 31.05L18.9067 29.625L15.0817 25.575C14.9317 25.425 14.9317 25.2 15.0817 25.05C15.2317 24.9 15.4567 24.9 15.6067 25.05L19.4317 29.025L21.3817 30.3C21.5317 30.45 21.6067 30.675 21.4567 30.825C21.4567 31.05 21.3067 31.125 21.2317 31.125Z" fill="#46587A"/>
<path d="M19.2067 29.775L15.0817 29.25C14.8567 29.25 14.7067 29.025 14.7817 28.8C14.7817 28.575 15.0067 28.425 15.2317 28.5L19.2817 29.025L23.1817 28.5C23.4067 28.5 23.5567 28.65 23.6317 28.8C23.6317 29.025 23.4817 29.175 23.3317 29.25L19.2067 29.775Z" fill="#46587A"/>
</svg>
