<svg width="96" height="90" viewBox="0 0 96 90" fill="none" xmlns="http://www.w3.org/2000/svg">
<g clip-path="url(#clip0)">
<path d="M22 89.5002C21.6 89.5002 21.2 89.2002 21.2 88.7002V73.5002C21.2 73.1002 21.5 72.7002 22 72.7002C22.4 72.7002 22.8 73.0002 22.8 73.5002V88.7002C22.7 89.1002 22.4 89.5002 22 89.5002Z" fill="#263238"/>
<path d="M52.3 89.5002C51.9 89.5002 51.5 89.2002 51.5 88.7002V73.5002C51.5 73.1002 51.8 72.7002 52.3 72.7002C52.7 72.7002 53.1 73.0002 53.1 73.5002V88.7002C53.1 89.1002 52.7 89.5002 52.3 89.5002Z" fill="#263238"/>
<path d="M31 64.4002C30.9 64.4002 30.9 64.4002 30.8 64.4002C30.6 64.3002 30.4 64.2002 30.3 63.9002L26.6 54.1002C26.5 53.7002 26.6 53.3002 27 53.1002L30.8 51.5002C31.1 51.4002 31.4 51.4002 31.6 51.7002L37.7 57.8002C37.8 57.9002 37.9 58.2002 37.9 58.4002C37.9 58.6002 37.8 58.8002 37.6 58.9002L31.4 64.2002C31.3 64.4002 31.2 64.4002 31 64.4002ZM28.3 54.3002L31.3 62.4002L36 58.3002L30.9 53.2002L28.3 54.3002Z" fill="#263238"/>
<path d="M43.3 64.4002C43.1 64.4002 42.9 64.3002 42.8 64.2002L36.6 58.9002C36.4 58.8002 36.3 58.6002 36.3 58.4002C36.3 58.2002 36.4 58.0002 36.5 57.8002L42.6 51.7002C42.8 51.5002 43.1 51.4002 43.4 51.5002L47.2 53.1002C47.6 53.3002 47.8 53.7002 47.6 54.1002L44 64.0002C43.9 64.2002 43.7 64.4002 43.5 64.5002C43.4 64.4002 43.4 64.4002 43.3 64.4002ZM38.3 58.3002L43 62.4002L46 54.3002L43.4 53.2002L38.3 58.3002Z" fill="#263238"/>
<path d="M64.4 89.5002C64 89.5002 63.6 89.2002 63.6 88.7002V68.9002C63.6 64.6002 61.1 60.8002 57.2 59.1002L42.9 53.0002C42.6 52.9002 42.4 52.6002 42.4 52.3002V50.7002C39 51.8002 35.2 51.8002 31.8 50.7002V52.3002C31.8 52.6002 31.6 52.9002 31.3 53.0002L17 59.2002C13.1 60.9002 10.6 64.7002 10.6 69.0002V88.8002C10.6 89.2002 10.3 89.6002 9.8 89.6002C9.4 89.6002 9 89.3002 9 88.8002V68.9002C9 64.0002 11.9 59.7002 16.4 57.7002L30.3 51.8002V49.6002C30.3 49.4002 30.4 49.1002 30.6 49.0002C30.8 48.9002 31.1 48.8002 31.3 48.9002C35 50.4002 39.1 50.4002 42.9 48.9002C43.1 48.8002 43.4 48.8002 43.6 49.0002C43.8 49.1002 43.9 49.4002 43.9 49.6002V51.8002L57.8 57.7002C62.3 59.6002 65.2 64.0002 65.2 68.9002V88.7002C65.2 89.1002 64.9 89.5002 64.4 89.5002Z" fill="#263238"/>
<path d="M37.2 51.5998C29.2 51.5998 22.4 46.2998 20.4 38.6998C18 38.5998 16 36.5998 16 34.1998C16 31.6998 18 29.6998 20.4 29.6998C22.4 22.0998 29.3 16.7998 37.2 16.7998C45.2 16.7998 52 22.0998 54 29.6998C56.4 29.7998 58.4 31.7998 58.4 34.1998C58.4 36.6998 56.4 38.6998 54 38.6998C51.9 46.2998 45.1 51.5998 37.2 51.5998ZM20.8 37.0998C21.2 37.0998 21.6 37.2998 21.7 37.6998C23.3 44.9998 29.7 49.9998 37.2 49.9998C44.7 49.9998 51 44.9998 52.7 37.6998C52.8 37.2998 53.1 37.0998 53.5 37.0998C53.7 37.0998 53.8 37.0998 53.9 37.0998C55.6 37.0998 56.9 35.6998 56.9 34.0998C56.9 32.3998 55.5 31.0998 53.9 31.0998C53.8 31.0998 53.8 31.0998 53.7 31.0998C53.3 31.0998 52.8 30.8998 52.7 30.4998C51 23.1998 44.7 18.1998 37.2 18.1998C29.7 18.1998 23.4 23.2998 21.7 30.4998C21.6 30.8998 21.2 31.0998 20.9 31.0998C20.7 31.0998 20.6 31.0998 20.5 31.0998C18.8 31.0998 17.5 32.4998 17.5 34.0998C17.5 35.7998 18.9 37.0998 20.5 37.0998C20.6 37.0998 20.6 37.0998 20.7 37.0998H20.8Z" fill="#263238"/>
<path d="M22 32.6002H21.2V22.7002H25.7V28.8002C25.8 30.9002 24.1 32.6002 22 32.6002Z" fill="#FFD740"/>
<path d="M22 33.3999H21.2C20.8 33.3999 20.4 33.0999 20.4 32.5999V22.6999C20.4 22.2999 20.7 21.8999 21.2 21.8999H25.7C26.1 21.8999 26.5 22.1999 26.5 22.6999V28.7999C26.5 31.2999 24.5 33.3999 22 33.3999ZM22 23.4999V31.7999C23.7 31.7999 25 30.3999 25 28.7999V23.4999H22Z" fill="#263238"/>
<path d="M48.5 22.7001V28.8001C48.5 30.9001 50.2 32.6001 52.3 32.6001H53.1V20.6001C51.9 21.7001 50.3 22.5001 48.5 22.7001Z" fill="#FFD740"/>
<path d="M53.1 33.4001H52.3C49.8 33.4001 47.8 31.4001 47.8 28.9001V22.8001C47.8 22.4001 48.1 22.1001 48.5 22.0001C50.1 21.8001 51.5 21.2001 52.6 20.1001C52.8 19.9001 53.1 19.8001 53.4 19.9001C53.7 20.0001 53.9 20.3001 53.9 20.6001V32.6001C53.8 33.0001 53.5 33.4001 53.1 33.4001ZM49.3 23.3001V28.8001C49.3 30.5001 50.7 31.8001 52.3 31.8001V22.1001C51.4 22.7001 50.4 23.1001 49.3 23.3001Z" fill="#263238"/>
<path d="M37.2 42.3998C35.1 42.3998 32.9 41.5998 31.3 39.9998C31 39.6998 31 39.1998 31.3 38.8998C31.6 38.5998 32.1 38.5998 32.4 38.8998C35.1 41.5998 39.4 41.5998 42 38.8998C42.3 38.5998 42.8 38.5998 43.1 38.8998C43.4 39.1998 43.4 39.6998 43.1 39.9998C41.4 41.5998 39.3 42.3998 37.2 42.3998Z" fill="#263238"/>
<path d="M47.8 22.7002H21.2C21.2 16.4002 26.3 11.3002 32.6 11.3002H40.5C43.8 11.3002 47 10.6002 50 9.2002L55.3 6.7002V15.0002C55.3 19.3002 52 22.7002 47.8 22.7002Z" fill="#FFD740"/>
<path d="M47.8 23.4999H21.2C20.8 23.4999 20.4 23.1999 20.4 22.6999C20.4 15.9999 25.8 10.5999 32.5 10.5999H40.4C43.6 10.5999 46.7 9.89987 49.6 8.59987L55 6.09987C55.3 5.99987 55.5 5.99987 55.8 6.19987C56 6.29987 56.1 6.59987 56.1 6.79987V15.0999C56.1 19.7999 52.4 23.4999 47.8 23.4999ZM22 21.9999H47.8C51.6 21.9999 54.6 18.8999 54.6 15.1999V7.99987L50.4 9.99987C47.3 11.3999 43.9 12.1999 40.6 12.1999H32.7C27 12.0999 22.4 16.4999 22 21.9999Z" fill="#263238"/>
<path d="M91 24H65.2C63.1 24 61.4 25.7 61.4 27.8V44.5C61.4 46.6 63.1 48.3 65.2 48.3H69V52.6C69 53.9 70.5 54.6 71.5 53.8L78.1 48.3H91C93.1 48.3 94.8 46.6 94.8 44.5V27.8C94.8 25.7 93.1 24 91 24Z" fill="#40C4FF"/>
<path d="M70.5 54.8998C70.2 54.8998 69.8 54.7998 69.5 54.6998C68.7 54.2998 68.2 53.4998 68.2 52.5998V48.9998H65.2C62.7 48.9998 60.7 46.9998 60.7 44.4998V27.7998C60.7 25.2998 62.7 23.2998 65.2 23.2998H91C93.5 23.2998 95.5 25.2998 95.5 27.7998V44.4998C95.5 46.9998 93.5 48.9998 91 48.9998H78.4L72 54.2998C71.5 54.6998 71 54.8998 70.5 54.8998ZM65.2 24.6998C63.5 24.6998 62.2 26.0998 62.2 27.6998V44.3998C62.2 46.0998 63.6 47.3998 65.2 47.3998H69C69.4 47.3998 69.8 47.6998 69.8 48.1998V52.4998C69.8 52.8998 70.1 53.0998 70.2 53.1998C70.3 53.1998 70.7 53.3998 71 53.0998L77.6 47.5998C77.7 47.4998 77.9 47.3998 78.1 47.3998H91C92.7 47.3998 94 45.9998 94 44.3998V27.7998C94 26.0998 92.6 24.7998 91 24.7998H65.2V24.6998Z" fill="#263238"/>
<path d="M90.2 30.8002H66C65.6 30.8002 65.2 30.5002 65.2 30.0002C65.2 29.6002 65.5 29.2002 66 29.2002H90.3C90.7 29.2002 91.1 29.5002 91.1 30.0002C91 30.5002 90.6 30.8002 90.2 30.8002Z" fill="#263238"/>
<path d="M90.2 36.8998H66C65.6 36.8998 65.2 36.5998 65.2 36.0998C65.2 35.6998 65.5 35.2998 66 35.2998H90.3C90.7 35.2998 91.1 35.5998 91.1 36.0998C91 36.4998 90.6 36.8998 90.2 36.8998Z" fill="#263238"/>
<path d="M76.6 42.8998H66C65.6 42.8998 65.2 42.5998 65.2 42.0998C65.2 41.6998 65.5 41.2998 66 41.2998H76.6C77 41.2998 77.4 41.5998 77.4 42.0998C77.3 42.5998 77 42.8998 76.6 42.8998Z" fill="#263238"/>
</g>
<defs>
<clipPath id="clip0">
<rect width="95.5" height="89.5" fill="white"/>
</clipPath>
</defs>
</svg>
