<svg width="100" height="101" viewBox="0 0 100 101" fill="none" xmlns="http://www.w3.org/2000/svg">
<path d="M64.905 78.904H52.6141C52.2309 78.904 51.9298 78.6028 51.9298 78.2196V75.1811C51.7656 74.3736 50.6295 67.8039 54.5029 63.7388C57.0076 61.111 59.2797 60.0844 60.9358 59.3453C61.8528 58.9347 62.5782 58.6062 63.0299 58.1409L67.8888 53.282C69.1069 52.0639 71.1599 51.9407 72.5012 52.9535L74.8007 49.5044C74.7733 48.7653 74.7459 46.3017 75.1565 42.9484C75.3892 41.1007 76.1009 39.773 77.2917 38.9929C79.1394 37.7747 81.4114 38.4317 81.5073 38.4591C81.7947 38.5412 82 38.815 82 39.1161L81.9315 51.6396C81.9315 51.7217 81.9179 51.8038 81.8905 51.8723L78.0855 61.9732C78.0581 62.069 78.0034 62.1512 77.935 62.2196L66.5748 73.5797C65.6578 74.4968 65.6441 75.1401 65.6441 75.1537L65.5894 78.2333C65.5757 78.6165 65.2746 78.904 64.905 78.904ZM53.2985 77.5353H64.2343L64.2754 75.1537C64.2754 75.0853 64.2343 73.9767 65.603 72.608L76.8537 61.3573L80.5628 51.5027L80.6313 39.6635C80.0154 39.5814 78.9204 39.554 78.0445 40.1289C77.2096 40.6764 76.7031 41.6755 76.5252 43.099C76.0462 46.945 76.183 49.6276 76.183 49.655C76.1967 49.8056 76.1557 49.9424 76.0735 50.0656L73.4456 54.0074C73.7604 54.5412 73.9247 55.1435 73.9247 55.7867C73.9247 56.7311 73.5551 57.6208 72.8845 58.2914L66.1505 65.0254C65.8768 65.2992 65.4525 65.2992 65.1787 65.0254C64.905 64.7517 64.905 64.3274 65.1787 64.0536L71.9127 57.3197C72.3233 56.9091 72.5423 56.3616 72.5423 55.7867C72.5423 55.2119 72.3233 54.6644 71.9127 54.2538C71.0915 53.4326 69.6681 53.4326 68.8468 54.2538L63.988 59.1127C63.3584 59.7423 62.4824 60.1392 61.4833 60.5909C59.8408 61.3299 57.8015 62.247 55.4747 64.6969C51.9298 68.4061 53.2437 74.9211 53.2574 74.9895C53.2711 75.0306 53.2711 75.0853 53.2711 75.1264V77.5353H53.2985Z" fill="#46587A"/>
<path d="M47.3995 78.9067H35.1087C34.7391 78.9067 34.4243 78.6056 34.4243 78.236L34.3696 75.1838C34.3696 75.1428 34.3559 74.4995 33.4389 73.5825L22.0787 62.2223C22.0103 62.1539 21.9555 62.0717 21.9281 61.9759L18.1232 51.875C18.0958 51.7929 18.0821 51.7244 18.0821 51.6423L18 39.1188C18 38.8177 18.1916 38.5439 18.4927 38.4618C18.5885 38.4344 20.8606 37.7911 22.7083 38.9956C23.8854 39.7757 24.6108 41.1034 24.8435 42.9511C25.2678 46.3181 25.2267 48.7681 25.213 49.5071L27.5124 52.9563C28.8948 51.916 30.8794 52.0255 32.1249 53.2847L36.9838 58.1436C37.4354 58.5953 38.1608 58.9238 39.0779 59.348C40.734 60.1008 43.006 61.1137 45.5107 63.7416C49.3841 67.8066 48.2481 74.3763 48.0839 75.1838V78.2223C48.0839 78.6056 47.7828 78.9067 47.3995 78.9067ZM35.7793 77.538H46.7152V75.1154C46.7152 75.0743 46.7152 75.0196 46.7289 74.9785C46.7425 74.9101 48.0565 68.4088 44.5116 64.686C42.1848 62.2497 40.1454 61.3327 38.503 60.5799C37.5039 60.1282 36.6279 59.7313 35.9983 59.1017L31.1531 54.2565C30.3045 53.4079 28.9359 53.4079 28.0873 54.2565C27.6767 54.6671 27.4577 55.2146 27.4577 55.7894C27.4577 56.3643 27.6767 56.9118 28.0873 57.3224L34.8212 64.0564C35.095 64.3301 35.095 64.7544 34.8212 65.0281C34.5475 65.3019 34.1232 65.3019 33.8495 65.0281L27.1155 58.2942C26.4448 57.6235 26.0753 56.7338 26.0753 55.7894C26.0753 55.1598 26.2395 54.5439 26.5543 54.0101L23.9401 50.0683C23.858 49.9451 23.8169 49.7946 23.8306 49.6577C23.8306 49.6303 23.9675 46.9477 23.4885 43.1017C23.3105 41.6782 22.8041 40.6791 21.9692 40.1316C21.0796 39.5431 19.9983 39.5841 19.3824 39.6662L19.4508 51.5054L23.16 61.36L34.4106 72.6107C35.7793 73.9794 35.7519 75.1017 35.7383 75.2249L35.7793 77.538Z" fill="#46587A"/>
<path d="M54.8126 36.9476C57.193 39.328 57.6855 43.0218 57.6855 45.5664C57.6855 47.2901 56.2901 48.6855 54.5664 48.6855C52.0218 48.6855 48.328 48.193 45.9476 45.8126C43.5672 43.4322 43.0747 39.7385 43.0747 37.1939C43.0747 35.4701 44.4701 34.0747 46.1939 34.0747C48.8205 34.0747 52.5143 34.5672 54.8126 36.9476Z" fill="#F2C94C"/>
<path d="M54.5663 49.26C51.7754 49.26 47.9996 48.6854 45.5371 46.2229C43.0746 43.7604 42.5 39.9025 42.5 37.1938C42.5 36.2088 42.9104 35.2238 43.5671 34.5671C44.3058 33.8283 45.2088 33.5 46.1938 33.5C48.9846 33.5 52.7604 34.0746 55.2229 36.5371C57.6854 38.9996 58.26 42.8575 58.26 45.5663C58.26 46.5513 57.8496 47.5363 57.1929 48.1929C56.5363 48.8496 55.5513 49.26 54.5663 49.26ZM46.1938 34.7313C45.5371 34.7313 44.9625 34.9775 44.47 35.47C43.9775 35.9625 43.7312 36.5371 43.7312 37.1938C43.7312 39.7383 44.2238 43.1858 46.44 45.4021C48.6563 47.6183 52.1038 48.0288 54.6483 48.0288C55.305 48.0288 55.8796 47.7825 56.3721 47.29C56.8646 46.7975 57.1108 46.2229 57.1108 45.5663C57.1108 43.0217 56.6183 39.5742 54.4021 37.3579C52.1858 35.1417 48.7383 34.7313 46.1938 34.7313Z" fill="#46587A"/>
<path d="M52.1858 40.2309C52.0217 40.2309 51.8575 40.1489 51.7754 40.0668C50.8725 39.1639 49.1487 38.5893 46.9325 38.5072C46.6042 38.5072 46.3579 38.1789 46.3579 37.8505C46.3579 37.5222 46.6862 37.1939 47.0146 37.2759C48.8204 37.358 51.2829 37.7684 52.6783 39.1639C52.9246 39.4101 52.9246 39.8205 52.6783 40.0668C52.5142 40.1489 52.35 40.2309 52.1858 40.2309Z" fill="#46587A"/>
</svg>
