<svg width="100" height="100" viewBox="0 0 100 100" fill="none" xmlns="http://www.w3.org/2000/svg">
<path d="M49.9382 63.8867C44.6551 63.8867 40.4287 59.3584 40.4287 53.9244C40.4287 48.4905 44.6551 43.9622 49.9382 43.9622C55.2212 43.9622 59.4476 48.4905 59.4476 53.9244C59.4476 59.5093 55.0702 63.8867 49.9382 63.8867ZM49.9382 48.9433C47.3721 48.9433 45.4099 51.2074 45.4099 53.9244C45.4099 56.6414 47.3721 58.9056 49.9382 58.9056C52.3533 58.9056 54.4665 56.6414 54.4665 53.9244C54.4665 51.2074 52.3533 48.9433 49.9382 48.9433Z" fill="#46587A" stroke="#46587A"/>
<path d="M49.9382 64.6415C44.3533 64.6415 39.674 59.8113 39.674 53.9245C39.674 48.0377 44.2023 43.2075 49.9382 43.2075C55.5231 43.2075 60.2023 48.0377 60.2023 53.9245C60.2023 59.8113 55.5231 64.6415 49.9382 64.6415ZM49.9382 44.717C45.108 44.717 41.1834 48.7924 41.1834 53.9245C41.1834 59.0566 45.108 63.132 49.9382 63.132C54.7684 63.132 58.6929 59.0566 58.6929 53.9245C58.6929 48.9434 54.7684 44.717 49.9382 44.717ZM49.9382 59.6603C47.0702 59.6603 44.6551 57.0943 44.6551 53.9245C44.6551 50.7547 47.0702 48.1887 49.9382 48.1887C52.8061 48.1887 55.2212 50.7547 55.2212 53.9245C55.2212 57.0943 52.8061 59.6603 49.9382 59.6603ZM49.9382 49.6981C47.825 49.6981 46.1646 51.6603 46.1646 53.9245C46.1646 56.3396 47.825 58.1509 49.9382 58.1509C52.0514 58.1509 53.7117 56.1886 53.7117 53.9245C53.7117 51.6603 52.0514 49.6981 49.9382 49.6981Z" fill="#46587A" stroke="#46587A"/>
<path d="M49.9381 67.2076C39.523 67.2076 30.3155 62.3774 25.6363 54.6793L25.1834 53.9246L25.6363 53.1698C30.3155 45.4717 39.674 40.6415 49.9381 40.6415C60.3532 40.6415 69.5608 45.4717 74.24 53.1698L74.6929 53.9246L74.24 54.6793C69.5608 62.3774 60.2023 67.2076 49.9381 67.2076ZM26.8438 53.9246C31.2212 61.1698 40.1268 65.6981 49.7872 65.6981C59.5985 65.6981 68.3532 61.1698 72.7306 53.9246C68.3532 46.6793 59.4476 42.151 49.7872 42.151C40.1268 42.3019 31.3721 46.6793 26.8438 53.9246ZM73.7872 46.6793C73.4853 46.6793 73.3344 46.5283 73.1834 46.3774L73.0325 46.0755C68.6551 38.8302 59.7495 34.3019 49.9381 34.3019C40.1268 34.3019 31.2212 38.8302 26.8438 46.0755L26.6929 46.3774C26.391 46.6793 25.9381 46.8302 25.6363 46.6793C25.3344 46.5283 25.1834 46.0755 25.3344 45.6227L25.4853 45.3208C30.1646 37.6227 39.523 32.7925 49.7872 32.7925C60.2023 32.7925 69.4098 37.6227 74.0891 45.3208L74.24 45.6227C74.391 45.9246 74.391 46.3774 73.9381 46.6793C74.0891 46.6793 73.9381 46.6793 73.7872 46.6793Z" fill="#46587A" stroke="#46587A"/>
<path d="M49.9381 81.9999C49.4853 81.9999 49.1834 81.698 49.1834 81.2452V73.849C49.1834 73.3961 49.4853 73.0942 49.9381 73.0942C50.391 73.0942 50.6929 73.3961 50.6929 73.849V81.2452C50.6929 81.5471 50.391 81.9999 49.9381 81.9999Z" fill="#46587A" stroke="#46587A"/>
<path d="M64.2777 79.7357C63.9759 79.7357 63.674 79.5848 63.523 79.1319L61.4098 72.0376C61.2589 71.5848 61.5608 71.2829 61.8627 71.1319C62.3155 70.981 62.6174 71.2829 62.7683 71.5848L64.8815 78.6791C65.0325 79.1319 64.7306 79.4338 64.4287 79.5848C64.2777 79.7357 64.2777 79.7357 64.2777 79.7357Z" fill="#46587A" stroke="#46587A"/>
<path d="M77.108 73.3963C76.8061 73.3963 76.6551 73.2454 76.5042 73.0944L72.4287 66.9057C72.1268 66.6038 72.2778 66.151 72.5797 65.8491C72.8815 65.5472 73.3344 65.6982 73.6363 66.0001L77.7117 72.1887C78.0136 72.4906 77.8627 72.9435 77.5608 73.2453C77.4098 73.2453 77.2589 73.3963 77.108 73.3963Z" fill="#46587A" stroke="#46587A"/>
<path d="M35.5985 79.7358H35.4476C34.9947 79.5848 34.8438 79.132 34.9947 78.8301L37.108 71.7358C37.2589 71.2829 37.7117 71.132 38.0136 71.2829C38.4664 71.4339 38.6174 71.8867 38.4664 72.1886L36.3532 79.2829C36.2023 79.5848 35.9004 79.7358 35.5985 79.7358Z" fill="#46587A" stroke="#46587A"/>
<path d="M22.7683 73.3963C22.6174 73.3963 22.4664 73.3963 22.3155 73.2453C22.0136 72.9435 21.8627 72.4906 22.1646 72.1887L26.24 66.0001C26.5419 65.6982 26.9947 65.5472 27.2966 65.8491C27.5985 66.151 27.7495 66.6038 27.4476 66.9057L23.3721 73.0944C23.2212 73.2454 23.0702 73.3963 22.7683 73.3963Z" fill="#46587A" stroke="#46587A"/>
<path d="M49.9381 26.9057C49.4853 26.9057 49.1834 26.6038 49.1834 26.1509V18.7547C49.1834 18.3019 49.4853 18 49.9381 18C50.391 18 50.6929 18.3019 50.6929 18.7547V26.1509C50.6929 26.4528 50.391 26.9057 49.9381 26.9057Z" fill="#46587A" stroke="#46587A"/>
<path d="M37.7117 28.7169C37.4098 28.7169 37.1079 28.5659 36.957 28.264L34.8438 21.1697C34.8438 20.7169 34.9947 20.415 35.4476 20.264C35.9004 20.1131 36.2023 20.415 36.3532 20.7169L38.4664 27.8112C38.6174 28.1131 38.3155 28.5659 37.8627 28.7169H37.7117Z" fill="#46587A" stroke="#46587A"/>
<path d="M26.8438 34.3018C26.5419 34.3018 26.391 34.1509 26.24 33.9999L22.1646 27.8112C21.8627 27.3584 22.0136 26.9056 22.3155 26.7546C22.6174 26.4528 23.0702 26.6037 23.3721 26.9056L27.4476 33.0943C27.7495 33.3962 27.5985 33.849 27.2966 34.1509C26.9947 34.1509 26.8438 34.3018 26.8438 34.3018Z" fill="#46587A" stroke="#46587A"/>
<path d="M62.1646 28.717H62.0136C61.5608 28.566 61.2589 28.1132 61.4098 27.8113L63.523 20.717C63.674 20.2641 64.1268 20.1132 64.4287 20.2641C64.8815 20.4151 65.0325 20.8679 64.8815 21.1698L62.7683 28.2641C62.7683 28.566 62.4664 28.717 62.1646 28.717Z" fill="#46587A" stroke="#46587A"/>
<path d="M73.0325 34.3018C72.8815 34.3018 72.7306 34.3018 72.5797 34.1509C72.2778 33.849 72.1268 33.3962 72.4287 33.0943L76.3532 26.9056C76.6551 26.6037 77.108 26.4528 77.4098 26.7546C77.8627 26.9056 77.8627 27.3584 77.7117 27.8112L73.6363 33.9999C73.4853 34.1509 73.3344 34.3018 73.0325 34.3018Z" fill="#46587A" stroke="#46587A"/>
</svg>
