<svg width="100" height="100" viewBox="0 0 100 100" fill="none" xmlns="http://www.w3.org/2000/svg">
<path d="M49.9218 50.1171C63.066 50.1171 73.8631 39.4765 73.8631 26.1758C60.7189 26.3323 49.9218 36.9728 49.9218 50.1171Z" fill="#6FCF97" stroke="#46587A"/>
<path d="M49.9218 50.8997C49.4523 50.8997 49.1394 50.5867 49.1394 50.1173C49.1394 36.5036 60.2494 25.3936 73.8631 25.3936C74.3325 25.3936 74.6455 25.7065 74.6455 26.176C74.6455 39.9461 63.5355 50.8997 49.9218 50.8997ZM73.0807 27.1148C61.0318 27.5843 51.1736 37.286 50.8606 49.3349C62.9095 49.0219 72.6113 39.1637 73.0807 27.1148Z" fill="#46587A" stroke="#46587A"/>
<path d="M49.9218 50.1172C49.9218 63.2614 60.5624 74.0585 73.8631 74.0585C73.8631 60.9143 63.2225 50.1172 49.9218 50.1172Z" fill="#6FCF97" stroke="#46587A"/>
<path d="M73.8631 74.8411C60.2494 74.8411 49.1394 63.731 49.1394 50.1174C49.1394 49.6479 49.4523 49.335 49.9218 49.335C63.5355 49.335 74.6455 60.445 74.6455 74.0587C74.6455 74.5281 74.3325 74.8411 73.8631 74.8411ZM50.7042 50.8998C51.1736 62.9487 60.8753 72.8068 72.9242 73.1198C72.6112 61.0709 62.9095 51.3692 50.7042 50.8998Z" fill="#46587A" stroke="#46587A"/>
<path d="M49.9218 50.1171C49.9218 36.9728 39.2812 26.1758 25.9804 26.1758C26.1369 39.4765 36.7775 50.1171 49.9218 50.1171Z" fill="#6FCF97" stroke="#46587A"/>
<path d="M49.9217 50.8997C36.308 50.8997 25.198 39.7896 25.198 26.176C25.198 25.7065 25.511 25.3936 25.9804 25.3936C39.5941 25.3936 50.7041 36.5036 50.7041 50.1173C50.7041 50.5867 50.3912 50.8997 49.9217 50.8997ZM26.9193 27.1148C27.3887 39.1637 37.0904 49.0219 49.1393 49.3349C48.8264 37.286 38.9682 27.4278 26.9193 27.1148Z" fill="#46587A" stroke="#46587A"/>
<path d="M49.9218 50.1172C36.7775 50.1172 25.9805 60.7578 25.9805 74.0585C39.2812 74.0585 49.9218 63.4179 49.9218 50.1172Z" fill="#6FCF97" stroke="#46587A"/>
<path d="M26.1368 74.8411C25.6674 74.8411 25.3544 74.5281 25.3544 74.0587C25.3544 60.445 36.4644 49.335 50.0781 49.335C50.5476 49.335 50.8605 49.6479 50.8605 50.1174C50.704 63.731 39.7505 74.8411 26.1368 74.8411ZM49.1393 50.8998C37.0904 51.3692 27.2322 61.0709 26.9192 73.1198C38.9681 72.8068 48.8263 63.1051 49.1393 50.8998Z" fill="#46587A" stroke="#46587A"/>
<path d="M49.9218 82.1956C49.6089 82.1956 49.4524 82.0391 49.2959 81.8827L40.2201 69.3643C39.9072 69.0514 40.0636 68.5819 40.3766 68.269C40.6896 67.956 41.159 68.1125 41.472 68.4255L49.9218 80.0049L58.3717 68.4255C58.6847 68.1125 59.1541 67.956 59.4671 68.269C59.78 68.5819 59.9365 69.0514 59.6235 69.3643L50.5477 81.8827C50.3913 82.0391 50.2348 82.1956 49.9218 82.1956Z" fill="#46587A" stroke="#46587A"/>
<path d="M68.6993 59.9756C68.3863 59.9756 68.2298 59.8191 68.0733 59.6626C67.7604 59.3497 67.9169 58.8803 68.2298 58.5673L79.8093 50.1174L68.2298 41.6675C67.9169 41.3546 67.7604 40.8851 68.0733 40.5722C68.3863 40.2592 68.8557 40.1027 69.1687 40.4157L81.687 49.4915C81.8435 49.648 82 49.8045 82 50.1174C82 50.4304 81.8435 50.5869 81.687 50.7433L69.1687 59.8191C69.0122 59.9756 68.8557 59.9756 68.6993 59.9756Z" fill="#46587A" stroke="#46587A"/>
<path d="M31.3007 59.9756C31.1443 59.9756 30.9878 59.9756 30.8313 59.8191L18.313 50.7433C18.1565 50.5869 18 50.4304 18 50.1174C18 49.8045 18.1565 49.648 18.313 49.4915L30.8313 40.4157C31.1443 40.1027 31.6137 40.2592 31.9266 40.5722C32.0831 40.8851 32.0831 41.3546 31.7702 41.6675L20.1907 50.1174L31.7702 58.5673C32.0831 58.8803 32.0831 59.3497 31.9266 59.6626C31.7702 59.9756 31.4572 59.9756 31.3007 59.9756Z" fill="#46587A" stroke="#46587A"/>
<path d="M40.846 32.1222C40.6896 32.1222 40.5331 32.1222 40.3766 31.9658C40.0636 31.6528 39.9072 31.1834 40.2201 30.8704L49.2959 18.3521C49.6089 17.8826 50.2348 17.8826 50.5477 18.3521L59.6235 30.8704C59.9365 31.1834 59.78 31.6528 59.4671 31.9658C59.1541 32.2787 58.6847 32.2787 58.5282 31.8093L50.0783 20.2298L41.472 31.8093C41.3155 32.1222 41.159 32.1222 40.846 32.1222Z" fill="#46587A" stroke="#46587A"/>
<path d="M42.4107 58.4107C42.2542 58.4107 41.9413 58.4107 41.7848 58.2542C41.4718 57.9412 41.4718 57.4718 41.7848 57.1588L56.6503 42.2933C56.9633 41.9804 57.4327 41.9804 57.7457 42.2933C58.0586 42.6063 58.0586 43.0757 57.7457 43.3887L43.0366 58.0977C42.8801 58.2542 42.5672 58.4107 42.4107 58.4107Z" fill="#46587A" stroke="#46587A"/>
<path d="M57.2762 58.4109C57.1197 58.4109 56.8068 58.4109 56.6503 58.2544L41.7848 43.2324C41.4718 42.9195 41.4718 42.45 41.7848 42.1371C42.0977 41.8241 42.5672 41.8241 42.8801 42.1371L57.7457 57.0026C58.0586 57.3155 58.0586 57.785 57.7457 58.0979C57.7457 58.2544 57.4327 58.4109 57.2762 58.4109Z" fill="#46587A" stroke="#46587A"/>
</svg>
