<svg width="100" height="100" viewBox="0 0 100 100" fill="none" xmlns="http://www.w3.org/2000/svg">
<path d="M62.7154 82H37.4846V62.6154H18.1V37.3846H37.4846V18H62.7154V37.3846H82.1V62.6154H62.7154V82ZM39.0231 80.4615H61.1769V61.0769H80.5615V38.9231H61.1769V19.5385H39.0231V38.9231H19.6385V61.0769H39.0231V80.4615Z" fill="#46587A" stroke="#46587A"/>
<path d="M50.1 61.5385C63.0231 39.0769 50.1 20.4615 50.1 20.4615C50.1 20.4615 37.1769 39.0769 50.1 61.5385Z" fill="#EB5757" stroke="#46587A"/>
<path d="M50.1 62.3077C49.7923 62.3077 49.6385 62.1538 49.4846 61.8461C36.4077 39.2307 49.3308 20.1538 49.4846 20C49.7923 19.5384 50.4077 19.5384 50.7154 20C50.8692 20.1538 63.7923 39.2307 50.7154 61.8461C50.5615 62.1538 50.4077 62.3077 50.1 62.3077ZM50.1 22C47.7923 26 40.2538 41.6923 50.1 60C59.9461 41.6923 52.4077 26 50.1 22Z" fill="#46587A" stroke="#46587A"/>
<path d="M50.1 62.4615C42.4077 42.1538 23.4846 40.6154 23.4846 40.6154C23.4846 40.6154 28.5615 58.7692 50.1 62.4615Z" fill="#EB5757" stroke="#46587A"/>
<path d="M50.1 63.2307C50.1 63.2307 49.9462 63.2307 50.1 63.2307C28.2539 59.5384 22.7154 40.923 22.7154 40.7692C22.7154 40.4615 22.7154 40.3076 22.8692 40C23.0231 39.8461 23.3308 39.6923 23.4846 39.6923C23.6385 39.6923 43.0231 41.5384 50.7154 62.1538C50.8692 62.4615 50.7154 62.7692 50.5615 62.923C50.5615 63.0769 50.2539 63.2307 50.1 63.2307ZM24.5615 41.5384C26.1 45.3846 32.2539 58.1538 48.8692 61.5384C42.4077 45.8461 28.7154 42.1538 24.5615 41.5384Z" fill="#46587A" stroke="#46587A"/>
<path d="M50.1 62.6152C35.4846 57.6922 26.1 67.3845 26.1 67.3845C26.1 67.3845 38.5615 72.7691 50.1 62.6152Z" fill="#EB5757" stroke="#46587A"/>
<path d="M34.1 69.5384C29.1769 69.5384 25.9461 68.1538 25.7923 68.1538C25.6385 67.9999 25.3308 67.8461 25.3308 67.5384C25.3308 67.2307 25.3308 67.0769 25.4846 66.923C25.6385 66.7692 35.3308 56.923 50.2538 61.8461C50.5615 62 50.7154 62.1538 50.7154 62.4615C50.7154 62.7692 50.7154 63.0769 50.4077 63.2307C44.8692 68.3076 38.7154 69.5384 34.1 69.5384ZM27.6385 67.2307C30.7154 68.1538 39.6385 70 48.5615 63.0769C37.7923 60 30.1 65.0769 27.6385 67.2307Z" fill="#46587A" stroke="#46587A"/>
<path d="M50.1 62.4615C57.7923 42.1538 76.7154 40.6154 76.7154 40.6154C76.7154 40.6154 71.6385 58.7692 50.1 62.4615Z" fill="#EB5757" stroke="#46587A"/>
<path d="M50.1 63.2307C49.9462 63.2307 49.6385 63.0769 49.4846 62.923C49.3308 62.7692 49.3308 62.4615 49.3308 62.1538C57.0231 41.5384 76.4077 39.6923 76.5616 39.6923C76.8692 39.6923 77.0231 39.8461 77.1769 40C77.3308 40.1538 77.3308 40.4615 77.3308 40.7692C77.3308 40.923 71.9462 59.5384 50.1 63.2307ZM75.4846 41.5384C71.3308 42.3076 57.7923 45.8461 51.1769 61.5384C67.9462 58 74.1 45.3846 75.4846 41.5384Z" fill="#46587A" stroke="#46587A"/>
<path d="M50.1 62.6152C64.7154 57.6922 74.1 67.3845 74.1 67.3845C74.1 67.3845 61.6385 72.7691 50.1 62.6152Z" fill="#EB5757" stroke="#46587A"/>
<path d="M66.1 69.5385C61.4846 69.5385 55.4846 68.3077 49.6385 63.0769C49.4846 62.9231 49.3308 62.6154 49.3308 62.3077C49.3308 62 49.6385 61.8461 49.7923 61.6923C64.7154 56.7692 74.4077 66.6154 74.5616 66.7692C74.7154 66.9231 74.8692 67.2308 74.7154 67.3846C74.7154 67.6923 74.5616 67.8461 74.2539 68C74.2539 68.1538 70.8692 69.5385 66.1 69.5385ZM51.6385 62.9231C60.4077 70 69.3308 68.1538 72.5616 67.0769C70.1 65.0769 62.5615 59.8461 51.6385 62.9231Z" fill="#46587A" stroke="#46587A"/>
<path d="M50.1 75.5384C49.6385 75.5384 49.3308 75.2307 49.3308 74.7692V63.5384C49.3308 63.0769 49.6385 62.7692 50.1 62.7692C50.5615 62.7692 50.8692 63.0769 50.8692 63.5384V74.7692C50.8692 75.2307 50.5615 75.5384 50.1 75.5384Z" fill="#46587A" stroke="#46587A"/>
<path d="M55.7923 71.9998C55.4846 71.9998 55.3308 71.846 55.1769 71.6921L49.4846 62.7691C49.1769 62.4614 49.3308 61.9998 49.6385 61.6921C49.9462 61.3844 50.4077 61.5383 50.7154 61.846L56.4077 70.7691C56.7154 71.0767 56.5616 71.5383 56.2539 71.846C56.1 71.9998 55.9462 71.9998 55.7923 71.9998Z" fill="#46587A" stroke="#46587A"/>
<path d="M44.4077 71.9998C44.2539 71.9998 44.1 71.9998 43.9462 71.846C43.6385 71.5383 43.4846 71.0767 43.7923 70.7691L49.4846 61.846C49.7923 61.5383 50.2539 61.3844 50.5616 61.6921C50.8692 61.9998 51.0231 62.4614 50.7154 62.7691L45.0231 71.6921C44.8692 71.9998 44.5616 71.9998 44.4077 71.9998Z" fill="#46587A" stroke="#46587A"/>
</svg>
