<svg width="100" height="100" viewBox="0 0 100 100" fill="none" xmlns="http://www.w3.org/2000/svg">
<path d="M33.6909 60.0857C33.371 59.7658 33.211 59.6058 33.0511 59.2859L22.014 62.1651C18.1751 63.2848 17.6952 68.5634 21.2143 70.3229L22.334 70.8028C25.2132 72.4024 27.6125 74.8017 29.0521 77.6809L29.532 78.8006C31.2915 82.3197 36.5701 81.8398 37.6898 78.0009L40.5691 66.9638C40.2491 66.8039 40.0892 66.484 39.7693 66.324L33.6909 60.0857Z" fill="#F2C94C" stroke="#46587A"/>
<path d="M33.5309 81.9997C31.6115 81.9997 29.8519 80.88 28.8922 79.1205L28.4123 78.0008C26.9727 75.2815 24.7333 73.0421 22.014 71.6025L20.8943 71.1226C18.9749 70.0029 17.8552 68.0835 18.0151 66.004C18.1751 63.9246 19.6147 62.1651 21.6941 61.5252L32.8911 58.646C33.211 58.646 33.5309 58.646 33.6909 58.9659C33.8509 59.2858 34.1708 59.4458 34.3307 59.7657L40.4091 65.8441C40.5691 66.004 40.889 66.3239 41.2089 66.4839C41.5288 66.6438 41.5288 66.9638 41.5288 67.2837L38.6496 78.3207C37.8498 80.4002 36.0903 81.6798 34.0108 81.9997C33.8509 81.9997 33.6909 81.9997 33.5309 81.9997ZM32.7312 60.2456L22.174 62.9648C20.4145 63.4447 19.7746 64.8843 19.6147 66.164C19.4547 67.2837 19.9346 68.8832 21.5342 69.683L22.6539 70.1629C25.6931 71.7625 28.2524 74.1618 29.692 77.201L30.1718 78.3207C30.9716 79.9203 32.5712 80.4002 33.6909 80.2402C34.8106 80.0802 36.2502 79.4404 36.89 77.6809L39.6093 67.1237C39.4494 66.9638 39.2894 66.8038 39.1294 66.6438L33.0511 60.5655C33.0511 60.5655 32.8911 60.4055 32.7312 60.2456Z" fill="#46587A" stroke="#46587A"/>
<path d="M77.6791 29.0543C74.7999 27.6146 72.4005 25.2153 70.9609 22.3361L70.3211 21.2164C68.5615 17.6973 63.283 18.1772 62.1633 22.0161L59.284 33.0532C59.6039 33.2131 59.7639 33.533 60.0838 33.693L66.1622 39.7714C66.4821 40.0913 66.6421 40.2512 66.802 40.5712L77.839 37.6919C81.678 36.5722 82.1579 31.2937 78.6388 29.5341L77.6791 29.0543Z" fill="#F2C94C" stroke="#46587A"/>
<path d="M66.962 41.5309C66.802 41.5309 66.4821 41.3709 66.3221 41.211C66.1622 40.891 65.8423 40.7311 65.6823 40.4112L59.6039 34.3328C59.444 34.1729 59.1241 33.8529 58.8042 33.693C58.4842 33.533 58.4842 33.2131 58.4842 32.8932L61.3635 21.8562C62.0033 19.6168 63.7628 18.1772 66.0022 18.0172C68.2416 17.8572 70.1611 18.817 71.1208 20.7365L71.6007 21.8562C73.0403 24.5754 75.2797 26.8148 77.999 28.2544L79.1187 28.7343C81.0382 29.6941 82.1579 31.6135 81.838 33.8529C81.678 35.9324 80.2384 37.6919 78.1589 38.3317L66.962 41.211C67.1219 41.3709 66.962 41.5309 66.962 41.5309ZM60.2438 32.7332C60.4037 32.8932 60.5637 33.0532 60.7236 33.2131L66.802 39.2915C66.962 39.4514 67.1219 39.6114 67.2819 39.7713L77.839 37.0521C79.5986 36.5722 80.2384 35.1326 80.3983 33.8529C80.5583 32.7332 80.0784 31.1337 78.4789 30.3339L77.3592 29.854C74.32 28.2544 71.7607 25.8551 70.3211 22.8159L69.8412 21.6962C69.0414 20.0966 67.4418 19.6168 66.3221 19.7767C65.2024 19.9367 63.7628 20.5765 63.123 22.336L60.2438 32.7332Z" fill="#46587A" stroke="#46587A"/>
<path d="M50.8704 67.8835L39.1263 41.0624C39.1277 41.059 39.1292 41.0555 39.1308 41.0519C39.138 41.0356 39.1456 41.0188 39.154 41.001L46.3948 33.7602C47.2109 32.9441 48.0253 32.3809 49.126 31.8137H49.3026L61.0467 58.6348C61.0453 58.6382 61.0437 58.6417 61.0421 58.6453C61.035 58.6616 61.0274 58.6784 61.0189 58.6962L53.7782 65.937C52.9621 66.7531 52.1477 67.3163 51.047 67.8835H51.0462H51.0453H51.0444H51.0434H51.0425H51.0415H51.0406H51.0397H51.0387H51.0378H51.0369H51.0359H51.035H51.034H51.0331H51.0322H51.0312H51.0303H51.0294H51.0284H51.0275H51.0266H51.0256H51.0247H51.0237H51.0228H51.0219H51.0209H51.02H51.0191H51.0181H51.0172H51.0162H51.0153H51.0144H51.0134H51.0125H51.0116H51.0106H51.0097H51.0087H51.0078H51.0069H51.0059H51.005H51.0041H51.0031H51.0022H51.0012H51.0003H50.9994H50.9984H50.9975H50.9966H50.9956H50.9947H50.9937H50.9928H50.9919H50.9909H50.99H50.9891H50.9881H50.9872H50.9862H50.9853H50.9844H50.9834H50.9825H50.9816H50.9806H50.9797H50.9788H50.9778H50.9769H50.9759H50.975H50.9741H50.9731H50.9722H50.9713H50.9703H50.9694H50.9684H50.9675H50.9666H50.9656H50.9647H50.9638H50.9628H50.9619H50.9609H50.96H50.9591H50.9581H50.9572H50.9563H50.9553H50.9544H50.9534H50.9525H50.9516H50.9506H50.9497H50.9488H50.9478H50.9469H50.9459H50.945H50.9441H50.9431H50.9422H50.9413H50.9403H50.9394H50.9384H50.9375H50.9366H50.9356H50.9347H50.9338H50.9328H50.9319H50.931H50.93H50.9291H50.9281H50.9272H50.9263H50.9253H50.9244H50.9235H50.9225H50.9216H50.9206H50.9197H50.9188H50.9178H50.9169H50.916H50.915H50.9141H50.9131H50.9122H50.9113H50.9103H50.9094H50.9085H50.9075H50.9066H50.9056H50.9047H50.9038H50.9028H50.9019H50.901H50.9H50.8991H50.8981H50.8972H50.8963H50.8953H50.8944H50.8935H50.8925H50.8916H50.8907H50.8897H50.8888H50.8878H50.8869H50.886H50.885H50.8841H50.8832H50.8822H50.8813H50.8803H50.8794H50.8785H50.8775H50.8766H50.8757H50.8747H50.8738H50.8728H50.8719H50.871H50.8704Z" fill="#F2C94C" stroke="#46587A" stroke-width="2"/>
<path d="M46.8074 69.8432C44.0881 69.8432 41.3688 68.8835 39.2894 66.804L33.211 60.7257C31.2915 58.8062 30.1718 56.0869 30.1718 53.2077C30.1718 50.3285 31.2915 47.7691 33.211 45.6897L45.8476 33.0531C47.7671 31.1336 50.4864 30.0139 53.3656 30.0139C56.2448 30.0139 58.8041 31.1336 60.8836 33.0531L66.962 39.1315C71.1208 43.2903 71.1208 50.0085 66.962 54.0075L54.3254 66.6441C52.086 68.8835 49.5266 69.8432 46.8074 69.8432ZM53.2057 31.7734C50.8063 31.7734 48.5669 32.7332 46.8074 34.3328L34.1708 46.9694C32.4112 48.7289 31.6115 50.9683 31.6115 53.3676C31.6115 55.767 32.5712 58.0064 34.1708 59.7659L40.2491 65.8443C43.7682 69.3633 49.3667 69.3633 52.8857 65.8443L65.5223 53.2077C69.0414 49.6886 69.0414 44.0901 65.5223 40.5711L59.6039 34.3328C57.8444 32.5732 55.605 31.7734 53.2057 31.7734Z" fill="#46587A" stroke="#46587A"/>
</svg>
