<svg width="24" height="24" viewBox="0 0 24 24" fill="none" xmlns="http://www.w3.org/2000/svg">
<path fill-rule="evenodd" clip-rule="evenodd" d="M18.9668 9.2636C19.4778 9.19059 19.9159 9.70165 19.9889 10.1397C20.0619 10.6508 19.7699 11.1618 19.2588 11.3808C18.4557 11.6729 17.6526 11.9649 16.7765 12.1839C16.4115 12.33 16.0464 12.476 15.6814 12.549C15.0973 12.768 14.5863 12.476 14.3672 11.8189C14.1482 11.3078 14.4402 10.7238 15.0243 10.5047L17.6526 9.62864C17.9447 9.55563 18.2367 9.40962 18.6017 9.33661C18.6747 9.2636 18.8208 9.2636 18.9668 9.2636ZM5.02212 9.2636C5.16814 9.2636 5.31416 9.2636 5.46017 9.33661L8.74556 10.4317C8.81857 10.4317 8.96459 10.5047 9.0376 10.5778C9.54866 10.8698 9.76768 11.4539 9.54866 11.9649C9.32963 12.476 8.81857 12.768 8.30751 12.549C7.13937 12.1839 5.89823 11.7459 4.73009 11.3078C4.29203 11.1618 4 10.7238 4 10.2857C4 9.84767 4.21903 9.40962 4.65708 9.2636H5.02212ZM13.0531 7.07334V8.97156C13.0531 9.62864 12.615 10.0667 12.031 10.0667C11.5199 10.0667 10.9358 9.70165 10.9358 8.97156V5.1021C10.9358 4.44503 11.3009 4.07998 11.8849 4.00697C12.396 3.93397 12.9801 4.44503 12.9801 5.0291C13.0531 5.68617 13.0531 6.34325 13.0531 7.07334ZM10.9358 15.7614C10.9358 15.9804 10.8628 16.1994 10.7898 16.3454C10.0597 17.4406 9.32963 18.5357 8.52654 19.5578C8.2345 19.9959 7.57742 20.1419 7.06636 19.7768C6.62831 19.4118 6.48229 18.7547 6.84734 18.2437C7.57742 17.1485 8.30751 16.1264 9.0376 15.0313C9.32963 14.5932 9.76768 14.4472 10.2057 14.6662C10.6438 14.8853 10.9358 15.2503 10.9358 15.7614ZM14.0022 14.5932C14.4402 14.5932 14.7323 14.8123 14.9513 15.1773C15.2433 15.6154 15.5354 16.0534 15.8274 16.4184C16.1924 17.0025 16.6305 17.5866 16.9955 18.1707C17.3606 18.6817 17.3606 19.1198 16.9955 19.5578C16.6305 20.0689 15.9004 20.1419 15.4624 19.7038C15.2433 19.4848 15.0973 19.1928 14.8783 18.9007C14.2942 18.0976 13.7102 17.2215 13.1261 16.4184C12.834 15.9804 12.761 15.6154 13.0531 15.1043C13.4181 14.8123 13.7102 14.6662 14.0022 14.5932Z" fill="#069EFB"/>
</svg>
