<svg width="24" height="24" viewBox="0 0 24 24" fill="none" xmlns="http://www.w3.org/2000/svg">
<path fill-rule="evenodd" clip-rule="evenodd" d="M4 12.22C4 7.67845 7.76938 4 12.4188 4C17.0724 4 20.8407 7.67845 20.8407 12.22C20.8407 16.7616 17.0724 20.44 12.4188 20.44C11.5008 20.44 10.6181 20.2962 9.7915 20.0331C10.39 16.6403 12.5842 13.8732 15.4839 12.6993C15.6618 12.8994 15.8802 13.0594 16.1247 13.1686C16.3692 13.2778 16.6341 13.3338 16.9018 13.3328C17.935 13.3328 18.7719 12.5144 18.7719 11.5038C18.7719 10.4943 17.935 9.67591 16.9018 9.67591C15.8681 9.67591 15.0318 10.4917 15.0292 11.5002C11.3286 12.5868 8.3304 15.1088 6.80919 18.3501C6.3267 17.9297 5.89465 17.4547 5.52173 16.9347C5.60907 13.7782 7.20837 11.0199 9.60296 9.39438C9.78052 9.58884 9.9968 9.74401 10.2379 9.84992C10.479 9.95583 10.7396 10.0101 11.0029 10.0093C12.0371 10.0093 12.8745 9.18836 12.8745 8.18038C12.8745 7.16984 12.0371 6.35195 11.0029 6.35195C9.96772 6.35195 9.13031 7.16984 9.13031 8.1809C9.13031 8.2333 9.1339 8.28724 9.13801 8.33759C6.90783 9.10154 5.07682 10.613 4.00565 12.5385C4.00051 12.4347 4 12.3263 4 12.22Z" fill="#FCCF00"/>
</svg>
