<svg width="48" height="64" viewBox="0 0 48 64" fill="none" xmlns="http://www.w3.org/2000/svg">
<path d="M13.6861 40.5044C13.4487 40.5044 13.2114 40.3462 13.1323 40.1089C13.0532 39.7924 13.2114 39.476 13.5278 39.3178L17.0878 38.2102C19.382 37.4982 20.9642 35.4414 20.9642 32.989V30.2201C20.9642 28.2424 22.6255 26.5811 24.6032 26.5811C26.581 26.5811 28.2423 28.2424 28.2423 30.2201V37.4982C28.2423 37.8147 28.005 38.1311 27.6094 38.1311C27.293 38.1311 26.9765 37.8938 26.9765 37.4982V30.2201C26.9765 28.8752 25.869 27.7677 24.5241 27.7677C23.1793 27.7677 22.0717 28.8752 22.0717 30.2201V32.989C22.0717 35.916 20.1731 38.4476 17.4042 39.3178L13.8443 40.4253C13.7652 40.4253 13.6861 40.5044 13.6861 40.5044Z" fill="#46587A"/>
<path d="M37.1816 63.4461H30.5364C28.5587 63.4461 26.8973 61.7848 26.8973 59.807C26.8973 57.8293 28.5587 56.168 30.5364 56.168H37.1816C39.1594 56.168 40.8207 57.8293 40.8207 59.807C40.8207 61.7848 39.2385 63.4461 37.1816 63.4461ZM30.5364 57.3546C29.1915 57.3546 28.084 58.4622 28.084 59.807C28.084 61.1519 29.1915 62.2594 30.5364 62.2594H37.1816C38.5265 62.2594 39.6341 61.1519 39.6341 59.807C39.6341 58.4622 38.5265 57.3546 37.1816 57.3546H30.5364Z" fill="#46587A"/>
<path d="M38.4475 57.3548H30.6156C28.6379 57.3548 26.9766 55.6935 26.9766 53.7157C26.9766 51.738 28.6379 50.0767 30.6156 50.0767H38.4475C40.4253 50.0767 42.0866 51.738 42.0866 53.7157C42.0866 55.7726 40.4253 57.3548 38.4475 57.3548ZM30.5365 51.3424C29.1916 51.3424 28.0841 52.45 28.0841 53.7948C28.0841 55.1397 29.1916 56.2472 30.5365 56.2472H38.3684C39.7133 56.2472 40.8208 55.1397 40.8208 53.7948C40.8208 52.45 39.7133 51.3424 38.3684 51.3424H30.5365Z" fill="#46587A"/>
<path d="M39.6341 51.3423H30.5364C28.5587 51.3423 26.8973 49.681 26.8973 47.7033C26.8973 45.7255 28.5587 44.0642 30.5364 44.0642H39.6341C41.6118 44.0642 43.2731 45.7255 43.2731 47.7033C43.2731 49.681 41.6118 51.3423 39.6341 51.3423ZM30.5364 45.33C29.1915 45.33 28.084 46.4375 28.084 47.7824C28.084 49.1273 29.1915 50.2348 30.5364 50.2348H39.6341C40.9789 50.2348 42.0865 49.1273 42.0865 47.7824C42.0865 46.4375 40.9789 45.33 39.6341 45.33H30.5364Z" fill="#46587A"/>
<path d="M38.4475 45.3301H30.6156C28.6379 45.3301 26.9766 43.6688 26.9766 41.6911C26.9766 39.7133 28.6379 38.052 30.6156 38.052H38.4475C40.4253 38.052 42.0866 39.7133 42.0866 41.6911C42.0866 43.6688 40.4253 45.3301 38.4475 45.3301ZM30.5365 39.2387C29.1916 39.2387 28.0841 40.3462 28.0841 41.6911C28.0841 43.0359 29.1916 44.1435 30.5365 44.1435H38.3684C39.7133 44.1435 40.8208 43.0359 40.8208 41.6911C40.8208 40.3462 39.7133 39.2387 38.3684 39.2387H30.5365Z" fill="#46587A"/>
<path d="M30.5365 63.4462H13.686C13.3696 63.4462 13.0532 63.2089 13.0532 62.8133C13.0532 62.4969 13.2905 62.1804 13.686 62.1804H30.6156C30.932 62.1804 31.2485 62.4178 31.2485 62.8133C31.1693 63.1297 30.932 63.4462 30.5365 63.4462Z" fill="#46587A"/>
<path d="M6.40796 63.4462H10.047C10.6799 63.4462 11.2337 62.8924 11.2337 62.2595V40.5043C11.2337 39.8714 10.6799 39.3176 10.047 39.3176H6.40796C5.77508 39.3176 5.22131 39.8714 5.22131 40.5043V62.2595C5.22131 62.8924 5.77508 63.4462 6.40796 63.4462Z" fill="#6FCF97"/>
<path d="M10.047 64H6.40791C5.37948 64 4.58838 63.2089 4.58838 62.1805V40.5043C4.58838 39.4759 5.37948 38.6848 6.40791 38.6848H10.047C11.0754 38.6848 11.8665 39.4759 11.8665 40.5043V62.2596C11.8665 63.2089 10.9963 64 10.047 64ZM6.40791 39.8715C6.09147 39.8715 5.77503 40.1088 5.77503 40.5043V62.2596C5.77503 62.576 6.01236 62.8925 6.40791 62.8925H10.047C10.3634 62.8925 10.6798 62.6551 10.6798 62.2596V40.5043C10.6798 40.1879 10.4425 39.8715 10.047 39.8715H6.40791Z" fill="#46587A"/>
<path d="M29.9827 9.25581C29.9827 12.4993 27.7677 15.2682 26.0272 17.0877C24.8406 18.2744 22.9419 18.2744 21.8344 17.0877C20.094 15.3473 17.8789 12.4993 17.8789 9.25581C17.8789 6.0123 20.094 3.16434 21.8344 1.42392C23.0211 0.237273 24.9197 0.237273 26.0272 1.42392C27.7677 3.24345 29.9827 6.09141 29.9827 9.25581Z" fill="#F2C94C"/>
<path d="M23.8912 18.5908C22.9419 18.5908 21.9926 18.1953 21.3597 17.5624C19.4611 15.6638 17.246 12.7367 17.246 9.33498C17.246 5.93325 19.4611 3.00618 21.3597 1.10754C22.0717 0.39555 22.9419 0 23.8912 0C24.8405 0 25.7898 0.39555 26.4227 1.02843C28.3214 2.92707 30.5364 5.85414 30.5364 9.25587C30.5364 12.6576 28.3214 15.5847 26.4227 17.4833C25.7898 18.1953 24.9196 18.5908 23.8912 18.5908ZM23.8912 1.18665C23.2583 1.18665 22.6255 1.42398 22.2299 1.89864C20.4895 3.63906 18.5117 6.3288 18.5117 9.25587C18.5117 12.262 20.5686 14.9518 22.2299 16.6131C23.1001 17.4833 24.6823 17.4833 25.6316 16.6131C27.372 14.8727 29.3498 12.1829 29.3498 9.25587C29.3498 6.24969 27.2929 3.55995 25.6316 1.89864C25.157 1.42398 24.6032 1.18665 23.8912 1.18665Z" fill="#46587A"/>
<path d="M26.3436 9.88879C26.0272 9.88879 25.7107 9.65146 25.7107 9.25591C25.7107 8.06926 24.9196 6.48706 23.4165 4.90486C23.1792 4.66753 23.1792 4.27198 23.4957 4.03465C23.733 3.79732 24.1285 3.79732 24.3659 4.11376C25.5525 5.37952 26.9765 7.35727 26.9765 9.33502C26.9765 9.65146 26.6601 9.88879 26.3436 9.88879Z" fill="#46587A"/>
<path d="M11.8665 14.7144C14.1607 17.0086 14.6353 20.5685 14.6353 23.021C14.6353 24.6823 13.2905 26.0271 11.6292 26.0271C9.17676 26.0271 5.61681 25.5525 3.32262 23.2583C1.02843 20.9641 0.553772 17.4041 0.553772 14.9517C0.553772 13.2904 1.89864 11.9456 3.55995 11.9456C6.09147 11.9456 9.65141 12.4202 11.8665 14.7144Z" fill="#F2C94C"/>
<path d="M11.6292 26.581C8.93943 26.581 5.30037 26.0272 2.92707 23.6539C0.55377 21.2806 0 17.5624 0 14.9518C0 14.0025 0.39555 13.0532 1.02843 12.4203C1.74042 11.7083 2.61063 11.3918 3.55995 11.3918C6.24969 11.3918 9.88875 11.9456 12.2621 14.3189C14.6354 16.6922 15.1891 20.4104 15.1891 23.021C15.1891 23.9703 14.7936 24.9197 14.1607 25.5525C13.5278 26.1854 12.5785 26.581 11.6292 26.581ZM3.55995 12.5785C2.92707 12.5785 2.3733 12.8158 1.89864 13.2905C1.42398 13.7651 1.18665 14.3189 1.18665 14.9518C1.18665 17.4042 1.66131 20.7268 3.79728 22.8628C5.93325 24.9988 9.25587 25.3943 11.7083 25.3943C12.3412 25.3943 12.8949 25.157 13.3696 24.6823C13.8443 24.2077 14.0816 23.6539 14.0816 23.021C14.0816 20.5686 13.6069 17.246 11.471 15.11C9.33498 12.974 6.01236 12.5785 3.55995 12.5785Z" fill="#46587A"/>
<path d="M9.33501 17.8788C9.17679 17.8788 9.01857 17.7997 8.93946 17.7206C8.06925 16.8504 6.40794 16.2966 4.27197 16.2175C3.95553 16.2175 3.7182 15.9011 3.7182 15.5846C3.7182 15.2682 4.03464 14.9517 4.35108 15.0308C6.0915 15.11 8.4648 15.5055 9.80967 16.8504C10.047 17.0877 10.047 17.4833 9.80967 17.7206C9.65145 17.7997 9.49323 17.8788 9.33501 17.8788Z" fill="#46587A"/>
<path d="M43.9061 23.2583C41.6119 25.5525 38.052 26.0271 35.5996 26.0271C33.9383 26.0271 32.5934 24.6823 32.5934 23.021C32.5934 20.5685 33.068 17.0086 35.3622 14.7144C37.6564 12.4202 41.2164 11.9456 43.6688 11.9456C45.3301 11.9456 46.675 13.2904 46.675 14.9517C46.675 17.4041 46.2003 20.9641 43.9061 23.2583Z" fill="#F2C94C"/>
<path d="M35.5995 26.581C34.6502 26.581 33.78 26.1854 33.068 25.5525C32.356 24.8405 32.0396 23.9703 32.0396 23.021C32.0396 20.3313 32.5933 16.6922 34.9666 14.3189C37.3399 11.9456 41.0581 11.3918 43.6687 11.3918C44.618 11.3918 45.5674 11.7874 46.2002 12.4203C46.9122 13.1323 47.2287 14.0025 47.2287 14.9518C47.2287 17.6415 46.6749 21.2806 44.3016 23.6539C41.9283 26.0272 38.2892 26.581 35.5995 26.581ZM43.6687 12.5785C41.2163 12.5785 37.8937 13.0532 35.7577 15.11C33.6218 17.246 33.2262 20.5686 33.1471 23.021C33.1471 23.6539 33.3844 24.2868 33.8591 24.6823C34.3337 25.157 34.9666 25.3943 35.5204 25.3943C37.9728 25.3943 41.2954 24.9197 43.4314 22.8628C45.5674 20.7268 45.9629 17.4042 46.042 14.9518C46.042 14.3189 45.8047 13.686 45.33 13.2905C44.9345 12.8158 44.3016 12.5785 43.6687 12.5785Z" fill="#46587A"/>
<path d="M41.3746 20.6477C41.2164 20.6477 41.0581 20.5686 40.979 20.4895C40.7417 20.2522 40.7417 19.8566 40.979 19.6193C41.8492 18.7491 42.403 17.0878 42.4821 14.9518C42.4821 14.6354 42.7986 14.3189 43.115 14.398C43.4314 14.398 43.6688 14.7145 43.6688 15.0309C43.5897 16.7713 43.1941 19.1446 41.8492 20.4895C41.6119 20.5686 41.5328 20.6477 41.3746 20.6477Z" fill="#46587A"/>
</svg>
