<svg width="16" height="16" viewBox="0 0 16 16" fill="none" xmlns="http://www.w3.org/2000/svg">
<path fill-rule="evenodd" clip-rule="evenodd" d="M14.9668 5.26364C15.4778 5.19063 15.9159 5.70169 15.9889 6.13974C16.0619 6.6508 15.7699 7.16186 15.2588 7.38089C14.4557 7.67292 13.6526 7.96496 12.7765 8.18398C12.4115 8.33 12.0464 8.47602 11.6814 8.54903C11.0973 8.76805 10.5863 8.47602 10.3672 7.81894C10.1482 7.30788 10.4402 6.72381 11.0243 6.50478L13.6526 5.62868C13.9447 5.55567 14.2367 5.40965 14.6017 5.33665C14.6747 5.26364 14.8208 5.26364 14.9668 5.26364ZM1.02212 5.26364C1.16814 5.26364 1.31416 5.26364 1.46017 5.33665L4.74556 6.43178C4.81857 6.43178 4.96459 6.50478 5.0376 6.57779C5.54866 6.86983 5.76768 7.4539 5.54866 7.96496C5.32963 8.47602 4.81857 8.76805 4.30751 8.54903C3.13937 8.18398 1.89823 7.74593 0.730087 7.30788C0.292035 7.16186 0 6.72381 0 6.28576C0 5.84771 0.219026 5.40965 0.657078 5.26364H1.02212ZM9.05307 3.07338V4.9716C9.05307 5.62868 8.61502 6.06673 8.03095 6.06673C7.51989 6.06673 6.93582 5.70169 6.93582 4.9716V1.10214C6.93582 0.445065 7.30087 0.0800216 7.88493 0.0070129C8.396 -0.0659958 8.98007 0.445065 8.98007 1.02913C9.05307 1.68621 9.05307 2.34329 9.05307 3.07338ZM6.93582 11.7614C6.93582 11.9804 6.86281 12.1995 6.7898 12.3455C6.05972 13.4406 5.32963 14.5357 4.52654 15.5579C4.2345 15.9959 3.57742 16.1419 3.06636 15.7769C2.62831 15.4118 2.48229 14.7548 2.84734 14.2437C3.57742 13.1486 4.30751 12.1265 5.0376 11.0313C5.32963 10.5933 5.76768 10.4473 6.20574 10.6663C6.64379 10.8853 6.93582 11.2503 6.93582 11.7614ZM10.0022 10.5933C10.4402 10.5933 10.7323 10.8123 10.9513 11.1773C11.2433 11.6154 11.5354 12.0534 11.8274 12.4185C12.1924 13.0026 12.6305 13.5866 12.9955 14.1707C13.3606 14.6818 13.3606 15.1198 12.9955 15.5579C12.6305 16.0689 11.9004 16.1419 11.4624 15.7039C11.2433 15.4848 11.0973 15.1928 10.8783 14.9008C10.2942 14.0977 9.71015 13.2216 9.12608 12.4185C8.83405 11.9804 8.76104 11.6154 9.05307 11.1043C9.41812 10.8123 9.71015 10.6663 10.0022 10.5933Z" fill="#069EFB"/>
</svg>
