<svg width="17" height="17" viewBox="0 0 17 17" fill="none" xmlns="http://www.w3.org/2000/svg">
<path fill-rule="evenodd" clip-rule="evenodd" d="M0 8.22C0 3.67845 3.76938 0 8.41882 0C13.0724 0 16.8407 3.67845 16.8407 8.22C16.8407 12.7616 13.0724 16.44 8.41882 16.44C7.50075 16.44 6.61813 16.2962 5.7915 16.0331C6.39002 12.6403 8.58425 9.87325 11.4839 8.69933C11.6618 8.89942 11.8802 9.05938 12.1247 9.1686C12.3692 9.27781 12.6341 9.33378 12.9018 9.33278C13.935 9.33278 14.7719 8.51438 14.7719 7.50383C14.7719 6.49431 13.935 5.67591 12.9018 5.67591C11.8681 5.67591 11.0318 6.49174 11.0292 7.50024C7.32864 8.58682 4.3304 11.1088 2.80919 14.3501C2.3267 13.9297 1.89465 13.4547 1.52173 12.9347C1.60907 9.7782 3.20837 7.01988 5.60296 5.39438C5.78052 5.58884 5.9968 5.74401 6.2379 5.84992C6.479 5.95583 6.73959 6.01013 7.00293 6.00933C8.0371 6.00933 8.87452 5.18836 8.87452 4.18038C8.87452 3.16984 8.0371 2.35195 7.00293 2.35195C5.96772 2.35195 5.13031 3.16984 5.13031 4.1809C5.13031 4.2333 5.1339 4.28724 5.13801 4.33759C2.90783 5.10154 1.07682 6.61299 0.00565125 8.53853C0.00051375 8.43475 0 8.32635 0 8.22Z" fill="#FCCF00"/>
</svg>
