<svg width="16" height="16" viewBox="0 0 16 16" fill="none" xmlns="http://www.w3.org/2000/svg">
<path d="M11.4659 0.788132C9.99408 0.997032 8.8546 2.36914 8.82612 4.04036C10.8629 4.41544 12.4012 5.7828 12.4012 8.22316C12.4012 10.578 10.4451 12.4819 8 12.4819C5.56916 12.4866 3.59881 10.3502 3.59881 7.5822C3.59881 3.76498 6.98872 0.59822 11.276 0.697924C10.2742 0.251632 9.16796 0 8 0C3.58457 0 0 3.57982 0 8C0 12.4202 3.58457 16 8 16C12.4154 16 16 12.4202 16 8C16 4.82372 14.1484 2.07952 11.4659 0.788132Z" fill="#E60000"/>
</svg>
