<svg width="76" height="87" viewBox="0 0 76 87" fill="none" xmlns="http://www.w3.org/2000/svg">
<g clip-path="url(#clip0)">
<path d="M69 86.95H6.8C3 86.95 0 83.85 0 80.15V17.25C0 14.75 2 12.75 4.5 12.75H59.1C61.6 12.75 63.6 14.75 63.6 17.25V80.15C63.6 83.05 66 85.45 68.9 85.45C69.3 85.45 69.7 85.75 69.7 86.25C69.7 86.75 69.4 86.95 69 86.95ZM4.5 14.15C2.8 14.15 1.5 15.55 1.5 17.15V80.05C1.5 82.95 3.9 85.35 6.8 85.35H64.7C63.2 84.15 62.2 82.15 62.2 80.05V17.25C62.2 15.55 60.8 14.25 59.2 14.25H4.5V14.15Z" fill="#263238"/>
<path d="M69 86.9496C68.6 86.9496 68.2 86.6496 68.2 86.1496C68.2 85.6496 68.5 85.3496 69 85.3496C71.9 85.3496 74.3 82.9496 74.3 80.0496V58.9496C74.3 57.2496 72.9 55.9496 71.3 55.9496H66C65.6 55.9496 65.2 55.6496 65.2 55.1496C65.2 54.7496 65.5 54.3496 66 54.3496H71.3C73.8 54.3496 75.9 56.3496 75.9 58.8496V80.0496C75.8 83.9496 72.8 86.9496 69 86.9496Z" fill="#263238"/>
<path d="M56.9 70.35H6.90001C6.50001 70.35 6.10001 70.05 6.10001 69.55C6.10001 69.15 6.40001 68.75 6.90001 68.75H56.9C57.3 68.75 57.7 69.05 57.7 69.55C57.6 69.95 57.3 70.35 56.9 70.35Z" fill="#263238"/>
<path d="M56.9 77.85H6.90001C6.50001 77.85 6.10001 77.55 6.10001 77.05C6.10001 76.65 6.40001 76.25 6.90001 76.25H56.9C57.3 76.25 57.7 76.55 57.7 77.05C57.6 77.55 57.3 77.85 56.9 77.85Z" fill="#263238"/>
<path d="M22 62.7499H6.8C6.4 62.7499 6 62.4499 6 61.9499C6 61.5499 6.3 61.1499 6.8 61.1499H22C22.4 61.1499 22.8 61.4499 22.8 61.9499C22.7 62.3499 22.4 62.7499 22 62.7499Z" fill="#263238"/>
<path d="M8.3 28.5498H55.3C56.1 28.5498 56.8 27.8498 56.8 27.0498V22.5498C56.8 21.7498 56.1 21.0498 55.3 21.0498H8.3C7.5 21.0498 6.8 21.7498 6.8 22.5498V27.0498C6.8 27.9498 7.5 28.5498 8.3 28.5498Z" fill="#FFD740"/>
<path d="M55.3 29.35H8.3C7 29.35 6 28.35 6 27.05V22.55C6 21.25 7 20.25 8.3 20.25H55.3C56.6 20.25 57.6 21.25 57.6 22.55V27.05C57.6 28.35 56.6 29.35 55.3 29.35ZM8.3 21.75C7.9 21.75 7.5 22.05 7.5 22.55V27.05C7.5 27.45 7.8 27.85 8.3 27.85H55.3C55.7 27.85 56.1 27.55 56.1 27.05V22.55C56.1 22.15 55.8 21.75 55.3 21.75H8.3Z" fill="#263238"/>
<path d="M30.3 38.4496H6.8C6.4 38.4496 6 38.1496 6 37.6496C6 37.2496 6.3 36.8496 6.8 36.8496H30.3C30.7 36.8496 31.1 37.1496 31.1 37.6496C31.1 38.1496 30.7 38.4496 30.3 38.4496Z" fill="#263238"/>
<path d="M22 46.0497H6.8C6.4 46.0497 6 45.7497 6 45.2497C6 44.8497 6.3 44.4497 6.8 44.4497H22C22.4 44.4497 22.8 44.7497 22.8 45.2497C22.7 45.6497 22.4 46.0497 22 46.0497Z" fill="#263238"/>
<path d="M22 53.6498H6.8C6.4 53.6498 6 53.3498 6 52.8498C6 52.4498 6.3 52.0498 6.8 52.0498H22C22.4 52.0498 22.8 52.3498 22.8 52.8498C22.7 53.2498 22.4 53.6498 22 53.6498Z" fill="#263238"/>
<path d="M37 65.7497C36.8 65.7497 36.6 65.6497 36.5 65.5497C36.2 65.2497 36.2 64.7497 36.5 64.4497L41.3 59.1497C41.4 58.9497 41.7 58.9497 41.9 58.9497C42.1 58.9497 42.3 59.0497 42.5 59.1497L47.3 64.4497C47.6 64.7497 47.6 65.2497 47.2 65.5497C46.9 65.8497 46.4 65.8497 46.1 65.4497L41.8 60.7497L37.6 65.5497C37.4 65.6497 37.2 65.7497 37 65.7497Z" fill="#263238"/>
<path d="M41.9 67.2496C41.5 67.2496 41.1 66.9496 41.1 66.4496V59.6496C41.1 59.2496 41.4 58.8496 41.9 58.8496C42.3 58.8496 42.7 59.1496 42.7 59.6496V66.5496C42.6 66.9496 42.3 67.2496 41.9 67.2496Z" fill="#263238"/>
<path d="M44.9 47.5497C44.9 54.2497 41.9 59.6497 41.9 59.6497C41.9 59.6497 38.9 54.2497 38.9 47.5497C38.9 40.8497 41.9 35.4497 41.9 35.4497C41.9 35.4497 44.9 40.8497 44.9 47.5497Z" fill="#4DB6AC"/>
<path d="M41.9 60.4498C41.6 60.4498 41.4 60.2498 41.2 60.0498C41.1 59.8498 38.1 54.3498 38.1 47.5498C38.1 40.7498 41.1 35.2498 41.2 35.0498C41.5 34.5498 42.3 34.5498 42.5 35.0498C42.6 35.2498 45.6 40.7498 45.6 47.5498C45.6 54.3498 42.6 59.8498 42.5 60.0498C42.4 60.2498 42.1 60.4498 41.9 60.4498ZM41.9 37.1498C41 39.1498 39.6 43.0498 39.6 47.5498C39.6 52.0498 41 55.9498 41.9 57.9498C42.8 55.9498 44.2 52.0498 44.2 47.5498C44.1 43.0498 42.7 39.1498 41.9 37.1498Z" fill="#263238"/>
<path d="M47.9 61.9496C44.5 61.9496 41.8 59.6496 41.8 59.6496C41.8 59.6496 44.5 57.3496 47.9 57.3496C51.2 57.3496 54 59.6496 54 59.6496C54 59.6496 51.3 61.9496 47.9 61.9496Z" fill="#4DB6AC"/>
<path d="M47.9 62.7498C44.3 62.7498 41.5 60.4498 41.3 60.2498C41.1 60.1498 41 59.8498 41 59.6498C41 59.4498 41.1 59.2498 41.3 59.0498C41.4 58.9498 44.3 56.5498 47.9 56.5498C51.5 56.5498 54.3 58.9498 54.5 59.0498C54.7 59.1498 54.8 59.4498 54.8 59.6498C54.8 59.8498 54.7 60.0498 54.5 60.2498C54.4 60.3498 51.5 62.7498 47.9 62.7498ZM43.2 59.6498C44.2 60.2498 46 61.1498 47.9 61.1498C49.9 61.1498 51.7 60.2498 52.6 59.6498C51.6 59.0498 49.8 58.1498 47.9 58.1498C45.9 58.1498 44.2 59.0498 43.2 59.6498Z" fill="#263238"/>
<path d="M35.8 61.9496C39.2 61.9496 41.9 59.6496 41.9 59.6496C41.9 59.6496 39.2 57.3496 35.8 57.3496C32.5 57.3496 29.7 59.6496 29.7 59.6496C29.7 59.6496 32.4 61.9496 35.8 61.9496Z" fill="#4DB6AC"/>
<path d="M35.8 62.7498C32.2 62.7498 29.4 60.4498 29.2 60.2498C29 60.1498 28.9 59.8498 28.9 59.6498C28.9 59.4498 29 59.2498 29.2 59.0498C29.3 58.9498 32.2 56.5498 35.8 56.5498C39.4 56.5498 42.2 58.9498 42.4 59.0498C42.6 59.1498 42.7 59.4498 42.7 59.6498C42.7 59.8498 42.6 60.0498 42.4 60.2498C42.2 60.3498 39.4 62.7498 35.8 62.7498ZM31 59.6498C32 60.2498 33.8 61.1498 35.7 61.1498C37.7 61.1498 39.5 60.2498 40.4 59.6498C39.4 59.0498 37.6 58.1498 35.7 58.1498C33.8 58.1498 32 59.0498 31 59.6498Z" fill="#263238"/>
<path d="M51 53.7499C46.9 57.8499 41.9 59.6499 41.9 59.6499C41.9 59.6499 43.7 54.6499 47.8 50.5499C51.9 46.4499 56.9 44.6499 56.9 44.6499C56.9 44.6499 55.1 49.6499 51 53.7499Z" fill="#4DB6AC"/>
<path d="M41.9 60.4499C41.7 60.4499 41.5 60.3499 41.4 60.2499C41.2 60.0499 41.1 59.7499 41.2 59.4499C41.3 59.2499 43.1 54.2499 47.3 50.0499C51.5 45.8499 56.5 44.0499 56.7 43.9499C57 43.8499 57.3 43.9499 57.5 44.1499C57.7 44.3499 57.8 44.6499 57.7 44.9499C57.6 45.1499 55.8 50.1499 51.6 54.3499C47.4 58.5499 42.4 60.3499 42.2 60.4499C42 60.4499 41.9 60.4499 41.9 60.4499ZM55.4 46.1499C53.6 47.0499 50.8 48.6499 48.3 51.1499C45.8 53.6499 44.2 56.5499 43.3 58.2499C45.1 57.3499 47.9 55.7499 50.4 53.2499C52.9 50.7499 54.6 47.8499 55.4 46.1499Z" fill="#263238"/>
<path d="M32.7 53.7499C36.8 57.8499 41.8 59.6499 41.8 59.6499C41.8 59.6499 40 54.6499 35.9 50.5499C31.8 46.4499 26.8 44.6499 26.8 44.6499C26.8 44.6499 28.6 49.6499 32.7 53.7499Z" fill="#4DB6AC"/>
<path d="M41.9 60.4499C41.8 60.4499 41.7 60.4499 41.7 60.4499C41.5 60.3499 36.5 58.5499 32.3 54.3499C28.1 50.1499 26.3 45.1499 26.2 44.9499C26.1 44.6499 26.2 44.3499 26.4 44.1499C26.6 43.9499 26.9 43.8499 27.2 43.9499C27.4 44.0499 32.4 45.8499 36.6 50.0499C40.8 54.2499 42.6 59.2499 42.7 59.4499C42.8 59.7499 42.7 60.0499 42.5 60.2499C42.2 60.3499 42 60.4499 41.9 60.4499ZM33.3 53.2499C35.8 55.7499 38.7 57.3499 40.4 58.2499C39.6 56.4499 37.9 53.6499 35.4 51.1499C32.9 48.6499 30 47.0499 28.3 46.1499C29.2 47.8499 30.8 50.7499 33.3 53.2499Z" fill="#263238"/>
</g>
<defs>
<clipPath id="clip0">
<rect width="75.8" height="86.4" fill="white" transform="translate(0 0.549805)"/>
</clipPath>
</defs>
</svg>
