<svg width="24" height="24" viewBox="0 0 24 24" fill="none" xmlns="http://www.w3.org/2000/svg">
<path d="M15.4659 4.78813C13.9941 4.99703 12.8546 6.36914 12.8261 8.04036C14.8629 8.41544 16.4012 9.7828 16.4012 12.2232C16.4012 14.578 14.4451 16.4819 12 16.4819C9.56916 16.4866 7.59881 14.3502 7.59881 11.5822C7.59881 7.76498 10.9887 4.59822 15.276 4.69792C14.2742 4.25163 13.168 4 12 4C7.58457 4 4 7.57982 4 12C4 16.4202 7.58457 20 12 20C16.4154 20 20 16.4202 20 12C20 8.82372 18.1484 6.07952 15.4659 4.78813Z" fill="#E60000"/>
</svg>
