<svg width="32" height="32" viewBox="0 0 32 32" fill="none" xmlns="http://www.w3.org/2000/svg">
<g clip-path="url(#clip0)">
<path d="M23.2669 22.884V22.0331C23.2669 21.1659 22.8611 20.3314 22.1837 19.8045C20.6063 18.5805 18.9994 17.7263 18.4365 17.4416V16.4696C18.551 16.2144 18.6459 15.9362 18.7179 15.6351C19.1368 15.4846 19.3659 14.8693 19.5197 14.326C19.7259 13.6028 19.703 13.0955 19.4608 12.8141C19.7161 11.4232 19.6016 10.3989 19.1237 9.76723C18.8718 9.43669 18.5772 9.29597 18.3809 9.23379C18.2401 9.03743 17.9554 8.70689 17.4743 8.44181C16.9769 8.14727 16.4173 8 15.802 8C15.6907 8 15.5795 8.00655 15.4813 8.01309C15.2064 8.02618 14.9348 8.07854 14.6664 8.16691C14.6631 8.16691 14.6598 8.17018 14.6566 8.17018C14.362 8.27163 14.074 8.4189 13.7959 8.60871C13.4784 8.81162 13.1872 9.05379 12.9352 9.32215C12.441 9.82941 12.1137 10.4021 11.973 11.0141C11.8388 11.5214 11.829 12.0319 11.9403 12.5326C11.8814 12.5752 11.829 12.6243 11.7832 12.6832C11.5574 12.981 11.5476 13.449 11.7472 14.1591C11.8846 14.65 12.0679 15.1507 12.3788 15.3766C12.4704 15.8478 12.6243 16.2765 12.8304 16.6562V17.4449C12.2675 17.7296 10.6607 18.5805 9.08325 19.8077C8.40581 20.3346 8 21.1659 8 22.0364V22.8873C8 23.5026 8.50072 24 9.1127 24H22.1542C22.7662 24 23.2669 23.4993 23.2669 22.884ZM8.79853 22.884V22.0331C8.79853 21.4113 9.08652 20.8157 9.57087 20.4394C11.2727 19.1205 13.0039 18.2499 13.3344 18.0896C13.5177 18.0012 13.6322 17.818 13.6322 17.6118V16.5482C13.6322 16.4762 13.6126 16.4074 13.5766 16.3453C13.3606 15.9787 13.2101 15.5402 13.1348 15.0395C13.1086 14.8791 12.9908 14.7515 12.837 14.7122C12.7944 14.6631 12.6733 14.4864 12.5195 13.9399C12.3919 13.4882 12.4017 13.2788 12.4148 13.2035C12.5424 13.2101 12.6701 13.1512 12.7519 13.0497C12.837 12.9417 12.8599 12.7977 12.8141 12.6701C12.6439 12.1955 12.6243 11.7079 12.7552 11.2105C12.8664 10.7327 13.1217 10.2876 13.5177 9.88178C13.7304 9.65269 13.9759 9.45306 14.2377 9.28615C14.2409 9.28288 14.2475 9.27961 14.2508 9.27633C14.47 9.12252 14.6991 9.00798 14.9249 8.92943C14.9282 8.92943 14.9315 8.92616 14.9315 8.92616C15.1246 8.86071 15.3242 8.82471 15.5336 8.81489C16.1064 8.7658 16.6202 8.8738 17.0751 9.13888C17.5725 9.41379 17.7754 9.77378 17.7754 9.77378C17.8376 9.90141 17.9489 9.97668 18.0929 9.9865C18.1027 9.9865 18.3154 10.0192 18.4987 10.2778C18.6918 10.5527 18.9667 11.2596 18.623 12.909C18.5838 13.0922 18.6787 13.2755 18.8456 13.3541C18.8619 13.413 18.8881 13.6126 18.7474 14.11C18.623 14.5486 18.5216 14.7482 18.4627 14.8366C18.3874 14.8235 18.3089 14.83 18.2369 14.8628C18.1125 14.9151 18.0209 15.0297 17.998 15.1606C17.9292 15.5533 17.818 15.9067 17.674 16.2078C17.6478 16.2634 17.6347 16.3224 17.6347 16.3813V17.6118C17.6347 17.818 17.7492 17.998 17.9325 18.0896C18.263 18.2499 19.9943 19.1237 21.6928 20.4394C22.1771 20.8157 22.4651 21.4113 22.4651 22.0331V22.884C22.4651 23.0542 22.3244 23.1949 22.1542 23.1949H9.1127C8.93925 23.1982 8.79853 23.0575 8.79853 22.884Z" fill="#46587A" stroke="#46587A"/>
</g>
<defs>
<clipPath id="clip0">
<rect width="32" height="32" fill="white"/>
</clipPath>
</defs>
</svg>
