<svg width="26" height="12" viewBox="0 0 26 12" fill="none" xmlns="http://www.w3.org/2000/svg">
<path fill-rule="evenodd" clip-rule="evenodd" d="M20.3744 0.414195L25.17 5.20474C25.6062 5.64094 25.6117 6.35357 25.1753 6.79L20.3795 11.5858C20.1607 11.8046 19.8748 11.915 19.5844 11.915C19.294 11.915 19.0081 11.8046 18.7893 11.5858C18.3505 11.147 18.3505 10.4396 18.7893 10.0007L21.6686 7.1293H1.62422C1.00298 7.1293 0.5 6.62632 0.5 6.00508C0.5 5.38384 1.00298 4.88086 1.62422 4.88086H21.6709L18.7893 1.99926C18.3505 1.56041 18.3505 0.853054 18.7893 0.414195C19.2281 -0.0246018 19.9355 -0.0244772 20.3744 0.414195Z" fill="#EB5757"/>
</svg>
