<svg width="32" height="32" viewBox="0 0 32 32" fill="none" xmlns="http://www.w3.org/2000/svg">
<path d="M22.7841 21.8671L21.8634 11.4908C21.8468 11.2854 21.6746 11.1298 21.4659 11.1298H19.5251C19.5218 9.40426 18.1176 8 16.3921 8C14.6665 8 13.2623 9.40426 13.259 11.1298H11.3182C11.1128 11.1298 10.9406 11.2854 10.9207 11.4908L10 21.8671C10 21.8804 10 21.8903 10 21.9035C10 23.0594 11.0631 24 12.368 24H20.4161C21.721 24 22.7841 23.0594 22.7841 21.9035C22.7841 21.8903 22.7841 21.8804 22.7841 21.8671ZM16.3921 8.79487C17.6804 8.79487 18.727 9.84144 18.7303 11.1298H14.0538C14.0571 9.84144 15.1037 8.79487 16.3921 8.79487ZM20.4161 23.2018H12.368C11.5069 23.2018 10.8048 22.6289 10.7949 21.9168L11.6825 11.9247H13.259V13.319C13.259 13.5376 13.4378 13.7164 13.6564 13.7164C13.875 13.7164 14.0538 13.5376 14.0538 13.319V11.9247H18.7303V13.319C18.7303 13.5376 18.9091 13.7164 19.1277 13.7164C19.3463 13.7164 19.5251 13.5376 19.5251 13.319V11.9247H21.1016L21.9892 21.9201C21.9793 22.6289 21.2772 23.2018 20.4161 23.2018Z" fill="#46587A" stroke="#46587A"/>
</svg>
