<svg width="25" height="24" viewBox="0 0 25 24" fill="none" xmlns="http://www.w3.org/2000/svg">
<path d="M18.892 17.8671L17.9713 7.49079C17.9547 7.28545 17.7825 7.12979 17.5739 7.12979H15.6331C15.6297 5.40426 14.2255 4 12.5 4C10.7744 4 9.37017 5.40426 9.36686 7.12979H7.42606C7.22072 7.12979 7.0485 7.28545 7.02863 7.49079L6.10791 17.8671C6.10791 17.8804 6.10791 17.8903 6.10791 17.9035C6.10791 19.0594 7.17104 20 8.47595 20H16.524C17.8289 20 18.892 19.0594 18.892 17.9035C18.892 17.8903 18.892 17.8804 18.892 17.8671ZM12.5 4.79487C13.7883 4.79487 14.8349 5.84144 14.8382 7.12979H10.1617C10.165 5.84144 11.2116 4.79487 12.5 4.79487ZM16.524 19.2018H8.47595C7.61484 19.2018 6.91271 18.6289 6.90278 17.9168L7.79038 7.92465H9.36686V9.31898C9.36686 9.53757 9.54571 9.71641 9.7643 9.71641C9.98288 9.71641 10.1617 9.53757 10.1617 9.31898V7.92465H14.8382V9.31898C14.8382 9.53757 15.017 9.71641 15.2356 9.71641C15.4542 9.71641 15.6331 9.53757 15.6331 9.31898V7.92465H17.2095L18.0971 17.9201C18.0872 18.6289 17.3851 19.2018 16.524 19.2018Z" fill="white" stroke="white"/>
</svg>
