<svg width="32" height="32" viewBox="0 0 32 32" fill="none" xmlns="http://www.w3.org/2000/svg">
<path d="M25.5883 24.8007L24.2072 9.23618C24.1823 8.92817 23.924 8.69468 23.611 8.69468H20.6998C20.6949 6.1064 18.5885 4 16.0002 4C13.4119 4 11.3055 6.1064 11.3005 8.69468H8.38934C8.08133 8.69468 7.823 8.92817 7.79319 9.23618L6.41211 24.8007C6.41211 24.8205 6.41211 24.8354 6.41211 24.8553C6.41211 26.5891 8.00681 28 9.96417 28H22.0362C23.9936 28 25.5883 26.5891 25.5883 24.8553C25.5883 24.8354 25.5883 24.8205 25.5883 24.8007ZM16.0002 5.1923C17.9327 5.1923 19.5026 6.76216 19.5075 8.69468H12.4928C12.4978 6.76216 14.0677 5.1923 16.0002 5.1923ZM22.0362 26.8027H9.96417C8.67251 26.8027 7.61931 25.9433 7.60441 24.8752L8.93581 9.88698H11.3005V11.9785C11.3005 12.3064 11.5688 12.5746 11.8967 12.5746C12.2246 12.5746 12.4928 12.3064 12.4928 11.9785V9.88698H19.5075V11.9785C19.5075 12.3064 19.7758 12.5746 20.1037 12.5746C20.4316 12.5746 20.6998 12.3064 20.6998 11.9785V9.88698H23.0646L24.396 24.8801C24.3811 25.9433 23.3279 26.8027 22.0362 26.8027Z" fill="#46587A" stroke="#46587A"/>
</svg>
