<svg width="32" height="32" viewBox="0 0 32 32" fill="none" xmlns="http://www.w3.org/2000/svg">
<path fill-rule="evenodd" clip-rule="evenodd" d="M7.09355 3.79999C5.27718 3.79999 3.7998 5.27736 3.7998 7.09374V12.1562C3.7998 13.9726 5.27718 15.45 7.09355 15.45H12.1561C13.9724 15.45 15.4498 13.9726 15.4498 12.1562V7.09374C15.4498 5.27736 13.9724 3.79999 12.1561 3.79999H7.09355ZM5.6998 7.09374C5.6998 6.32538 6.3252 5.69999 7.09355 5.69999H12.1561C12.9244 5.69999 13.5498 6.32538 13.5498 7.09374V12.1562C13.5498 12.9246 12.9244 13.55 12.1561 13.55H7.09355C6.3252 13.55 5.6998 12.9246 5.6998 12.1562V7.09374Z" fill="#46587A"/>
<path fill-rule="evenodd" clip-rule="evenodd" d="M19.8436 3.79999C18.0272 3.79999 16.5498 5.27736 16.5498 7.09374V12.1562C16.5498 13.9726 18.0272 15.45 19.8436 15.45H24.9061C26.7224 15.45 28.1998 13.9726 28.1998 12.1562V7.09374C28.1998 5.27736 26.7224 3.79999 24.9061 3.79999H19.8436ZM18.4498 7.09374C18.4498 6.32538 19.0752 5.69999 19.8436 5.69999H24.9061C25.6744 5.69999 26.2998 6.32538 26.2998 7.09374V12.1562C26.2998 12.9246 25.6744 13.55 24.9061 13.55H19.8436C19.0752 13.55 18.4498 12.9246 18.4498 12.1562V7.09374Z" fill="#46587A"/>
<path fill-rule="evenodd" clip-rule="evenodd" d="M7.09355 16.55C5.27718 16.55 3.7998 18.0274 3.7998 19.8437V24.9062C3.7998 26.7226 5.27718 28.2 7.09355 28.2H12.1561C13.9724 28.2 15.4498 26.7226 15.4498 24.9062V19.8437C15.4498 18.0274 13.9724 16.55 12.1561 16.55H7.09355ZM5.6998 19.8437C5.6998 19.0754 6.3252 18.45 7.09355 18.45H12.1561C12.9244 18.45 13.5498 19.0754 13.5498 19.8437V24.9062C13.5498 25.6746 12.9244 26.3 12.1561 26.3H7.09355C6.3252 26.3 5.6998 25.6746 5.6998 24.9062V19.8437Z" fill="#46587A"/>
<path fill-rule="evenodd" clip-rule="evenodd" d="M19.8436 16.55C18.0272 16.55 16.5498 18.0274 16.5498 19.8437V24.9062C16.5498 26.7226 18.0272 28.2 19.8436 28.2H24.9061C26.7224 28.2 28.1998 26.7226 28.1998 24.9062V19.8437C28.1998 18.0274 26.7224 16.55 24.9061 16.55H19.8436ZM18.4498 19.8437C18.4498 19.0754 19.0752 18.45 19.8436 18.45H24.9061C25.6744 18.45 26.2998 19.0754 26.2998 19.8437V24.9062C26.2998 25.6746 25.6744 26.3 24.9061 26.3H19.8436C19.0752 26.3 18.4498 25.6746 18.4498 24.9062V19.8437Z" fill="#46587A"/>
</svg>
