<svg width="32" height="32" viewBox="0 0 32 32" fill="none" xmlns="http://www.w3.org/2000/svg">
<path d="M1.12327 17.1167H15.4253C15.9282 19.1869 17.7959 20.7281 20.0229 20.7281C22.2498 20.7281 24.111 19.1869 24.6204 17.1167H30.8767C31.4971 17.1167 32 16.6139 32 15.9935C32 15.373 31.4971 14.8767 30.8767 14.8767H24.6204C24.1175 12.8065 22.2498 11.2653 20.0229 11.2653C17.7959 11.2653 15.9347 12.8065 15.4253 14.8767H1.12327C0.502857 14.8767 0 15.3796 0 15.9935C0.00653061 16.6204 0.509388 17.1167 1.12327 17.1167ZM20.0229 13.5118C21.3943 13.5118 22.511 14.6286 22.511 16C22.511 17.3714 21.3943 18.4881 20.0229 18.4881C18.6514 18.4881 17.5282 17.3714 17.5282 16C17.5282 14.6286 18.6449 13.5118 20.0229 13.5118Z" fill="#46587A"/>
<path d="M1.12327 27.9772H7.98694C8.4898 30.0474 10.3576 31.5886 12.5845 31.5886C14.8114 31.5886 16.6727 30.0474 17.182 27.9772H30.8767C31.4971 27.9772 32 27.4743 32 26.8604C32 26.24 31.4971 25.7372 30.8767 25.7372H17.182C16.6792 23.667 14.8114 22.1257 12.5845 22.1257C10.3576 22.1257 8.49633 23.667 7.98694 25.7372H1.12327C0.502857 25.7372 0 26.24 0 26.8604C0.00653061 27.4743 0.509388 27.9772 1.12327 27.9772ZM12.5845 24.3657C13.9559 24.3657 15.0727 25.4825 15.0727 26.8539C15.0727 28.2253 13.9559 29.3421 12.5845 29.3421C11.2327 29.3421 10.129 28.258 10.0963 26.9061C10.0963 26.8866 10.0963 26.867 10.0963 26.8474C10.0963 26.8278 10.0963 26.8082 10.0963 26.7886C10.129 25.4498 11.2327 24.3657 12.5845 24.3657Z" fill="#46587A"/>
<path d="M1.12327 6.26287H7.98694C8.4898 8.33307 10.3576 9.8743 12.5845 9.8743C14.8114 9.8743 16.6727 8.33307 17.182 6.26287H30.8767C31.4971 6.26287 32 5.76001 32 5.1396C32 4.51919 31.4971 4.02287 30.8767 4.02287H17.182C16.6792 1.95266 14.8114 0.411438 12.5845 0.411438C10.3576 0.411438 8.49633 1.95266 7.98694 4.02287H1.12327C0.502857 4.02287 0 4.52572 0 5.1396C0.00653061 5.76001 0.509388 6.26287 1.12327 6.26287ZM12.5845 2.65144C13.9559 2.65144 15.0727 3.76817 15.0727 5.1396C15.0727 6.51103 13.9559 7.62777 12.5845 7.62777C11.2327 7.62777 10.129 6.54368 10.0963 5.19185C10.0963 5.17225 10.0963 5.15266 10.0963 5.13307C10.0963 5.11348 10.0963 5.09389 10.0963 5.0743C10.129 3.74205 11.2327 2.65144 12.5845 2.65144Z" fill="#46587A"/>
</svg>
