<svg width="32" height="32" viewBox="0 0 32 32" fill="none" xmlns="http://www.w3.org/2000/svg">
<path fill-rule="evenodd" clip-rule="evenodd" d="M17.1997 6.15C16.4886 5.61667 15.5108 5.61667 14.7997 6.15L7.13301 11.9C6.6294 12.2777 6.33301 12.8705 6.33301 13.5V25C6.33301 26.1046 7.22844 27 8.33301 27H23.6663C24.7709 27 25.6663 26.1046 25.6663 25V13.5C25.6663 12.8705 25.37 12.2777 24.8663 11.9L17.1997 6.15ZM13.5997 4.55C15.0219 3.48333 16.9775 3.48333 18.3997 4.55L26.0663 10.3C27.0736 11.0554 27.6663 12.241 27.6663 13.5V25C27.6663 27.2091 25.8755 29 23.6663 29H8.33301C6.12387 29 4.33301 27.2091 4.33301 25V13.5C4.33301 12.241 4.92578 11.0554 5.93301 10.3L13.5997 4.55Z" fill="#46587A"/>
</svg>
