<svg width="32" height="32" viewBox="0 0 32 32" fill="none" xmlns="http://www.w3.org/2000/svg">
<path d="M27.2855 15.2855H13.8238C13.4309 15.2855 13.1094 15.607 13.1094 16C13.1094 16.3929 13.4309 16.7145 13.8238 16.7145H27.2855C27.6784 16.7145 27.9999 16.3929 27.9999 16C27.9999 15.607 27.6844 15.2855 27.2855 15.2855Z" fill="#46587A" stroke="#46587A"/>
<path d="M13.8238 8.59043H27.2855C27.6784 8.59043 27.9999 8.26892 27.9999 7.87596C27.9999 7.48301 27.6784 7.1615 27.2855 7.1615H13.8238C13.4309 7.1615 13.1094 7.48301 13.1094 7.87596C13.1094 8.26892 13.4309 8.59043 13.8238 8.59043Z" fill="#46587A" stroke="#46587A"/>
<path d="M27.2855 23.4095H4.71446C4.32151 23.4095 4 23.7311 4 24.124C4 24.517 4.32151 24.8385 4.71446 24.8385H27.2855C27.6784 24.8385 28 24.517 28 24.124C28 23.7311 27.6844 23.4095 27.2855 23.4095Z" fill="#46587A" stroke="#46587A"/>
</svg>
