<svg width="32" height="32" viewBox="0 0 32 32" fill="none" xmlns="http://www.w3.org/2000/svg">
<path d="M4 13.9877C4 19.4963 8.48157 23.973 13.9853 23.973C16.5209 23.973 18.8403 23.0196 20.6044 21.457L26.9681 27.8206C27.086 27.9386 27.2383 27.9975 27.3956 27.9975C27.5528 27.9975 27.7052 27.9386 27.8231 27.8206C28.059 27.5848 28.059 27.2064 27.8231 26.9705L21.4545 20.6069C23.0172 18.8427 23.9705 16.5282 23.9705 13.9877C23.9705 8.4791 19.4889 4.00244 13.9853 4.00244C8.48157 4.00244 4 8.4791 4 13.9877ZM22.7666 13.9877C22.7666 18.828 18.8256 22.769 13.9853 22.769C9.14496 22.769 5.20393 18.828 5.20393 13.9877C5.20393 9.1474 9.14496 5.20637 13.9853 5.20637C18.8256 5.20637 22.7666 9.14249 22.7666 13.9877Z" fill="#46587A" stroke="#46587A"/>
</svg>
