<svg width="32" height="32" viewBox="0 0 32 32" fill="none" xmlns="http://www.w3.org/2000/svg">
<g clip-path="url(#clip0)">
<path d="M8 14.6582C8 18.3314 10.9883 21.3164 14.6582 21.3164C16.349 21.3164 17.8956 20.6807 19.0719 19.6387L23.3152 23.882C23.3938 23.9607 23.4954 24 23.6002 24C23.7051 24 23.8067 23.9607 23.8853 23.882C24.0426 23.7248 24.0426 23.4725 23.8853 23.3152L19.6387 19.0719C20.6807 17.8956 21.3164 16.3522 21.3164 14.6582C21.3164 10.985 18.3281 8 14.6582 8C10.9883 8 8 10.985 8 14.6582ZM20.5136 14.6582C20.5136 17.8857 17.8857 20.5136 14.6582 20.5136C11.4307 20.5136 8.80279 17.8857 8.80279 14.6582C8.80279 11.4307 11.4307 8.80279 14.6582 8.80279C17.8857 8.80279 20.5136 11.4274 20.5136 14.6582Z" fill="#46587A" stroke="#46587A"/>
</g>
<defs>
<clipPath id="clip0">
<rect width="32" height="32" fill="white"/>
</clipPath>
</defs>
</svg>
