<svg width="20" height="20" viewBox="0 0 20 20" fill="none" xmlns="http://www.w3.org/2000/svg">
<path fill-rule="evenodd" clip-rule="evenodd" d="M19.2412 12.7519L19.2354 12.775C18.7686 14.6621 16.6641 16.6871 14.7314 17.1084L14.7096 17.1129C13.1469 17.4111 11.5727 17.5599 9.99911 17.5599C9.53595 17.5599 9.07279 17.5454 8.60989 17.5195L6.47555 19.7381C5.94718 20.2883 5.01803 19.9138 5.01803 19.1514V17.0448C3.1575 16.5135 1.20969 14.5816 0.76218 12.7749L0.75705 12.7518C0.179942 10.1164 0.179942 7.44373 0.75705 4.80827L0.76218 4.78519C1.22964 2.89804 3.33416 0.873036 5.26619 0.451747L5.28863 0.447259C8.41399 -0.149086 11.5836 -0.149086 14.7096 0.447259L14.7314 0.451747C16.6641 0.873036 18.7686 2.89804 19.2354 4.78519L19.2412 4.80827C19.8183 7.4438 19.8183 10.1164 19.2412 12.7519ZM5.62464 2.14594C8.5275 1.59384 11.4707 1.59384 14.373 2.14594C15.6432 2.42873 17.2405 3.95935 17.5522 5.19057C18.0722 7.57275 18.0722 9.98762 17.5522 12.3698C17.2405 13.601 15.6426 15.1316 14.373 15.4144C12.7108 15.7304 11.0355 15.8655 9.36193 15.8192C9.32872 15.8183 9.29665 15.8312 9.27344 15.855C9.03593 16.0988 7.71506 17.4548 7.71506 17.4548L6.05747 19.1559C5.93628 19.2823 5.72339 19.1963 5.72339 19.0219V15.5322C5.72339 15.4746 5.68216 15.4256 5.62561 15.4145L5.62464 15.4143C4.35501 15.1315 2.7577 13.6009 2.44542 12.3697C1.92602 9.98756 1.92602 7.57268 2.44542 5.19051C2.7577 3.95935 4.35501 2.42873 5.62464 2.14594Z" fill="#46587A"/>
<path d="M13.2608 13.8214C13.7938 13.5351 14.1633 13.0866 14.4172 12.5474C14.5559 12.253 14.4711 11.9684 14.2249 11.7515C13.9863 11.5414 13.7302 11.3591 13.4718 11.1752L13.4389 11.1519L13.4145 11.1345C13.1316 10.9329 12.847 10.7334 12.5533 10.5475C12.2598 10.3618 11.9115 10.3647 11.639 10.5876C11.5406 10.668 11.4609 10.7745 11.3814 10.8806C11.2357 11.0751 11.0909 11.2684 10.8335 11.2985C10.6171 11.3237 10.4261 11.2431 10.2379 11.1637L10.2186 11.1556C10.2066 11.1505 10.1946 11.1455 10.1826 11.1405C8.89383 10.6042 8.10852 9.60859 7.6426 8.32818C7.58207 8.16185 7.58655 7.98134 7.68056 7.82841C7.73199 7.74479 7.80259 7.6824 7.87761 7.62065C7.89441 7.60681 7.91115 7.59285 7.92788 7.5789C7.99634 7.52182 8.06487 7.46469 8.13865 7.41456C8.51647 7.15787 8.57366 6.69683 8.3652 6.31965C8.02618 5.70644 7.60752 5.15037 7.15174 4.62135C6.9409 4.37666 6.65613 4.2967 6.36745 4.4354C5.99758 4.61308 5.65606 4.85418 5.39066 5.16922C5.10781 5.50491 4.83914 5.96518 5.02157 6.41071C5.04223 6.4612 5.06286 6.51172 5.0835 6.56225C5.26251 7.00071 5.44184 7.43993 5.65061 7.86425C6.14154 8.86214 6.72243 9.80507 7.46453 10.6403C8.7695 12.109 10.4169 13.0671 12.207 13.8098C12.3241 13.8584 12.4472 13.8923 12.5752 13.9276C12.6361 13.9444 12.698 13.9615 12.761 13.9806C12.8146 13.9641 12.8692 13.9502 12.9236 13.9363C13.0413 13.9064 13.1579 13.8767 13.2608 13.8214Z" fill="#46587A"/>
<path d="M12.106 8.37499C11.9948 8.37698 12.0385 8.3748 12.0808 8.37358C11.9017 8.3673 11.8043 8.26188 11.785 8.09048C11.7831 8.07303 11.7812 8.05555 11.7793 8.03806C11.7675 7.92999 11.7557 7.82137 11.73 7.71651C11.6711 7.47656 11.5436 7.25418 11.3418 7.10715C11.2465 7.0377 11.1385 6.98705 11.0254 6.95447C10.949 6.93242 10.8711 6.92531 10.7933 6.91822C10.7247 6.91196 10.6563 6.90572 10.5891 6.88926C10.4334 6.85117 10.3473 6.72504 10.3717 6.57897C10.394 6.44604 10.5233 6.34229 10.6686 6.35281C11.5764 6.41834 12.2252 6.88766 12.3177 7.9564L12.3184 7.96364C12.3248 8.03689 12.3315 8.11375 12.3152 8.18358C12.2881 8.30087 12.2043 8.36191 12.1195 8.373C12.1265 8.37313 12.1251 8.37371 12.106 8.37499Z" fill="#46587A"/>
<path d="M10.6563 5.65899C10.9617 5.70952 11.2629 5.79429 11.5415 5.93068C12.0021 6.15627 12.3949 6.52908 12.652 6.97243C12.902 7.40391 13.0098 7.89933 13.0107 8.39526C13.0108 8.47105 13.0144 8.55114 13.0388 8.62155C13.1208 8.8588 13.4772 8.82937 13.5394 8.59429C13.5521 8.54594 13.5565 8.49537 13.5595 8.46068C13.5605 8.4489 13.5613 8.43896 13.5623 8.43155C13.5595 8.38349 13.557 8.33889 13.5547 8.29672L13.5547 8.29651C13.5492 8.19794 13.5445 8.11265 13.538 8.02744C13.5356 7.99555 13.5299 7.96393 13.5241 7.93228C13.5209 7.91499 13.5178 7.8977 13.5152 7.88035C13.3532 6.79602 12.7983 5.98397 11.8268 5.46951C11.3491 5.21654 10.8301 5.10042 10.2927 5.06989C10.1292 5.06066 10.0196 5.16858 10.0124 5.31863C10.0048 5.47874 10.0915 5.5823 10.2539 5.60487C10.3045 5.61192 10.3553 5.61821 10.406 5.6245C10.4896 5.63488 10.5732 5.64526 10.6563 5.65899Z" fill="#46587A"/>
<path d="M14.2589 8.9587C14.2711 9.12703 14.3555 9.28406 14.5432 9.28182C14.7249 9.27964 14.8203 9.11965 14.8072 8.95133C14.8034 8.9021 14.7996 8.85282 14.7959 8.80352L14.7958 8.80328C14.7691 8.45179 14.7423 8.09915 14.6808 7.75332C14.2706 5.44987 12.3643 3.90003 10.0384 3.8202C10.3189 3.82874 12.1535 3.87924 10.0041 3.81898C9.99078 3.81892 9.97748 3.81871 9.96419 3.81849C9.93214 3.81797 9.9001 3.81745 9.86818 3.81917C9.70217 3.82809 9.55501 3.96691 9.58611 4.14126C9.62112 4.33771 9.81859 4.35762 9.98137 4.37403C9.9909 4.37499 10.0003 4.37594 10.0096 4.37692C10.0919 4.38555 10.1745 4.39269 10.2571 4.39983C10.44 4.41563 10.6229 4.43143 10.8028 4.46355C12.5389 4.7732 13.9297 6.21622 14.1721 7.96044C14.2088 8.22377 14.2268 8.48979 14.2448 8.75562L14.2448 8.75569L14.2448 8.75577L14.2448 8.75585C14.2494 8.82349 14.254 8.89113 14.2589 8.9587Z" fill="#46587A"/>
</svg>
