<svg width="205" height="83" viewBox="0 0 205 83" fill="none" xmlns="http://www.w3.org/2000/svg">
<g style="mix-blend-mode:luminosity" clip-path="url(#clip0)">
<path d="M182.106 10.4856C183.376 11.2472 184.222 11.5857 184.222 11.5857C184.222 11.5857 183.037 11.501 182.276 11.2472C182.276 11.2472 181.683 12.0934 180.668 11.6703C180.668 11.6703 180.075 11.4164 180.16 10.5702C180.16 10.5702 180.16 10.1471 179.822 9.97781C179.822 9.97781 180.837 9.72394 182.106 10.4856ZM157.227 65.5753C161.627 64.306 167.551 65.4061 166.959 58.0439C166.62 54.0666 167.297 52.2048 169.244 51.1047C173.898 48.6507 182.106 45.6889 182.106 37.4804C179.906 37.2265 178.637 36.888 177.029 35.7033C183.883 37.565 187.014 36.0418 192.938 31.5568C192.346 31.3875 191.923 31.049 191.669 30.6259C193.192 28.4257 194.038 26.3101 194.715 24.1099C195.392 24.4484 195.9 24.3638 196.238 22.5021C197.169 21.2327 198.016 20.048 198.862 18.7786C199.454 17.1708 199.031 16.5784 198.439 16.1553C198.608 14.886 199.454 14.9706 200.3 15.2245C199.793 13.6166 198.693 13.6166 197.254 14.4628C196.915 13.4474 197.339 12.7704 198.354 12.4319C197 11.501 195.9 12.2626 195.054 13.7859C194.546 13.1089 194.8 12.3473 195.815 11.6703C194.377 11.5857 193.446 12.2626 193.192 13.9551C191.923 13.532 191.5 16.6631 191.246 20.2172C191.246 21.7405 190.907 23.1791 190.146 24.3638C189.045 25.9716 188.199 26.3101 187.691 26.3101L189.638 27.241C189.638 27.241 187.438 28.7642 185.491 29.1873C183.883 29.5258 183.46 29.5258 181.175 29.1873C181.175 29.1873 181.852 30.5413 183.883 31.8106C182.36 31.4721 180.922 31.2183 179.568 29.2719C178.383 27.6641 177.791 26.7332 176.437 25.5485C178.891 27.4948 182.868 28.9334 185.491 27.918L187.184 27.3256C185.068 26.4794 182.36 23.7714 181.091 22.9252C179.652 21.9943 179.06 21.5712 177.791 21.402C176.775 21.2327 176.098 21.3173 174.998 20.5557C173.729 19.4556 173.729 18.017 173.729 17.1708C173.644 15.3091 175.083 13.7012 176.775 13.1089C175.252 14.1244 174.659 15.4783 174.659 17.0015C174.659 18.017 174.659 19.1171 175.844 19.7941C177.452 20.5557 178.214 20.048 180.245 21.0635L181.429 21.8251C182.614 22.6713 182.953 23.0098 183.714 23.7714C184.56 22.5867 185.83 21.6558 185.83 20.3865C185.407 20.5557 184.899 20.8096 184.307 20.6403C183.799 20.5557 182.614 20.2172 182.106 20.048C181.429 19.8787 180.837 19.2018 181.26 18.1863C181.768 17.0862 183.206 17.34 184.391 17.34C184.899 17.34 185.407 17.4247 185.745 17.5939C185.83 18.1017 185.999 18.694 186.084 19.1171C186.591 18.8633 187.691 18.4401 188.03 18.017C188.284 17.34 188.538 16.3246 188.707 15.6476C188.368 15.0552 188.199 14.2936 188.03 13.6166C188.368 14.0397 188.622 14.2936 189.045 14.6321C189.638 14.1244 189.976 13.532 190.061 12.855C188.538 11.6703 186.338 10.3163 184.476 9.63932C184.053 9.30083 182.276 8.1161 181.514 7.69298C183.206 7.016 182.953 5.15428 182.276 4.22343C181.006 2.70021 178.721 1.68473 177.367 0.5C177.114 1.26161 177.029 1.9386 177.452 2.78483C176.183 0.669247 171.952 -0.00773996 167.974 1.26161C170.851 1.9386 172.544 2.53096 173.729 3.96956C168.313 1.76935 164.589 2.27709 161.881 5.66202C163.997 5.15428 166.282 4.98504 168.82 6.08514C167.213 6.00052 165.859 5.83127 164.928 6.16976C162.981 6.76213 162.135 7.18524 159.85 10.0624C161.458 9.13158 163.489 8.62384 165.097 8.87771C162.22 10.2317 161.712 10.7394 160.274 12.9396C159.343 14.5475 158.92 17.0015 159.004 19.7941C159.597 17.34 162.389 13.1935 166.536 13.1935C161.289 15.0552 158.073 23.856 160.697 29.0181C160.612 27.0717 162.22 19.9634 166.959 18.7786C163.743 21.9097 161.966 29.1027 163.32 33.9262L164.589 37.9881C164.928 33.8416 165.605 30.8798 168.228 27.241C168.651 30.1182 170.767 32.4876 173.644 34.2647C172.036 30.7951 172.967 29.5258 172.967 26.3101C172.967 26.3101 173.136 26.8179 173.306 27.1563C173.475 27.6641 173.813 28.6796 173.898 29.5258C174.067 31.8953 174.152 31.9799 174.406 33.08C174.659 34.2647 175.59 36.0418 175.59 36.0418C175.59 36.0418 174.49 36.0418 173.221 35.4494C172.544 35.1109 170.344 33.757 168.82 30.7951C168.143 31.8953 166.959 33.8416 166.451 37.6496L165.351 39.3421C164.251 41.2038 162.812 42.6424 161.881 43.3194C160.104 44.5041 157.989 45.0119 156.719 46.3658C156.296 46.3658 154.35 46.112 152.234 45.435C150.119 44.758 147.242 43.4886 146.057 41.2038C144.872 39.0036 145.38 35.9572 147.58 32.403C147.834 31.9799 148.088 31.5568 148.342 31.1336C151.05 26.6486 152.911 23.4329 154.096 20.8942C154.942 19.5402 155.365 17.9324 155.45 16.3246C155.45 15.9014 155.45 15.4783 155.45 15.0552C155.196 11.1625 153.081 7.43911 150.119 6.25439C147.919 5.40815 145.295 6.84675 143.857 8.03148C142.08 9.5547 140.895 9.5547 138.356 9.30083C139.795 12.0088 142.164 13.532 145.38 13.3627C146.734 13.2781 148.342 12.6011 150.288 12.178C150.542 12.178 150.711 12.178 150.88 12.178C151.473 12.7704 151.896 13.2781 152.234 13.7859C152.404 14.0397 152.488 14.2936 152.573 14.5475C152.657 14.9706 152.742 15.3937 152.742 15.9014C152.742 16.1553 152.742 16.3246 152.657 16.5784C152.15 19.2018 149.78 23.1791 145.888 29.695C145.634 30.1182 145.38 30.5413 145.126 30.9644C142.418 35.4494 141.91 39.3421 143.518 42.4732C146.057 47.2967 152.827 48.6507 155.45 48.9892C155.365 49.6661 155.365 50.4278 155.535 51.274C155.788 53.2203 155.873 55.2513 156.127 57.2822C156.296 58.467 155.281 58.7208 154.181 59.144C150.796 60.4979 149.949 63.7982 149.526 67.0985C150.119 66.5062 151.388 64.6445 151.473 65.9138C152.15 73.0222 155.365 72.0067 154.942 77.0841C155.196 80.2998 162.051 80.6383 162.897 82.5C163.489 80.9768 162.981 79.8767 162.474 79.4536C162.981 78.9458 163.997 79.4536 164.589 80.8075C165.182 78.9458 164.505 77.8457 163.828 77.5918C164.505 77.2533 165.52 77.5918 166.451 78.6919C166.62 77.1687 166.113 75.8148 164.674 75.8994C165.605 75.3916 165.012 73.6992 163.828 73.6145C163.405 73.3607 162.051 74.1223 160.866 73.4453C157.819 71.7528 153.927 66.5908 157.227 65.5753Z" fill="url(#paint0_linear)"/>
<path d="M19.0372 53.2202C12.5213 53.2202 6.59762 47.8043 6.59762 38.1572C6.59762 28.6794 11.3365 25.2945 16.6678 25.2945C22.2529 25.2945 28.4304 30.0334 28.4304 39.8497C28.4304 51.7816 22.2529 53.2202 19.0372 53.2202ZM60.5027 59.5669C60.3334 59.5669 60.1642 59.6515 59.9103 59.7362C57.1177 60.8363 54.0713 61.1748 51.9557 61.1748C49.1631 61.1748 43.7473 60.7517 35.2003 56.3512L26.9918 52.1201C29.5305 50.4276 34.1002 45.8579 34.1002 38.7496C34.1002 29.1872 27.3303 23.3481 17.5986 23.3481C5.66676 23.3481 0.927856 32.4875 0.927856 39.0881C0.927856 46.4503 5.58214 55.2511 17.514 55.2511C19.6296 55.2511 22.2529 54.828 23.9454 54.151L30.3768 57.8745C37.062 61.8518 41.4624 63.375 47.5553 63.375C53.3943 63.375 58.0486 61.5133 60.4181 60.3285C60.6719 60.2439 60.9258 60.0747 60.9258 59.8208C60.9258 59.7362 60.7565 59.5669 60.5027 59.5669Z" fill="url(#paint1_linear)"/>
<path d="M63.6337 28.8487C63.6337 28.5949 63.3799 28.5103 62.8721 28.5103C61.5182 28.5103 59.0641 28.5949 58.641 28.5949C58.641 28.5949 56.1869 28.5103 54.3252 28.5103C53.8174 28.5103 53.5636 28.5949 53.5636 28.8487C53.5636 29.1026 53.7328 29.1872 54.1559 29.1872C54.579 29.1872 55.1714 29.1872 55.4253 29.2719C56.5254 29.6104 56.8639 29.9489 56.9485 31.1336C56.9485 32.2337 57.0331 33.2492 57.0331 38.4958V42.8116C57.0331 46.3658 56.9485 49.3276 54.9175 51.2739C53.4789 52.6279 51.7018 53.1356 50.094 53.1356C48.9093 53.1356 47.1322 53.051 45.609 51.7817C43.8319 50.4277 42.901 48.4814 42.901 43.404V38.4958C42.901 33.2492 42.901 32.2337 42.9856 31.1336C43.0703 29.9489 43.3241 29.4411 44.255 29.2719C44.6781 29.1872 44.932 29.1872 45.3551 29.1872C45.6936 29.1872 45.9475 29.1026 45.9475 28.8487C45.9475 28.5949 45.6936 28.5103 45.1859 28.5103C43.9165 28.5103 41.4624 28.5949 40.6162 28.5949C39.5161 28.5949 37.1466 28.5103 35.2849 28.5103C34.7772 28.5103 34.5233 28.5949 34.5233 28.8487C34.5233 29.1026 34.6926 29.1872 35.1157 29.1872C35.6234 29.1872 36.2158 29.1872 36.4697 29.2719C37.5698 29.6104 37.9082 29.9489 37.9929 31.1336C38.0775 32.2337 37.9929 33.2492 37.9929 38.4958V43.5732C37.9929 48.566 39.4315 51.1047 41.2086 52.7125C43.8319 54.9974 47.5553 55.082 49.417 55.082C51.7018 55.082 54.4944 54.7435 56.9485 52.6279C59.9949 50.1738 60.3334 46.1119 60.3334 42.2192V38.4958C60.3334 33.2492 60.3334 32.2337 60.4181 31.1336C60.5027 29.9489 60.7565 29.4411 61.6874 29.2719C62.1105 29.1872 62.3644 29.1872 62.7875 29.1872C63.4645 29.1872 63.6337 29.1026 63.6337 28.8487Z" fill="url(#paint2_linear)"/>
<path d="M61.6028 5.06961C61.6028 4.81574 61.6875 4.73111 61.8567 4.73111C62.1106 4.64649 62.6183 4.64649 63.2953 4.64649C64.8185 4.64649 67.3572 5.74659 67.3572 9.47002C67.3572 11.6702 66.5956 12.855 65.834 13.4473C65.3263 13.7858 64.9878 13.8704 63.9723 13.8704C63.2953 13.8704 62.5337 13.7858 61.9413 13.6166C61.7721 13.5319 61.6875 13.4473 61.6875 13.1088V5.06961H61.6028ZM56.2716 3.88488C56.6101 3.88488 57.1178 3.88488 57.287 3.9695C58.1333 4.13875 58.3871 4.56187 58.3871 5.49272C58.4718 6.33896 58.4718 7.10057 58.4718 11.0779V15.7321C58.4718 18.1862 58.4718 20.2172 58.3025 21.4019C58.2179 22.1635 58.0487 22.7559 57.5409 22.8405C57.287 22.9251 56.9486 22.9251 56.6101 22.9251C56.2716 22.9251 56.1869 23.0097 56.1869 23.179C56.1869 23.3482 56.3562 23.4329 56.6947 23.4329C57.7948 23.4329 59.4026 23.3482 59.9104 23.3482C60.3335 23.3482 62.2798 23.4329 63.803 23.4329C64.1415 23.4329 64.3108 23.3482 64.3108 23.179C64.3108 23.0097 64.2262 22.9251 63.9723 22.9251C63.6338 22.9251 63.0414 22.8405 62.7029 22.8405C61.9413 22.7559 61.7721 22.1635 61.6875 21.4019C61.5182 20.3018 61.5182 18.1862 61.5182 15.7321V15.3937C61.5182 15.2244 61.6028 15.2244 61.7721 15.2244L64.0569 15.309C64.2262 15.309 64.3954 15.309 64.5646 15.4783C64.9031 15.9014 66.0879 17.6785 67.188 19.1171C68.7112 21.148 69.642 22.4174 70.8268 23.0098C71.5038 23.3482 72.1807 23.5175 73.6193 23.5175H76.158C76.4965 23.5175 76.6658 23.4329 76.6658 23.2636C76.6658 23.0944 76.5812 23.0098 76.3273 23.0098C76.0734 23.0098 75.9042 23.0098 75.5657 22.9251C75.1426 22.8405 74.0425 22.6713 72.6039 21.148C71.0806 19.5402 69.2189 17.1707 66.8495 14.2089C69.5574 12.0087 70.319 10.2316 70.319 8.28529C70.319 6.5082 69.3036 5.15423 68.5419 4.64649C67.1034 3.63101 65.3263 3.54639 63.6338 3.54639C62.7876 3.54639 60.8412 3.63101 59.9104 3.63101C59.318 3.63101 57.7102 3.54639 56.2716 3.54639C55.8484 3.54639 55.6792 3.63101 55.6792 3.80026C55.7638 3.80026 55.9331 3.88488 56.2716 3.88488Z" fill="url(#paint3_linear)"/>
<path d="M126.001 6.84679C126.255 6.84679 126.593 6.84679 126.763 6.93142C127.524 7.18529 127.694 7.35453 127.778 8.11614C127.778 8.79313 127.778 9.47012 127.778 12.8551V16.8323C127.778 18.8633 127.778 20.6404 127.694 21.6559C127.609 22.3329 127.44 22.756 127.017 22.8406C126.847 22.9252 126.509 22.9252 126.17 22.9252C125.916 22.9252 125.832 23.0945 125.832 23.1791C125.832 23.3483 126.001 23.433 126.255 23.433C126.763 23.433 127.27 23.433 127.863 23.3483C128.455 23.3483 128.878 23.3483 129.217 23.3483C130.148 23.3483 131.163 23.3483 132.348 23.433C133.533 23.5176 134.887 23.5176 136.494 23.5176C137.679 23.5176 137.848 23.433 138.018 22.9252C138.187 22.2482 138.356 20.5558 138.356 20.3019C138.356 20.048 138.272 19.7942 138.102 19.7942C137.933 19.7942 137.848 19.9634 137.848 20.1327C137.764 20.5558 137.595 21.2328 137.256 21.4866C136.664 22.079 135.817 22.1636 134.548 22.1636C132.771 22.1636 131.84 21.9944 131.417 21.6559C130.909 21.2328 130.909 19.7942 130.909 16.917V12.9397C130.909 9.55474 130.909 8.87775 130.994 8.20077C131.079 7.43916 131.248 7.10066 131.84 7.01604C132.094 6.93142 132.517 6.93142 132.771 6.93142C133.025 6.93142 133.194 6.84679 133.194 6.67755C133.194 6.5083 133.025 6.5083 132.686 6.5083C131.756 6.5083 129.894 6.59292 129.301 6.59292C128.624 6.59292 127.186 6.5083 126.086 6.5083C125.747 6.5083 125.578 6.59292 125.578 6.67755C125.578 6.76217 125.747 6.84679 126.001 6.84679Z" fill="url(#paint4_linear)"/>
<path d="M69.8959 65.6598L69.1343 65.0674C66.9341 63.375 66.3417 62.4441 66.3417 61.2594C66.3417 59.6515 67.5264 58.5514 69.4728 58.5514C71.1652 58.5514 71.9269 59.313 72.35 59.8208C72.9423 60.4978 73.027 61.344 73.027 61.5979C73.027 61.9364 73.1116 62.1056 73.2808 62.1056C73.4501 62.1056 73.5347 61.8517 73.5347 61.344C73.5347 59.313 73.6193 58.5514 73.6193 58.1283C73.6193 57.9591 73.4501 57.8744 73.2808 57.7898C72.6038 57.6206 71.5037 57.3667 69.7266 57.3667C66.0878 57.3667 63.6338 59.4823 63.6338 62.3595C63.6338 64.4751 64.6492 66.3368 67.5264 68.6216L68.7112 69.5525C70.9114 71.2449 71.3345 72.5143 71.3345 73.7836C71.3345 75.2222 70.1498 76.8301 67.7803 76.8301C66.1725 76.8301 64.5646 76.1531 63.9723 74.1221C63.803 73.699 63.7184 73.1066 63.7184 72.7681C63.7184 72.5143 63.7184 72.345 63.4645 72.345C63.2953 72.345 63.2107 72.5989 63.126 73.022C63.126 73.4451 62.9568 75.053 62.9568 76.4916C62.9568 77.0839 63.0414 77.1686 63.4645 77.4224C64.5646 77.9302 65.834 78.0994 67.3572 78.0994C68.7958 78.0994 70.2344 77.8455 71.5884 76.9993C73.5347 75.73 74.0424 73.9529 74.0424 72.4296C74.2117 69.8909 73.1116 68.1139 69.8959 65.6598Z" fill="url(#paint5_linear)"/>
<path d="M112.884 16.3248L115.169 10.6551C115.169 10.5704 115.254 10.4858 115.339 10.4858C115.423 10.4858 115.423 10.6551 115.423 10.6551L117.623 16.4095C117.623 16.4941 117.623 16.5787 117.539 16.5787H113.054C112.884 16.4941 112.8 16.4095 112.884 16.3248ZM107.13 22.9255C106.961 22.9255 106.622 22.9255 106.453 22.9255C106.284 22.9255 106.199 23.0101 106.199 23.1793C106.199 23.3486 106.368 23.4332 106.622 23.4332C107.807 23.4332 109.076 23.3486 109.33 23.3486C110.092 23.3486 111.192 23.4332 111.954 23.4332C112.207 23.4332 112.292 23.3486 112.292 23.1793C112.292 23.0101 112.207 22.9255 111.954 22.9255H111.615C110.938 22.9255 110.684 22.6716 110.684 22.2485C110.684 21.9946 110.769 21.4022 111.023 20.8945L112.292 17.8481C112.377 17.6788 112.377 17.6788 112.546 17.6788H118.046C118.131 17.6788 118.216 17.6788 118.3 17.8481L120.077 22.3331C120.162 22.587 119.993 22.8408 119.908 22.8408C119.654 22.8408 119.654 22.9255 119.654 23.0947C119.654 23.2639 119.908 23.2639 120.331 23.2639C122.278 23.3486 123.97 23.3486 124.816 23.3486C125.663 23.3486 125.832 23.2639 125.832 23.0947C125.832 22.9255 125.747 22.8408 125.493 22.8408C125.239 22.8408 124.986 22.8408 124.647 22.7562C124.224 22.6716 123.547 22.4177 122.701 20.3868C121.178 17.0018 117.369 7.77788 116.777 6.50853C116.523 6.00079 116.439 5.83154 116.1 5.83154C115.846 5.83154 115.677 6.08541 115.423 6.7624L109.33 20.8945C108.653 22.0792 108.23 22.7562 107.13 22.9255Z" fill="url(#paint6_linear)"/>
<path d="M92.1518 6.84694C92.4057 6.84694 92.8288 7.01619 93.1673 7.10081C93.5904 7.35468 94.0982 7.86242 94.6905 8.70866C95.5368 9.89338 98.6678 14.8862 98.8371 15.2247C99.1756 15.9016 99.3448 16.3248 99.3448 17.5941V19.4558C99.3448 19.7943 99.3448 20.7252 99.2602 21.7406C99.1756 22.4176 99.0063 22.8408 98.5832 22.9254C98.3294 23.01 98.0755 23.01 97.737 23.01C97.4831 23.01 97.3985 23.1792 97.3985 23.2639C97.3985 23.4331 97.5677 23.5177 97.9062 23.5177C98.7525 23.5177 100.36 23.4331 100.953 23.4331C101.63 23.4331 103.153 23.5177 104.591 23.5177C104.93 23.5177 105.099 23.4331 105.099 23.2639C105.099 23.1792 104.93 23.01 104.676 23.01C104.338 23.01 103.83 23.01 103.491 22.9254C102.814 22.8408 102.561 22.4176 102.561 21.7406C102.476 20.8098 102.476 19.8789 102.476 19.4558V17.6787C102.476 16.9171 102.391 16.2401 102.73 15.3939C103.153 14.463 106.453 9.13177 107.215 8.20092C107.723 7.60855 107.892 7.35468 108.4 7.10081C108.738 6.93157 109.161 6.84694 109.415 6.84694C109.669 6.84694 109.838 6.76232 109.838 6.59307C109.838 6.42383 109.669 6.42383 109.415 6.42383C108.992 6.42383 107.469 6.50845 106.961 6.50845C106.284 6.50845 105.438 6.42383 104.676 6.42383C104.422 6.42383 104.253 6.50845 104.253 6.59307C104.253 6.76232 104.507 6.84694 104.676 6.84694C105.099 6.93157 105.184 7.10081 105.184 7.35468C105.184 7.60855 105.099 8.03167 104.845 8.53941C104.507 9.2164 101.63 14.0399 101.376 14.5477C100.953 13.9553 97.9062 8.62403 97.4831 7.94705C97.3139 7.60855 97.2292 7.35468 97.2292 7.18544C97.2292 7.01619 97.3985 6.93157 97.5677 6.84694C97.9062 6.76232 98.0755 6.76232 98.0755 6.59307C98.0755 6.42383 97.9062 6.42383 97.737 6.42383C96.6369 6.42383 95.6214 6.50845 95.1137 6.50845C94.3521 6.50845 92.575 6.42383 92.2365 6.42383C91.9826 6.42383 91.8134 6.50845 91.8134 6.59307C91.8134 6.76232 91.9826 6.84694 92.1518 6.84694Z" fill="url(#paint7_linear)"/>
<path d="M83.2664 7.26969C86.9898 7.26969 90.0363 10.3161 90.0363 15.3089C90.0363 21.7403 86.3128 22.5019 84.705 22.5019C80.3046 22.5019 77.6813 18.8631 77.6813 14.2088C77.5966 8.62366 80.6431 7.26969 83.2664 7.26969ZM83.6895 23.6866C89.6978 23.6866 93.4212 19.6247 93.4212 14.4627C93.4212 9.30065 89.7824 6.08496 83.8588 6.08496C76.835 6.08496 74.1271 11.0777 74.1271 14.8858C74.1271 18.8631 76.9196 23.6866 83.6895 23.6866Z" fill="url(#paint8_linear)"/>
<path d="M138.271 28.5103C136.494 28.5103 135.14 28.595 134.802 28.595C134.04 28.595 132.094 28.5103 130.232 28.5103C129.725 28.5103 129.301 28.5103 129.301 28.8488C129.301 29.0181 129.386 29.1873 129.894 29.1873C130.402 29.1873 131.248 29.1873 131.755 29.3566C132.602 29.6951 132.94 30.2874 132.94 32.403L133.279 47.8045H133.109C132.602 47.2967 127.778 42.4732 125.409 40.0191C120.162 34.9417 114.831 29.4412 114.408 29.0181C113.815 28.4257 113.308 27.918 112.884 27.918C112.546 27.918 112.292 28.4257 112.292 29.1027L111.954 49.5815C111.954 52.628 111.784 53.5588 110.854 53.8127C110.346 53.8973 109.753 53.982 109.246 53.982C108.907 53.982 108.653 54.1512 108.653 54.3204C108.653 54.6589 108.992 54.6589 109.5 54.6589C111.361 54.6589 113.054 54.5743 113.392 54.5743C114.069 54.5743 115.677 54.6589 118.047 54.6589C118.554 54.6589 118.893 54.5743 118.893 54.3204C118.893 54.1512 118.723 53.982 118.3 53.982C117.708 53.982 117.031 53.982 116.439 53.7281C115.762 53.4742 115.339 52.628 115.254 50.0047L114.831 35.8726H114.915C115.592 36.4649 119.4 40.6961 123.293 44.4195C127.017 48.0583 131.502 52.2895 133.786 54.4051C134.125 54.7436 134.633 55.1667 135.225 55.1667C135.479 55.1667 135.817 54.8282 135.817 54.0666L136.241 32.2338C136.241 30.2874 136.579 29.6951 137.51 29.3566C137.933 29.2719 138.271 29.2719 138.61 29.2719C139.033 29.2719 139.202 29.1027 139.202 28.9334C139.033 28.5103 138.779 28.5103 138.271 28.5103Z" fill="url(#paint9_linear)"/>
<path d="M133.533 67.4369L132.602 66.9291C130.486 65.7444 130.148 64.9828 130.148 63.9673C130.148 62.4441 131.671 61.5978 133.363 61.5978C134.887 61.5978 135.648 62.1902 135.987 62.698C136.494 63.2903 136.579 63.9673 136.579 64.2212C136.579 64.475 136.664 64.6443 136.833 64.6443C137.002 64.6443 137.087 64.3904 137.087 63.9673C137.087 62.1902 137.171 61.5979 137.171 61.2594C137.171 61.0901 137.087 61.0055 136.833 61.0055C136.241 60.8362 135.056 60.667 133.533 60.667C130.317 60.667 127.694 62.4441 127.694 65.152C127.694 67.0984 128.625 68.6216 131.332 70.2294L132.686 70.991C134.717 72.1758 134.971 73.1912 134.971 74.2067C134.971 75.8146 133.787 77.0839 131.756 77.0839C130.317 77.0839 128.54 76.4916 128.032 74.8837C127.863 74.4606 127.863 74.0375 127.863 73.699C127.863 73.5297 127.863 73.3605 127.609 73.3605C127.44 73.3605 127.355 73.6144 127.355 73.9529C127.355 74.2914 127.186 75.7299 127.186 76.9147C127.186 77.4224 127.271 77.507 127.609 77.6763C128.625 78.0994 130.063 78.2686 131.417 78.2686C132.686 78.2686 134.21 78.0994 135.31 77.3378C137.002 76.1531 137.679 74.7991 137.679 73.1066C137.51 70.9064 136.579 69.1293 133.533 67.4369Z" fill="url(#paint10_linear)"/>
<path d="M201.485 38.0728C202.162 36.8034 203.008 36.2957 204.616 37.565C204.278 35.7879 203.347 34.9417 201.485 35.5341C201.993 33.9262 203.008 34.0108 204.193 34.4339C203.262 33.08 202.331 32.1491 200.639 33.6723C200.3 32.3184 199.539 31.9799 198.354 32.8261C195.477 36.3803 189.892 40.6115 186.084 36.888C184.899 37.2265 183.968 37.4804 183.037 37.4804C183.122 39.596 182.53 41.5423 181.176 44.1656C184.053 47.4659 189.299 46.789 193.615 45.8581C192.515 45.435 191.33 45.0119 191.838 44.2503C192.684 43.7425 193.446 43.0655 194.292 42.2193C195.138 42.5578 197.508 43.9118 197.677 41.7116C198.862 41.8808 201.316 42.3039 201.316 40.0191C202.162 39.0036 202.839 39.4267 203.601 40.5268C203.431 39.1729 203.178 37.9035 201.485 38.0728Z" fill="url(#paint11_linear)"/>
<path d="M191.5 73.5301C191.246 72.1761 190.4 71.5838 188.876 71.6684C189.638 70.6529 190.4 70.5683 191.33 70.9914C191.076 69.9759 190.653 69.1297 188.961 69.7221C188.961 68.622 188.622 67.6065 186.845 67.8603C185.661 68.0296 184.476 68.6219 183.207 68.7066C181.26 68.8758 177.96 65.3216 179.652 62.8676C182.953 58.1287 184.814 54.8283 179.737 51.7819C176.944 50.0894 173.898 50.5972 170.428 51.528C169.074 51.9512 168.144 53.3051 167.974 54.8283C167.805 56.6054 168.313 59.3134 167.72 60.9212C169.836 60.5827 171.528 60.2442 173.052 60.6674C173.813 60.752 174.067 61.1751 173.983 61.9367C173.559 63.1214 172.544 64.2215 171.952 65.5755C171.275 67.268 172.036 68.7066 172.544 70.0605C172.29 68.1142 172.544 66.6756 173.898 66.7602C175.844 66.9295 176.521 69.2143 177.621 71.076C178.975 74.461 181.683 74.8841 184.222 75.7303C186.591 76.3227 186.93 75.8149 187.861 75.6457C188.538 75.2226 189.384 75.7303 190.315 76.7458C190.4 74.8841 189.807 73.9532 188.622 73.9532C189.384 72.9377 190.315 72.7685 191.5 73.5301Z" fill="url(#paint12_linear)"/>
<path d="M120.416 75.2225C118.977 76.4073 117.454 76.7458 115.339 76.7458C113.477 76.7458 112.546 76.238 112.292 75.8149C112.123 75.561 112.038 74.7994 112.038 74.2071C112.038 73.7839 111.954 72.0069 111.954 69.6374V66.8448C111.954 65.0677 111.954 63.206 111.954 62.4444C111.954 62.1905 112.038 62.1059 112.208 62.0213C112.377 61.9367 113.138 61.8521 113.646 61.8521C115.508 61.8521 118.047 62.1059 120.162 63.9676C121.178 64.8985 122.362 66.7602 122.362 69.5528C122.362 72.0069 121.939 73.9532 120.416 75.2225ZM114.154 60.752C112.715 60.752 111.107 60.8366 110.346 60.8366C109.669 60.8366 108.23 60.752 106.961 60.752C106.622 60.752 106.453 60.8366 106.453 61.0058C106.453 61.1751 106.622 61.2597 106.876 61.2597C107.215 61.2597 107.638 61.2597 107.807 61.3443C108.569 61.5136 108.738 61.7674 108.823 62.529C108.823 63.206 108.823 63.883 108.823 67.268V71.2452C108.823 73.2762 108.823 75.0533 108.738 76.0688C108.653 76.7458 108.484 77.1689 108.061 77.2535C107.807 77.3381 107.553 77.3381 107.215 77.3381C106.961 77.3381 106.876 77.5074 106.876 77.592C106.876 77.7612 107.045 77.8459 107.299 77.8459C107.807 77.8459 108.315 77.8459 108.907 77.7612C109.5 77.7612 110.007 77.7612 110.261 77.7612C110.854 77.7612 111.7 77.8459 112.631 77.9305C113.561 78.0151 114.577 78.0997 115.423 78.0997C119.739 78.0997 122.193 76.4919 123.209 75.4764C124.563 74.2071 125.747 72.0069 125.747 69.2143C125.747 66.5063 124.732 64.6446 123.547 63.4599C121.008 60.752 117.031 60.752 114.154 60.752Z" fill="url(#paint13_linear)"/>
<path d="M89.0207 74.207C88.8514 74.207 88.7668 74.2916 88.7668 74.5455C88.5976 75.4764 88.3437 75.9841 87.7513 76.238C87.159 76.4919 86.1435 76.4919 85.5511 76.4919C83.1817 76.4919 82.4201 76.1534 82.4201 74.6301C82.4201 73.9531 82.4201 72.0914 82.4201 71.3298V69.5527C82.4201 69.3835 82.4201 69.2989 82.5893 69.2989C83.1817 69.2989 85.805 69.3835 86.2281 69.3835C87.0744 69.4681 87.4128 69.8066 87.4975 70.2297C87.5821 70.4836 87.5821 70.8221 87.5821 71.076C87.5821 71.1606 87.6667 71.2452 87.7513 71.2452C87.9206 71.2452 88.0052 70.9067 88.0052 70.7375C88.0052 70.5682 88.0898 69.6374 88.0898 69.2142C88.2591 68.1141 88.2591 67.691 88.2591 67.6064C88.2591 67.4372 88.1745 67.3525 88.0898 67.3525C88.0052 67.3525 87.9206 67.5218 87.7513 67.6064C87.4975 67.8603 87.159 67.8603 86.6512 67.9449C86.1435 68.0295 83.0971 68.0295 82.5893 68.0295C82.4201 68.0295 82.4201 67.9449 82.4201 67.7757V62.1905C82.4201 62.0213 82.5047 61.9366 82.5893 61.9366C83.0971 61.9366 85.805 62.0213 86.2281 62.0213C87.4128 62.1059 87.5821 62.4444 87.7513 62.8675C87.9206 63.1214 87.9206 63.5445 87.9206 63.7137C87.9206 63.883 87.9206 63.9676 88.0898 63.9676C88.2591 63.9676 88.3437 63.7137 88.3437 63.6291C88.4283 63.3752 88.4283 62.3598 88.5129 62.1059C88.5976 61.0904 88.6822 60.8365 88.6822 60.6673C88.6822 60.5827 88.6822 60.498 88.5129 60.498C88.4283 60.498 88.2591 60.5827 88.1744 60.5827C88.0052 60.5827 87.5821 60.6673 87.159 60.7519C86.7359 60.7519 81.5738 60.7519 80.8122 60.7519C80.1352 60.7519 78.6966 60.6673 77.4273 60.6673C77.0888 60.6673 76.9196 60.7519 76.9196 60.9212C76.9196 61.0904 77.0888 61.175 77.3427 61.175C77.6812 61.175 78.1043 61.175 78.2735 61.2597C79.0351 61.4289 79.2044 61.6828 79.289 62.4444C79.289 63.1214 79.289 63.7984 79.289 67.1833V71.1606C79.289 73.1915 79.289 74.9686 79.2044 75.9841C79.1198 76.6611 79.0351 77.0842 78.5274 77.1688C78.3581 77.2535 78.0197 77.2535 77.6812 77.2535C77.4273 77.2535 77.3427 77.4227 77.3427 77.5073C77.3427 77.6766 77.5119 77.7612 77.7658 77.7612C78.2735 77.7612 78.8659 77.7612 79.3736 77.6766C79.966 77.6766 80.4737 77.6766 80.7276 77.6766C81.4046 77.6766 82.2508 77.6766 83.4355 77.7612C84.5356 77.8458 85.9742 77.8458 87.7513 77.8458C88.5976 77.8458 88.8514 77.8458 89.0207 77.2535C89.1899 76.8303 89.3592 75.3071 89.3592 74.7994C89.2746 74.4609 89.1899 74.207 89.0207 74.207Z" fill="url(#paint14_linear)"/>
<path d="M83.6048 53.8974C83.774 53.2204 84.1125 50.8509 84.1125 50.0893C84.1125 49.7508 84.1125 49.2431 83.7741 49.2431C83.5202 49.2431 83.4356 49.4123 83.3509 49.7508C83.0971 51.1894 82.6739 51.8664 81.8277 52.2895C80.8969 52.7126 79.3736 52.7126 78.4428 52.7126C74.804 52.7126 73.7039 52.2049 73.6193 49.8354C73.6193 48.82 73.6193 45.8582 73.6193 44.6734V41.8809C73.6193 41.7116 73.6193 41.5424 73.7885 41.5424C74.7194 41.5424 78.7813 41.627 79.3736 41.7116C80.7276 41.7962 81.1507 42.3886 81.4046 43.0656C81.4892 43.4887 81.4892 43.9964 81.4892 44.3349C81.4892 44.5042 81.5738 44.5888 81.8277 44.5888C82.1662 44.5888 82.1662 44.0811 82.1662 43.8272C82.1662 43.5733 82.2508 42.2193 82.3355 41.5424C82.5047 39.7653 82.5893 39.2575 82.5893 39.0037C82.5893 38.8344 82.5047 38.6652 82.3355 38.6652C82.1662 38.6652 82.0816 38.8344 81.7431 39.0883C81.4046 39.4268 80.8969 39.5114 80.0506 39.596C79.2044 39.6806 74.6347 39.6806 73.7885 39.6806C73.6193 39.6806 73.5346 39.5114 73.5346 39.3422V30.7952C73.5346 30.626 73.6193 30.4567 73.7885 30.4567C74.5501 30.4567 78.7813 30.5413 79.3736 30.6259C81.1507 30.7952 81.4892 31.3029 81.7431 31.8953C81.9123 32.3184 81.997 32.9108 81.997 33.1646C81.997 33.4185 81.997 33.5878 82.2508 33.5878C82.5047 33.5878 82.5893 33.1647 82.6739 32.9954C82.7586 32.5723 82.8432 31.0491 82.8432 30.7106C82.9278 29.1027 83.0971 28.6796 83.0971 28.5104C83.0971 28.3411 83.0971 28.1719 82.8432 28.1719C82.674 28.1719 82.5047 28.2565 82.2508 28.3411C81.997 28.3411 81.4046 28.5104 80.7276 28.5104C80.0506 28.5104 72.096 28.5104 70.9959 28.5104C69.9805 28.5104 67.6956 28.4257 65.8339 28.4257C65.3262 28.4257 64.9877 28.5104 64.9877 28.7642C64.9877 29.0181 65.2415 29.1027 65.58 29.1027C66.0878 29.1027 66.6801 29.1027 67.0186 29.1874C68.1187 29.5258 68.4572 29.8643 68.5419 31.0491C68.5419 32.1492 68.5419 33.1647 68.5419 38.4113V44.5042C68.5419 47.7199 68.5419 50.4278 68.3726 51.8664C68.288 52.8819 68.0341 53.5589 67.2725 53.7281C66.934 53.8127 66.5109 53.8127 66.0032 53.8127C65.58 53.8127 65.4108 53.982 65.4108 54.1512C65.4108 54.4051 65.6647 54.4897 66.0878 54.4897C66.8494 54.4897 67.6956 54.4897 68.5419 54.4051C69.3881 54.4051 70.1497 54.4051 70.5728 54.4051C71.6729 54.4051 72.9423 54.4051 74.7194 54.4897C76.4964 54.5744 78.612 54.5744 81.32 54.5744C83.0124 54.7436 83.3509 54.7436 83.6048 53.8974Z" fill="url(#paint15_linear)"/>
<path d="M103.83 74.207C103.661 74.207 103.661 74.2916 103.576 74.5455C103.407 75.4764 103.153 75.9841 102.561 76.238C101.968 76.4919 100.953 76.4919 100.36 76.4919C97.9909 76.4919 97.2292 76.1534 97.2292 74.6301C97.2292 73.9531 97.2292 72.0914 97.2292 71.3298V69.5527C97.2292 69.3835 97.2292 69.2989 97.3985 69.2989C97.9909 69.2989 100.614 69.3835 101.037 69.3835C101.884 69.4681 102.222 69.8066 102.307 70.2297C102.391 70.4836 102.391 70.8221 102.391 71.076C102.391 71.1606 102.476 71.2452 102.645 71.2452C102.899 71.2452 102.899 70.9067 102.899 70.7375C102.899 70.5682 102.984 69.6374 102.984 69.2142C103.153 68.1141 103.153 67.691 103.153 67.6064C103.153 67.4372 103.068 67.3525 102.984 67.3525C102.899 67.3525 102.814 67.5218 102.645 67.6064C102.391 67.8603 102.053 67.8603 101.545 67.9449C101.037 68.0295 97.9909 68.0295 97.4831 68.0295C97.3139 68.0295 97.3139 67.9449 97.3139 67.7757V62.1905C97.3139 62.0213 97.3985 61.9366 97.4831 61.9366C97.9909 61.9366 100.699 62.0213 101.122 62.0213C102.307 62.1059 102.476 62.4444 102.645 62.8675C102.814 63.1214 102.814 63.5445 102.814 63.7137C102.814 63.883 102.814 63.9676 102.984 63.9676C103.153 63.9676 103.237 63.7137 103.237 63.6291C103.322 63.3752 103.322 62.3598 103.407 62.1059C103.491 61.0904 103.576 60.8365 103.576 60.6673C103.576 60.5827 103.576 60.498 103.407 60.498C103.322 60.498 103.153 60.5827 103.068 60.5827C102.899 60.5827 102.476 60.6673 102.053 60.7519C101.63 60.7519 96.4676 60.7519 95.706 60.7519C95.029 60.7519 93.5904 60.6673 92.3211 60.6673C91.9826 60.6673 91.8134 60.7519 91.8134 60.9212C91.8134 61.0904 91.9826 61.175 92.2365 61.175C92.575 61.175 92.9981 61.175 93.1673 61.2597C93.9289 61.4289 94.0982 61.6828 94.1828 62.4444C94.1828 63.1214 94.1828 63.7984 94.1828 67.1833V71.1606C94.1828 73.1915 94.1828 74.9686 94.0982 75.9841C94.0136 76.6611 93.8443 77.0842 93.4212 77.1688C93.1673 77.2535 92.9135 77.2535 92.575 77.2535C92.3211 77.2535 92.2365 77.4227 92.2365 77.5073C92.2365 77.6766 92.4057 77.7612 92.6596 77.7612C93.1673 77.7612 93.7597 77.7612 94.2674 77.6766C94.8598 77.6766 95.3675 77.6766 95.6214 77.6766C96.2984 77.6766 97.1446 77.6766 98.3293 77.7612C99.4294 77.8458 100.868 77.8458 102.645 77.8458C103.491 77.8458 103.745 77.8458 103.914 77.2535C104.084 76.8303 104.253 75.3071 104.253 74.7994C103.999 74.4609 103.999 74.207 103.83 74.207Z" fill="url(#paint16_linear)"/>
<path d="M106.03 49.2431C105.776 49.2431 105.692 49.4123 105.607 49.7508C105.353 51.1894 104.93 51.8664 104.084 52.2895C103.153 52.7126 101.63 52.7126 100.699 52.7126C97.06 52.7126 95.9599 52.2049 95.8752 49.8354C95.8752 48.82 95.8752 45.8582 95.8752 44.6734V41.8809C95.8752 41.7116 95.8752 41.5424 96.0445 41.5424C96.9753 41.5424 101.037 41.627 101.63 41.7116C102.984 41.7962 103.407 42.3886 103.661 43.0656C103.745 43.4887 103.745 43.9964 103.745 44.3349C103.745 44.5042 103.83 44.5888 104.084 44.5888C104.422 44.5888 104.422 44.0811 104.422 43.8272C104.422 43.5733 104.507 42.2193 104.591 41.5424C104.761 39.7653 104.845 39.2575 104.845 39.0037C104.845 38.8344 104.761 38.6652 104.591 38.6652C104.422 38.6652 104.338 38.8344 103.999 39.0883C103.661 39.4268 103.153 39.5114 102.307 39.596C101.46 39.6806 96.8907 39.6806 96.0445 39.6806C95.8752 39.6806 95.7906 39.5114 95.7906 39.3422V30.7952C95.7906 30.626 95.8752 30.4567 96.0445 30.4567C96.8061 30.4567 101.037 30.5413 101.63 30.6259C103.407 30.7952 103.745 31.3029 103.999 31.8953C104.168 32.3184 104.253 32.9108 104.253 33.1646C104.253 33.4185 104.253 33.5878 104.507 33.5878C104.761 33.5878 104.845 33.1647 104.93 32.9954C105.015 32.5723 105.099 31.0491 105.099 30.7106C105.184 29.1027 105.353 28.6796 105.353 28.5104C105.353 28.3411 105.353 28.1719 105.099 28.1719C104.93 28.1719 104.761 28.2565 104.507 28.3411C104.253 28.3411 103.661 28.5104 102.984 28.5104C102.307 28.5104 94.352 28.5104 93.2519 28.5104C92.2364 28.5104 89.9516 28.4257 88.0899 28.4257C87.5821 28.4257 87.2437 28.5104 87.2437 28.7642C87.2437 29.0181 87.4975 29.1027 87.836 29.1027C88.3438 29.1027 88.9361 29.1027 89.2746 29.1874C90.3747 29.5258 90.7132 29.8643 90.7978 31.0491C90.7978 32.1492 90.7978 33.1647 90.7978 38.4113V44.5042C90.7978 47.7199 90.7978 50.4278 90.6286 51.8664C90.544 52.8819 90.2901 53.5589 89.5285 53.7281C89.19 53.8127 88.7669 53.8127 88.2591 53.8127C87.836 53.8127 87.6668 53.982 87.6668 54.1512C87.6668 54.4051 87.9206 54.4897 88.3438 54.4897C89.1054 54.4897 89.9516 54.4897 90.7978 54.4051C91.6441 54.4051 92.4057 54.4051 92.8288 54.4051C93.8443 54.4051 95.1982 54.4051 96.9753 54.4897C98.7524 54.5744 100.868 54.5744 103.576 54.5744C104.93 54.5744 105.268 54.5744 105.522 53.6435C105.692 52.9665 106.03 50.5971 106.03 49.8354C106.369 49.6662 106.284 49.2431 106.03 49.2431Z" fill="url(#paint17_linear)"/>
</g>
<defs>
<linearGradient id="paint0_linear" x1="169.328" y1="0.5" x2="169.328" y2="82.5" gradientUnits="userSpaceOnUse">
<stop stop-color="#F2AF55"/>
<stop offset="1" stop-color="#A69256"/>
</linearGradient>
<linearGradient id="paint1_linear" x1="30.9268" y1="23.3481" x2="30.9268" y2="63.375" gradientUnits="userSpaceOnUse">
<stop stop-color="#F2AF55"/>
<stop offset="1" stop-color="#A69256"/>
</linearGradient>
<linearGradient id="paint2_linear" x1="49.0785" y1="28.5103" x2="49.0785" y2="55.082" gradientUnits="userSpaceOnUse">
<stop stop-color="#F2AF55"/>
<stop offset="1" stop-color="#A69256"/>
</linearGradient>
<linearGradient id="paint3_linear" x1="66.1725" y1="3.54639" x2="66.1725" y2="23.5175" gradientUnits="userSpaceOnUse">
<stop stop-color="#F2AF55"/>
<stop offset="1" stop-color="#A69256"/>
</linearGradient>
<linearGradient id="paint4_linear" x1="131.967" y1="6.5083" x2="131.967" y2="23.5176" gradientUnits="userSpaceOnUse">
<stop stop-color="#F2AF55"/>
<stop offset="1" stop-color="#A69256"/>
</linearGradient>
<linearGradient id="paint5_linear" x1="68.508" y1="57.3667" x2="68.508" y2="78.0994" gradientUnits="userSpaceOnUse">
<stop stop-color="#F2AF55"/>
<stop offset="1" stop-color="#A69256"/>
</linearGradient>
<linearGradient id="paint6_linear" x1="116.016" y1="5.83154" x2="116.016" y2="23.4332" gradientUnits="userSpaceOnUse">
<stop stop-color="#F2AF55"/>
<stop offset="1" stop-color="#A69256"/>
</linearGradient>
<linearGradient id="paint7_linear" x1="100.826" y1="6.42383" x2="100.826" y2="23.5177" gradientUnits="userSpaceOnUse">
<stop stop-color="#F2AF55"/>
<stop offset="1" stop-color="#A69256"/>
</linearGradient>
<linearGradient id="paint8_linear" x1="83.7741" y1="6.08496" x2="83.7741" y2="23.6866" gradientUnits="userSpaceOnUse">
<stop stop-color="#F2AF55"/>
<stop offset="1" stop-color="#A69256"/>
</linearGradient>
<linearGradient id="paint9_linear" x1="123.928" y1="27.918" x2="123.928" y2="55.1667" gradientUnits="userSpaceOnUse">
<stop stop-color="#F2AF55"/>
<stop offset="1" stop-color="#A69256"/>
</linearGradient>
<linearGradient id="paint10_linear" x1="132.433" y1="60.667" x2="132.433" y2="78.2686" gradientUnits="userSpaceOnUse">
<stop stop-color="#F2AF55"/>
<stop offset="1" stop-color="#A69256"/>
</linearGradient>
<linearGradient id="paint11_linear" x1="192.896" y1="32.3647" x2="192.896" y2="46.6223" gradientUnits="userSpaceOnUse">
<stop stop-color="#F2AF55"/>
<stop offset="1" stop-color="#A69256"/>
</linearGradient>
<linearGradient id="paint12_linear" x1="179.61" y1="50.6689" x2="179.61" y2="76.7458" gradientUnits="userSpaceOnUse">
<stop stop-color="#F2AF55"/>
<stop offset="1" stop-color="#A69256"/>
</linearGradient>
<linearGradient id="paint13_linear" x1="116.1" y1="60.752" x2="116.1" y2="78.0997" gradientUnits="userSpaceOnUse">
<stop stop-color="#F2AF55"/>
<stop offset="1" stop-color="#A69256"/>
</linearGradient>
<linearGradient id="paint14_linear" x1="83.1394" y1="60.498" x2="83.1394" y2="77.8458" gradientUnits="userSpaceOnUse">
<stop stop-color="#F2AF55"/>
<stop offset="1" stop-color="#A69256"/>
</linearGradient>
<linearGradient id="paint15_linear" x1="74.5501" y1="28.1719" x2="74.5501" y2="54.6628" gradientUnits="userSpaceOnUse">
<stop stop-color="#F2AF55"/>
<stop offset="1" stop-color="#A69256"/>
</linearGradient>
<linearGradient id="paint16_linear" x1="98.0332" y1="60.498" x2="98.0332" y2="77.8458" gradientUnits="userSpaceOnUse">
<stop stop-color="#F2AF55"/>
<stop offset="1" stop-color="#A69256"/>
</linearGradient>
<linearGradient id="paint17_linear" x1="96.7485" y1="28.1719" x2="96.7485" y2="54.5744" gradientUnits="userSpaceOnUse">
<stop stop-color="#F2AF55"/>
<stop offset="1" stop-color="#A69256"/>
</linearGradient>
<clipPath id="clip0">
<rect width="203.688" height="82" fill="white" transform="translate(0.927856 0.5)"/>
</clipPath>
</defs>
</svg>
