<svg width="161" height="83" viewBox="0 0 161 83" fill="none" xmlns="http://www.w3.org/2000/svg">
<g style="mix-blend-mode:luminosity" clip-path="url(#clip0)">
<path fill-rule="evenodd" clip-rule="evenodd" d="M50.9166 22.3634L52.3626 17.3892L56.047 18.1122L53.0509 26.285L51.1017 26.9733L50.9166 22.3634Z" fill="#BBB6B4"/>
<path fill-rule="evenodd" clip-rule="evenodd" d="M109.26 22.4795C109.312 22.6646 109.121 22.8381 109.069 22.9827C108.918 23.2871 108.746 23.5809 108.554 23.8619C108.462 23.937 92.0525 59.6707 56.8337 34.7879C53.8896 32.7114 52.0908 28.8419 51.5413 27.5752C51.495 27.4769 51.5413 27.2571 51.4545 27.1356C51.3363 26.9548 51.2028 26.7846 51.0554 26.6266L51.1364 26.4473C51.4762 26.2298 51.7956 25.982 52.0908 25.707C52.1775 25.626 52.1891 25.4293 52.2411 25.331C52.6585 24.7501 53.0151 24.128 53.3054 23.4743C53.4262 23.0993 53.5 22.7107 53.5252 22.3175C53.5252 21.4384 53.4211 20.5534 53.369 19.6627C53.3487 19.599 53.3129 19.5414 53.2649 19.4949C53.2649 19.4429 53.0104 17.9737 52.6865 17.8754C52.565 17.8407 52.513 17.939 52.3221 18.0374C52.4193 17.8249 52.4706 17.5943 52.4725 17.3606C52.5419 13.5547 62.3053 3.04518 71.0565 2.48413C101.139 0.500213 108.774 20.8542 109.26 22.4795Z" fill="#1D1D1B"/>
<path fill-rule="evenodd" clip-rule="evenodd" d="M52.8658 21.2648L52.8253 23C52.7848 23.1389 51.6685 25.4525 51.6685 25.4525C51.5644 25.4235 51.3909 25.9036 51.3215 25.7648C51.1769 25.892 51.1537 25.464 50.986 25.6954C50.9009 24.9613 50.9009 24.2199 50.986 23.4859C51.0296 22.9929 51.1186 22.5049 51.2521 22.0283C51.2983 21.8895 51.4487 21.207 51.4834 21.0913C51.5181 20.9756 52.0618 19.3561 52.1312 19.2289C52.261 18.9326 52.4432 18.6621 52.6691 18.4307C52.8253 19.3746 52.8834 20.3321 52.8427 21.288" fill="#1D1D1B"/>
<path fill-rule="evenodd" clip-rule="evenodd" d="M84.9035 14.8098C84.6256 15.8819 84.2579 16.9286 83.8045 17.939C83.6946 17.7365 84.2209 8.06566 79.9292 6.28418C79.9292 6.28418 82.1098 11.0502 81.9189 14.243C81.8032 16.117 81.248 18.6909 80.7621 18.928C80.9881 16.8271 80.8551 14.703 80.3688 12.6466C79.7852 10.6702 78.912 8.79119 77.7775 7.07081C78.1362 8.10036 79.8656 13.4332 78.356 17.002C78.1564 17.4563 77.9304 17.8986 77.6792 18.3265C77.5751 18.5116 77.6792 11.5187 75.5218 8.05409C75.1921 7.53353 74.9781 6.98983 74.6079 6.75847C74.6079 6.75847 75.7647 10.5701 75.8399 13.1209C75.8187 14.9903 75.6074 16.8527 75.2094 18.6793L75.1053 18.6215C74.3361 18.1183 73.6709 12.4962 73.3181 10.8362C73.185 10.1826 71.4788 7.77646 71.4788 7.77646C71.9068 8.58043 71.5308 8.60935 71.7969 9.55215C72.7385 12.7157 73.2235 15.9975 73.2371 19.2982C73.1709 19.5338 73.0917 19.7655 73 19.9923C72.7455 19.4139 72.9074 18.9107 72.7917 18.0547C72.676 17.1986 69.3965 8.69033 68.6215 8.02517C68.6215 8.02517 69.3734 10.0033 69.8477 11.27C71.4961 15.6716 70.4261 20.7905 70.4261 20.7905C70.4139 20.6095 70.4139 20.4278 70.4261 20.2468C70.0853 18.3707 69.5623 16.5323 68.8644 14.7578C67.9967 12.785 66.8936 10.9245 65.5791 9.21668C65.5791 9.21668 67.1986 14.2719 67.349 14.6363C67.6266 15.313 68.2802 20.3625 68.3033 21.9184C68.3033 21.9184 66.6317 16.545 65.5848 14.9139C64.6408 13.6419 63.6108 12.436 62.502 11.3047C62.502 11.3047 64.9139 14.8387 65.5096 17.4358C66.0186 19.6568 65.8972 23.0578 65.6832 23.2776C65.6773 22.815 65.6269 22.354 65.5328 21.901C65.5328 21.6581 64.1793 17.1639 63.2192 15.6948C63.1845 15.6427 60.9056 13.2076 60.9056 13.2076C60.9403 13.3407 62.5077 15.9377 63.011 17.5688C63.6032 19.8193 63.6527 22.1783 63.1556 24.4518C62.9242 24.1741 62.2012 20.0039 62.1665 19.7494C61.9525 18.1703 59.5232 15.4229 59.5232 15.4229C59.6678 15.7006 59.8471 16.5797 60.0553 16.8921C61.8484 19.6915 60.9403 24.1741 60.761 24.2667C60.7598 23.6635 60.7231 23.0609 60.6511 22.4621C60.6086 21.8113 60.4782 21.1692 60.2635 20.5533C59.886 19.566 59.4113 18.6185 58.8465 17.725C58.8465 17.725 59.2571 19.2809 59.3555 20.0386C59.3844 20.2699 58.9043 24.1452 58.8407 24.3477L58.7308 24.3072C58.9274 23.6883 58.0078 21.0334 57.9615 20.883C57.8042 20.1293 57.5836 19.3902 57.3021 18.6735C57.2743 19.0586 57.2743 19.4452 57.3021 19.8303C57.2755 20.7221 57.1631 21.6092 56.9667 22.4794C56.9204 22.6356 56.4982 23.3933 56.4577 23.5148L56.0875 24.0932C55.9399 24.3677 55.7777 24.6341 55.6016 24.8914C55.3852 25.2647 55.192 25.651 55.0232 26.0482C54.977 26.187 54.5663 26.32 54.6935 26.4993C72.9652 52.7183 99.9882 34.7011 102.047 29.6285C102.701 28.0263 103.736 27.4363 104.558 25.8746C104.621 25.8284 104.795 25.7763 104.986 24.8914C105.223 24.5964 105.153 23.9486 105.2 23.8213C105.362 23.2429 104.98 22.1671 104.835 21.7969C104.719 22.2036 104.655 22.6234 104.644 23.0463C104.274 23.428 103.817 24.3824 103.088 24.3939C103.354 23.6765 103.548 22.9344 103.667 22.1787C103.697 21.6252 103.686 21.0703 103.632 20.5186C103.632 20.5765 103.007 22.2538 102.892 22.5141C102.695 22.9408 102.382 23.3036 101.989 23.561L102.296 22.5662C102.422 22.0463 102.5 21.5157 102.527 20.9814C102.527 20.7327 102.626 19.4023 102.603 19.4197C102.516 19.8303 101.984 21.3862 101.943 21.5251C101.67 22.0618 101.308 22.5487 100.873 22.9653C101.043 22.2993 101.158 21.6202 101.214 20.9351C101.214 20.7037 101.602 17.4647 101.573 17.5399C101.276 18.9833 100.889 20.407 100.416 21.8027C100.312 22.0398 99.9014 22.2365 99.8378 22.1324L100.127 21.1954C100.381 20.3914 99.8551 16.5682 99.8089 15.8683C99.7105 15.9088 99.3809 19.6973 99.3057 19.8708C99.242 19.9229 98.519 21.6465 98.0679 21.8721C98.1951 21.2243 98.5132 19.7956 98.5595 19.6568C98.6058 19.518 98.3224 15.18 98.2761 15.2031C98.1778 15.4808 98.2761 17.7018 97.6977 19.1131C97.3622 19.8708 96.9284 20.7269 96.5756 20.9177C96.7486 20.4677 96.8727 20.0004 96.9458 19.5238C97.1482 18.072 96.7549 11.6113 96.5872 15.4345C96.5004 17.2969 95.0891 19.3214 95.0891 19.3214C96.1013 15.8509 95.0139 11.4146 94.985 11.4898C94.9561 11.565 94.8173 14.6074 94.476 16.493C94.262 17.7076 92.6598 19.1247 92.6656 19.0958C93.1868 17.7505 93.5178 16.3391 93.6489 14.9024C93.6894 12.8548 92.5904 10.4255 92.4053 9.81243C92.307 9.87027 92.5962 13.2828 91.96 15.394C91.6489 16.3189 91.262 17.2166 90.8032 18.0778C91.0047 16.505 91.0435 14.9156 90.9188 13.3349C90.641 11.7402 90.1669 10.186 89.5075 8.70768C89.4613 8.8465 90.0859 13.4274 89.039 16.1459C88.7845 16.8227 88.264 17.8291 88.264 17.8291C88.5994 16.7532 89.3456 14.1909 88.8713 11.9236C88.5011 10.1884 86.8816 7.7591 86.8816 7.7591C86.8816 7.7591 87.5872 10.2231 87.5815 10.5239C88.2813 13.6067 86.8295 17.1523 86.5114 17.3664C86.5114 17.002 86.5114 8.62092 83.3533 6.71798C83.3533 6.71798 85.6669 11.0444 84.9208 14.8156" fill="#BBB6B4"/>
<path fill-rule="evenodd" clip-rule="evenodd" d="M98.2761 7.86305L100.15 0.5L99.4502 8.06549L103.036 5.93119L99.8262 8.59762L107.189 10.4659L99.6238 9.77178L101.758 13.3579L99.0916 10.1477L97.2176 17.5108L97.9175 9.9453L94.3314 12.0796L97.5415 9.41317L90.1785 7.53915L97.744 8.23901L95.6097 4.65292L98.2761 7.86305Z" fill="#BBB6B4"/>
<path fill-rule="evenodd" clip-rule="evenodd" d="M12.6842 62.6725C12.7035 63.6471 12.4914 64.6125 12.0653 65.4893C11.6407 66.3359 10.969 67.0338 10.1393 67.4906C9.11642 68.0257 7.97308 68.2886 6.81923 68.254H0.612976V49.294H6.81923C7.97336 49.2566 9.11743 49.5196 10.1393 50.0575C10.9711 50.5116 11.6434 51.2102 12.0653 52.0588C12.4905 52.9339 12.7026 53.8971 12.6842 54.8698V62.6725ZM9.67075 62.3891V55.188C9.72012 54.3496 9.45163 53.5235 8.91882 52.8743C8.61344 52.5652 8.24524 52.3251 7.83912 52.1705C7.433 52.0158 6.99842 51.9501 6.56473 51.9778H3.63223V65.5298H6.56473C6.99315 65.5643 7.42405 65.5085 7.82956 65.366C8.23506 65.2236 8.60615 64.9976 8.91882 64.7027C9.45523 64.0555 9.7242 63.2279 9.67075 62.3891Z" fill="#1D1D1B"/>
<path d="M18.6534 49.2939H15.6341V68.2597H18.6534V49.2939Z" fill="#1D1D1B"/>
<path fill-rule="evenodd" clip-rule="evenodd" d="M34.2181 68.254H32.1127L26.67 59.202L24.7323 55.7258V68.254H21.8866V49.2939H24.2233L29.5215 58.5194L31.3724 61.9899V49.2939H34.2181V68.254Z" fill="#1D1D1B"/>
<path fill-rule="evenodd" clip-rule="evenodd" d="M49.1987 68.254H46.1332L44.9128 63.3607H40.0426L38.8858 68.254H35.8955L40.9045 49.2939H44.0972L49.1987 68.254ZM44.2997 60.8504L42.4488 53.389L40.6558 60.8504H44.2997Z" fill="#1D1D1B"/>
<path fill-rule="evenodd" clip-rule="evenodd" d="M61.0213 52.0239H53.8433V57.4898H59.3381V60.1099H53.8433V68.2828H50.824V49.3228H61.0213V52.0239Z" fill="#1D1D1B"/>
<path fill-rule="evenodd" clip-rule="evenodd" d="M73.1908 68.254H62.9415V49.2939H73.1908V51.9951H65.955V56.9809H71.1664V59.5432H65.955V65.547H73.1908V68.254Z" fill="#1D1D1B"/>
<path fill-rule="evenodd" clip-rule="evenodd" d="M91.8269 68.254H89.12V53.2791L88.183 57.033L85.1637 68.254H82.1734L79.2409 57.033L78.2981 53.2791V68.254H75.597V49.2939H79.7788L82.827 61.1917L83.7409 64.9802L84.649 61.1685L87.6451 49.2939H91.8269V68.254Z" fill="#1D1D1B"/>
<path fill-rule="evenodd" clip-rule="evenodd" d="M105.269 62.8863C105.28 63.598 105.145 64.3046 104.873 64.9622C104.6 65.6198 104.196 66.2145 103.684 66.7095C102.548 67.748 101.052 68.3021 99.5139 68.2538C98.005 68.3051 96.5315 67.7892 95.3841 66.8078C94.8805 66.3492 94.4803 65.7885 94.21 65.1633C93.9398 64.538 93.8057 63.8624 93.8167 63.1813V62.3137H96.6682V62.6144C96.6682 64.7661 97.6438 65.8323 99.5949 65.813C99.9711 65.835 100.348 65.7819 100.703 65.6568C101.059 65.5316 101.386 65.337 101.666 65.0842C101.901 64.8344 102.085 64.5398 102.205 64.218C102.325 63.8961 102.38 63.5534 102.365 63.2102C102.385 62.865 102.332 62.5197 102.21 62.1961C102.089 61.8725 101.901 61.5777 101.66 61.3304C100.851 60.6148 99.9234 60.047 98.9182 59.653C98.1144 59.2955 97.3407 58.8738 96.6046 58.3921C95.8956 57.939 95.284 57.3491 94.8057 56.6569C94.3227 55.9351 94.0687 55.0845 94.0769 54.216C94.0664 53.5713 94.1871 52.9312 94.4317 52.3346C94.6763 51.738 95.0397 51.1974 95.4998 50.7456C96.5914 49.7546 98.0292 49.2331 99.5024 49.2938C100.99 49.2407 102.443 49.7532 103.569 50.7283C104.064 51.1933 104.457 51.7576 104.72 52.3845C104.983 53.0114 105.111 53.6867 105.095 54.3664V55.0721H102.325V54.7713C102.361 53.9966 102.121 53.2343 101.648 52.6196C101.366 52.3078 101.017 52.0637 100.628 51.9054C100.238 51.7472 99.8179 51.679 99.3982 51.7058C99.0613 51.6852 98.7236 51.7319 98.4048 51.8431C98.086 51.9543 97.7926 52.1279 97.5416 52.3536C97.1216 52.8252 96.9023 53.4422 96.9304 54.0731C96.9585 54.704 97.2317 55.299 97.692 55.7314C98.6382 56.4654 99.6766 57.0721 100.781 57.5361C102.067 58.07 103.234 58.8568 104.211 59.8497C104.929 60.6918 105.303 61.7743 105.257 62.8805" fill="#BBB6B4"/>
<path fill-rule="evenodd" clip-rule="evenodd" d="M116.571 67.791H106.802V49.7275H116.571V52.3014H109.676V57.0501H114.645V59.491H109.676V65.2171H116.571V67.791Z" fill="#BBB6B4"/>
<path fill-rule="evenodd" clip-rule="evenodd" d="M141.361 62.4759C141.379 63.4032 141.181 64.3219 140.783 65.1597C140.376 65.9664 139.735 66.6316 138.944 67.0684C137.971 67.5779 136.883 67.8289 135.785 67.7972H129.857V49.7279H135.774C136.871 49.6924 137.959 49.9415 138.932 50.4509C139.723 50.8878 140.364 51.553 140.771 52.3597C141.168 53.1977 141.366 54.1162 141.35 55.0435L141.361 62.4759ZM138.469 62.2041V55.3442C138.523 54.5458 138.273 53.7565 137.769 53.1347C137.474 52.8479 137.122 52.6273 136.735 52.4876C136.348 52.348 135.935 52.2925 135.525 52.325H132.731V65.2407H135.525C135.935 65.2709 136.346 65.215 136.732 65.0765C137.119 64.938 137.472 64.7201 137.769 64.4367C138.282 63.8189 138.539 63.0283 138.487 62.2272" fill="#BBB6B4"/>
<path fill-rule="evenodd" clip-rule="evenodd" d="M142.582 62.8865C142.57 63.5983 142.705 64.3048 142.978 64.9624C143.25 65.62 143.655 66.2147 144.166 66.7097C145.302 67.7482 146.799 68.3023 148.337 68.2541C149.846 68.3053 151.319 67.7894 152.467 66.8081C152.969 66.3487 153.369 65.7879 153.639 65.1628C153.909 64.5377 154.044 63.8624 154.034 63.1815V62.3139H151.182V62.6147C151.182 64.7663 150.207 65.8325 148.256 65.8132C147.88 65.8361 147.504 65.7833 147.149 65.6582C146.795 65.533 146.469 65.3379 146.191 65.0844C145.953 64.8358 145.768 64.5416 145.646 64.2196C145.525 63.8975 145.47 63.5542 145.485 63.2104C145.465 62.8651 145.517 62.5194 145.638 62.1956C145.76 61.8717 145.948 61.5771 146.191 61.3306C146.999 60.615 147.927 60.0472 148.932 59.6532C149.736 59.2957 150.51 58.874 151.246 58.3923C151.956 57.9378 152.569 57.3482 153.051 56.6571C153.529 55.9337 153.781 55.0837 153.774 54.2163C153.784 53.5716 153.664 52.9314 153.419 52.3348C153.174 51.7382 152.811 51.1976 152.351 50.7459C151.258 49.7534 149.818 49.2318 148.343 49.2941C146.846 49.2332 145.384 49.7463 144.253 50.7285C143.758 51.1944 143.367 51.7589 143.104 52.3856C142.841 53.0123 142.712 53.6872 142.726 54.3666V55.0723H145.497V54.7715C145.466 53.9966 145.707 53.2354 146.179 52.6199C146.46 52.3078 146.808 52.0635 147.196 51.9052C147.585 51.7469 148.005 51.6788 148.423 51.706C148.76 51.6861 149.098 51.7331 149.417 51.8443C149.735 51.9554 150.029 52.1286 150.28 52.3538C150.485 52.5659 150.645 52.8171 150.75 53.0924C150.855 53.3677 150.904 53.6614 150.893 53.956C150.912 54.2909 150.853 54.6257 150.721 54.9338C150.588 55.242 150.386 55.5152 150.13 55.7317C149.184 56.4657 148.145 57.0724 147.041 57.5363C145.755 58.0703 144.588 58.857 143.611 59.8499C142.893 60.692 142.519 61.7746 142.564 62.8807" fill="#BBB6B4"/>
<path fill-rule="evenodd" clip-rule="evenodd" d="M117.959 67.7968H127.728V49.7275H117.959V52.3072H124.854V57.0559H119.891V59.4967H124.854V65.2229H117.959V67.7968Z" fill="#BBB6B4"/>
<path fill-rule="evenodd" clip-rule="evenodd" d="M156.365 51.8851C156.47 51.9022 156.578 51.9022 156.683 51.8851C156.741 51.8851 156.764 51.8099 156.764 51.7116V49.9764C156.769 49.9437 156.763 49.9104 156.747 49.8813C156.731 49.8522 156.707 49.8288 156.677 49.8145C156.574 49.785 156.466 49.7732 156.359 49.7798V49.6062H157.516C157.767 49.5962 158.016 49.6521 158.239 49.7682C158.325 49.8129 158.397 49.8812 158.446 49.9652C158.496 50.0491 158.52 50.1453 158.517 50.2425C158.516 50.3221 158.496 50.4004 158.458 50.4701C158.419 50.5399 158.364 50.5988 158.297 50.6416C158.125 50.7578 157.925 50.8257 157.718 50.8382C157.857 50.8752 157.984 50.9481 158.085 51.0497C158.187 51.1512 158.26 51.2778 158.297 51.4166C158.378 51.7232 158.453 51.8736 158.505 51.8736C158.541 51.8734 158.576 51.8614 158.604 51.8395C158.632 51.8175 158.652 51.7868 158.661 51.7521C158.688 51.6497 158.705 51.5452 158.713 51.4398H158.858C158.856 51.5735 158.826 51.7054 158.771 51.8273C158.732 51.9017 158.671 51.9628 158.597 52.0029C158.523 52.0431 158.439 52.0604 158.355 52.0529C158.28 52.0638 158.205 52.0526 158.137 52.0207C158.069 51.9888 158.012 51.9377 157.973 51.8736C157.918 51.7256 157.89 51.5687 157.892 51.4108C157.897 51.3277 157.885 51.2444 157.858 51.1659C157.83 51.0873 157.786 51.0153 157.73 50.9539C157.56 50.8698 157.369 50.8376 157.181 50.8614V51.6769C157.177 51.7154 157.187 51.754 157.208 51.7864C157.229 51.8189 157.26 51.8435 157.296 51.8562C157.394 51.8698 157.493 51.8698 157.591 51.8562V51.995H156.377L156.365 51.8851ZM156.232 52.1396C156.401 52.3101 156.603 52.4455 156.825 52.5378C157.046 52.6302 157.284 52.6777 157.525 52.6777C157.765 52.6777 158.003 52.6302 158.225 52.5378C158.447 52.4455 158.648 52.3101 158.817 52.1396C158.991 51.9725 159.128 51.771 159.22 51.5479C159.312 51.3248 159.356 51.0851 159.35 50.844C159.356 50.4767 159.251 50.1162 159.049 49.8093C158.847 49.5024 158.558 49.2634 158.218 49.1236C157.878 48.9837 157.504 48.9494 157.145 49.0252C156.786 49.101 156.457 49.2833 156.203 49.5484C156.029 49.7155 155.892 49.917 155.8 50.1401C155.709 50.3632 155.665 50.6029 155.671 50.844C155.666 51.0859 155.712 51.3262 155.806 51.5493C155.899 51.7724 156.039 51.9735 156.215 52.1396H156.232ZM156.041 49.3922C156.372 49.0507 156.811 48.8346 157.283 48.7808C157.756 48.727 158.232 48.8387 158.631 49.097C159.031 49.3553 159.328 49.7441 159.472 50.1971C159.617 50.6501 159.599 51.1392 159.423 51.5809C159.247 52.0226 158.924 52.3895 158.507 52.6191C158.091 52.8486 157.608 52.9266 157.14 52.8396C156.673 52.7526 156.25 52.5061 155.944 52.1422C155.638 51.7783 155.468 51.3194 155.463 50.844C155.456 50.5755 155.504 50.3085 155.603 50.059C155.703 49.8095 155.852 49.5826 156.041 49.3922ZM157.776 50.6647C157.862 50.6257 157.932 50.56 157.977 50.4777C158.022 50.3953 158.039 50.3006 158.025 50.2078C158.028 50.1439 158.018 50.08 157.995 50.0203C157.972 49.9606 157.937 49.9062 157.892 49.8607C157.771 49.7704 157.621 49.7273 157.47 49.7393C157.389 49.7378 157.308 49.7516 157.233 49.7798C157.203 49.7948 157.18 49.8183 157.164 49.8472C157.149 49.8762 157.142 49.9091 157.146 49.9417V50.7283C157.358 50.74 157.571 50.7185 157.776 50.6647Z" fill="#BBB6B4"/>
<path d="M56.5271 82.3784H55.0348V77.6008C55.0303 77.3547 55.0497 77.1087 55.0926 76.8662L53.5078 77.2769L53.3343 76.2763L55.0348 75.5938H56.5271V82.3784Z" fill="#00A19A"/>
<path d="M63.1729 76.7563H60.3908L60.3156 77.9883L61.2873 78.104C61.9029 78.1195 62.4915 78.3603 62.9415 78.7807C63.2864 79.2123 63.4594 79.7562 63.4274 80.3077C63.4274 81.7691 62.6388 82.4999 61.0617 82.4999C60.3031 82.4894 59.5466 82.4159 58.8002 82.2801L58.9332 81.1233C59.662 81.1985 60.2462 81.2389 60.6684 81.2389C61.0126 81.2768 61.3597 81.2016 61.6575 81.0249C61.7507 80.9253 61.8229 80.8079 61.8696 80.6796C61.9163 80.5514 61.9367 80.4151 61.9293 80.2788C61.9293 79.8681 61.8541 79.6079 61.6401 79.4922C61.2281 79.3253 60.789 79.2352 60.3445 79.2261L59.5174 79.1278C59.4503 79.1235 59.3848 79.1054 59.3251 79.0745C59.2653 79.0437 59.2126 79.0008 59.1703 78.9485C59.1262 78.8981 59.0927 78.8394 59.0719 78.7758C59.051 78.7122 59.0432 78.645 59.0489 78.5783L59.2166 75.5938H63.2076L63.1729 76.7563Z" fill="#00A19A"/>
<path d="M70.964 80.0014V82.3787H70.0964V79.9899L67.8464 75.594H68.7718L70.1947 78.4571C70.3111 78.7076 70.4135 78.9644 70.5012 79.2264H70.5996C70.7037 78.9372 70.802 78.6827 70.9003 78.4687L72.329 75.5767H73.2429L70.964 80.0014Z" fill="#1D1D1B"/>
<path d="M79.2756 81.6614L79.3103 82.3324C78.7319 82.3729 77.7428 82.3902 76.4183 82.3902C76.0729 82.4104 75.7331 82.2965 75.4697 82.0721C75.3533 81.9612 75.2614 81.8274 75.1996 81.679C75.1379 81.5306 75.1077 81.371 75.1111 81.2103V76.7682C75.1077 76.6075 75.1379 76.4479 75.1996 76.2995C75.2614 76.1511 75.3533 76.0172 75.4697 75.9063C75.7331 75.682 76.0729 75.568 76.4183 75.5882C77.7602 75.5882 78.7319 75.5882 79.3103 75.6461L79.2756 76.3228H76.5513C76.158 76.3228 75.9729 76.5426 75.9729 76.9764V78.4513H78.8996V79.1627H75.9729V81.0252C75.9729 81.459 76.1696 81.6788 76.5513 81.6788L79.2756 81.6614Z" fill="#1D1D1B"/>
<path d="M85.2216 80.2557H82.4279L81.757 82.3784H80.8605L83.0468 75.8309C83.0609 75.7578 83.1021 75.6928 83.1622 75.6488C83.2223 75.6048 83.2968 75.5851 83.3707 75.5938H84.273C84.347 75.5851 84.4215 75.6048 84.4816 75.6488C84.5416 75.6928 84.5828 75.7578 84.5969 75.8309L86.7949 82.3784H85.8983L85.2216 80.2557ZM84.9845 79.5096L84.1284 76.8142C84.0706 76.6465 84.0128 76.4614 83.9607 76.2647H83.6831L83.5153 76.8142L82.6651 79.5096H84.9845Z" fill="#1D1D1B"/>
<path d="M93.4985 82.3784H92.5789L92.0004 80.2557C91.9454 80.0436 91.8262 79.8538 91.6592 79.712C91.4908 79.5931 91.2865 79.5359 91.0808 79.55H89.5885V82.39H88.7325V75.5937C89.282 75.5359 90.0628 75.507 91.0461 75.507C91.6437 75.4491 92.2433 75.5959 92.7466 75.9234C92.9334 76.1301 93.0739 76.3742 93.1587 76.6396C93.2435 76.9049 93.2706 77.1853 93.2382 77.462C93.2714 77.8982 93.1705 78.3341 92.949 78.7113C92.8357 78.8591 92.6917 78.9806 92.527 79.0675C92.3622 79.1544 92.1806 79.2045 91.9947 79.2145V79.2666C92.1886 79.3205 92.3618 79.4313 92.4921 79.5847C92.6556 79.7719 92.7708 79.9963 92.8276 80.2383L93.4985 82.3784ZM89.5769 78.8039H91.0403C91.413 78.8385 91.7859 78.7402 92.093 78.5262C92.2048 78.3846 92.2874 78.2223 92.336 78.0485C92.3847 77.8748 92.3984 77.6931 92.3764 77.514C92.3975 77.3368 92.3833 77.1571 92.3347 76.9854C92.286 76.8137 92.2039 76.6533 92.093 76.5134C91.7832 76.3065 91.4108 76.2144 91.0403 76.2531H89.5769V78.8039Z" fill="#1D1D1B"/>
<path d="M98.2067 79.5098L96.8012 79.1628C96.3916 79.0881 96.0257 78.8607 95.7774 78.5265C95.5499 78.151 95.441 77.7156 95.4651 77.2772C95.4555 76.9547 95.4964 76.6326 95.5865 76.3228C95.6588 76.099 95.8085 75.9083 96.0088 75.7849C96.2147 75.6614 96.4425 75.5789 96.6797 75.542C97.0074 75.497 97.3381 75.4777 97.6688 75.4841C98.3445 75.4851 99.0185 75.551 99.6816 75.6808L99.6238 76.3112C98.9875 76.2765 98.3513 76.2592 97.7093 76.2592C97.4201 76.2592 97.206 76.2592 97.0672 76.2592C96.9263 76.2726 96.7891 76.3119 96.6624 76.3749C96.6002 76.4068 96.5452 76.4509 96.5005 76.5046C96.4557 76.5582 96.4223 76.6203 96.4021 76.6872C96.3551 76.8763 96.3337 77.0708 96.3384 77.2656C96.3138 77.5344 96.3811 77.8036 96.5293 78.0291C96.71 78.2105 96.9423 78.3317 97.1945 78.3761L98.5711 78.7174C98.9929 78.7926 99.372 79.0213 99.6353 79.3594C99.8579 79.7429 99.9625 80.1835 99.9361 80.6261C99.9749 80.896 99.9496 81.1712 99.8622 81.4295C99.7747 81.6878 99.6277 81.9218 99.4329 82.1126C98.9012 82.3973 98.299 82.5237 97.6977 82.477C96.9918 82.4769 96.2873 82.415 95.5923 82.2919L95.6501 81.6499C96.7549 81.6904 97.4432 81.7077 97.7266 81.7019C98.1015 81.7374 98.4787 81.6652 98.814 81.4937C98.9234 81.3763 99.005 81.2358 99.0531 81.0827C99.1011 80.9296 99.1143 80.7676 99.0916 80.6088C99.1194 80.3343 99.052 80.0586 98.9008 79.8279C98.7081 79.6524 98.4655 79.5412 98.2067 79.5098Z" fill="#1D1D1B"/>
</g>
<defs>
<clipPath id="clip0">
<rect width="160" height="82" fill="white" transform="translate(0.0940552 0.5)"/>
</clipPath>
</defs>
</svg>
