<svg width="100" height="100" viewBox="0 0 100 100" fill="none" xmlns="http://www.w3.org/2000/svg">
<path d="M30.32 52.64C18.01 52.64 8 42.63 8 30.32C8 18.01 18.01 8 30.32 8C42.63 8 52.64 18.01 52.64 30.32C52.64 42.63 42.63 52.64 30.32 52.64ZM30.32 9.54C18.86 9.54 9.54 18.86 9.54 30.32C9.54 41.78 18.86 51.1 30.32 51.1C41.78 51.1 51.1 41.78 51.1 30.32C51.11 18.86 41.78 9.54 30.32 9.54Z" fill="#46587A" stroke="#46587A"/>
<path d="M26.47 12.26V48.39C27.71 48.65 29 48.8 30.32 48.8C31.64 48.8 32.93 48.66 34.17 48.39V12.26C32.93 12 31.64 11.85 30.32 11.85C29 11.85 27.71 11.99 26.47 12.26Z" fill="#F2C94C" stroke="#46587A"/>
<path d="M34.17 49.16C33.74 49.16 33.4 48.82 33.4 48.39V12.26C33.4 11.83 33.75 11.49 34.17 11.49C34.59 11.49 34.94 11.83 34.94 12.26V48.39C34.94 48.82 34.6 49.16 34.17 49.16Z" fill="#46587A" stroke="#46587A"/>
<path d="M26.4699 49.16C26.0499 49.16 25.7 48.82 25.7 48.39V12.26C25.7 11.83 26.0399 11.49 26.4699 11.49C26.8999 11.49 27.24 11.83 27.24 12.26V48.39C27.24 48.82 26.8999 49.16 26.4699 49.16Z" fill="#46587A" stroke="#46587A"/>
<path d="M26.47 24.98L20.05 20.7C18.99 19.99 17.55 20.28 16.85 21.34C16.14 22.4 16.43 23.84 17.49 24.54L26.47 30.53V24.98Z" fill="#F2C94C" stroke="#46587A"/>
<path d="M26.47 31.3C26.32 31.3 26.17 31.25 26.04 31.17L17.06 25.18C15.65 24.24 15.26 22.32 16.2 20.91C16.66 20.23 17.35 19.76 18.16 19.6C18.97 19.44 19.79 19.6 20.47 20.06L26.89 24.34C27.1 24.48 27.23 24.72 27.23 24.98V30.53C27.23 30.82 27.07 31.08 26.82 31.21C26.72 31.27 26.6 31.3 26.47 31.3ZM18.78 21.08C18.68 21.08 18.58 21.09 18.48 21.11C18.08 21.19 17.73 21.42 17.5 21.77C17.03 22.48 17.22 23.43 17.93 23.9L25.71 29.09V25.39L19.64 21.34C19.37 21.17 19.08 21.08 18.78 21.08Z" fill="#46587A" stroke="#46587A"/>
<path d="M43.79 32.12C43.08 31.06 41.65 30.77 40.59 31.48L34.17 35.76V41.31L43.15 35.32C44.21 34.62 44.5 33.18 43.79 32.12Z" fill="#F2C94C" stroke="#46587A"/>
<path d="M34.17 42.08C34.05 42.08 33.92 42.05 33.81 41.99C33.56 41.86 33.4 41.59 33.4 41.31V35.76C33.4 35.5 33.53 35.26 33.74 35.12L40.16 30.84C40.84 30.38 41.67 30.22 42.47 30.38C43.28 30.54 43.97 31.01 44.43 31.69C45.37 33.11 44.99 35.02 43.58 35.96L34.6 41.95C34.47 42.04 34.32 42.08 34.17 42.08ZM34.94 36.17V39.87L42.72 34.68C43.43 34.21 43.62 33.25 43.15 32.54C42.92 32.2 42.57 31.96 42.17 31.89C41.77 31.81 41.36 31.89 41.01 32.12L34.94 36.17Z" fill="#46587A" stroke="#46587A"/>
<path d="M70.35 92.67C58.04 92.67 48.03 82.66 48.03 70.35C48.03 58.04 58.04 48.02 70.35 48.02C82.66 48.02 92.67 58.03 92.67 70.35C92.67 82.66 82.66 92.67 70.35 92.67ZM70.35 49.57C58.89 49.57 49.57 58.89 49.57 70.35C49.57 81.81 58.89 91.13 70.35 91.13C81.81 91.13 91.13 81.8 91.13 70.35C91.13 58.89 81.81 49.57 70.35 49.57Z" fill="#46587A" stroke="#46587A"/>
<path d="M68.04 52.03V88.66C68.8 88.76 69.56 88.82 70.35 88.82C71.13 88.82 71.9 88.76 72.66 88.66V52.03C71.9 51.94 71.14 51.87 70.35 51.87C69.56 51.88 68.8 51.94 68.04 52.03Z" fill="#6FCF97" stroke="#46587A"/>
<path d="M72.66 89.43C72.24 89.43 71.89 89.09 71.89 88.66V52.03C71.89 51.6 72.24 51.26 72.66 51.26C73.08 51.26 73.43 51.6 73.43 52.03V88.66C73.43 89.09 73.08 89.43 72.66 89.43Z" fill="#46587A" stroke="#46587A"/>
<path d="M68.04 89.43C67.61 89.43 67.27 89.09 67.27 88.66V52.03C67.27 51.6 67.62 51.26 68.04 51.26C68.46 51.26 68.81 51.6 68.81 52.03V88.66C68.81 89.09 68.46 89.43 68.04 89.43Z" fill="#46587A" stroke="#46587A"/>
<path d="M68.04 70.65L60.08 65.35C59.02 64.64 57.58 64.93 56.88 65.99C56.17 67.05 56.46 68.49 57.52 69.19L68.04 76.2V70.65V70.65Z" fill="#6FCF97" stroke="#46587A"/>
<path d="M68.04 76.97C67.89 76.97 67.74 76.93 67.61 76.84L57.09 69.83C55.68 68.89 55.29 66.97 56.23 65.56C56.69 64.88 57.38 64.41 58.19 64.25C59 64.09 59.82 64.25 60.5 64.71L68.46 70.02C68.67 70.16 68.8 70.4 68.8 70.66V76.21C68.8 76.49 68.64 76.76 68.39 76.89C68.29 76.94 68.16 76.97 68.04 76.97ZM58.81 65.73C58.71 65.73 58.61 65.74 58.5 65.76C58.1 65.84 57.75 66.07 57.52 66.41C57.29 66.75 57.21 67.17 57.29 67.57C57.37 67.97 57.6 68.32 57.95 68.55L67.27 74.77V71.07L59.66 65.99C59.4 65.82 59.1 65.73 58.81 65.73Z" fill="#46587A" stroke="#46587A"/>
<path d="M59.1 70.25L54.53 72.99C53.44 73.65 53.08 75.06 53.74 76.16C54.17 76.88 54.94 77.28 55.72 77.28C56.12 77.28 56.53 77.18 56.9 76.96L63.34 73.09L59.1 70.25Z" fill="#6FCF97" stroke="#46587A"/>
<path d="M55.72 78.05C54.64 78.05 53.63 77.47 53.08 76.55C52.21 75.09 52.68 73.2 54.13 72.33L58.7 69.58C58.95 69.42 59.27 69.4399 59.52 69.5999L63.77 72.44C63.99 72.59 64.12 72.8399 64.11 73.0999C64.1 73.3699 63.96 73.6099 63.74 73.7399L57.3 77.5999C56.83 77.8999 56.28 78.05 55.72 78.05ZM59.08 71.1599L54.93 73.65C54.2 74.09 53.97 75.03 54.4 75.76C54.82 76.46 55.8 76.71 56.51 76.29L61.91 73.05L59.08 71.1599Z" fill="#46587A" stroke="#46587A"/>
</svg>
