<svg width="100" height="100" viewBox="0 0 100 100" fill="none" xmlns="http://www.w3.org/2000/svg">
<path d="M30.3 52.6C18 52.6 8 42.6 8 30.3C8 18 18 8 30.3 8C42.6 8 52.6 18 52.6 30.3C52.6 42.6 42.6 52.6 30.3 52.6ZM30.3 9.5C18.8 9.5 9.5 18.8 9.5 30.3C9.5 41.8 18.8 51.1 30.3 51.1C41.8 51.1 51.1 41.8 51.1 30.3C51.1 18.9 41.8 9.5 30.3 9.5Z" fill="#46587A" stroke="#46587A"/>
<path d="M34.2 49.2C33.8 49.2 33.4 48.9 33.4 48.4V12.3C33.4 11.9 33.7 11.5 34.2 11.5C34.6 11.5 35 11.8 35 12.3V48.4C34.9 48.8 34.6 49.2 34.2 49.2Z" fill="#46587A" stroke="#46587A"/>
<path d="M26.5 49.2C26.1 49.2 25.7 48.9 25.7 48.4V12.3C25.7 11.9 26 11.5 26.5 11.5C26.9 11.5 27.2999 11.8 27.2999 12.3V48.4C27.1999 48.8 26.9 49.2 26.5 49.2Z" fill="#46587A" stroke="#46587A"/>
<path d="M26.5001 25L20.1001 20.7C19.0001 20 17.6001 20.3 16.9001 21.3C16.2001 22.4 16.5001 23.8 17.5001 24.5L26.5001 30.5V25Z" stroke="#46587A"/>
<path d="M26.5 31.3001C26.3 31.3001 26.2 31.3001 26.1 31.2001L17.1 25.2001C15.7 24.3001 15.3 22.3001 16.2 20.9001C16.7 20.2001 17.4 19.8001 18.2 19.6001C19 19.4001 19.8 19.6001 20.5 20.1001L26.9 24.4001C27.1 24.5001 27.2 24.8001 27.2 25.0001V30.6001C27.2 30.9001 27 31.1001 26.8 31.3001C26.7 31.3001 26.6 31.3001 26.5 31.3001ZM18.8 21.1001C18.7 21.1001 18.6 21.1001 18.5 21.1001C18.1 21.2001 17.7 21.4001 17.5 21.8001C17 22.5001 17.2 23.5001 17.9 23.9001L25.7 29.1001V25.4001L19.6 21.4001C19.4 21.2001 19.1 21.1001 18.8 21.1001Z" fill="#46587A" stroke="#46587A"/>
<path d="M43.7999 32.1C43.0999 31 41.6999 30.8 40.5999 31.5L34.2 35.8V41.4L43.2 35.4C44.2 34.6 44.4999 33.2 43.7999 32.1Z" stroke="#46587A"/>
<path d="M34.2 42.1C34.1 42.1 34 42.1 33.8 42C33.6 41.9 33.4 41.6 33.4 41.3V35.7C33.4 35.4 33.5 35.2 33.7 35.1L40.1 30.8C40.8 30.3 41.6 30.2 42.4 30.3C43.2 30.5 43.9 30.9 44.4 31.6C45.3 33 45 34.9 43.5 35.9L34.5 41.9C34.5 42 34.3 42.1 34.2 42.1ZM34.9 36.2V39.9L42.7 34.7C43.4 34.2 43.6 33.3 43.1 32.6C42.9 32.3 42.5 32 42.1 31.9C41.7 31.8 41.3 31.9 40.9 32.1L34.9 36.2Z" fill="#46587A" stroke="#46587A"/>
<path d="M70.3 92.7C58 92.7 48 82.7 48 70.3C48 58 58 48 70.3 48C82.6 48 92.6 58 92.6 70.3C92.7 82.7 82.7 92.7 70.3 92.7ZM70.3 49.6C58.8 49.6 49.5 58.9 49.5 70.4C49.5 81.9 58.8 91.2 70.3 91.2C81.8 91.2 91.1 81.9 91.1 70.4C91.1 58.9 81.8 49.6 70.3 49.6Z" fill="#46587A" stroke="#46587A"/>
<path d="M72.7 89.4C72.3 89.4 71.9 89.0999 71.9 88.5999V52C71.9 51.6 72.2 51.2 72.7 51.2C73.1 51.2 73.5 51.5 73.5 52V88.5999C73.4 89.0999 73.1 89.4 72.7 89.4Z" fill="#46587A" stroke="#46587A"/>
<path d="M68 89.4C67.6 89.4 67.2 89.0999 67.2 88.5999V52C67.2 51.6 67.5 51.2 68 51.2C68.4 51.2 68.7999 51.5 68.7999 52V88.5999C68.7999 89.0999 68.5 89.4 68 89.4Z" fill="#46587A" stroke="#46587A"/>
<path d="M68 70.7001L60 65.4001C58.9 64.7001 57.5 65.0001 56.8 66.0001C56.1 67.1001 56.4 68.5001 57.4 69.2001L67.9 76.2V70.7001H68Z" stroke="#46587A"/>
<path d="M68 77C67.8 77 67.7 77 67.6 76.9L57.1 69.9C55.7 69 55.3 67 56.2 65.6C56.7 64.9 57.4 64.5 58.2 64.3C59 64.1 59.8 64.3 60.5 64.8L68.5 70.1C68.7 70.2 68.8 70.5 68.8 70.7V76.2C68.8 76.5 68.6 76.7 68.4 76.9C68.3 76.9 68.2 77 68 77ZM58.8 65.7C58.7 65.7 58.6 65.7 58.5 65.7C58.1 65.8 57.7 66 57.5 66.4C57.3 66.7 57.2 67.2 57.3 67.6C57.4 68 57.6 68.4 58 68.6L67.3 74.8V71.1L59.7 66C59.4 65.8 59.1 65.7 58.8 65.7Z" fill="#46587A" stroke="#46587A"/>
<path d="M59.1 70.2L54.5001 73C53.4001 73.7 53.1001 75.0999 53.7001 76.1999C54.1001 76.8999 54.9001 77.3 55.7001 77.3C56.1001 77.3 56.5001 77.2 56.9001 77L63.3 73.0999L59.1 70.2Z" stroke="#46587A"/>
<path d="M55.7001 78C54.6001 78 53.6001 77.4 53.1001 76.5C52.2001 75 52.7001 73.1 54.2001 72.3L58.8001 69.6C59.1001 69.4 59.4001 69.5 59.6001 69.6L63.9001 72.4C64.1001 72.5 64.2001 72.8 64.2001 73.1C64.2001 73.4 64.1001 73.6 63.8001 73.7L57.4001 77.6C56.8001 77.9 56.3001 78 55.7001 78ZM59.1001 71.2L54.9001 73.7C54.2001 74.1 53.9001 75.1 54.4001 75.8C54.8001 76.5 55.8001 76.8 56.5001 76.3L61.9001 73.1L59.1001 71.2Z" fill="#46587A" stroke="#46587A"/>
</svg>
