<svg width="100" height="100" viewBox="0 0 100 100" fill="none" xmlns="http://www.w3.org/2000/svg">
<path d="M73.6001 88.5H26.6001C24.1001 88.5 22.1001 86.5 22.1001 84V25.6C22.1001 25.2 22.4001 24.8 22.9001 24.8H77.5001C77.9001 24.8 78.3001 25.1 78.3001 25.6V84C78.2001 86.5 76.1001 88.5 73.6001 88.5ZM23.6001 26.4V84C23.6001 85.7001 25.0001 87 26.6001 87H73.6001C75.3001 87 76.6001 85.6 76.6001 84V26.4H23.6001Z" fill="#46587A" stroke="#46587A"/>
<path d="M77.4 26.4H22.8C22.4 26.4 22 26.1 22 25.6V16.5C22 14 24 12 26.5 12H73.5C76 12 78 14 78 16.5V25.6C78.2 26 77.8 26.4 77.4 26.4ZM23.6 24.8H76.7V16.5C76.7 14.8 75.3 13.5 73.7 13.5H26.6C24.9 13.5 23.6 14.9 23.6 16.5V24.8Z" fill="#46587A" stroke="#46587A"/>
<path d="M54.9999 62.0001C54.7999 62.0001 54.5999 61.9001 54.3999 61.8001L50.0999 57.1L45.7999 61.8001C45.5999 62.1001 45.0999 62.1001 44.7999 61.8001C44.4999 61.5001 44.4999 61 44.6999 60.7L49.4999 55.4C49.7999 55.1 50.2999 55.1 50.5999 55.4L55.3999 60.7C55.6999 61 55.6999 61.5001 55.2999 61.8001C55.2999 61.9001 55.0999 62.0001 54.9999 62.0001Z" fill="#46587A" stroke="#46587A"/>
<path d="M50.1 64.3C49.7 64.3 49.3 64 49.3 63.5V55.9C49.3 55.5 49.6 55.1 50.1 55.1C50.5 55.1 50.9 55.4 50.9 55.9V63.5C50.9 63.9 50.5 64.3 50.1 64.3Z" fill="#46587A" stroke="#46587A"/>
<path d="M53.2 43.8C53.2 50.5 50.2 55.9 50.2 55.9C50.2 55.9 47.2 50.5 47.2 43.8C47.2 37.1 50.2 31.7 50.2 31.7C50.2 31.7 53.2 37.1 53.2 43.8Z" stroke="#46587A"/>
<path d="M50.1 56.7C49.8 56.7 49.6 56.6 49.4 56.3C49.3 56.1 46.3 50.6 46.3 43.8C46.3 37 49.3 31.5 49.4 31.3C49.7 30.8 50.5 30.8 50.7 31.3C50.8 31.5 53.8 37 53.8 43.8C53.8 50.6 50.8 56.1 50.7 56.3C50.7 56.5 50.4 56.7 50.1 56.7ZM50.1 33.4C49.2 35.4 47.8 39.3 47.8 43.8C47.8 48.3 49.2 52.2 50.1 54.2C51 52.2 52.4 48.3 52.4 43.8C52.4 39.3 51 35.4 50.1 33.4Z" fill="#46587A" stroke="#46587A"/>
<path d="M56.2001 58.2C52.9001 58.2 50.1001 55.9 50.1001 55.9C50.1001 55.9 52.8001 53.6 56.2001 53.6C59.5001 53.6 62.3001 55.9 62.3001 55.9C62.3001 55.9 59.5001 58.2 56.2001 58.2Z" stroke="#46587A"/>
<path d="M56.2 58.9999C52.6 58.9999 49.8 56.5999 49.6 56.4999C49.4 56.3999 49.3 56.0999 49.3 55.8999C49.3 55.6999 49.4 55.4999 49.6 55.2999C49.7 55.1999 52.6 52.8999 56.2 52.8999C59.8 52.8999 62.6 55.1999 62.8 55.2999C63 55.3999 63.1 55.6999 63.1 55.8999C63.1 56.0999 63 56.2999 62.8 56.4999C62.6 56.5999 59.8 58.9999 56.2 58.9999ZM51.4 55.8999C52.4 56.4999 54.2 57.3999 56.1 57.3999C58.1 57.3999 59.9 56.4999 60.8 55.8999C59.8 55.2999 58 54.3999 56.1 54.3999C54.2 54.3999 52.4 55.2999 51.4 55.8999Z" fill="#46587A" stroke="#46587A"/>
<path d="M44.1 58.2C47.4 58.2 50.2 55.9 50.2 55.9C50.2 55.9 47.5 53.6 44.1 53.6C40.8 53.6 38 55.9 38 55.9C38 55.9 40.7 58.2 44.1 58.2Z" stroke="#46587A"/>
<path d="M44.1 58.9999C40.5 58.9999 37.7 56.5999 37.5 56.4999C37.3 56.3999 37.2 56.0999 37.2 55.8999C37.2 55.6999 37.3 55.4999 37.5 55.2999C37.6 55.1999 40.5 52.8999 44.1 52.8999C47.7 52.8999 50.5 55.1999 50.7 55.2999C50.9 55.3999 51 55.6999 51 55.8999C51 56.0999 50.9 56.2999 50.7 56.4999C50.5 56.5999 47.6 58.9999 44.1 58.9999ZM39.3 55.8999C40.3 56.4999 42.1 57.3999 44 57.3999C46 57.3999 47.8 56.4999 48.7 55.8999C47.7 55.2999 45.9 54.3999 44 54.3999C42.1 54.3999 40.3 55.2999 39.3 55.8999Z" fill="#46587A" stroke="#46587A"/>
<path d="M59.2001 49.9999C55.1001 54.0999 50.1001 55.8999 50.1001 55.8999C50.1001 55.8999 51.9001 50.8999 56.0001 46.7999C60.1001 42.6999 65.1001 40.8999 65.1001 40.8999C65.1001 40.8999 63.4001 45.8999 59.2001 49.9999Z" stroke="#46587A"/>
<path d="M50.1001 56.7C49.9001 56.7 49.7001 56.6 49.6001 56.5C49.4001 56.3 49.3001 56 49.4001 55.7C49.5001 55.5 51.3001 50.5 55.5001 46.3C59.7001 42.1 64.7001 40.3 64.9001 40.2C65.2001 40.1 65.5001 40.2 65.7001 40.4C65.9001 40.6 66.0001 40.9 65.9001 41.2C65.8001 41.4 64.0001 46.4 59.8001 50.6C55.6001 54.8 50.6001 56.6 50.4001 56.7C50.3001 56.7 50.2001 56.7 50.1001 56.7ZM63.7001 42.4C61.9001 43.3 59.1001 44.9 56.6001 47.4C54.1001 49.9 52.5001 52.8 51.6001 54.5C53.4001 53.6 56.2001 52 58.7001 49.5C61.2001 47 62.8001 44.1 63.7001 42.4Z" fill="#46587A" stroke="#46587A"/>
<path d="M41.0001 49.9999C45.1001 54.0999 50.1001 55.8999 50.1001 55.8999C50.1001 55.8999 48.3001 50.8999 44.2001 46.7999C40.1001 42.6999 35.1001 40.8999 35.1001 40.8999C35.1001 40.8999 36.9001 45.8999 41.0001 49.9999Z" stroke="#46587A"/>
<path d="M50.1 56.7C50 56.7 49.9 56.7 49.8 56.7C49.6 56.6 44.6 54.8 40.4 50.6C36.2 46.4 34.4 41.4 34.3 41.2C34.2 40.9 34.3 40.6 34.5 40.4C34.7 40.2 35 40.1 35.3 40.2C35.5 40.3 40.5 42.1 44.7 46.3C48.9 50.5 50.7 55.5 50.8 55.7C50.9 56 50.8 56.3 50.6 56.5C50.5 56.6 50.3 56.7 50.1 56.7ZM36.6 42.4C37.5 44.2 39.1 47 41.6 49.5C44.1 52 47 53.6 48.7 54.5C47.8 52.7 46.2 49.9 43.7 47.4C41.2 44.8 38.3 43.2 36.6 42.4Z" fill="#46587A" stroke="#46587A"/>
<path d="M56.2 21.8H44.1C42.8 21.8 41.8 20.8 41.8 19.5V18C41.8 16.7 42.8 15.7 44.1 15.7H56.2C57.5 15.7 58.5 16.7 58.5 18V19.5C58.5 20.8 57.4 21.8 56.2 21.8ZM44.1 17.3C43.7 17.3 43.3 17.6 43.3 18.1V19.6C43.3 20 43.6 20.4 44.1 20.4H56.2C56.6 20.4 57 20.1 57 19.6V18.1C57 17.7 56.7 17.3 56.2 17.3H44.1Z" fill="#46587A" stroke="#46587A"/>
<path d="M63.8 83.2H36.5C35.7 83.2 35 82.5 35 81.7V71.1C35 70.3 35.7 69.6 36.5 69.6H63.8C64.6 69.6 65.3 70.3 65.3 71.1V81.7C65.3 82.5 64.6 83.2 63.8 83.2Z" stroke="#46587A"/>
<path d="M63.8 84.0001H36.5C35.2 84.0001 34.2 83.0001 34.2 81.7001V71.1001C34.2 69.8001 35.2 68.8 36.5 68.8H63.8C65.1 68.8 66.1 69.8001 66.1 71.1001V81.7001C66 83.0001 65 84.0001 63.8 84.0001ZM36.5 70.3C36.1 70.3 35.7 70.6001 35.7 71.1001V81.7001C35.7 82.1 36 82.5001 36.5 82.5001H63.8C64.2 82.5001 64.6 82.2001 64.6 81.7001V71.1001C64.6 70.7001 64.3 70.3 63.8 70.3H36.5Z" fill="#46587A" stroke="#46587A"/>
<path d="M57.7 74.9001H42.5C42.1 74.9001 41.7 74.6001 41.7 74.1001C41.7 73.7001 42 73.3 42.5 73.3H57.7C58.1 73.3 58.5 73.6001 58.5 74.1001C58.5 74.5001 58.1 74.9001 57.7 74.9001Z" fill="#46587A" stroke="#46587A"/>
<path d="M53.9 79.4001H46.3C45.9 79.4001 45.5 79.1001 45.5 78.6001C45.5 78.2001 45.8 77.8 46.3 77.8H53.9C54.3 77.8 54.7 78.1001 54.7 78.6001C54.7 79.1001 54.3 79.4001 53.9 79.4001Z" fill="#46587A" stroke="#46587A"/>
<path d="M72.9 38.5C72.5 38.5 72.1 38.2 72.1 37.7V30.9H65.3C64.9 30.9 64.5 30.6 64.5 30.1C64.5 29.7 64.8 29.3 65.3 29.3H72.9C73.3 29.3 73.7 29.6 73.7 30.1V37.7C73.6 38.2 73.3 38.5 72.9 38.5Z" fill="#46587A" stroke="#46587A"/>
</svg>
