<svg width="100" height="100" viewBox="0 0 100 100" fill="none" xmlns="http://www.w3.org/2000/svg">
<path d="M73.56 88.57H26.55C24.04 88.57 22 86.54 22 84.03V25.65C22 25.23 22.34 24.89 22.76 24.89H77.35C77.77 24.89 78.11 25.23 78.11 25.65V84.03C78.11 86.54 76.06 88.57 73.56 88.57ZM23.52 26.4V84.02C23.52 85.69 24.88 87.05 26.55 87.05H73.56C75.23 87.05 76.59 85.69 76.59 84.02V26.4H23.52Z" fill="#46587A" stroke="#46587A"/>
<path d="M77.35 26.4H22.76C22.34 26.4 22 26.07 22 25.65V16.55C22 14.04 24.04 12 26.55 12H73.56C76.07 12 78.11 14.04 78.11 16.55V25.65C78.11 26.07 77.76 26.4 77.35 26.4ZM23.52 24.89H76.59V16.55C76.59 14.88 75.23 13.52 73.56 13.52H26.55C24.88 13.52 23.52 14.88 23.52 16.55V24.89Z" fill="#46587A" stroke="#46587A"/>
<path d="M54.8799 62.04C54.6699 62.04 54.4699 61.96 54.3199 61.79L50.0499 57.1L45.7799 61.79C45.4999 62.1 45.0199 62.13 44.7099 61.84C44.3999 61.56 44.3799 61.08 44.6599 60.77L49.4899 55.46C49.7799 55.14 50.3199 55.15 50.6099 55.46L55.4399 60.77C55.7199 61.08 55.6999 61.56 55.3899 61.85C55.2399 61.98 55.0599 62.04 54.8799 62.04Z" fill="#46587A" stroke="#46587A"/>
<path d="M50.05 64.31C49.63 64.31 49.29 63.97 49.29 63.55V55.97C49.29 55.55 49.63 55.21 50.05 55.21C50.47 55.21 50.81 55.55 50.81 55.97V63.55C50.81 63.97 50.47 64.31 50.05 64.31Z" fill="#46587A" stroke="#46587A"/>
<path d="M53.09 43.84C53.09 50.54 50.06 55.97 50.06 55.97C50.06 55.97 47.03 50.54 47.03 43.84C47.03 37.14 50.06 31.71 50.06 31.71C50.06 31.71 53.09 37.14 53.09 43.84Z" fill="#6FCF97" stroke="#46587A"/>
<path d="M50.05 56.73C49.78 56.73 49.52 56.58 49.39 56.34C49.26 56.11 46.26 50.66 46.26 43.84C46.26 37.02 49.26 31.57 49.39 31.34C49.66 30.86 50.45 30.86 50.72 31.34C50.85 31.57 53.85 37.02 53.85 43.84C53.85 50.66 50.85 56.11 50.72 56.34C50.58 56.58 50.33 56.73 50.05 56.73ZM50.05 33.47C49.18 35.46 47.78 39.38 47.78 43.85C47.78 48.32 49.19 52.24 50.05 54.23C50.92 52.24 52.32 48.32 52.32 43.85C52.33 39.38 50.92 35.46 50.05 33.47Z" fill="#46587A" stroke="#46587A"/>
<path d="M56.12 58.25C52.77 58.25 50.05 55.98 50.05 55.98C50.05 55.98 52.77 53.71 56.12 53.71C59.47 53.71 62.18 55.98 62.18 55.98C62.18 55.98 59.47 58.25 56.12 58.25Z" fill="#6FCF97" stroke="#46587A"/>
<path d="M56.12 59.0099C52.53 59.0099 49.69 56.66 49.57 56.56C49.4 56.42 49.3 56.2099 49.3 55.9799C49.3 55.7599 49.4 55.54 49.57 55.4C49.69 55.3 52.54 52.95 56.12 52.95C59.7 52.95 62.55 55.3 62.67 55.4C62.84 55.54 62.94 55.7599 62.94 55.9799C62.94 56.2099 62.84 56.42 62.67 56.56C62.55 56.65 59.7 59.0099 56.12 59.0099ZM51.3701 55.97C52.3601 56.59 54.13 57.49 56.12 57.49C58.1 57.49 59.88 56.59 60.87 55.97C59.88 55.35 58.11 54.45 56.12 54.45C54.13 54.46 52.3601 55.35 51.3701 55.97Z" fill="#46587A" stroke="#46587A"/>
<path d="M43.9899 58.25C47.3399 58.25 50.0599 55.98 50.0599 55.98C50.0599 55.98 47.3399 53.71 43.9899 53.71C40.6399 53.71 37.9199 55.98 37.9199 55.98C37.9199 55.98 40.6399 58.25 43.9899 58.25Z" fill="#6FCF97" stroke="#46587A"/>
<path d="M43.9899 59.0099C40.4099 59.0099 37.5599 56.66 37.4399 56.56C37.2699 56.42 37.1699 56.2099 37.1699 55.9799C37.1699 55.7599 37.2699 55.54 37.4399 55.4C37.5599 55.3 40.4099 52.95 43.9899 52.95C47.5799 52.95 50.4199 55.3 50.5499 55.4C50.7199 55.54 50.8199 55.7599 50.8199 55.9799C50.8199 56.2099 50.7199 56.42 50.5499 56.56C50.4199 56.65 47.5699 59.0099 43.9899 59.0099ZM39.2399 55.97C40.2299 56.59 41.9999 57.49 43.9899 57.49C45.9699 57.49 47.7499 56.59 48.7399 55.97C47.7499 55.35 45.9799 54.45 43.9899 54.45C41.9999 54.46 40.2299 55.35 39.2399 55.97Z" fill="#46587A" stroke="#46587A"/>
<path d="M59.1701 50.07C55.0201 54.22 50.0601 55.97 50.0601 55.97C50.0601 55.97 51.8101 51 55.9601 46.86C60.1101 42.72 65.0801 40.96 65.0801 40.96C65.0801 40.96 63.3101 45.93 59.1701 50.07Z" fill="#6FCF97" stroke="#46587A"/>
<path d="M50.0501 56.73C49.8501 56.73 49.6601 56.65 49.5101 56.51C49.3001 56.3 49.2401 56 49.3301 55.72C49.4001 55.51 51.1901 50.54 55.4101 46.32C59.6301 42.1 64.6001 40.32 64.8101 40.24C65.0801 40.15 65.39 40.21 65.6 40.42C65.81 40.62 65.8801 40.93 65.7801 41.2C65.7101 41.41 63.9201 46.38 59.7001 50.6C55.4801 54.82 50.5101 56.6 50.3001 56.68C50.2201 56.72 50.1401 56.73 50.0501 56.73ZM63.6101 42.42C61.8401 43.27 59.0001 44.89 56.4901 47.4C53.9801 49.91 52.3701 52.76 51.5101 54.52C53.2701 53.67 56.1201 52.05 58.6301 49.55C61.1401 47.02 62.7501 44.18 63.6101 42.42Z" fill="#46587A" stroke="#46587A"/>
<path d="M40.94 50.07C45.09 54.22 50.06 55.97 50.06 55.97C50.06 55.97 48.31 51 44.16 46.86C40.02 42.72 35.04 40.96 35.04 40.96C35.04 40.96 36.79 45.93 40.94 50.07Z" fill="#6FCF97" stroke="#46587A"/>
<path d="M50.0501 56.73C49.9701 56.73 49.8801 56.71 49.8001 56.69C49.5901 56.62 44.6201 54.83 40.4001 50.61C36.1801 46.39 34.4001 41.42 34.3201 41.21C34.2201 40.94 34.2901 40.63 34.5001 40.43C34.7001 40.22 35.0101 40.16 35.2901 40.25C35.5001 40.32 40.4701 42.11 44.6901 46.33C48.9101 50.54 50.6901 55.52 50.7701 55.73C50.8701 56.01 50.7901 56.31 50.5901 56.52C50.4401 56.65 50.2501 56.73 50.0501 56.73ZM36.5001 42.42C37.3501 44.18 38.9701 47.03 41.4801 49.54C43.9901 52.04 46.8301 53.66 48.6001 54.51C47.7401 52.74 46.1301 49.89 43.6201 47.39C41.1101 44.89 38.2601 43.27 36.5001 42.42Z" fill="#46587A" stroke="#46587A"/>
<path d="M56.12 21.86H43.99C42.74 21.86 41.72 20.84 41.72 19.59V18.06C41.72 16.81 42.74 15.79 43.99 15.79H56.12C57.37 15.79 58.39 16.81 58.39 18.06V19.58C58.39 20.84 57.37 21.86 56.12 21.86ZM43.99 17.31C43.57 17.31 43.23 17.65 43.23 18.07V19.59C43.23 20.01 43.57 20.35 43.99 20.35H56.12C56.54 20.35 56.88 20.01 56.88 19.59V18.06C56.88 17.64 56.54 17.3 56.12 17.3H43.99V17.31Z" fill="#46587A" stroke="#46587A"/>
<path d="M63.6999 83.27H36.3999C35.5599 83.27 34.8799 82.59 34.8799 81.75V71.14C34.8799 70.3 35.5599 69.62 36.3999 69.62H63.6999C64.5399 69.62 65.2199 70.3 65.2199 71.14V81.75C65.2199 82.59 64.5399 83.27 63.6999 83.27Z" fill="#F2C94C" stroke="#46587A"/>
<path d="M63.6999 84.03H36.3999C35.1499 84.03 34.1299 83.01 34.1299 81.76V71.14C34.1299 69.89 35.1499 68.87 36.3999 68.87H63.6999C64.9499 68.87 65.9799 69.89 65.9799 71.14V81.75C65.9699 83.01 64.9499 84.03 63.6999 84.03ZM36.3999 70.38C35.9799 70.38 35.6399 70.72 35.6399 71.14V81.75C35.6399 82.17 35.9799 82.51 36.3999 82.51H63.6999C64.1199 82.51 64.4599 82.17 64.4599 81.75V71.14C64.4599 70.72 64.1199 70.38 63.6999 70.38H36.3999Z" fill="#46587A" stroke="#46587A"/>
<path d="M57.63 74.93H42.47C42.05 74.93 41.71 74.59 41.71 74.17C41.71 73.75 42.05 73.41 42.47 73.41H57.63C58.05 73.41 58.39 73.75 58.39 74.17C58.39 74.59 58.05 74.93 57.63 74.93Z" fill="#46587A" stroke="#46587A"/>
<path d="M53.84 79.48H46.26C45.84 79.48 45.5 79.14 45.5 78.72C45.5 78.3 45.84 77.96 46.26 77.96H53.84C54.26 77.96 54.6 78.3 54.6 78.72C54.6 79.14 54.26 79.48 53.84 79.48Z" fill="#46587A" stroke="#46587A"/>
<path d="M72.8 38.5399C72.38 38.5399 72.04 38.1999 72.04 37.7799V30.9599H65.22C64.8 30.9599 64.46 30.6199 64.46 30.1999C64.46 29.7799 64.8 29.4399 65.22 29.4399H72.8C73.22 29.4399 73.56 29.7799 73.56 30.1999V37.7799C73.56 38.1999 73.22 38.5399 72.8 38.5399Z" fill="#46587A" stroke="#46587A"/>
</svg>
