<svg width="100" height="100" viewBox="0 0 100 100" fill="none" xmlns="http://www.w3.org/2000/svg">
<path d="M50 74.126C36.7623 74.126 26 63.3636 26 50.126C26 36.8883 36.7623 26.126 50 26.126C63.2377 26.126 74 36.8883 74 50.126C74 63.3636 63.2377 74.126 50 74.126ZM50 27.7403C37.6233 27.7403 27.6143 37.7493 27.6143 50.126C27.6143 62.5027 37.6233 72.5116 50 72.5116C62.3767 72.5116 72.3857 62.5027 72.3857 50.126C72.3857 37.8569 62.3767 27.7403 50 27.7403Z" fill="#46587A" stroke="#46587A"/>
<path d="M57.1415 53.2618C61.2862 49.1185 61.2862 42.3768 57.1415 38.2335C52.9969 34.0901 46.2532 34.0901 42.1085 38.2335C37.9638 42.3768 37.9638 49.1185 42.1085 53.2618C43.8628 55.0157 46.0829 56.0268 48.3744 56.296V59.8537H45.8732C45.1825 59.8537 44.6227 60.4134 44.6227 61.1038C44.6227 61.7943 45.1825 62.354 45.8732 62.354H48.3744V65.8758C48.3744 66.5662 48.9343 67.126 49.625 67.126C50.3157 67.126 50.8756 66.5662 50.8756 65.8758V62.354H53.3768C54.0675 62.354 54.6274 61.7943 54.6274 61.1038C54.6274 60.4134 54.0675 59.8537 53.3768 59.8537H50.8756V56.296C53.1671 56.0268 55.3872 55.0157 57.1415 53.2618ZM43.8771 51.4938C40.7077 48.3253 40.7077 43.17 43.8771 40.0015C47.0465 36.8332 52.2034 36.833 55.373 40.0015C58.5424 43.17 58.5424 48.3253 55.373 51.4938C52.2035 54.6622 47.0465 54.6622 43.8771 51.4938Z" fill="#46587A" stroke="#46587A"/>
</svg>
