<svg width="100" height="100" viewBox="0 0 100 100" fill="none" xmlns="http://www.w3.org/2000/svg">
<path d="M59.1599 95.0899C58.7399 95.0899 58.3999 94.7499 58.3999 94.3199V80.5899C58.3999 80.1699 58.7399 79.8199 59.1599 79.8199C59.5799 79.8199 59.9199 80.1699 59.9199 80.5899V94.3299C59.9199 94.7499 59.5799 95.0899 59.1599 95.0899Z" fill="#46587A" stroke="#46587A"/>
<path d="M61.81 28.16H61.73C61.34 24.31 58.13 21.29 54.17 21.29C52.44 21.29 50.87 21.89 49.59 22.85C48.31 21.89 46.74 21.29 45.01 21.29C41.01 21.29 37.76 24.39 37.44 28.31C33.78 29.02 31.06 32.33 31.28 36.24C31.52 40.34 35.13 43.43 39.23 43.43H41.95V48.38C41.95 49.81 43.74 50.46 44.65 49.36L49.58 43.44H61.8C66.84 43.44 70.74 38.56 69.02 33.26C68.04 30.17 65.05 28.16 61.81 28.16Z" fill="#EB5757" stroke="#46587A"/>
<path d="M43.5 50.67C43.24 50.67 42.97 50.62 42.71 50.53C41.79 50.2 41.2 49.35 41.2 48.38V44.2H39.24C34.61 44.2 30.78 40.73 30.53 36.3C30.3 32.31 32.94 28.71 36.75 27.69C37.35 23.57 40.82 20.53 45.02 20.53C46.65 20.53 48.22 21.01 49.6 21.92C50.98 21.01 52.55 20.53 54.18 20.53C58.26 20.53 61.69 23.45 62.4 27.42C65.82 27.65 68.73 29.84 69.76 33.02C70.63 35.72 70.2101 38.53 68.6101 40.73C67.0301 42.9 64.49 44.19 61.81 44.19H49.95L45.24 49.84C44.8 50.38 44.16 50.67 43.5 50.67ZM45.01 22.05C41.42 22.05 38.49 24.76 38.2 28.37C38.17 28.71 37.92 28.99 37.58 29.06C34.23 29.71 31.84 32.78 32.04 36.2C32.25 39.82 35.41 42.66 39.23 42.66H41.95C42.37 42.66 42.71 43 42.71 43.42V48.37C42.71 48.87 43.1 49.05 43.21 49.09C43.33 49.13 43.74 49.24 44.06 48.86L49 42.94C49.15 42.77 49.36 42.66 49.59 42.66H61.81C64 42.66 66.08 41.6 67.37 39.83C68.68 38.02 69.0301 35.71 68.3101 33.48C67.4401 30.79 64.77 28.91 61.81 28.91H61.73C61.34 28.91 61.01 28.62 60.97 28.22C60.61 24.69 57.69 22.04 54.17 22.04C52.7 22.04 51.27 22.53 50.05 23.45C49.78 23.65 49.4 23.65 49.13 23.45C47.92 22.54 46.49 22.05 45.01 22.05Z" fill="#46587A" stroke="#46587A"/>
<path d="M46.5399 38.8499C46.3899 38.8499 46.2499 38.8099 46.1199 38.7199C45.7699 38.4899 45.6699 38.0099 45.9099 37.6599L48.6799 33.4999L45.9099 29.3399C45.7599 29.1099 45.7399 28.8199 45.8599 28.5799L48.9099 22.4699C49.0999 22.0899 49.5599 21.9399 49.9399 22.1299C50.3199 22.3199 50.4699 22.7799 50.2799 23.1499L47.4199 28.8599L50.2299 33.0699C50.3999 33.3299 50.3999 33.6599 50.2299 33.9199L47.1799 38.4999C47.0299 38.7299 46.7899 38.8499 46.5399 38.8499Z" fill="#46587A" stroke="#46587A"/>
<path d="M41.96 31.98C41.68 31.98 41.41 31.83 41.28 31.56C41.09 31.18 41.24 30.72 41.62 30.53L46.2 28.24C46.57 28.05 47.03 28.21 47.22 28.59C47.41 28.97 47.26 29.42 46.88 29.61L42.3 31.9C42.19 31.95 42.08 31.98 41.96 31.98Z" fill="#46587A" stroke="#46587A"/>
<path d="M54.9401 35.7901C54.8701 35.7901 54.8001 35.7801 54.7301 35.7601L49.3901 34.2401C48.9901 34.1201 48.7501 33.7001 48.8701 33.2901C48.9901 32.8801 49.4101 32.6501 49.8101 32.7701L55.1501 34.3001C55.5501 34.4101 55.7901 34.8401 55.6701 35.2401C55.5801 35.5801 55.2701 35.7901 54.9401 35.7901Z" fill="#46587A" stroke="#46587A"/>
<path d="M12.34 9.33995C17.11 4.56995 24.85 4.56995 29.62 9.33995C34.39 14.11 34.39 21.85 29.62 26.62C24.85 31.39 17.11 31.39 12.34 26.62C7.56995 21.85 7.56995 14.11 12.34 9.33995Z" fill="#F2C94C" stroke="#46587A"/>
<path d="M20.98 30.95C17.66 30.95 14.34 29.69 11.8 27.15C9.35 24.71 8 21.44 8 17.98C8 14.51 9.35 11.25 11.8 8.8C16.86 3.74001 25.09 3.74001 30.15 8.8C32.6 11.25 33.95 14.51 33.95 17.98C33.95 21.44 32.6 24.71 30.15 27.16C27.63 29.69 24.3 30.95 20.98 30.95ZM20.98 6.53C18.05 6.53 15.11 7.65 12.88 9.88C10.72 12.05 9.52 14.92 9.52 17.98C9.52 21.04 10.71 23.92 12.88 26.08C17.34 30.55 24.61 30.55 29.07 26.08C31.23 23.92 32.42 21.04 32.42 17.98C32.42 14.92 31.23 12.04 29.07 9.88C26.85 7.65 23.91 6.53 20.98 6.53ZM12.34 9.34H12.36H12.34Z" fill="#46587A" stroke="#46587A"/>
<path d="M34.7199 95.09C34.2999 95.09 33.9599 94.75 33.9599 94.32V71.49L29.2799 67.36C22.5499 61.42 18.6899 52.87 18.6899 43.89V40.87C18.6899 38.31 19.0399 35.66 19.7199 33.02C19.8299 32.61 20.2399 32.37 20.6499 32.48C21.0599 32.59 21.2999 33 21.1999 33.41C20.5499 35.93 20.2199 38.44 20.2199 40.88V43.9C20.2199 52.44 23.8899 60.58 30.2999 66.22L35.2299 70.57C35.3899 70.71 35.4899 70.92 35.4899 71.14V94.32C35.4899 94.75 35.1499 95.09 34.7199 95.09Z" fill="#46587A" stroke="#46587A"/>
<path d="M69.0799 81.3501H51.5199C51.0999 81.3501 50.7599 81.0101 50.7599 80.5901C50.7599 80.1701 51.0999 79.8201 51.5199 79.8201H69.0799C74.9699 79.8201 79.7699 75.0301 79.7699 69.1301V59.2001C79.7699 58.7801 80.1099 58.4401 80.5299 58.4401H84.5599C85.7299 58.4401 86.7399 57.8201 87.2699 56.7801C87.7999 55.7401 87.7199 54.5601 87.0399 53.6101L79.8999 43.6101C79.8099 43.4801 79.7599 43.3201 79.7599 43.1701V40.8801C79.7599 24.4601 66.3999 11.1001 49.9799 11.1001C45.1299 11.1001 40.3099 12.3101 36.0299 14.5701C35.6599 14.7701 35.1899 14.6301 34.9999 14.2501C34.7999 13.8801 34.9399 13.4201 35.3199 13.2201C39.8199 10.8301 44.8899 9.56006 49.9899 9.56006C67.2499 9.56006 81.2899 23.6001 81.2899 40.8601V42.9101L88.2899 52.7001C89.2899 54.1001 89.4299 55.9301 88.6399 57.4601C87.8499 59.0001 86.2899 59.9501 84.5699 59.9501H81.2999V69.1101C81.2999 75.8701 75.8199 81.3501 69.0799 81.3501Z" fill="#46587A" stroke="#46587A"/>
<path d="M20.98 19.51C20.56 19.51 20.22 19.17 20.22 18.74V10.34C20.22 9.91996 20.56 9.57996 20.98 9.57996C21.4 9.57996 21.74 9.91996 21.74 10.34V18.74C21.74 19.16 21.4 19.51 20.98 19.51Z" fill="#46587A" stroke="#46587A"/>
<path d="M22.4999 23.32C22.4999 24.16 21.8199 24.85 20.9699 24.85C20.1199 24.85 19.4399 24.17 19.4399 23.32C19.4399 22.48 20.1199 21.79 20.9699 21.79C21.8199 21.79 22.4999 22.48 22.4999 23.32Z" fill="#46587A" stroke="#46587A"/>
</svg>
