<svg width="100" height="100" viewBox="0 0 100 100" fill="none" xmlns="http://www.w3.org/2000/svg">
<path d="M60.1999 95.1251C59.7999 95.1251 59.3999 94.8251 59.3999 94.3251V80.6251C59.3999 80.2251 59.6999 79.8251 60.1999 79.8251C60.5999 79.8251 60.9999 80.1251 60.9999 80.6251V94.3251C60.8999 94.8251 60.5999 95.1251 60.1999 95.1251Z" fill="#46587A" stroke="#46587A"/>
<path d="M62.7999 28.225C62.2999 24.325 59.0999 21.325 55.1999 21.325C53.4999 21.325 51.8999 21.925 50.5999 22.925C49.2999 21.925 47.6999 21.325 45.9999 21.325C41.9999 21.325 38.6999 24.425 38.3999 28.325C34.6999 29.025 31.9999 32.325 32.1999 36.225C32.3999 40.325 36.0999 43.425 40.1999 43.425H42.9999V48.325C42.9999 49.725 44.7999 50.425 45.6999 49.325L50.5999 43.425H62.7999C67.7999 43.425 71.6999 38.525 69.9999 33.225C68.9999 30.225 66.0999 28.225 62.7999 28.225Z" stroke="#46587A"/>
<path d="M44.5 50.725C44.2 50.725 44 50.725 43.7 50.625C42.8 50.325 42.2 49.425 42.2 48.425V44.225H40.2C35.6 44.225 31.7 40.725 31.5 36.325C31.3 32.325 33.9 28.725 37.7 27.725C38.3 23.625 41.8 20.525 46 20.525C47.6 20.525 49.2 21.025 50.6 21.925C52 21.025 53.6 20.525 55.2 20.525C59.3 20.525 62.7 23.425 63.4 27.425C66.8 27.625 69.7 29.825 70.8 33.025C71.7 35.725 71.3 38.525 69.6 40.725C68 42.925 65.5 44.225 62.8 44.225H51L46.3 49.825C45.8 50.425 45.2 50.725 44.5 50.725ZM46 22.125C42.4 22.125 39.5 24.825 39.2 28.425C39.2 28.725 38.9 29.025 38.6 29.125C35.2 29.825 32.9 32.825 33.1 36.225C33.3 39.825 36.5 42.725 40.3 42.725H43C43.4 42.725 43.8 43.025 43.8 43.525V48.425C43.8 48.925 44.2 49.125 44.3 49.125C44.4 49.125 44.8 49.325 45.1 48.925L50 43.025C50.1 42.825 50.4 42.725 50.6 42.725H62.8C65 42.725 67.1 41.625 68.4 39.925C69.7 38.125 70.1 35.825 69.3 33.625C68.4 30.925 65.8 29.025 62.8 29.025H62.7C62.3 29.025 62 28.725 61.9 28.325C61.5 24.825 58.6 22.125 55.1 22.125C53.6 22.125 52.2 22.625 51 23.525C50.7 23.725 50.4 23.725 50.1 23.525C48.9 22.525 47.5 22.125 46 22.125Z" fill="#46587A" stroke="#46587A"/>
<path d="M47.5 38.825C47.4 38.825 47.2 38.8251 47.1 38.725C46.7 38.525 46.7 38.025 46.9 37.625L49.7 33.425L46.9 29.225C46.7 29.0251 46.7 28.725 46.9 28.425L50 22.325C50.2 21.925 50.6 21.825 51 22.025C51.4 22.225 51.5 22.725 51.3 23.025L48.4 28.725L51.2 32.925C51.4 33.225 51.4 33.5251 51.2 33.725L48.1 38.325C48 38.725 47.8 38.825 47.5 38.825Z" fill="#46587A" stroke="#46587A"/>
<path d="M43 32.025C42.7 32.025 42.4 31.825 42.3 31.625C42.1 31.225 42.3 30.825 42.6 30.625L47.2 28.325C47.6 28.125 48 28.325 48.2 28.625C48.4 29.025 48.2 29.425 47.9 29.625L43.3 31.925C43.2 31.925 43.1 32.025 43 32.025Z" fill="#46587A" stroke="#46587A"/>
<path d="M55.9 35.825C55.8 35.825 55.8 35.825 55.7 35.825L50.4 34.325C50 34.225 49.8 33.825 49.9 33.425C50 33.025 50.4 32.825 50.8 32.925L56.1 34.425C56.5 34.525 56.7 34.925 56.6 35.325C56.6 35.625 56.3 35.825 55.9 35.825Z" fill="#46587A" stroke="#46587A"/>
<path d="M13.2999 9.3251C18.0999 4.5251 25.7999 4.5251 30.5999 9.3251C35.3999 14.1251 35.3999 21.8251 30.5999 26.6251C25.7999 31.4251 18.0999 31.4251 13.2999 26.6251C8.5999 21.8251 8.5999 14.1251 13.2999 9.3251Z" stroke="#46587A"/>
<path d="M22 31.025C18.7 31.025 15.4 29.725 12.8 27.225C10.4 24.725 9 21.425 9 18.025C9 14.525 10.3 11.325 12.8 8.825C17.9 3.725 26.1 3.725 31.2 8.825C33.6 11.325 35 14.525 35 18.025C35 21.525 33.6 24.725 31.2 27.225C28.6 29.725 25.3 31.025 22 31.025ZM22 6.525C19.1 6.525 16.1 7.625 13.9 9.825C11.7 12.025 10.5 14.925 10.5 18.025C10.5 21.125 11.7 23.925 13.9 26.125C18.4 30.625 25.6 30.625 30.1 26.125C32.3 23.925 33.5 21.125 33.5 18.025C33.5 14.925 32.3 12.125 30.1 9.925C27.8 7.725 24.9 6.525 22 6.525Z" fill="#46587A" stroke="#46587A"/>
<path d="M35.7001 95.125C35.3001 95.125 34.9001 94.825 34.9001 94.325V71.525L30.2001 67.425C23.5001 61.525 19.6001 52.925 19.6001 43.925V40.925C19.6001 38.325 19.9001 35.725 20.6001 33.025C20.7001 32.625 21.1001 32.325 21.5001 32.525C21.9001 32.625 22.2001 33.025 22.0001 33.425C21.3001 35.925 21.0001 38.425 21.0001 40.925V43.925C21.0001 52.425 24.7001 60.625 31.1001 66.225L36.0001 70.625C36.2001 70.725 36.3001 71.025 36.3001 71.225V94.425C36.5001 94.825 36.1001 95.125 35.7001 95.125Z" fill="#46587A" stroke="#46587A"/>
<path d="M70.1 81.425H52.5C52.1 81.425 51.7 81.125 51.7 80.625C51.7 80.225 52 79.825 52.5 79.825H70.1C76 79.825 80.8 75.025 80.8 69.125V59.225C80.8 58.825 81.1 58.425 81.6 58.425H85.6C86.8 58.425 87.8 57.825 88.3 56.725C88.8 55.725 88.7 54.525 88.1 53.525L81 43.525C80.9 43.425 80.9 43.225 80.9 43.125V40.825C80.8 24.525 67.4 11.125 51 11.125C46.2 11.125 41.3 12.325 37.1 14.625C36.7 14.825 36.3 14.725 36.1 14.325C35.9 13.925 36 13.525 36.4 13.325C40.9 10.925 46 9.625 51.1 9.625C68.4 9.625 82.4 23.625 82.4 40.925V42.925L89.4 52.725C90.4 54.125 90.5 55.925 89.7 57.525C88.9 59.025 87.3 60.025 85.6 60.025H82.3V69.225C82.3 75.925 76.8 81.425 70.1 81.425Z" fill="#46587A" stroke="#46587A"/>
<path d="M22 19.525C21.6 19.525 21.2 19.225 21.2 18.725V10.325C21.2 9.92502 21.5 9.52502 22 9.52502C22.4 9.52502 22.8 9.82502 22.8 10.325V18.725C22.7 19.225 22.4 19.525 22 19.525Z" fill="#46587A" stroke="#46587A"/>
<path d="M23.5 23.325C23.5 24.125 22.8 24.825 22 24.825C21.2 24.825 20.5 24.125 20.5 23.325C20.5 22.525 21.2 21.825 22 21.825C22.8 21.825 23.5 22.525 23.5 23.325Z" fill="#46587A" stroke="#46587A"/>
</svg>
