<svg width="100" height="100" viewBox="0 0 100 100" fill="none" xmlns="http://www.w3.org/2000/svg">
<path d="M50.3 86.1749C49.9 86.1749 49.5 85.7749 49.5 85.3749V65.0749C49.5 64.6749 49.9 64.2749 50.3 64.2749C50.7 64.2749 51.1 64.6749 51.1 65.0749V85.4749C51.1 85.8749 50.7 86.1749 50.3 86.1749Z" fill="#46587A" stroke="#46587A"/>
<path d="M50.3002 65.775C50.1002 65.775 49.9002 65.675 49.7002 65.575C49.5002 65.375 49.4002 65.075 49.5002 64.875C49.6002 64.375 52.7002 52.675 61.9002 43.475C71.1002 34.275 82.8002 31.175 83.3002 31.075C83.6002 30.975 83.9002 31.075 84.0002 31.275C84.2002 31.475 84.3002 31.775 84.2002 31.975C84.1002 32.475 81.0002 44.175 71.8002 53.375C62.7002 62.575 51.0002 65.675 50.5002 65.775C50.4002 65.775 50.3002 65.775 50.3002 65.775ZM82.4002 32.875C79.0002 33.975 70.1002 37.375 63.0002 44.475C55.9002 51.575 52.5002 60.475 51.4002 63.875C54.7002 62.775 63.6002 59.375 70.8002 52.275C77.9002 45.175 81.3002 36.275 82.4002 32.875Z" fill="#46587A" stroke="#46587A"/>
<path d="M50.3 65.775C50.2 65.775 50.2 65.775 50.1 65.775C49.6 65.675 37.9 62.575 28.7 53.375C19.5 44.175 16.4 32.475 16.3 31.975C16.2 31.675 16.3 31.375 16.5 31.275C16.7 31.075 17 30.975 17.2 31.075C17.7 31.175 29.4 34.275 38.6 43.475C47.8 52.675 50.9 64.375 51 64.875C51.1 65.175 51 65.475 50.8 65.575C50.7 65.775 50.5 65.775 50.3 65.775ZM18.2 32.875C19.3 36.175 22.7 45.075 29.8 52.175C36.9 59.275 45.8 62.675 49.1 63.775C48 60.375 44.6 51.575 37.5 44.375C30.4 37.375 21.5 33.975 18.2 32.875Z" fill="#46587A" stroke="#46587A"/>
<path d="M69.1001 70.475C60.3001 70.475 53.3001 65.875 53.0001 65.675C52.8001 65.575 52.6001 65.275 52.6001 64.975C52.6001 64.675 52.7001 64.475 53.0001 64.275C53.3001 64.075 60.3001 59.475 69.1001 59.475C77.9001 59.475 84.9001 64.075 85.2001 64.275C85.4001 64.375 85.6001 64.675 85.6001 64.975C85.6001 65.275 85.5001 65.475 85.2001 65.675C84.9001 65.875 77.9001 70.475 69.1001 70.475ZM54.9001 65.075C57.2001 66.375 62.7001 68.975 69.1001 68.975C75.5001 68.975 81.0001 66.275 83.3001 65.075C81.0001 63.775 75.5001 61.075 69.1001 61.075C62.7001 61.075 57.2001 63.775 54.9001 65.075Z" fill="#46587A" stroke="#46587A"/>
<path d="M70.2002 85.7749C70.1002 85.7749 70.1002 85.7749 70.0002 85.7749C69.7002 85.6749 62.5002 83.9749 56.9002 78.3749C51.3002 72.7749 49.6002 65.5749 49.5002 65.2749C49.4002 64.9749 49.5002 64.7749 49.7002 64.5749C49.9002 64.3749 50.2002 64.2749 50.4002 64.3749C50.7002 64.4749 57.9002 66.1749 63.5002 71.7749C69.1002 77.3749 70.8002 84.5749 70.9002 84.8749C71.0002 85.1749 70.9002 85.3749 70.7002 85.5749C70.6002 85.6749 70.4002 85.7749 70.2002 85.7749ZM51.4002 66.1749C52.2002 68.4749 54.1002 73.2749 58.0002 77.1749C61.9002 81.0749 66.7002 82.9749 69.0002 83.7749C68.2002 81.4749 66.3002 76.6749 62.4002 72.7749C58.6002 68.8749 53.7002 66.9749 51.4002 66.1749Z" fill="#46587A" stroke="#46587A"/>
<path d="M30.3002 85.7749C30.1002 85.7749 29.9002 85.6749 29.7002 85.5749C29.5002 85.3749 29.4002 85.0749 29.5002 84.8749C29.6002 84.5749 31.3002 77.3749 36.9002 71.7749C42.5002 66.1749 49.7002 64.4749 50.0002 64.3749C50.3002 64.2749 50.5002 64.3749 50.7002 64.5749C50.9002 64.7749 51.0002 65.0749 50.9002 65.2749C50.8002 65.5749 49.1002 72.7749 43.5002 78.3749C37.9002 83.9749 30.7002 85.6749 30.4002 85.7749C30.4002 85.7749 30.4002 85.7749 30.3002 85.7749ZM49.1002 66.1749C46.8002 66.9749 42.0002 68.8749 38.1002 72.7749C34.2002 76.6749 32.3002 81.4749 31.5002 83.7749C33.8002 82.9749 38.6002 81.0749 42.5002 77.1749C46.4002 73.2749 48.4002 68.4749 49.1002 66.1749Z" fill="#46587A" stroke="#46587A"/>
<path d="M31.4 70.475C22.6 70.475 15.6 65.8749 15.3 65.6749C15.1 65.5749 15 65.275 15 65.075C15 64.775 15.1 64.575 15.4 64.375C15.7 64.175 22.7 59.575 31.5 59.575C40.3 59.575 47.3 64.175 47.6 64.375C47.8 64.475 48 64.775 48 65.075C48 65.375 47.9 65.575 47.6 65.775C47.3 65.875 40.2 70.475 31.4 70.475ZM17.3 65.075C19.6 66.375 25.1 68.975 31.5 68.975C37.9 68.975 43.4 66.275 45.7 65.075C43.4 63.775 37.9 61.1749 31.5 61.1749C25.1 61.0749 19.6 63.775 17.3 65.075Z" fill="#46587A" stroke="#46587A"/>
<path d="M50.2999 65.775C49.9999 65.775 49.7999 65.675 49.5999 65.375C49.2999 64.875 42.3999 53.775 42.3999 39.875C42.3999 25.975 49.2999 14.875 49.5999 14.375C49.8999 13.875 50.5999 13.875 50.8999 14.375C51.1999 14.875 58.0999 25.975 58.0999 39.875C58.0999 53.775 51.1999 64.875 50.8999 65.375C50.7999 65.675 50.4999 65.775 50.2999 65.775ZM50.2999 16.375C48.4999 19.575 43.9999 28.975 43.9999 39.975C43.9999 50.975 48.4999 60.275 50.2999 63.475C51.9999 60.275 56.5999 50.875 56.5999 39.975C56.4999 28.975 51.9999 19.575 50.2999 16.375Z" fill="#46587A" stroke="#46587A"/>
</svg>
