<svg width="100" height="100" viewBox="0 0 100 100" fill="none" xmlns="http://www.w3.org/2000/svg">
<path d="M50.29 86.12C49.86 86.12 49.5 85.77 49.5 85.34V64.95C49.5 64.52 49.85 64.16 50.29 64.16C50.72 64.16 51.08 64.51 51.08 64.95V85.34C51.08 85.77 50.72 86.12 50.29 86.12Z" fill="#46587A" stroke="#46587A"/>
<path d="M71.37 52.7501C62.18 61.9401 50.3 64.9501 50.3 64.9501C50.3 64.9501 53.3101 53.0701 62.5 43.8801C71.69 34.6901 83.57 31.6801 83.57 31.6801C83.57 31.6801 80.55 43.5601 71.37 52.7501Z" fill="#6FCF97"/>
<path d="M50.29 65.73C50.08 65.73 49.88 65.65 49.74 65.5C49.54 65.3 49.47 65.02 49.53 64.75C49.66 64.25 52.7 52.55 61.94 43.31C71.17 34.08 82.88 31.03 83.37 30.9C83.64 30.83 83.92 30.91 84.12 31.11C84.32 31.3 84.39 31.59 84.33 31.86C84.2 32.35 81.15 44.06 71.92 53.29C62.68 62.53 50.98 65.57 50.49 65.7C50.42 65.73 50.36 65.73 50.29 65.73ZM82.4 32.85C79.05 33.94 70.17 37.31 63.05 44.44C55.92 51.57 52.55 60.44 51.47 63.79C54.82 62.7 63.7 59.33 70.82 52.2C77.95 45.06 81.31 36.19 82.4 32.85Z" fill="#46587A" stroke="#46587A"/>
<path d="M29.22 52.7501C38.41 61.9401 50.29 64.9501 50.29 64.9501C50.29 64.9501 47.28 53.0701 38.09 43.8801C28.9 34.6901 17.02 31.6801 17.02 31.6801C17.02 31.6801 20.03 43.5601 29.22 52.7501Z" fill="#6FCF97"/>
<path d="M50.29 65.73C50.23 65.73 50.16 65.72 50.1 65.71C49.61 65.59 37.9 62.5401 28.67 53.3001C19.43 44.0701 16.39 32.3601 16.26 31.8701C16.2 31.6001 16.27 31.3101 16.47 31.1201C16.66 30.9201 16.95 30.8501 17.22 30.9101C17.72 31.0301 29.42 34.0801 38.65 43.3201C47.89 52.5601 50.93 64.26 51.06 64.76C51.12 65.03 51.05 65.31 50.85 65.51C50.7 65.65 50.5 65.73 50.29 65.73ZM18.19 32.8501C19.28 36.2001 22.65 45.0701 29.78 52.2001C36.91 59.3301 45.78 62.7001 49.13 63.7901C48.04 60.4401 44.67 51.5601 37.55 44.4401C30.41 37.3001 21.54 33.9301 18.19 32.8501Z" fill="#46587A" stroke="#46587A"/>
<path d="M69.1099 69.66C60.4499 69.66 53.4299 64.96 53.4299 64.96C53.4299 64.96 60.4499 60.25 69.1099 60.25C77.7699 60.25 84.7999 64.96 84.7999 64.96C84.7999 64.96 77.7799 69.66 69.1099 69.66Z" fill="#6FCF97"/>
<path d="M69.1099 70.44C60.3099 70.44 53.2799 65.8 52.9899 65.61C52.7699 65.46 52.6399 65.21 52.6399 64.96C52.6399 64.69 52.7699 64.45 52.9899 64.31C53.2799 64.11 60.3099 59.47 69.1099 59.47C77.9099 59.47 84.9399 64.11 85.2299 64.31C85.4499 64.45 85.5799 64.7 85.5799 64.96C85.5799 65.22 85.4499 65.46 85.2299 65.61C84.9399 65.8 77.9099 70.44 69.1099 70.44ZM54.9599 64.95C57.2199 66.21 62.7399 68.87 69.1099 68.87C75.4799 68.87 80.9999 66.21 83.2699 64.95C81.0099 63.69 75.4799 61.03 69.1099 61.03C62.7499 61.03 57.2299 63.69 54.9599 64.95Z" fill="#46587A" stroke="#46587A"/>
<path d="M57.5 77.71C51.99 72.19 50.29 64.96 50.29 64.96C50.29 64.96 57.53 66.65 63.04 72.17C68.55 77.69 70.25 84.93 70.25 84.93C70.25 84.93 63.01 83.22 57.5 77.71Z" fill="#6FCF97"/>
<path d="M70.2601 85.7C70.2001 85.7 70.1401 85.69 70.0801 85.68C69.7801 85.61 62.5601 83.87 56.9501 78.26C51.3501 72.65 49.6001 65.43 49.5401 65.13C49.4801 64.86 49.5601 64.59 49.7501 64.4C49.9401 64.21 50.2201 64.13 50.4801 64.19C50.7801 64.26 58.0001 66 63.6101 71.61C69.2201 77.22 70.9601 84.44 71.0301 84.74C71.0901 85 71.0101 85.28 70.8201 85.47C70.6601 85.62 70.4601 85.7 70.2601 85.7ZM51.4501 66.11C52.2101 68.41 54.1601 73.26 58.0501 77.15C61.9501 81.05 66.7901 82.99 69.0901 83.75C68.3201 81.44 66.3801 76.6 62.4901 72.71C58.5901 68.81 53.7501 66.87 51.4501 66.11Z" fill="#46587A" stroke="#46587A"/>
<path d="M43.0801 77.71C48.5901 72.19 50.2901 64.96 50.2901 64.96C50.2901 64.96 43.0501 66.65 37.5401 72.17C32.0301 77.69 30.3301 84.93 30.3301 84.93C30.3301 84.93 37.5701 83.22 43.0801 77.71Z" fill="#6FCF97"/>
<path d="M30.3299 85.7C30.1299 85.7 29.9299 85.62 29.7799 85.47C29.5899 85.28 29.5099 85 29.5699 84.74C29.6399 84.43 31.3799 77.21 36.9899 71.61C42.5999 66.01 49.8199 64.27 50.1199 64.19C50.3799 64.13 50.6599 64.21 50.8499 64.4C51.0399 64.59 51.1199 64.87 51.0599 65.13C50.9899 65.44 49.2399 72.65 43.6399 78.26C38.0299 83.86 30.8099 85.6 30.5099 85.68C30.4499 85.69 30.3899 85.7 30.3299 85.7ZM49.1399 66.11C46.8399 66.87 41.9899 68.82 38.0999 72.71C34.1999 76.61 32.2499 81.45 31.4999 83.75C33.7999 82.99 38.6499 81.04 42.5399 77.15C46.4299 73.25 48.3699 68.41 49.1399 66.11Z" fill="#46587A" stroke="#46587A"/>
<path d="M31.47 69.66C22.81 69.66 15.78 64.96 15.78 64.96C15.78 64.96 22.8 60.25 31.47 60.25C40.14 60.25 47.15 64.96 47.15 64.96C47.15 64.96 40.13 69.66 31.47 69.66Z" fill="#6FCF97"/>
<path d="M31.47 70.44C22.67 70.44 15.64 65.8 15.35 65.61C15.13 65.46 15 65.21 15 64.95C15 64.68 15.13 64.44 15.35 64.3C15.64 64.1 22.67 59.46 31.47 59.46C40.27 59.46 47.3 64.1 47.59 64.3C47.81 64.44 47.94 64.69 47.94 64.95C47.94 65.21 47.81 65.45 47.59 65.6C47.3 65.8 40.27 70.44 31.47 70.44ZM17.32 64.95C19.58 66.21 25.11 68.87 31.47 68.87C37.84 68.87 43.36 66.21 45.62 64.95C43.36 63.69 37.84 61.03 31.47 61.03C25.11 61.03 19.58 63.69 17.32 64.95Z" fill="#46587A" stroke="#46587A"/>
<path d="M57.35 39.85C57.35 53.71 50.29 64.95 50.29 64.95C50.29 64.95 43.23 53.71 43.23 39.85C43.23 25.99 50.29 14.76 50.29 14.76C50.29 14.76 57.35 26 57.35 39.85Z" fill="#6FCF97"/>
<path d="M50.29 65.73C50.02 65.73 49.77 65.59 49.63 65.36C49.34 64.89 42.45 53.78 42.45 39.85C42.45 25.92 49.34 14.8 49.63 14.34C49.92 13.88 50.6699 13.88 50.9599 14.34C51.2499 14.81 58.1399 25.93 58.1399 39.85C58.1399 53.78 51.2499 64.9 50.9599 65.36C50.8099 65.6 50.56 65.73 50.29 65.73ZM50.29 16.34C48.55 19.53 44.02 28.92 44.02 39.86C44.02 50.82 48.56 60.19 50.29 63.38C52.03 60.19 56.56 50.8 56.56 39.86C56.57 28.9 52.03 19.53 50.29 16.34Z" fill="#46587A" stroke="#46587A"/>
</svg>
