<svg width="100" height="100" viewBox="0 0 100 100" fill="none" xmlns="http://www.w3.org/2000/svg">
<path d="M55.08 64.1762C54.87 64.1762 54.66 64.0962 54.51 63.9262L50.18 59.1662L45.85 63.9262C45.56 64.2462 45.08 64.2662 44.76 63.9862C44.45 63.7062 44.42 63.2162 44.71 62.8962L49.61 57.5062C49.9 57.1862 50.46 57.1862 50.75 57.5062L55.65 62.8962C55.94 63.2062 55.92 63.6962 55.6 63.9862C55.45 64.1162 55.27 64.1762 55.08 64.1762Z" fill="#46587A" stroke="#46587A"/>
<path d="M50.1799 67.2562C49.7599 67.2562 49.4099 66.9162 49.4099 66.4862V58.0262C49.4099 57.5962 49.7499 57.2562 50.1799 57.2562C50.6099 57.2562 50.9499 57.5962 50.9499 58.0262V66.4862C50.9499 66.9162 50.6099 67.2562 50.1799 67.2562Z" fill="#46587A" stroke="#46587A"/>
<path d="M54.0298 42.6262C54.0298 51.1262 50.1798 58.0262 50.1798 58.0262C50.1798 58.0262 46.3298 51.1262 46.3298 42.6262C46.3298 34.1262 50.1798 27.2362 50.1798 27.2362C50.1798 27.2362 54.0298 34.1262 54.0298 42.6262Z" fill="#6FCF97"/>
<path d="M50.1801 58.7863C49.9001 58.7863 49.6401 58.6363 49.5101 58.3863C49.3501 58.0963 45.5601 51.2163 45.5601 42.6163C45.5601 34.0163 49.3501 27.1363 49.5101 26.8463C49.7801 26.3563 50.5801 26.3563 50.8601 26.8463C51.0201 27.1363 54.8101 34.0163 54.8101 42.6163C54.8101 51.2263 51.0201 58.0963 50.8601 58.3863C50.7201 58.6363 50.4601 58.7863 50.1801 58.7863ZM50.1801 28.9863C49.1001 31.3763 47.1001 36.6163 47.1001 42.6263C47.1001 48.6363 49.1001 53.8763 50.1801 56.2663C51.2601 53.8763 53.2601 48.6363 53.2601 42.6263C53.2601 36.6163 51.2601 31.3763 50.1801 28.9863Z" fill="#46587A" stroke="#46587A"/>
<path d="M62.1599 50.3963C56.7499 55.8063 50.1799 58.0163 50.1799 58.0163C50.1799 58.0163 52.3899 51.4463 57.7999 46.0363C63.2099 40.6263 69.7799 38.4163 69.7799 38.4163C69.7799 38.4163 67.5699 44.9863 62.1599 50.3963Z" fill="#6FCF97"/>
<path d="M50.18 58.7863C49.98 58.7863 49.78 58.7063 49.64 58.5563C49.43 58.3463 49.36 58.0463 49.45 57.7663C49.54 57.4963 51.78 50.9663 57.25 45.4963C62.73 40.0163 69.25 37.7863 69.53 37.6863C69.8 37.5963 70.11 37.6663 70.32 37.8763C70.53 38.0863 70.6 38.3863 70.5 38.6663C70.41 38.9363 68.17 45.4663 62.7 50.9363C57.23 56.4163 50.7 58.6463 50.43 58.7463C50.35 58.7763 50.26 58.7863 50.18 58.7863ZM68.39 39.8163C66.14 40.8163 61.96 42.9763 58.35 46.5863C54.74 50.1963 52.58 54.3763 51.58 56.6263C53.83 55.6263 58.01 53.4663 61.62 49.8563C65.22 46.2463 67.39 42.0663 68.39 39.8163Z" fill="#46587A" stroke="#46587A"/>
<path d="M38.2098 50.3963C43.6198 55.8063 50.1798 58.0163 50.1798 58.0163C50.1798 58.0163 47.9698 51.4463 42.5598 46.0363C37.1498 40.6263 30.5798 38.4163 30.5798 38.4163C30.5798 38.4163 32.7998 44.9863 38.2098 50.3963Z" fill="#6FCF97"/>
<path d="M50.18 58.7863C50.1 58.7863 50.01 58.7663 49.94 58.7463C49.66 58.6563 43.14 56.4163 37.66 50.9363C32.19 45.4663 29.95 38.9363 29.86 38.6663C29.77 38.3863 29.84 38.0763 30.05 37.8763C30.26 37.6663 30.57 37.5963 30.84 37.6863C31.12 37.7863 37.64 40.0163 43.11 45.4963C48.58 50.9663 50.82 57.4963 50.91 57.7663C51 58.0463 50.93 58.3563 50.73 58.5563C50.58 58.7063 50.39 58.7863 50.18 58.7863ZM31.98 39.8163C32.98 42.0663 35.14 46.2463 38.75 49.8563C42.36 53.4663 46.54 55.6263 48.79 56.6263C47.79 54.3763 45.62 50.1963 42.01 46.5863C38.41 42.9863 34.23 40.8163 31.98 39.8163Z" fill="#46587A" stroke="#46587A"/>
<path d="M40.95 60.3263C46.05 60.3263 50.19 58.0163 50.19 58.0163C50.19 58.0163 46.05 55.7063 40.95 55.7063C35.85 55.7063 31.71 58.0163 31.71 58.0163C31.71 58.0163 35.84 60.3263 40.95 60.3263Z" fill="#6FCF97"/>
<path d="M40.9499 61.0963C35.7099 61.0963 31.5099 58.7863 31.3299 58.6963C31.0899 58.5563 30.9399 58.2963 30.9399 58.0263C30.9399 57.7463 31.0899 57.4863 31.3299 57.3463C31.5099 57.2563 35.6999 54.9463 40.9499 54.9463C46.1999 54.9463 50.3899 57.2563 50.5599 57.3463C50.7999 57.4863 50.9499 57.7463 50.9499 58.0263C50.9499 58.3063 50.7999 58.5563 50.5599 58.6963C50.3799 58.7863 46.1899 61.0963 40.9499 61.0963ZM33.5399 58.0263C35.1299 58.6763 37.8699 59.5563 40.9499 59.5563C44.0299 59.5563 46.7599 58.6663 48.3599 58.0263C46.7699 57.3763 44.0299 56.4863 40.9499 56.4863C37.8699 56.4763 35.1299 57.3663 33.5399 58.0263Z" fill="#46587A" stroke="#46587A"/>
<path d="M59.4199 60.3263C64.5199 60.3263 68.6599 58.0163 68.6599 58.0163C68.6599 58.0163 64.5299 55.7063 59.4199 55.7063C54.3099 55.7063 50.1799 58.0163 50.1799 58.0163C50.1799 58.0163 54.3199 60.3263 59.4199 60.3263Z" fill="#6FCF97"/>
<path d="M59.4199 61.0963C54.1799 61.0963 49.9799 58.7863 49.7999 58.6963C49.5599 58.5563 49.4099 58.2963 49.4099 58.0263C49.4099 57.7463 49.5599 57.4863 49.7999 57.3463C49.9799 57.2563 54.1699 54.9463 59.4199 54.9463C64.6599 54.9463 68.8499 57.2563 69.0299 57.3463C69.2699 57.4863 69.4199 57.7463 69.4199 58.0263C69.4199 58.3063 69.2699 58.5563 69.0299 58.6963C68.8599 58.7863 64.6599 61.0963 59.4199 61.0963ZM52.0199 58.0263C53.6099 58.6763 56.3499 59.5563 59.4299 59.5563C62.4999 59.5563 65.2399 58.6663 66.8299 58.0263C65.2399 57.3763 62.4999 56.4863 59.4299 56.4863C56.3399 56.4763 53.6099 57.3663 52.0199 58.0263Z" fill="#46587A" stroke="#46587A"/>
<path d="M58.6499 74.1863H41.7199C40.8699 74.1863 40.1799 73.4963 40.1799 72.6463V71.1063C40.1799 70.2563 40.8699 69.5663 41.7199 69.5663H58.6599C59.5099 69.5663 60.1999 70.2563 60.1999 71.1063V72.6463C60.1899 73.4963 59.4999 74.1863 58.6499 74.1863Z" fill="#F2C94C" stroke="#46587A"/>
<path d="M58.6499 74.9563H41.7199C40.4499 74.9563 39.4099 73.9263 39.4099 72.6463V71.1063C39.4099 69.8363 40.4499 68.7963 41.7199 68.7963H58.6599C59.9299 68.7963 60.9699 69.8363 60.9699 71.1063V72.6463C60.9599 73.9163 59.9199 74.9563 58.6499 74.9563ZM41.7199 70.3363C41.2999 70.3363 40.9499 70.6763 40.9499 71.1063V72.6463C40.9499 73.0663 41.2999 73.4163 41.7199 73.4163H58.6599C59.0799 73.4163 59.4299 73.0763 59.4299 72.6463V71.1063C59.4299 70.6863 59.0799 70.3363 58.6599 70.3363H41.7199Z" fill="#46587A" stroke="#46587A"/>
<path d="M55.04 88.0363H45.33C44.58 88.0363 43.93 87.4863 43.81 86.7463L41.72 74.1763H58.66L56.56 86.7463C56.43 87.4963 55.79 88.0363 55.04 88.0363Z" fill="#F2C94C" stroke="#46587A"/>
<path d="M55.0399 88.8063H45.3299C44.1999 88.8063 43.2399 87.9963 43.0499 86.8763L40.9499 74.3063C40.9099 74.0863 40.9799 73.8563 41.1199 73.6863C41.2699 73.5163 41.4799 73.4163 41.7099 73.4163H58.6499C58.8699 73.4163 59.0899 73.5163 59.2399 73.6863C59.3899 73.8563 59.4499 74.0863 59.4099 74.3063L57.3199 86.8763C57.1299 87.9963 56.1699 88.8063 55.0399 88.8063ZM42.6299 74.9563L44.5799 86.6263C44.6399 86.9963 44.9599 87.2663 45.3399 87.2663H55.0499C55.4299 87.2663 55.7499 86.9963 55.8099 86.6263L57.7599 74.9563H42.6299Z" fill="#46587A" stroke="#46587A"/>
<path d="M73.2798 88.8063H59.3898C58.9698 88.8063 58.6198 88.4663 58.6198 88.0363C58.6198 87.6163 58.9698 87.2663 59.3898 87.2663H73.2798C73.6998 87.2663 74.0498 86.9163 74.0498 86.4963V51.0963C74.0498 50.6663 74.3998 50.3263 74.8198 50.3263H85.0598C85.5298 50.3263 85.7198 49.9663 85.7698 49.8563C85.8098 49.7463 85.9398 49.3663 85.6198 49.0263L50.7398 12.7563C50.4498 12.4563 49.9198 12.4563 49.6298 12.7563L14.7598 49.0163C14.4298 49.3563 14.5598 49.7463 14.6098 49.8463C14.6598 49.9563 14.8498 50.3163 15.3198 50.3163H25.5598C25.9798 50.3163 26.3298 50.6563 26.3298 51.0863V86.4963C26.3298 86.9163 26.6798 87.2663 27.0998 87.2663H40.9898C41.4098 87.2663 41.7598 87.6063 41.7598 88.0363C41.7598 88.4663 41.4098 88.8063 40.9898 88.8063H27.0898C25.8198 88.8063 24.7798 87.7663 24.7798 86.4963V51.8563H15.3098C14.3698 51.8563 13.5498 51.3163 13.1898 50.4563C12.8198 49.5863 12.9998 48.6263 13.6498 47.9563L48.5198 11.6863C49.3998 10.7663 50.9698 10.7763 51.8498 11.6863L86.7198 47.9563C87.3698 48.6363 87.5498 49.5963 87.1798 50.4563C86.8098 51.3263 85.9998 51.8563 85.0598 51.8563H75.5898V86.4963C75.5798 87.7763 74.5498 88.8063 73.2798 88.8063Z" fill="#46587A" stroke="#46587A"/>
</svg>
