<svg width="100" height="100" viewBox="0 0 100 100" fill="none" xmlns="http://www.w3.org/2000/svg">
<path d="M55.1038 64.175C54.9038 64.175 54.7038 64.075 54.5038 63.875L50.2038 59.075L45.9038 63.875C45.6038 64.175 45.1038 64.175 44.8038 63.975C44.5038 63.675 44.5038 63.175 44.7038 62.875L49.6038 57.475C49.9038 57.175 50.4038 57.175 50.7038 57.475L55.6038 62.875C55.9038 63.175 55.9038 63.675 55.6038 63.975C55.5038 64.075 55.3038 64.175 55.1038 64.175Z" fill="#46587A" stroke="#46587A"/>
<path d="M50.2038 67.275C49.8038 67.275 49.4038 66.975 49.4038 66.475V57.975C49.4038 57.575 49.7038 57.175 50.2038 57.175C50.6038 57.175 51.0038 57.475 51.0038 57.975V66.475C51.0038 66.875 50.6038 67.275 50.2038 67.275Z" fill="#46587A" stroke="#46587A"/>
<path d="M54.0038 42.575C54.0038 51.075 50.2038 57.975 50.2038 57.975C50.2038 57.975 46.4038 51.075 46.4038 42.575C46.4038 34.075 50.2038 27.175 50.2038 27.175C50.2038 27.175 54.0038 34.075 54.0038 42.575Z" stroke="#46587A"/>
<path d="M50.204 58.775C49.904 58.775 49.704 58.575 49.504 58.375C49.304 58.075 45.604 51.175 45.604 42.575C45.604 33.975 49.404 27.075 49.504 26.775C49.804 26.275 50.604 26.275 50.804 26.775C51.004 27.075 54.704 33.975 54.704 42.575C54.704 51.175 50.904 58.075 50.804 58.375C50.704 58.575 50.504 58.775 50.204 58.775ZM50.204 28.975C49.104 31.375 47.104 36.575 47.104 42.575C47.104 48.575 49.104 53.875 50.204 56.175C51.304 53.775 53.304 48.575 53.304 42.575C53.304 36.575 51.304 31.375 50.204 28.975Z" fill="#46587A" stroke="#46587A"/>
<path d="M62.2039 50.375C56.8039 55.775 50.2039 57.975 50.2039 57.975C50.2039 57.975 52.4039 51.375 57.8039 45.975C63.2039 40.575 69.8039 38.375 69.8039 38.375C69.8039 38.375 67.6039 44.975 62.2039 50.375Z" stroke="#46587A"/>
<path d="M50.2038 58.775C50.0038 58.775 49.8038 58.675 49.7038 58.575C49.5038 58.375 49.4038 58.075 49.5038 57.775C49.6038 57.475 51.8038 50.975 57.3038 45.475C62.8038 39.975 69.3038 37.775 69.6038 37.675C69.9038 37.575 70.2038 37.675 70.4038 37.875C70.6038 38.075 70.7038 38.375 70.6038 38.675C70.5038 38.975 68.3038 45.475 62.8038 50.975C57.3038 56.475 50.8038 58.675 50.5038 58.775C50.4038 58.775 50.3038 58.775 50.2038 58.775ZM68.4038 39.775C66.1038 40.775 62.0038 42.975 58.4038 46.575C54.8038 50.175 52.6038 54.375 51.6038 56.575C53.9038 55.575 58.0038 53.375 61.6038 49.775C65.2038 46.175 67.4038 42.075 68.4038 39.775Z" fill="#46587A" stroke="#46587A"/>
<path d="M38.204 50.375C43.604 55.775 50.204 57.975 50.204 57.975C50.204 57.975 48.004 51.375 42.604 45.975C37.204 40.575 30.604 38.375 30.604 38.375C30.604 38.375 32.804 44.975 38.204 50.375Z" stroke="#46587A"/>
<path d="M50.204 58.775C50.104 58.775 50.004 58.775 50.004 58.775C49.704 58.675 43.204 56.475 37.704 50.975C32.204 45.475 30.004 38.975 29.904 38.675C29.804 38.375 29.904 38.075 30.104 37.875C30.304 37.675 30.604 37.575 30.904 37.675C31.204 37.775 37.704 39.975 43.204 45.475C48.704 50.975 50.904 57.475 51.004 57.775C51.104 58.075 51.004 58.375 50.804 58.575C50.604 58.675 50.404 58.775 50.204 58.775ZM32.004 39.775C33.004 42.075 35.204 46.175 38.804 49.775C42.404 53.375 46.604 55.575 48.804 56.575C47.804 54.275 45.604 50.175 42.004 46.575C38.404 42.975 34.204 40.775 32.004 39.775Z" fill="#46587A" stroke="#46587A"/>
<path d="M41.0037 60.275C46.1037 60.275 50.2037 57.975 50.2037 57.975C50.2037 57.975 46.1037 55.675 41.0037 55.675C35.9037 55.675 31.8037 57.975 31.8037 57.975C31.8037 57.975 35.9037 60.275 41.0037 60.275Z" stroke="#46587A"/>
<path d="M41.0039 61.075C35.8039 61.075 31.6039 58.775 31.4039 58.675C31.2039 58.575 31.0039 58.275 31.0039 57.975C31.0039 57.675 31.1039 57.475 31.4039 57.275C31.6039 57.175 35.8039 54.875 41.0039 54.875C46.2039 54.875 50.4039 57.175 50.6039 57.275C50.8039 57.375 51.0039 57.675 51.0039 57.975C51.0039 58.275 50.8039 58.475 50.6039 58.675C50.4039 58.775 46.2039 61.075 41.0039 61.075ZM33.5039 57.975C35.1039 58.575 37.8039 59.475 40.9039 59.475C44.0039 59.475 46.7039 58.575 48.3039 57.975C46.7039 57.275 44.0039 56.475 40.9039 56.475C37.9039 56.475 35.1039 57.375 33.5039 57.975Z" fill="#46587A" stroke="#46587A"/>
<path d="M59.4039 60.275C64.5039 60.275 68.6039 57.975 68.6039 57.975C68.6039 57.975 64.5039 55.675 59.4039 55.675C54.3039 55.675 50.2039 57.975 50.2039 57.975C50.2039 57.975 54.3039 60.275 59.4039 60.275Z" stroke="#46587A"/>
<path d="M59.4038 61.075C54.2038 61.075 50.0038 58.775 49.8038 58.675C49.6038 58.575 49.4038 58.275 49.4038 57.975C49.4038 57.675 49.6038 57.475 49.8038 57.275C50.0038 57.175 54.2038 54.875 59.4038 54.875C64.6038 54.875 68.8038 57.175 69.0038 57.275C69.2038 57.375 69.4038 57.675 69.4038 57.975C69.4038 58.275 69.3038 58.475 69.0038 58.675C68.9038 58.775 64.7038 61.075 59.4038 61.075ZM52.0038 57.975C53.6038 58.575 56.3038 59.475 59.4038 59.475C62.5038 59.475 65.2038 58.575 66.8038 57.975C65.2038 57.275 62.5038 56.475 59.4038 56.475C56.4038 56.475 53.6038 57.375 52.0038 57.975Z" fill="#46587A" stroke="#46587A"/>
<path d="M58.7039 74.175H41.7039C40.8039 74.175 40.2039 73.475 40.2039 72.675V71.175C40.2039 70.375 40.9039 69.675 41.7039 69.675H58.7039C59.5039 69.675 60.2039 70.375 60.2039 71.175V72.675C60.2039 73.475 59.5039 74.175 58.7039 74.175Z" stroke="#46587A"/>
<path d="M58.7038 74.975H41.7038C40.4038 74.975 39.4038 73.975 39.4038 72.675V71.175C39.4038 69.875 40.4038 68.875 41.7038 68.875H58.7038C60.0038 68.875 61.0038 69.875 61.0038 71.175V72.675C61.0038 73.875 59.9038 74.975 58.7038 74.975ZM41.7038 70.275C41.3038 70.275 40.9038 70.575 40.9038 71.075V72.575C40.9038 72.975 41.2038 73.375 41.7038 73.375H58.7038C59.1038 73.375 59.5038 73.075 59.5038 72.575V71.075C59.5038 70.675 59.2038 70.275 58.7038 70.275H41.7038Z" fill="#46587A" stroke="#46587A"/>
<path d="M55.0039 87.975H45.3039C44.5039 87.975 43.9039 87.475 43.8039 86.675L41.7039 74.175H58.7039L56.6039 86.775C56.4039 87.475 55.8039 87.975 55.0039 87.975Z" stroke="#46587A"/>
<path d="M55.0039 88.775H45.3039C44.2039 88.775 43.2039 87.975 43.0039 86.875L41.0039 74.275C41.0039 74.075 41.0039 73.775 41.2039 73.675C41.3039 73.475 41.6039 73.375 41.8039 73.375H58.7039C58.9039 73.375 59.1039 73.475 59.3039 73.675C59.4039 73.875 59.5039 74.075 59.5039 74.275L57.4039 86.875C57.1039 87.975 56.2039 88.775 55.0039 88.775ZM42.6039 74.975L44.5039 86.675C44.6039 87.075 44.9039 87.275 45.3039 87.275H55.0039C55.4039 87.275 55.7039 86.975 55.8039 86.675L57.7039 74.975H42.6039Z" fill="#46587A" stroke="#46587A"/>
<path d="M73.3039 88.775H59.4039C59.0039 88.775 58.6039 88.475 58.6039 87.975C58.6039 87.575 58.9039 87.175 59.4039 87.175H73.3039C73.7039 87.175 74.1039 86.875 74.1039 86.375V51.075C74.1039 50.675 74.4039 50.275 74.9039 50.275H85.1039C85.6039 50.275 85.8039 49.875 85.8039 49.775C85.8039 49.675 86.0039 49.275 85.6039 48.975L50.7039 12.775C50.4039 12.475 49.9039 12.475 49.6039 12.775L14.8039 48.975C14.5039 49.275 14.6039 49.675 14.6039 49.775C14.6039 49.875 14.8039 50.275 15.3039 50.275H25.5039C25.9039 50.275 26.3039 50.575 26.3039 51.075V86.475C26.3039 86.875 26.6039 87.275 27.1039 87.275H41.0039C41.4039 87.275 41.8039 87.575 41.8039 88.075C41.8039 88.475 41.5039 88.875 41.0039 88.875H27.1039C25.8039 88.875 24.8039 87.875 24.8039 86.575V51.875H15.3039C14.4039 51.875 13.5039 51.375 13.2039 50.475C12.8039 49.575 13.0039 48.675 13.7039 47.975L48.5039 11.675C49.4039 10.775 51.0039 10.775 51.8039 11.675L86.7039 47.975C87.4039 48.675 87.5039 49.575 87.2039 50.475C86.8039 51.375 86.0039 51.875 85.1039 51.875H75.6039V86.475C75.6039 87.775 74.6039 88.775 73.3039 88.775Z" fill="#46587A" stroke="#46587A"/>
</svg>
