<svg width="100" height="100" viewBox="0 0 100 100" fill="none" xmlns="http://www.w3.org/2000/svg">
<path d="M65.3 54C56.9 62.4 43.2 62.4 34.8 54C26.4 45.6 26.4 31.9 34.8 23.5C43.2 15.1 56.9 15.1 65.3 23.5C73.7 32 73.7 45.6 65.3 54Z" stroke="#46587A"/>
<path d="M50.0999 61.1C44.3999 61.1 38.6999 58.9 34.2999 54.6C25.5999 45.9 25.5999 31.7 34.2999 23C42.9999 14.3 57.1999 14.3 65.8999 23C74.5999 31.7 74.5999 45.9 65.8999 54.6C61.4999 58.9 55.7999 61.1 50.0999 61.1ZM50.0999 18C44.7999 18 39.4999 20 35.3999 24.1C27.2999 32.2 27.2999 45.4 35.3999 53.5C43.4999 61.6 56.6999 61.6 64.7999 53.5C72.8999 45.4 72.8999 32.2 64.7999 24.1C60.6999 20 55.3999 18 50.0999 18Z" fill="#46587A" stroke="#46587A"/>
<path d="M20.8 77.3C20.4 77.3 20 77 20 76.5V16.5C20 11.8 23.8 8 28.5 8H75.5C78 8 80.1 10.1 80.1 12.6V68.8C80.1 69.2 79.8 69.6 79.3 69.6H28.5C24.7 69.6 21.6 72.7 21.6 76.5C21.6 76.9 21.3 77.3 20.8 77.3ZM28.5 9.5C24.7 9.5 21.6 12.6 21.6 16.4V71.6C23.1 69.4 25.7 68 28.5 68H78.5V12.6C78.5 10.9 77.1 9.5 75.4 9.5H28.5Z" fill="#46587A" stroke="#46587A"/>
<path d="M75.5 85H28.5C26.1 85 23.8 84 22.2 82.2C20.7 80.6 20 78.6 20 76.4V16.5C20 11.8 23.8 8 28.5 8H75.5C78 8 80.1 10.1 80.1 12.6V68.8C80.1 69.2 79.8 69.6 79.3 69.6H28.9C25.2 69.6 22 72.3 21.7 75.8C21.7 76 21.7 76.2 21.7 76.4V76.5C21.7 78.2 22.3 79.8 23.5 81.1C24.8 82.5 26.7 83.4 28.6 83.4H75.6C77.3 83.4 78.7 82 78.7 80.3V72C78.7 71.6 79 71.2 79.5 71.2C79.9 71.2 80.3 71.5 80.3 72V80.3C80.1 82.9 78 85 75.5 85ZM28.5 9.5C24.7 9.5 21.6 12.6 21.6 16.4V71.7C23.2 69.5 25.9 68 28.9 68H78.6V12.6C78.6 10.9 77.2 9.5 75.5 9.5H28.5Z" fill="#46587A" stroke="#46587A"/>
<path d="M28.5 79.6V91.9L32.4 88.8L36.2 91.9V79.6H28.5Z" fill="#46587A" stroke="#46587A"/>
<path d="M36.2 92.6999C36 92.6999 35.9 92.5999 35.7 92.4999L32.3 89.7999L28.9 92.4999C28.7 92.6999 28.4 92.6999 28.1 92.5999C27.8 92.4999 27.7 92.1999 27.7 91.8999V79.5999C27.7 79.1999 28 78.7999 28.5 78.7999C28.9 78.7999 29.3 79.0999 29.3 79.5999V90.2999L31.9 88.1999C32.2 87.9999 32.6 87.9999 32.9 88.1999L35.5 90.2999V79.5999C35.5 79.1999 35.8 78.7999 36.3 78.7999C36.7 78.7999 37.1 79.0999 37.1 79.5999V91.8999C37.1 92.1999 36.9 92.4999 36.7 92.5999C36.5 92.5999 36.3 92.6999 36.2 92.6999Z" fill="#46587A" stroke="#46587A"/>
<path d="M73.2 77.2999H27C26.6 77.2999 26.2 77 26.2 76.5C26.2 76.1 26.5 75.7 27 75.7H73.2C73.6 75.7 74 76 74 76.5C73.9 76.9 73.6 77.2999 73.2 77.2999Z" fill="#46587A" stroke="#46587A"/>
<path d="M74.7001 21.7999C74.3001 21.7999 73.9001 21.4999 73.9001 20.9999V14.7999C73.9001 14.3999 73.6001 13.9999 73.1001 13.9999H66.9001C66.5001 13.9999 66.1001 13.6999 66.1001 13.1999C66.1001 12.7999 66.4001 12.3999 66.9001 12.3999H73.1001C74.4001 12.3999 75.4001 13.3999 75.4001 14.6999V20.8999C75.5001 21.4999 75.1001 21.7999 74.7001 21.7999Z" fill="#46587A" stroke="#46587A"/>
<path d="M55.0001 52.3C54.8001 52.3 54.6001 52.2 54.4001 52L50.1001 47.2L45.8001 52C45.5001 52.3 45.0001 52.3 44.7001 52.1C44.4001 51.8 44.4001 51.3 44.6001 51L49.5001 45.6C49.8001 45.3 50.3001 45.3 50.6001 45.6L55.5001 51C55.8001 51.3 55.8001 51.8 55.4001 52.1C55.3001 52.2 55.2001 52.3 55.0001 52.3Z" fill="#46587A" stroke="#46587A"/>
<path d="M50.1 56.8999C49.7 56.8999 49.3 56.5999 49.3 56.0999V46.0999C49.3 45.6999 49.6 45.2999 50.1 45.2999C50.5 45.2999 50.9 45.5999 50.9 46.0999V56.0999C50.8 56.4999 50.5 56.8999 50.1 56.8999Z" fill="#46587A" stroke="#46587A"/>
<path d="M53.2 33.8C53.2 40.6 50.1 46.1 50.1 46.1C50.1 46.1 47 40.6 47 33.8C47 27 50.1 21.5 50.1 21.5C50.1 21.5 53.2 27 53.2 33.8Z" stroke="#46587A"/>
<path d="M50.1 46.9C49.8 46.9 49.6 46.7 49.4 46.5C49.3 46.3 46.2 40.7 46.2 33.8C46.2 26.9 49.2 21.3 49.4 21.1C49.7 20.6 50.5 20.6 50.7 21.1C50.9 21.3 53.9 26.9 53.9 33.8C53.9 40.7 50.9 46.3 50.7 46.5C50.6 46.7 50.4 46.9 50.1 46.9ZM50.1 23.2C49.2 25.2 47.8 29.2 47.8 33.7C47.8 38.2 49.2 42.2 50.1 44.2C51 42.2 52.4 38.2 52.4 33.7C52.4 29.2 51 25.3 50.1 23.2Z" fill="#46587A" stroke="#46587A"/>
<path d="M56.2 48.3999C52.8 48.3999 50 46.0999 50 46.0999C50 46.0999 52.8 43.7999 56.2 43.7999C59.6 43.7999 62.4 46.0999 62.4 46.0999C62.4 46.0999 59.6 48.3999 56.2 48.3999Z" stroke="#46587A"/>
<path d="M56.2 49.2C52.6 49.2 49.7 46.8 49.5 46.7C49.3 46.6 49.2 46.3 49.2 46.1C49.2 45.9 49.3 45.7 49.5 45.5C49.6 45.4 52.5 43 56.2 43C59.8 43 62.7 45.4 62.9 45.5C63.1 45.6 63.2 45.9 63.2 46.1C63.2 46.3 63.1 46.5 62.9 46.7C62.8 46.8 59.9 49.2 56.2 49.2ZM51.4 46.1C52.4 46.7 54.2 47.6 56.2 47.6C58.2 47.6 60 46.7 61 46.1C60 45.5 58.2 44.6 56.2 44.6C54.2 44.6 52.4 45.5 51.4 46.1Z" fill="#46587A" stroke="#46587A"/>
<path d="M43.9 48.3999C47.3 48.3999 50.1 46.0999 50.1 46.0999C50.1 46.0999 47.3 43.7999 43.9 43.7999C40.5 43.7999 37.7 46.0999 37.7 46.0999C37.7 46.0999 40.5 48.3999 43.9 48.3999Z" stroke="#46587A"/>
<path d="M43.8999 49.2C40.2999 49.2 37.3999 46.8 37.1999 46.7C36.9999 46.6 36.8999 46.3 36.8999 46.1C36.8999 45.9 36.9999 45.7 37.1999 45.5C37.2999 45.4 40.1999 43 43.8999 43C47.4999 43 50.3999 45.4 50.5999 45.5C50.7999 45.6 50.8999 45.9 50.8999 46.1C50.8999 46.3 50.7999 46.5 50.5999 46.7C50.4999 46.8 47.5999 49.2 43.8999 49.2ZM39.0999 46.1C40.0999 46.7 41.8999 47.6 43.8999 47.6C45.8999 47.6 47.6999 46.7 48.6999 46.1C47.6999 45.5 45.8999 44.6 43.8999 44.6C41.8999 44.6 40.0999 45.5 39.0999 46.1Z" fill="#46587A" stroke="#46587A"/>
<path d="M59.3 40.0999C55.1 44.2999 50 46.0999 50 46.0999C50 46.0999 51.8 41.0999 56 36.7999C60.2 32.5999 65.3 30.7999 65.3 30.7999C65.3 30.7999 63.5 35.8999 59.3 40.0999Z" stroke="#46587A"/>
<path d="M50.1001 46.9C49.9001 46.9 49.7001 46.8 49.6001 46.7C49.4001 46.5 49.3001 46.2 49.4001 45.9C49.5001 45.7 51.3001 40.6 55.6001 36.4C59.9001 32.1 64.9001 30.3 65.1001 30.2C65.4001 30.1 65.7001 30.2 65.9001 30.4C66.1001 30.6 66.2001 30.9 66.1001 31.2C66.0001 31.4 64.2001 36.5 59.9001 40.7C55.6001 45 50.6001 46.8 50.4001 46.9C50.3001 46.8 50.2001 46.9 50.1001 46.9ZM63.8001 32.3C62.0001 33.2 59.1001 34.8 56.6001 37.4C54.0001 40 52.4001 42.8 51.5001 44.6C53.3001 43.7 56.2001 42.1 58.7001 39.5C61.3001 37 63.0001 34.1 63.8001 32.3Z" fill="#46587A" stroke="#46587A"/>
<path d="M40.8 40.0999C45 44.2999 50.1 46.0999 50.1 46.0999C50.1 46.0999 48.3 41.0999 44.1 36.7999C39.9001 32.5999 34.8 30.7999 34.8 30.7999C34.8 30.7999 36.6 35.8999 40.8 40.0999Z" stroke="#46587A"/>
<path d="M50.1 46.9C50 46.9 49.9 46.9 49.8 46.9C49.6 46.8 44.5 45 40.3 40.7C36 36.4 34.2 31.4 34.1 31.2C34 30.9 34.1 30.6 34.3 30.4C34.5 30.2 34.8 30.1 35.1 30.2C35.3 30.3 40.4 32.1 44.6 36.4C48.9 40.7 50.7 45.7 50.8 45.9C50.9 46.2 50.8 46.5 50.6 46.7C50.5 46.8 50.3 46.9 50.1 46.9ZM36.3 32.3C37.2 34.1 38.8 37 41.4 39.5C43.9 42 46.8 43.7 48.6 44.6C47.7 42.8 46.1 39.9 43.5 37.4C41 34.8 38.1 33.2 36.3 32.3Z" fill="#46587A" stroke="#46587A"/>
</svg>
