<svg width="100" height="100" viewBox="0 0 100 100" fill="none" xmlns="http://www.w3.org/2000/svg">
<path d="M65.2708 54.03C56.8508 62.45 43.2108 62.45 34.7908 54.03C26.3708 45.61 26.3708 31.97 34.7908 23.55C43.2108 15.13 56.8508 15.13 65.2708 23.55C73.6808 31.97 73.6808 45.61 65.2708 54.03Z" fill="#6FCF97" stroke="#46587A"/>
<path d="M50.0308 61.1C44.3208 61.1 38.6008 58.93 34.2508 54.57C25.5508 45.87 25.5508 31.7 34.2508 23C42.9508 14.29 57.1208 14.29 65.8208 23C74.5208 31.7 74.5208 45.86 65.8208 54.57C61.4608 58.93 55.7408 61.1 50.0308 61.1ZM50.0308 18.02C44.7108 18.02 39.3808 20.04 35.3308 24.1C27.2308 32.2 27.2308 45.39 35.3308 53.49C43.4408 61.6 56.6208 61.59 64.7208 53.49C72.8208 45.39 72.8208 32.21 64.7208 24.1C60.6708 20.04 55.3508 18.02 50.0308 18.02ZM65.2708 54.03H65.2908H65.2708Z" fill="#46587A" stroke="#46587A"/>
<path d="M20.7807 77.28C20.3507 77.28 20.0107 76.94 20.0107 76.51V16.47C20.0107 11.8 23.8107 8 28.4807 8H75.4407C77.9907 8 80.0607 10.07 80.0607 12.62V68.81C80.0607 69.23 79.7207 69.58 79.2907 69.58H28.4907C24.6707 69.58 21.5607 72.69 21.5607 76.51C21.5507 76.93 21.2007 77.28 20.7807 77.28ZM28.4707 9.54C24.6507 9.54 21.5407 12.65 21.5407 16.47V71.65C23.0807 69.48 25.6107 68.05 28.4707 68.05H78.5107V12.62C78.5107 10.92 77.1307 9.54 75.4307 9.54H28.4707Z" fill="#46587A" stroke="#46587A"/>
<path d="M75.4308 84.98H28.4708C26.0908 84.98 23.8108 83.97 22.2008 82.21C20.7408 80.6 19.9708 78.56 20.0008 76.4V16.47C20.0008 11.8 23.8008 8 28.4708 8H75.4308C77.9808 8 80.0508 10.07 80.0508 12.62V68.81C80.0508 69.23 79.7108 69.58 79.2808 69.58H28.8108C25.0908 69.58 21.9208 72.33 21.5908 75.83C21.5708 76.03 21.5608 76.23 21.5508 76.43V76.51V76.54C21.5608 78.26 22.1808 79.88 23.3508 81.17C24.6608 82.61 26.5308 83.44 28.4808 83.44H75.4408C77.1408 83.44 78.5208 82.06 78.5208 80.36V72.1C78.5208 71.67 78.8608 71.33 79.2908 71.33C79.7208 71.33 80.0608 71.67 80.0608 72.1V80.36C80.0508 82.9 77.9808 84.98 75.4308 84.98ZM28.4708 9.54C24.6508 9.54 21.5408 12.65 21.5408 16.47V71.73C23.1408 69.5 25.8308 68.04 28.8008 68.04H78.5008V12.62C78.5008 10.92 77.1208 9.54 75.4208 9.54H28.4708Z" fill="#46587A" stroke="#46587A"/>
<path d="M28.4709 79.59V91.9L32.3209 88.82L36.1709 91.9V79.59H28.4709Z" fill="#F2C94C" stroke="#46587A"/>
<path d="M36.1709 92.6699C36.0009 92.6699 35.8309 92.6199 35.6909 92.4999L32.3209 89.7999L28.9509 92.4999C28.7209 92.6899 28.4009 92.72 28.1309 92.59C27.8609 92.46 27.6909 92.1899 27.6909 91.8899V79.59C27.6909 79.17 28.0309 78.8199 28.4609 78.8199C28.8909 78.8199 29.2309 79.16 29.2309 79.59V90.2999L31.8309 88.2199C32.1109 87.9999 32.5109 87.9999 32.7909 88.2199L35.3909 90.2999V79.59C35.3909 79.17 35.7309 78.8199 36.1609 78.8199C36.5909 78.8199 36.9309 79.16 36.9309 79.59V91.91C36.9309 92.21 36.7609 92.4799 36.5009 92.6099C36.4009 92.6499 36.2909 92.6699 36.1709 92.6699Z" fill="#46587A" stroke="#46587A"/>
<path d="M73.1209 77.28H26.9409C26.5209 77.28 26.1709 76.94 26.1709 76.51C26.1709 76.08 26.5109 75.74 26.9409 75.74H73.1309C73.5509 75.74 73.9009 76.08 73.9009 76.51C73.8909 76.93 73.5509 77.28 73.1209 77.28Z" fill="#46587A" stroke="#46587A"/>
<path d="M74.6609 21.86C74.2409 21.86 73.8909 21.52 73.8909 21.09V14.93C73.8909 14.51 73.5409 14.16 73.1209 14.16H66.9609C66.5309 14.16 66.1909 13.82 66.1909 13.39C66.1909 12.96 66.5309 12.62 66.9609 12.62H73.1209C74.3909 12.62 75.4309 13.66 75.4309 14.93V21.09C75.4309 21.51 75.0809 21.86 74.6609 21.86Z" fill="#46587A" stroke="#46587A"/>
<path d="M54.931 52.26C54.721 52.26 54.5109 52.17 54.3609 52.01L50.0309 47.25L45.7009 52.01C45.4109 52.33 44.9309 52.35 44.6109 52.06C44.2909 51.77 44.2709 51.29 44.5609 50.98L49.4609 45.59C49.7509 45.27 50.3109 45.27 50.6009 45.59L55.5009 50.98C55.7909 51.29 55.7609 51.78 55.4509 52.06C55.3009 52.19 55.111 52.26 54.931 52.26Z" fill="#46587A" stroke="#46587A"/>
<path d="M50.0307 56.88C49.6007 56.88 49.2607 56.54 49.2607 56.11V46.1C49.2607 45.67 49.6007 45.33 50.0307 45.33C50.4507 45.33 50.8007 45.67 50.8007 46.1V56.11C50.8007 56.54 50.4507 56.88 50.0307 56.88Z" fill="#46587A" stroke="#46587A"/>
<path d="M53.1109 33.79C53.1109 40.59 50.0309 46.11 50.0309 46.11C50.0309 46.11 46.9509 40.59 46.9509 33.79C46.9509 26.99 50.0309 21.47 50.0309 21.47C50.0309 21.47 53.1109 26.99 53.1109 33.79Z" fill="white" stroke="#46587A"/>
<path d="M50.0309 46.87C49.7509 46.87 49.4909 46.72 49.3609 46.47C49.2309 46.24 46.1809 40.7 46.1809 33.78C46.1809 26.86 49.2309 21.32 49.3609 21.09C49.6309 20.6 50.4309 20.6 50.7009 21.09C50.8309 21.32 53.8809 26.86 53.8809 33.78C53.8809 40.7 50.8309 46.24 50.7009 46.47C50.5609 46.72 50.3109 46.87 50.0309 46.87ZM50.0309 23.25C49.1509 25.27 47.7209 29.25 47.7209 33.78C47.7209 38.31 49.1509 42.29 50.0309 44.32C50.9109 42.3 52.3409 38.32 52.3409 33.78C52.3409 29.25 50.9109 25.27 50.0309 23.25Z" fill="#46587A" stroke="#46587A"/>
<path d="M56.1908 48.41C52.7908 48.41 50.0308 46.1 50.0308 46.1C50.0308 46.1 52.7908 43.79 56.1908 43.79C59.5908 43.79 62.3508 46.1 62.3508 46.1C62.3508 46.1 59.5908 48.41 56.1908 48.41Z" fill="white" stroke="#46587A"/>
<path d="M56.1908 49.18C52.5508 49.18 49.6608 46.79 49.5408 46.69C49.3708 46.54 49.2708 46.33 49.2708 46.1C49.2708 45.87 49.3708 45.66 49.5408 45.51C49.6608 45.41 52.5608 43.02 56.1908 43.02C59.8308 43.02 62.7208 45.41 62.8408 45.51C63.0108 45.66 63.1208 45.87 63.1208 46.1C63.1208 46.33 63.0208 46.54 62.8408 46.69C62.7208 46.79 59.8208 49.18 56.1908 49.18ZM51.3708 46.1C52.3808 46.73 54.1808 47.64 56.1908 47.64C58.2008 47.64 60.0008 46.73 61.0108 46.1C60.0008 45.47 58.2008 44.56 56.1908 44.56C54.1708 44.56 52.3708 45.47 51.3708 46.1Z" fill="#46587A" stroke="#46587A"/>
<path d="M43.8709 48.41C47.2709 48.41 50.0309 46.1 50.0309 46.1C50.0309 46.1 47.2709 43.79 43.8709 43.79C40.4709 43.79 37.7109 46.1 37.7109 46.1C37.7109 46.1 40.4709 48.41 43.8709 48.41Z" fill="white" stroke="#46587A"/>
<path d="M43.8709 49.18C40.2309 49.18 37.3409 46.79 37.2209 46.69C37.0509 46.54 36.9409 46.33 36.9409 46.1C36.9409 45.87 37.0409 45.66 37.2209 45.51C37.3409 45.41 40.2309 43.02 43.8709 43.02C47.5109 43.02 50.4009 45.41 50.5209 45.51C50.6909 45.66 50.8009 45.87 50.8009 46.1C50.8009 46.33 50.7009 46.54 50.5209 46.69C50.4009 46.79 47.5109 49.18 43.8709 49.18ZM39.0509 46.1C40.0509 46.73 41.8509 47.64 43.8709 47.64C45.8809 47.64 47.6809 46.73 48.6909 46.1C47.6809 45.47 45.8809 44.56 43.8709 44.56C41.8509 44.56 40.0609 45.47 39.0509 46.1Z" fill="#46587A" stroke="#46587A"/>
<path d="M59.2808 40.12C55.0708 44.33 50.0308 46.11 50.0308 46.11C50.0308 46.11 51.8108 41.06 56.0208 36.86C60.2308 32.65 65.2708 30.87 65.2708 30.87C65.2708 30.87 63.4908 35.91 59.2808 40.12Z" fill="white" stroke="#46587A"/>
<path d="M50.0308 46.87C49.8308 46.87 49.6308 46.79 49.4908 46.64C49.2808 46.43 49.2108 46.12 49.3108 45.84C49.3808 45.63 51.2008 40.58 55.4808 36.3C59.7608 32.02 64.8108 30.21 65.0208 30.13C65.3008 30.04 65.6108 30.11 65.8208 30.32C66.0308 30.53 66.1008 30.84 66.0008 31.12C65.9208 31.33 64.1108 36.38 59.8308 40.66C55.5508 44.94 50.5008 46.75 50.2908 46.83C50.2008 46.86 50.1108 46.87 50.0308 46.87ZM63.7908 32.34C62.0008 33.21 59.1008 34.85 56.5608 37.39C54.0108 39.94 52.3708 42.83 51.5108 44.62C53.3008 43.75 56.1908 42.11 58.7408 39.57C61.2908 37.02 62.9308 34.13 63.7908 32.34Z" fill="#46587A" stroke="#46587A"/>
<path d="M40.7708 40.12C44.9808 44.33 50.0208 46.11 50.0208 46.11C50.0208 46.11 48.2408 41.06 44.0308 36.86C39.8208 32.65 34.7808 30.87 34.7808 30.87C34.7808 30.87 36.5708 35.91 40.7708 40.12Z" fill="white" stroke="#46587A"/>
<path d="M50.0308 46.87C49.9408 46.87 49.8608 46.86 49.7708 46.83C49.5608 46.75 44.5108 44.94 40.2308 40.66C35.9508 36.38 34.1408 31.33 34.0608 31.12C33.9608 30.84 34.0308 30.53 34.2408 30.32C34.4508 30.12 34.7708 30.04 35.0408 30.14C35.2508 30.22 40.3008 32.03 44.5808 36.31C48.8608 40.59 50.6708 45.64 50.7508 45.85C50.8508 46.13 50.7808 46.44 50.5708 46.65C50.4208 46.79 50.2308 46.87 50.0308 46.87ZM36.2708 32.34C37.1408 34.13 38.7808 37.02 41.3208 39.57C43.8708 42.12 46.7508 43.75 48.5508 44.62C47.6808 42.83 46.0408 39.93 43.5008 37.39C40.9408 34.84 38.0608 33.2 36.2708 32.34Z" fill="#46587A" stroke="#46587A"/>
</svg>
