<svg width="100" height="100" viewBox="0 0 100 100" fill="none" xmlns="http://www.w3.org/2000/svg">
<path d="M53.0626 83.0275H9.96262C9.54262 83.0275 9.19262 82.6775 9.19262 82.2575V49.1575H4.31262C3.37262 49.1575 2.56262 48.6175 2.19262 47.7575C1.82262 46.8875 1.99262 45.9375 2.64262 45.2575L29.8426 16.6975C30.7226 15.7675 32.3126 15.7675 33.1826 16.6975L60.3826 45.2575C61.0326 45.9375 61.2026 46.8975 60.8326 47.7575C60.4626 48.6175 59.6526 49.1575 58.7126 49.1575H53.8326V82.2575C53.8326 82.6775 53.4926 83.0275 53.0626 83.0275ZM10.7326 81.4875H52.3026V48.3875C52.3026 47.9675 52.6426 47.6175 53.0726 47.6175H58.7226C59.1926 47.6175 59.3826 47.2575 59.4326 47.1475C59.4826 47.0375 59.6026 46.6575 59.2826 46.3175L32.0826 17.7575C31.7926 17.4475 31.2626 17.4475 30.9626 17.7575L3.75262 46.3175C3.43262 46.6575 3.55262 47.0375 3.60262 47.1475C3.65262 47.2575 3.84262 47.6175 4.31262 47.6175H9.95262C10.3826 47.6175 10.7226 47.9675 10.7226 48.3875V81.4875H10.7326Z" fill="#46587A" stroke="#46587A"/>
<path d="M80.2925 73.7875C80.0825 73.7875 79.8725 73.6975 79.7225 73.5375L75.3925 68.7776L71.0625 73.5375C70.7725 73.8575 70.2925 73.8776 69.9725 73.5876C69.6525 73.2976 69.6325 72.8176 69.9225 72.4976L74.8225 67.1076C75.1125 66.7876 75.6725 66.7876 75.9625 67.1076L80.8625 72.4976C81.1525 72.8176 81.1225 73.2976 80.8125 73.5876C80.6525 73.7176 80.4725 73.7875 80.2925 73.7875Z" fill="#46587A" stroke="#46587A"/>
<path d="M75.3825 73.7875C74.9525 73.7875 74.6125 73.4375 74.6125 73.0175V67.6275C74.6125 67.2075 74.9525 66.8575 75.3825 66.8575C75.8025 66.8575 76.1525 67.2075 76.1525 67.6275V73.0175C76.1525 73.4375 75.8125 73.7875 75.3825 73.7875Z" fill="#46587A" stroke="#46587A"/>
<path d="M78.4627 55.3075C78.4627 62.1075 75.3827 67.6275 75.3827 67.6275C75.3827 67.6275 72.3027 62.1075 72.3027 55.3075C72.3027 48.5075 75.3827 42.9875 75.3827 42.9875C75.3827 42.9875 78.4627 48.5075 78.4627 55.3075Z" fill="#6FCF97"/>
<path d="M75.3827 68.3975C75.1027 68.3975 74.8427 68.2475 74.7127 68.0075C74.5827 67.7775 71.5327 62.2375 71.5327 55.3175C71.5327 48.3975 74.5727 42.8575 74.7127 42.6275C74.9827 42.1375 75.7827 42.1375 76.0527 42.6275C76.1827 42.8575 79.2327 48.3975 79.2327 55.3175C79.2327 62.2375 76.1827 67.7775 76.0527 68.0075C75.9227 68.2475 75.6627 68.3975 75.3827 68.3975ZM75.3827 44.7775C74.5027 46.7975 73.0727 50.7775 73.0727 55.3075C73.0727 59.8375 74.5027 63.8175 75.3827 65.8475C76.2627 63.8275 77.6927 59.8475 77.6927 55.3075C77.6927 50.7775 76.2627 46.7975 75.3827 44.7775Z" fill="#46587A" stroke="#46587A"/>
<path d="M81.5426 69.9375C78.1426 69.9375 75.3826 67.6275 75.3826 67.6275C75.3826 67.6275 78.1426 65.3175 81.5426 65.3175C84.9426 65.3175 87.7026 67.6275 87.7026 67.6275C87.7026 67.6275 84.9426 69.9375 81.5426 69.9375Z" fill="#6FCF97"/>
<path d="M81.5425 70.7075C77.9025 70.7075 75.0125 68.3275 74.8925 68.2175C74.7225 68.0675 74.6125 67.8575 74.6125 67.6275C74.6125 67.3975 74.7125 67.1775 74.8925 67.0375C75.0125 66.9375 77.9025 64.5475 81.5425 64.5475C85.1825 64.5475 88.0725 66.9375 88.1925 67.0375C88.3625 67.1775 88.4725 67.3975 88.4725 67.6275C88.4725 67.8575 88.3725 68.0675 88.1925 68.2175C88.0725 68.3175 85.1825 70.7075 81.5425 70.7075ZM76.7225 67.6275C77.7225 68.2575 79.5225 69.1675 81.5425 69.1675C83.5525 69.1675 85.3525 68.2575 86.3625 67.6275C85.3525 66.9975 83.5525 66.0875 81.5425 66.0875C79.5325 66.0875 77.7325 66.9975 76.7225 67.6275Z" fill="#46587A" stroke="#46587A"/>
<path d="M69.2328 69.9375C72.6328 69.9375 75.3928 67.6275 75.3928 67.6275C75.3928 67.6275 72.6328 65.3175 69.2328 65.3175C65.8328 65.3175 63.0728 67.6275 63.0728 67.6275C63.0728 67.6275 65.8328 69.9375 69.2328 69.9375Z" fill="#6FCF97"/>
<path d="M69.2327 70.7075C65.5927 70.7075 62.7027 68.3275 62.5827 68.2175C62.4027 68.0675 62.3027 67.8575 62.3027 67.6275C62.3027 67.3975 62.4027 67.1775 62.5827 67.0375C62.7027 66.9375 65.5927 64.5475 69.2327 64.5475C72.8727 64.5475 75.7627 66.9375 75.8827 67.0375C76.0527 67.1775 76.1627 67.3975 76.1627 67.6275C76.1627 67.8575 76.0627 68.0675 75.8827 68.2175C75.7627 68.3175 72.8727 70.7075 69.2327 70.7075ZM64.4127 67.6275C65.4227 68.2575 67.2127 69.1675 69.2327 69.1675C71.2427 69.1675 73.0427 68.2575 74.0527 67.6275C73.0527 66.9975 71.2527 66.0875 69.2327 66.0875C67.2127 66.0875 65.4127 66.9975 64.4127 67.6275Z" fill="#46587A" stroke="#46587A"/>
<path d="M84.6426 61.6376C80.4326 65.8476 75.3926 67.6276 75.3926 67.6276C75.3926 67.6276 77.1726 62.5776 81.3826 58.3776C85.5926 54.1676 90.6426 52.3976 90.6426 52.3976C90.6426 52.3976 88.8426 57.4376 84.6426 61.6376Z" fill="#6FCF97"/>
<path d="M75.3826 68.3976C75.1826 68.3976 74.9826 68.3176 74.8326 68.1676C74.6226 67.9576 74.5526 67.6476 74.6526 67.3676C74.7326 67.1576 76.5426 62.1076 80.8226 57.8276C85.1026 53.5376 90.1526 51.7276 90.3626 51.6576C90.6426 51.5576 90.9526 51.6276 91.1626 51.8376C91.3726 52.0476 91.4426 52.3576 91.3426 52.6376C91.2726 52.8476 89.4526 57.8976 85.1726 62.1776C80.8926 66.4676 75.8426 68.2676 75.6326 68.3476C75.5626 68.3876 75.4726 68.3976 75.3826 68.3976ZM89.1526 53.8676C87.3626 54.7376 84.4626 56.3776 81.9226 58.9176C79.3726 61.4676 77.7326 64.3576 76.8626 66.1476C78.6526 65.2776 81.5526 63.6376 84.0926 61.0976C86.6526 58.5476 88.2826 55.6576 89.1526 53.8676Z" fill="#46587A" stroke="#46587A"/>
<path d="M66.1326 61.6376C70.3426 65.8476 75.3826 67.6276 75.3826 67.6276C75.3826 67.6276 73.6026 62.5776 69.3926 58.3776C65.1826 54.1676 60.1426 52.3976 60.1426 52.3976C60.1426 52.3976 61.9226 57.4376 66.1326 61.6376Z" fill="#6FCF97"/>
<path d="M75.3826 68.3976C75.3026 68.3976 75.2126 68.3776 75.1226 68.3476C74.9126 68.2776 69.8626 66.4676 65.5826 62.1776C61.3026 57.8976 59.4926 52.8476 59.4126 52.6376C59.3126 52.3576 59.3826 52.0476 59.5926 51.8376C59.8026 51.6276 60.1226 51.5576 60.3926 51.6576C60.6026 51.7376 65.6526 53.5376 69.9326 57.8276C74.2126 62.1076 76.0226 67.1576 76.1026 67.3676C76.2026 67.6476 76.1326 67.9576 75.9226 68.1676C75.7826 68.3176 75.5826 68.3976 75.3826 68.3976ZM61.6226 53.8676C62.4926 55.6576 64.1326 58.5476 66.6726 61.0976C69.2226 63.6476 72.1026 65.2876 73.9026 66.1476C73.0326 64.3476 71.4026 61.4576 68.8526 58.9176C66.3026 56.3676 63.4126 54.7376 61.6226 53.8676Z" fill="#46587A" stroke="#46587A"/>
<path d="M96.1727 76.0975H53.0627V82.2575H96.1727C97.0227 82.2575 97.7127 81.5675 97.7127 80.7175V77.6375C97.7127 76.7875 97.0227 76.0975 96.1727 76.0975Z" fill="#F2C94C" stroke="#46587A"/>
<path d="M96.1727 83.0275H53.0627C52.6427 83.0275 52.2927 82.6775 52.2927 82.2575V76.0975C52.2927 75.6675 52.6327 75.3275 53.0627 75.3275H96.1727C97.4427 75.3275 98.4827 76.3675 98.4827 77.6375V80.7175C98.4827 81.9875 97.4427 83.0275 96.1727 83.0275ZM53.8327 81.4875H96.1727C96.6027 81.4875 96.9427 81.1475 96.9427 80.7175V77.6375C96.9427 77.2175 96.6027 76.8675 96.1727 76.8675H53.8327V81.4875Z" fill="#46587A" stroke="#46587A"/>
<path d="M40.7527 83.0275H22.2727C21.8427 83.0275 21.5027 82.6775 21.5027 82.2575V59.1575C21.5027 57.8875 22.5427 56.8475 23.8127 56.8475H39.2027C40.4727 56.8475 41.5127 57.8875 41.5127 59.1575V82.2475C41.5227 82.6775 41.1727 83.0275 40.7527 83.0275ZM23.0427 81.4875H39.9727V59.1575C39.9727 58.7275 39.6227 58.3875 39.2027 58.3875H23.8127C23.3827 58.3875 23.0427 58.7275 23.0427 59.1575V81.4875Z" fill="#46587A" stroke="#46587A"/>
<path d="M39.2127 43.7675C39.2127 48.0175 35.7627 51.4675 31.5127 51.4675C27.2627 51.4675 23.8127 48.0175 23.8127 43.7675C23.8127 39.5175 27.2527 36.0675 31.5127 36.0675C35.7727 36.0675 39.2127 39.5175 39.2127 43.7675Z" fill="#F2C94C"/>
<path d="M31.5127 52.2375C26.8427 52.2375 23.0427 48.4375 23.0427 43.7675C23.0427 39.0975 26.8427 35.2975 31.5127 35.2975C36.1827 35.2975 39.9827 39.0975 39.9827 43.7675C39.9827 48.4375 36.1827 52.2375 31.5127 52.2375ZM31.5127 36.8375C27.6927 36.8375 24.5827 39.9375 24.5827 43.7575C24.5827 47.5775 27.6927 50.6875 31.5127 50.6875C35.3327 50.6875 38.4427 47.5775 38.4427 43.7575C38.4427 39.9375 35.3327 36.8375 31.5127 36.8375Z" fill="#46587A" stroke="#46587A"/>
<path d="M31.5127 52.2375C31.0827 52.2375 30.7427 51.8975 30.7427 51.4675V36.0675C30.7427 35.6375 31.0827 35.2975 31.5127 35.2975C31.9427 35.2975 32.2827 35.6375 32.2827 36.0675V51.4675C32.2827 51.8875 31.9427 52.2375 31.5127 52.2375Z" fill="#46587A" stroke="#46587A"/>
<path d="M39.2127 44.5376H23.8127C23.3827 44.5376 23.0427 44.1876 23.0427 43.7676C23.0427 43.3476 23.3927 42.9976 23.8127 42.9976H39.2027C39.6327 42.9976 39.9727 43.3476 39.9727 43.7676C39.9827 44.1876 39.6327 44.5376 39.2127 44.5376Z" fill="#46587A" stroke="#46587A"/>
<path d="M69.9926 21.4475C69.9926 18.8975 72.0626 16.8275 74.6126 16.8275C77.1626 16.8275 79.2326 18.8975 79.2326 21.4475C81.7826 21.4475 83.8526 23.5175 83.8526 26.0675C83.8526 28.6175 81.7826 30.6875 79.2326 30.6875H69.9926C67.4426 30.6875 65.3726 28.6175 65.3726 26.0675C65.3826 23.5075 67.4426 21.4475 69.9926 21.4475Z" fill="#F2C94C"/>
</svg>
