<svg width="100" height="100" viewBox="0 0 100 100" fill="none" xmlns="http://www.w3.org/2000/svg">
<path d="M53.0081 83.975H9.9081C9.5081 83.975 9.1081 83.675 9.1081 83.175V50.175H4.3081C3.4081 50.175 2.5081 49.675 2.2081 48.775C1.8081 47.875 2.0081 46.975 2.6081 46.275L29.8081 17.675C30.7081 16.775 32.3081 16.775 33.1081 17.675L60.3081 46.275C60.9081 46.975 61.1081 47.875 60.8081 48.775C60.4081 49.675 59.6081 50.175 58.7081 50.175H53.8081V83.275C53.8081 83.675 53.4081 83.975 53.0081 83.975ZM10.7081 82.475H52.3081V49.375C52.3081 48.975 52.6081 48.575 53.1081 48.575H58.7081C59.2081 48.575 59.4081 48.175 59.4081 48.075C59.4081 47.975 59.6081 47.575 59.2081 47.275L32.0081 18.775C31.7081 18.475 31.2081 18.475 30.9081 18.775L3.7081 47.275C3.4081 47.575 3.5081 47.975 3.5081 48.075C3.5081 48.175 3.7081 48.575 4.2081 48.575H9.9081C10.3081 48.575 10.7081 48.875 10.7081 49.375V82.475Z" fill="#46587A" stroke="#46587A"/>
<path d="M80.2081 74.7751C80.0081 74.7751 79.8081 74.6751 79.6081 74.4751L75.3081 69.6751L71.0081 74.4751C70.7081 74.7751 70.2081 74.7751 69.9081 74.5751C69.6081 74.2751 69.6081 73.7751 69.8081 73.4751L74.7081 68.0751C75.0081 67.7751 75.5081 67.7751 75.8081 68.0751L80.7081 73.4751C81.0081 73.7751 81.0081 74.2751 80.6081 74.5751C80.6081 74.6751 80.4081 74.7751 80.2081 74.7751Z" fill="#46587A" stroke="#46587A"/>
<path d="M75.3081 74.7749C74.9081 74.7749 74.5081 74.4749 74.5081 73.9749V68.5749C74.5081 68.1749 74.8081 67.7749 75.3081 67.7749C75.7081 67.7749 76.1081 68.0749 76.1081 68.5749V73.9749C76.1081 74.4749 75.8081 74.7749 75.3081 74.7749Z" fill="#46587A" stroke="#46587A"/>
<path d="M78.408 56.2751C78.408 63.0751 75.308 68.5751 75.308 68.5751C75.308 68.5751 72.208 63.0751 72.208 56.2751C72.208 49.4751 75.308 43.9751 75.308 43.9751C75.308 43.9751 78.408 49.4751 78.408 56.2751Z" stroke="#46587A"/>
<path d="M75.3082 69.375C75.0082 69.375 74.8082 69.275 74.6082 68.975C74.5082 68.775 71.4082 63.175 71.4082 56.275C71.4082 49.375 74.4082 43.775 74.6082 43.575C74.9082 43.075 75.7082 43.075 75.9082 43.575C76.0082 43.775 79.1082 49.375 79.1082 56.275C79.1082 63.175 76.1082 68.775 75.9082 68.975C75.9082 69.275 75.6082 69.375 75.3082 69.375ZM75.3082 45.775C74.4082 47.775 73.0082 51.775 73.0082 56.275C73.0082 60.775 74.4082 64.775 75.3082 66.775C76.2082 64.775 77.6082 60.775 77.6082 56.275C77.6082 51.775 76.2082 47.775 75.3082 45.775Z" fill="#46587A" stroke="#46587A"/>
<path d="M81.5081 70.975C78.1081 70.975 75.3081 68.675 75.3081 68.675C75.3081 68.675 78.1081 66.375 81.5081 66.375C84.9081 66.375 87.7081 68.675 87.7081 68.675C87.7081 68.675 84.9081 70.975 81.5081 70.975Z" stroke="#46587A"/>
<path d="M81.5081 71.6751C77.9081 71.6751 75.0081 69.2751 74.8081 69.1751C74.6081 69.0751 74.5081 68.7751 74.5081 68.5751C74.5081 68.3751 74.6081 68.1751 74.8081 67.9751C74.9081 67.8751 77.8081 65.4751 81.5081 65.4751C85.1081 65.4751 88.0081 67.8751 88.2081 67.9751C88.4081 68.0751 88.5081 68.3751 88.5081 68.5751C88.5081 68.7751 88.4081 68.9751 88.2081 69.1751C88.0081 69.2751 85.1081 71.6751 81.5081 71.6751ZM76.7081 68.5751C77.7081 69.1751 79.5081 70.0751 81.5081 70.0751C83.5081 70.0751 85.3081 69.1751 86.3081 68.5751C85.3081 67.9751 83.5081 67.0751 81.5081 67.0751C79.5081 67.0751 77.7081 67.9751 76.7081 68.5751Z" fill="#46587A" stroke="#46587A"/>
<path d="M69.2081 70.975C72.6081 70.975 75.4081 68.675 75.4081 68.675C75.4081 68.675 72.6081 66.375 69.2081 66.375C65.8081 66.375 63.0081 68.575 63.0081 68.575C63.0081 68.575 65.8081 70.975 69.2081 70.975Z" stroke="#46587A"/>
<path d="M69.208 71.6751C65.608 71.6751 62.708 69.2751 62.508 69.1751C62.308 69.0751 62.208 68.7751 62.208 68.5751C62.208 68.3751 62.308 68.1751 62.508 67.9751C62.608 67.8751 65.508 65.4751 69.208 65.4751C72.808 65.4751 75.708 67.8751 75.908 67.9751C76.108 68.0751 76.208 68.3751 76.208 68.5751C76.208 68.7751 76.108 68.9751 75.908 69.1751C75.708 69.2751 72.808 71.6751 69.208 71.6751ZM64.408 68.5751C65.408 69.1751 67.208 70.0751 69.208 70.0751C71.208 70.0751 73.008 69.1751 74.008 68.5751C73.008 67.9751 71.208 67.0751 69.208 67.0751C67.208 67.0751 65.408 67.9751 64.408 68.5751Z" fill="#46587A" stroke="#46587A"/>
<path d="M84.6081 62.675C80.4081 66.875 75.3081 68.675 75.3081 68.675C75.3081 68.675 77.1081 63.675 81.3081 59.375C85.5081 55.175 90.6081 53.375 90.6081 53.375C90.6081 53.375 88.8081 58.375 84.6081 62.675Z" stroke="#46587A"/>
<path d="M75.3081 69.375C75.1081 69.375 74.9081 69.275 74.8081 69.175C74.6081 68.975 74.5081 68.675 74.6081 68.375C74.7081 68.175 76.5081 63.075 80.8081 58.875C85.1081 54.575 90.1081 52.775 90.3081 52.675C90.6081 52.575 90.9081 52.675 91.1081 52.875C91.3081 53.075 91.4081 53.375 91.3081 53.675C91.2081 53.875 89.4081 58.975 85.1081 63.175C80.8081 67.475 75.8081 69.275 75.6081 69.375C75.5081 69.375 75.4081 69.375 75.3081 69.375ZM89.1081 54.875C87.3081 55.775 84.4081 57.375 81.9081 59.975C79.3081 62.575 77.7081 65.375 76.8081 67.175C78.6081 66.275 81.5081 64.675 84.0081 62.075C86.6081 59.575 88.2081 56.675 89.1081 54.875Z" fill="#46587A" stroke="#46587A"/>
<path d="M66.1079 62.675C70.3079 66.875 75.4079 68.675 75.4079 68.675C75.4079 68.675 73.6079 63.675 69.4079 59.375C65.2079 55.175 60.1079 53.375 60.1079 53.375C60.1079 53.375 61.9079 58.375 66.1079 62.675Z" stroke="#46587A"/>
<path d="M75.308 69.375C75.208 69.375 75.108 69.375 75.008 69.375C74.808 69.275 69.708 67.475 65.508 63.175C61.208 58.875 59.408 53.875 59.308 53.675C59.208 53.375 59.308 53.075 59.508 52.875C59.708 52.675 60.008 52.575 60.308 52.675C60.508 52.775 65.608 54.575 69.808 58.875C74.108 63.175 75.908 68.175 76.008 68.375C76.108 68.675 76.008 68.975 75.808 69.175C75.708 69.275 75.508 69.375 75.308 69.375ZM61.608 54.875C62.508 56.675 64.108 59.575 66.708 62.075C69.208 64.575 72.108 66.275 73.908 67.175C73.008 65.375 71.408 62.475 68.808 59.975C66.308 57.375 63.408 55.675 61.608 54.875Z" fill="#46587A" stroke="#46587A"/>
<path d="M96.1081 77.075H53.0081V83.2749H96.1081C97.0081 83.2749 97.6081 82.5749 97.6081 81.7749V78.575C97.7081 77.775 97.0081 77.075 96.1081 77.075Z" stroke="#46587A"/>
<path d="M96.108 83.9751H53.008C52.608 83.9751 52.208 83.675 52.208 83.175V76.9751C52.208 76.5751 52.508 76.175 53.008 76.175H96.108C97.408 76.175 98.408 77.1751 98.408 78.4751V81.5751C98.408 82.9751 97.408 83.9751 96.108 83.9751ZM53.808 82.4751H96.108C96.508 82.4751 96.908 82.175 96.908 81.675V78.5751C96.908 78.1751 96.608 77.775 96.108 77.775H53.808V82.4751Z" fill="#46587A" stroke="#46587A"/>
<path d="M40.7082 83.975H22.2082C21.8082 83.975 21.4082 83.675 21.4082 83.175V60.175C21.4082 58.875 22.4082 57.875 23.7082 57.875H39.1082C40.4082 57.875 41.4082 58.875 41.4082 60.175V83.275C41.5082 83.675 41.1082 83.975 40.7082 83.975ZM23.0082 82.475H39.9082V60.175C39.9082 59.775 39.6082 59.375 39.1082 59.375H23.8082C23.4082 59.375 23.0082 59.675 23.0082 60.175V82.475Z" fill="#46587A" stroke="#46587A"/>
<path d="M39.2081 44.775C39.2081 49.075 35.8081 52.475 31.5081 52.475C27.2081 52.475 23.8081 49.075 23.8081 44.775C23.8081 40.475 27.2081 37.075 31.5081 37.075C35.8081 37.075 39.2081 40.475 39.2081 44.775Z" stroke="#46587A"/>
<path d="M31.5081 53.175C26.8081 53.175 23.0081 49.375 23.0081 44.675C23.0081 39.975 26.8081 36.175 31.5081 36.175C36.2081 36.175 40.0081 39.975 40.0081 44.675C39.9081 49.375 36.1081 53.175 31.5081 53.175ZM31.5081 37.875C27.7081 37.875 24.6081 40.975 24.6081 44.775C24.6081 48.575 27.7081 51.675 31.5081 51.675C35.3081 51.675 38.4081 48.575 38.4081 44.775C38.4081 40.975 35.3081 37.875 31.5081 37.875Z" fill="#46587A" stroke="#46587A"/>
<path d="M31.508 53.1749C31.108 53.1749 30.708 52.8749 30.708 52.3749V37.0749C30.708 36.6749 31.008 36.2749 31.508 36.2749C31.908 36.2749 32.308 36.5749 32.308 37.0749V52.4749C32.208 52.8749 31.908 53.1749 31.508 53.1749Z" fill="#46587A" stroke="#46587A"/>
<path d="M39.2081 45.475H23.8081C23.4081 45.475 23.0081 45.175 23.0081 44.675C23.0081 44.275 23.3081 43.875 23.8081 43.875H39.2081C39.6081 43.875 40.0081 44.175 40.0081 44.675C39.9081 45.175 39.6081 45.475 39.2081 45.475Z" fill="#46587A" stroke="#46587A"/>
<path d="M69.9081 22.475C69.9081 19.875 72.0081 17.875 74.5081 17.875C77.1081 17.875 79.1081 19.975 79.1081 22.475C81.7081 22.475 83.7081 24.575 83.7081 27.075C83.7081 29.675 81.6081 31.675 79.1081 31.675H69.9081C67.3081 31.675 65.3081 29.575 65.3081 27.075C65.3081 24.475 67.4081 22.475 69.9081 22.475Z" fill="#46587A" stroke="#46587A"/>
</svg>
