<svg width="100" height="100" viewBox="0 0 100 100" fill="none" xmlns="http://www.w3.org/2000/svg">
<path d="M50.06 88.03C49.63 88.03 49.28 87.68 49.28 87.24V62.93C49.28 62.5 49.63 62.14 50.06 62.14C50.49 62.14 50.84 62.49 50.84 62.93V87.24C50.84 87.68 50.49 88.03 50.06 88.03Z" fill="#46587A" stroke="#46587A"/>
<path d="M54.7601 37.83C54.7601 51.69 50.0501 62.93 50.0501 62.93C50.0501 62.93 45.3401 51.69 45.3401 37.83C45.3401 23.97 50.0501 12.74 50.0501 12.74C50.0501 12.74 54.7601 23.98 54.7601 37.83Z" fill="#6FCF97"/>
<path d="M50.0601 63.72C49.7401 63.72 49.4601 63.53 49.3401 63.24C49.2901 63.13 44.5701 51.7 44.5701 37.84C44.5701 23.98 49.2901 12.55 49.3401 12.44C49.5801 11.86 50.5401 11.86 50.7901 12.44C50.8401 12.55 55.5601 23.98 55.5601 37.84C55.5601 51.7 50.8401 63.12 50.7901 63.24C50.6601 63.53 50.3701 63.72 50.0601 63.72ZM50.0601 15C48.7501 18.78 46.1401 27.64 46.1401 37.84C46.1401 48.05 48.7601 56.9 50.0601 60.68C51.3701 56.9 53.9801 48.04 53.9801 37.84C53.9801 27.62 51.3601 18.78 50.0601 15Z" fill="#46587A" stroke="#46587A"/>
<path d="M69.4701 49.07C60.2801 58.26 50.0601 62.93 50.0601 62.93C50.0601 62.93 54.7301 52.71 63.9201 43.52C73.1101 34.33 83.3301 29.65 83.3301 29.65C83.3301 29.65 78.6501 39.88 69.4701 49.07Z" fill="#6FCF97"/>
<path d="M50.06 63.71C49.86 63.71 49.66 63.63 49.51 63.48C49.28 63.25 49.22 62.9 49.35 62.6C49.4 62.49 54.19 52.14 63.37 42.96C72.55 33.78 82.9 28.99 83 28.95C83.3 28.81 83.65 28.88 83.88 29.11C84.11 29.34 84.17 29.69 84.04 29.99C84 30.09 79.2 40.44 70.02 49.62C60.84 58.8 50.49 63.6 50.38 63.65C50.28 63.69 50.17 63.71 50.06 63.71ZM81.53 31.46C78.08 33.33 70.98 37.58 64.47 44.08C57.96 50.59 53.71 57.69 51.85 61.13C55.3 59.27 62.4 55.02 68.91 48.51C75.42 42 79.67 34.91 81.53 31.46Z" fill="#46587A" stroke="#46587A"/>
<path d="M30.65 49.07C39.84 58.26 50.06 62.93 50.06 62.93C50.06 62.93 45.39 52.71 36.2 43.52C27.01 34.33 16.79 29.66 16.79 29.66C16.79 29.66 21.46 39.88 30.65 49.07Z" fill="#6FCF97"/>
<path d="M50.06 63.72C49.95 63.72 49.84 63.7 49.73 63.65C49.63 63.6 39.27 58.81 30.09 49.63C20.91 40.44 16.12 30.09 16.07 29.99C15.93 29.69 16 29.34 16.23 29.11C16.46 28.88 16.81 28.81 17.11 28.95C17.21 29 27.57 33.79 36.75 42.97C45.93 52.15 50.73 62.5 50.77 62.61C50.91 62.91 50.84 63.26 50.61 63.49C50.46 63.64 50.26 63.72 50.06 63.72ZM18.58 31.46C20.45 34.91 24.7 42.01 31.2 48.51C37.71 55.02 44.81 59.27 48.26 61.13C46.4 57.68 42.14 50.58 35.64 44.08C29.13 37.57 22.03 33.32 18.58 31.46Z" fill="#46587A" stroke="#46587A"/>
<path d="M65.7401 66.07C57.0801 66.07 50.05 62.93 50.05 62.93C50.05 62.93 57.0701 59.79 65.7401 59.79C74.4001 59.79 81.42 62.93 81.42 62.93C81.42 62.93 74.4001 66.07 65.7401 66.07Z" fill="#6FCF97"/>
<path d="M65.74 66.85C57.01 66.85 50.03 63.78 49.73 63.65C49.45 63.52 49.27 63.24 49.27 62.93C49.27 62.62 49.45 62.34 49.73 62.21C50.02 62.08 57.01 59.01 65.74 59.01C74.47 59.01 81.45 62.08 81.74 62.21C82.02 62.34 82.21 62.62 82.21 62.93C82.21 63.24 82.03 63.52 81.74 63.65C81.45 63.78 74.47 66.85 65.74 66.85ZM52.25 62.93C54.87 63.84 59.96 65.28 65.74 65.28C71.52 65.28 76.61 63.83 79.22 62.93C76.6 62.02 71.52 60.58 65.74 60.58C59.96 60.58 54.88 62.03 52.25 62.93Z" fill="#46587A" stroke="#46587A"/>
<path d="M58.3801 74.5801C52.8701 69.0701 50.0601 62.9301 50.0601 62.9301C50.0601 62.9301 56.1901 65.7301 61.7101 71.2501C67.2201 76.7701 70.0301 82.9001 70.0301 82.9001C70.0301 82.9001 63.8901 80.0901 58.3801 74.5801Z" fill="#6FCF97"/>
<path d="M70.02 83.68C69.91 83.68 69.8 83.65 69.69 83.61C69.43 83.5 63.37 80.69 57.82 75.14C52.27 69.59 49.46 63.52 49.34 63.27C49.2 62.97 49.27 62.62 49.5 62.39C49.73 62.16 50.08 62.1 50.38 62.23C50.64 62.35 56.71 65.16 62.25 70.71C67.8 76.26 70.61 82.33 70.73 82.58C70.87 82.87 70.8 83.23 70.57 83.46C70.43 83.6 70.22 83.68 70.02 83.68ZM58.93 74.03C62.28 77.38 65.89 79.72 68.13 81.01C66.84 78.77 64.49 75.16 61.15 71.81C57.8 68.47 54.19 66.12 51.95 64.83C53.24 67.07 55.59 70.68 58.93 74.03Z" fill="#46587A" stroke="#46587A"/>
<path d="M41.7401 74.5801C47.2501 69.0701 50.0601 62.9301 50.0601 62.9301C50.0601 62.9301 43.9301 65.7301 38.4101 71.2501C32.9001 76.7701 30.0901 82.9001 30.0901 82.9001C30.0901 82.9001 36.2301 80.0901 41.7401 74.5801Z" fill="#6FCF97"/>
<path d="M30.09 83.68C29.88 83.68 29.68 83.6 29.54 83.45C29.31 83.22 29.25 82.87 29.38 82.57C29.5 82.32 32.31 76.24 37.86 70.7C43.41 65.15 49.48 62.34 49.73 62.22C50.03 62.08 50.38 62.15 50.61 62.38C50.84 62.61 50.9 62.96 50.77 63.26C50.65 63.51 47.84 69.58 42.29 75.13C36.74 80.68 30.67 83.49 30.42 83.6C30.31 83.65 30.2 83.68 30.09 83.68ZM48.17 64.82C45.92 66.11 42.31 68.46 38.97 71.8C35.62 75.15 33.28 78.75 31.99 81C34.23 79.71 37.85 77.36 41.19 74.02C44.53 70.67 46.88 67.07 48.17 64.82ZM41.74 74.58H41.76H41.74Z" fill="#46587A" stroke="#46587A"/>
<path d="M34.3699 66.07C25.7099 66.07 18.6799 62.93 18.6799 62.93C18.6799 62.93 25.6999 59.79 34.3699 59.79C43.0299 59.79 50.0499 62.93 50.0499 62.93C50.0499 62.93 43.0299 66.07 34.3699 66.07Z" fill="#6FCF97"/>
<path d="M34.3699 66.85C25.6399 66.85 18.6599 63.78 18.3599 63.65C18.0799 63.52 17.8999 63.24 17.8999 62.93C17.8999 62.62 18.0799 62.34 18.3599 62.21C18.6499 62.08 25.6399 59.01 34.3699 59.01C43.0999 59.01 50.0799 62.08 50.3699 62.21C50.6499 62.34 50.8299 62.62 50.8299 62.93C50.8299 63.24 50.6499 63.52 50.3699 63.65C50.0799 63.78 43.0999 66.85 34.3699 66.85ZM20.8899 62.93C23.5099 63.84 28.5899 65.28 34.3799 65.28C40.1599 65.28 45.2499 63.83 47.8599 62.93C45.2399 62.02 40.1599 60.58 34.3799 60.58C28.5899 60.58 23.5099 62.03 20.8899 62.93Z" fill="#46587A" stroke="#46587A"/>
</svg>
