<svg width="100" height="100" viewBox="0 0 100 100" fill="none" xmlns="http://www.w3.org/2000/svg">
<path d="M49.9597 88.05C49.5597 88.05 49.1597 87.65 49.1597 87.25V62.95C49.1597 62.55 49.5597 62.15 49.9597 62.15C50.3597 62.15 50.7597 62.55 50.7597 62.95V87.25C50.7597 87.75 50.3597 88.05 49.9597 88.05Z" fill="#46587A" stroke="#46587A"/>
<path d="M54.6598 37.85C54.6598 51.75 49.9598 62.95 49.9598 62.95C49.9598 62.95 45.2598 51.75 45.2598 37.85C45.2598 23.95 49.9598 12.75 49.9598 12.75C49.9598 12.75 54.6598 24.05 54.6598 37.85Z" stroke="#46587A"/>
<path d="M49.96 63.75C49.66 63.75 49.36 63.55 49.26 63.25C49.26 63.15 44.46 51.75 44.46 37.85C44.46 23.95 49.16 12.55 49.26 12.45C49.46 11.85 50.46 11.85 50.66 12.45C50.66 12.55 55.46 23.95 55.46 37.85C55.46 51.75 50.66 63.15 50.66 63.25C50.56 63.55 50.26 63.75 49.96 63.75ZM49.96 15.05C48.66 18.85 46.06 27.65 46.06 37.85C46.06 48.05 48.66 56.95 49.96 60.65C51.26 56.85 53.86 48.05 53.86 37.85C53.86 27.65 51.26 18.85 49.96 15.05Z" fill="#46587A" stroke="#46587A"/>
<path d="M69.36 49.15C60.16 58.35 49.96 63.05 49.96 63.05C49.96 63.05 54.66 52.85 63.86 43.65C73.06 34.45 83.26 29.75 83.26 29.75C83.26 29.75 78.56 39.95 69.36 49.15Z" stroke="#46587A"/>
<path d="M49.9598 63.75C49.7598 63.75 49.5598 63.65 49.3598 63.55C49.1598 63.35 49.0598 62.95 49.1598 62.65C49.1598 62.55 53.9598 52.15 63.1598 43.05C72.3598 33.85 82.6598 29.05 82.7598 29.05C83.0598 28.95 83.4598 28.95 83.6598 29.25C83.8598 29.45 83.9598 29.85 83.8598 30.15C83.8598 30.25 79.0598 40.65 69.8598 49.75C60.6598 58.95 50.3598 63.75 50.2598 63.75C50.1598 63.75 50.0598 63.75 49.9598 63.75ZM81.3598 31.55C77.8598 33.45 70.7598 37.65 64.2598 44.15C57.7598 50.65 53.4598 57.75 51.6598 61.25C55.1598 59.35 62.2598 55.15 68.7598 48.65C75.2598 42.05 79.5598 34.95 81.3598 31.55Z" fill="#46587A" stroke="#46587A"/>
<path d="M30.5597 49.15C39.7597 58.35 49.9597 63.05 49.9597 63.05C49.9597 63.05 45.2597 52.85 36.0597 43.65C26.8597 34.35 16.6597 29.75 16.6597 29.75C16.6597 29.75 21.3597 39.95 30.5597 49.15Z" stroke="#46587A"/>
<path d="M49.9598 63.75C49.8598 63.75 49.7598 63.75 49.6598 63.65C49.5598 63.65 39.1598 58.85 30.0598 49.65C20.8598 40.45 16.0598 30.15 16.0598 30.05C15.9598 29.75 15.9598 29.45 16.2598 29.15C16.4598 28.95 16.8598 28.85 17.1598 28.95C17.2598 28.95 27.6598 33.75 36.7598 42.95C45.9598 52.15 50.7598 62.45 50.7598 62.55C50.8598 62.85 50.8598 63.15 50.5598 63.45C50.3598 63.65 50.1598 63.75 49.9598 63.75ZM18.4598 31.55C20.3598 35.05 24.5598 42.15 31.0598 48.65C37.5598 55.05 44.6598 59.35 48.1598 61.15C46.2598 57.65 42.0598 50.55 35.5598 44.05C28.9598 37.65 21.8598 33.35 18.4598 31.55Z" fill="#46587A" stroke="#46587A"/>
<path d="M65.66 66.1501C56.96 66.1501 49.96 63.0501 49.96 63.0501C49.96 63.0501 56.96 59.9501 65.66 59.9501C74.36 59.9501 81.36 63.0501 81.36 63.0501C81.36 63.0501 74.26 66.1501 65.66 66.1501Z" stroke="#46587A"/>
<path d="M65.6597 66.95C56.9597 66.95 49.9597 63.85 49.6597 63.75C49.3597 63.65 49.1597 63.35 49.1597 63.05C49.1597 62.75 49.3597 62.45 49.6597 62.35C49.9597 62.25 56.9597 59.15 65.6597 59.15C74.3597 59.15 81.3597 62.25 81.6597 62.35C81.9597 62.45 82.1597 62.75 82.1597 63.05C82.1597 63.35 81.9597 63.65 81.6597 63.75C81.3597 63.85 74.3597 66.95 65.6597 66.95ZM52.1597 62.95C54.7597 63.85 59.8597 65.35 65.6597 65.35C71.4597 65.35 76.5597 63.95 79.1597 62.95C76.5597 62.05 71.4597 60.55 65.6597 60.55C59.8597 60.65 54.7597 62.05 52.1597 62.95Z" fill="#46587A" stroke="#46587A"/>
<path d="M58.26 74.65C52.76 69.15 49.96 63.05 49.96 63.05C49.96 63.05 56.06 65.85 61.56 71.35C67.06 76.85 69.86 83.05 69.86 83.05C69.86 83.05 63.76 80.15 58.26 74.65Z" stroke="#46587A"/>
<path d="M69.8599 83.7501C69.7599 83.7501 69.6599 83.7501 69.5599 83.6501C69.2599 83.5501 63.2599 80.7501 57.6599 75.1501C52.0599 69.6501 49.2599 63.5501 49.1599 63.2501C49.0599 62.9501 49.0599 62.6501 49.3599 62.3501C49.5599 62.1501 49.9599 62.0501 50.2599 62.1501C50.5599 62.2501 56.5599 65.0501 62.1599 70.6501C67.6599 76.1501 70.5599 82.2501 70.6599 82.5501C70.7599 82.8501 70.7599 83.1501 70.4599 83.4501C70.2599 83.6501 70.0599 83.7501 69.8599 83.7501ZM58.7599 74.0501C62.1599 77.3501 65.7599 79.7501 67.9599 81.0501C66.6599 78.8501 64.3599 75.1501 60.9599 71.8501C57.5599 68.5501 53.9599 66.1501 51.7599 64.8501C53.1599 67.1501 55.4599 70.7501 58.7599 74.0501Z" fill="#46587A" stroke="#46587A"/>
<path d="M41.6598 74.65C47.1598 69.15 49.9598 63.05 49.9598 63.05C49.9598 63.05 43.8598 65.85 38.3598 71.35C32.8598 76.85 30.0598 83.05 30.0598 83.05C30.0598 83.05 36.0598 80.15 41.6598 74.65Z" stroke="#46587A"/>
<path d="M29.9598 83.75C29.7598 83.75 29.5598 83.65 29.3598 83.55C29.1598 83.35 29.0598 82.95 29.1598 82.65C29.2598 82.35 32.0598 76.35 37.6598 70.75C43.1598 65.15 49.2598 62.35 49.5598 62.25C49.8598 62.15 50.2598 62.15 50.4598 62.45C50.6598 62.65 50.7598 63.05 50.6598 63.35C50.5598 63.65 47.7598 69.65 42.1598 75.25C36.6598 80.75 30.5598 83.65 30.2598 83.75C30.1598 83.75 30.0598 83.75 29.9598 83.75ZM48.0598 64.85C45.8598 66.15 42.1598 68.45 38.8598 71.85C35.5598 75.15 33.1598 78.85 31.8598 81.05C34.0598 79.75 37.7598 77.45 41.0598 74.05C44.3598 70.75 46.7598 67.15 48.0598 64.85Z" fill="#46587A" stroke="#46587A"/>
<path d="M34.2598 66.1501C25.5598 66.1501 18.5598 63.0501 18.5598 63.0501C18.5598 63.0501 25.5598 59.9501 34.2598 59.9501C42.9598 59.9501 49.9598 63.0501 49.9598 63.0501C49.9598 63.0501 42.8598 66.1501 34.2598 66.1501Z" stroke="#46587A"/>
<path d="M34.2598 66.95C25.5598 66.95 18.5598 63.85 18.2598 63.75C17.9598 63.65 17.7598 63.35 17.7598 63.05C17.7598 62.75 17.9598 62.45 18.2598 62.35C18.5598 62.25 25.5598 59.15 34.2598 59.15C42.9598 59.15 49.9598 62.25 50.2598 62.35C50.5598 62.45 50.7598 62.75 50.7598 63.05C50.7598 63.35 50.5598 63.65 50.2598 63.75C49.9598 63.85 42.9598 66.95 34.2598 66.95ZM20.7598 62.95C23.3598 63.85 28.4598 65.35 34.2598 65.35C40.0598 65.35 45.1598 63.95 47.7598 62.95C45.1598 62.05 40.0598 60.55 34.2598 60.55C28.4598 60.65 23.3598 62.05 20.7598 62.95Z" fill="#46587A" stroke="#46587A"/>
</svg>
