<svg width="100" height="100" viewBox="0 0 100 100" fill="none" xmlns="http://www.w3.org/2000/svg">
<path d="M53.9394 68.7751H46.2394C44.1394 68.7751 42.3394 67.0751 42.3394 64.9751V64.175H57.7394V64.9751C57.7394 67.0751 56.0394 68.7751 53.9394 68.7751Z" fill="#46587A" stroke="#46587A"/>
<path d="M54.9393 62.575C54.7393 62.575 54.5393 62.475 54.3393 62.275L50.0393 57.575L45.7393 62.375C45.4393 62.675 44.9393 62.675 44.6393 62.475C44.3393 62.175 44.3393 61.675 44.5393 61.375L49.4393 55.975C49.7393 55.675 50.2393 55.675 50.5393 55.975L55.4393 61.375C55.7393 61.675 55.7393 62.175 55.3393 62.475C55.3393 62.575 55.1393 62.575 54.9393 62.575Z" fill="#46587A" stroke="#46587A"/>
<path d="M50.0393 67.1749C49.6393 67.1749 49.2393 66.875 49.2393 66.375V56.375C49.2393 55.975 49.5393 55.575 50.0393 55.575C50.4393 55.575 50.8393 55.875 50.8393 56.375V66.375C50.8393 66.875 50.4393 67.1749 50.0393 67.1749Z" fill="#46587A" stroke="#46587A"/>
<path d="M53.1392 44.175C53.1392 50.975 50.0392 56.475 50.0392 56.475C50.0392 56.475 46.9392 50.975 46.9392 44.175C46.9392 37.375 50.0392 31.775 50.0392 31.775C50.0392 31.775 53.1392 37.375 53.1392 44.175Z" stroke="#46587A"/>
<path d="M50.0392 57.175C49.7392 57.175 49.5392 56.975 49.3392 56.775C49.2392 56.575 46.1392 50.975 46.1392 44.075C46.1392 37.175 49.1392 31.575 49.3392 31.375C49.6392 30.875 50.4392 30.875 50.6392 31.375C50.7392 31.575 53.8392 37.175 53.8392 44.075C53.8392 50.975 50.8392 56.575 50.6392 56.775C50.5392 57.075 50.3392 57.175 50.0392 57.175ZM50.0392 33.575C49.1392 35.575 47.7392 39.575 47.7392 44.075C47.7392 48.575 49.1392 52.575 50.0392 54.575C50.9392 52.575 52.3392 48.575 52.3392 44.075C52.3392 39.575 50.9392 35.575 50.0392 33.575Z" fill="#46587A" stroke="#46587A"/>
<path d="M56.2391 58.775C52.8391 58.775 50.0391 56.475 50.0391 56.475C50.0391 56.475 52.8391 54.175 56.2391 54.175C59.6391 54.175 62.4391 56.475 62.4391 56.475C62.4391 56.475 59.6391 58.775 56.2391 58.775Z" stroke="#46587A"/>
<path d="M56.2393 59.475C52.6393 59.475 49.7393 57.075 49.5393 56.975C49.3393 56.875 49.2393 56.575 49.2393 56.375C49.2393 56.175 49.3393 55.975 49.5393 55.775C49.6393 55.675 52.5393 53.275 56.2393 53.275C59.8393 53.275 62.7393 55.675 62.9393 55.775C63.1393 55.875 63.2393 56.175 63.2393 56.375C63.2393 56.575 63.0393 56.875 62.8393 57.075C62.7393 57.175 59.8393 59.475 56.2393 59.475ZM51.3393 56.475C52.3393 57.075 54.1393 57.975 56.1393 57.975C58.1393 57.975 59.9393 57.075 60.9393 56.475C59.9393 55.875 58.1393 54.975 56.1393 54.975C54.2393 54.875 52.4393 55.775 51.3393 56.475Z" fill="#46587A" stroke="#46587A"/>
<path d="M43.9393 58.775C47.3393 58.775 50.1393 56.475 50.1393 56.475C50.1393 56.475 47.3393 54.175 43.9393 54.175C40.5393 54.175 37.7393 56.475 37.7393 56.475C37.7393 56.475 40.5393 58.775 43.9393 58.775Z" stroke="#46587A"/>
<path d="M43.9392 59.475C40.3392 59.475 37.4392 57.075 37.2392 56.975C37.0392 56.875 36.9392 56.575 36.9392 56.375C36.9392 56.175 37.0392 55.975 37.2392 55.775C37.3392 55.675 40.2392 53.275 43.9392 53.275C47.5392 53.275 50.4392 55.675 50.6392 55.775C50.8392 55.875 50.9392 56.175 50.9392 56.375C50.9392 56.575 50.8392 56.775 50.6392 56.975C50.4392 57.175 47.5392 59.475 43.9392 59.475ZM39.0392 56.475C40.0392 57.075 41.8392 57.975 43.8392 57.975C45.8392 57.975 47.6392 57.075 48.6392 56.475C47.6392 55.875 45.8392 54.975 43.8392 54.975C41.8392 54.875 40.0392 55.775 39.0392 56.475Z" fill="#46587A" stroke="#46587A"/>
<path d="M59.3391 50.475C55.1391 54.675 50.0391 56.475 50.0391 56.475C50.0391 56.475 51.8391 51.475 56.0391 47.175C60.2391 42.975 65.3391 41.175 65.3391 41.175C65.3391 41.175 63.5391 46.275 59.3391 50.475Z" stroke="#46587A"/>
<path d="M50.039 57.175C49.839 57.175 49.639 57.075 49.539 56.975C49.339 56.775 49.239 56.475 49.339 56.175C49.439 55.975 51.239 50.875 55.539 46.675C59.839 42.375 64.839 40.575 65.039 40.475C65.339 40.375 65.639 40.475 65.839 40.675C66.039 40.875 66.139 41.175 66.039 41.475C65.939 41.675 64.139 46.775 59.839 50.975C55.539 55.275 50.539 57.075 50.339 57.175C50.239 57.175 50.139 57.175 50.039 57.175ZM63.839 42.675C62.039 43.575 59.139 45.175 56.639 47.775C54.139 50.275 52.439 53.175 51.539 54.975C53.339 54.075 56.239 52.475 58.739 49.875C61.339 47.375 62.939 44.475 63.839 42.675Z" fill="#46587A" stroke="#46587A"/>
<path d="M40.8394 50.475C45.0394 54.675 50.1394 56.475 50.1394 56.475C50.1394 56.475 48.3394 51.475 44.1394 47.175C39.9394 42.975 34.8394 41.175 34.8394 41.175C34.8394 41.175 36.5394 46.275 40.8394 50.475Z" stroke="#46587A"/>
<path d="M50.0392 57.175C49.9392 57.175 49.8392 57.175 49.7392 57.175C49.5392 57.075 44.4392 55.275 40.2392 50.975C35.9392 46.675 34.1392 41.675 34.0392 41.475C33.9392 41.175 34.0392 40.875 34.2392 40.675C34.4392 40.475 34.7392 40.375 35.0392 40.475C35.2392 40.575 40.3392 42.375 44.5392 46.675C48.8392 50.975 50.6392 55.975 50.7392 56.175C50.8392 56.475 50.7392 56.775 50.5392 56.975C50.4392 57.175 50.2392 57.175 50.0392 57.175ZM36.2392 42.675C37.1392 44.475 38.7392 47.375 41.3392 49.875C43.8392 52.375 46.7392 54.075 48.5392 54.975C47.6392 53.175 46.0392 50.275 43.4392 47.775C40.9392 45.175 38.0392 43.575 36.2392 42.675Z" fill="#46587A" stroke="#46587A"/>
</svg>
