<svg width="100" height="100" viewBox="0 0 100 100" fill="none" xmlns="http://www.w3.org/2000/svg">
<path d="M58.2431 48.3724C57.0831 48.6424 55.1731 49.2624 53.7431 50.6924C52.3231 52.1224 51.6931 54.0324 51.4231 55.1924C52.5831 54.9224 54.4931 54.2924 55.9231 52.8724C57.3531 51.4424 57.9831 49.5324 58.2431 48.3724Z" fill="#6FCF97"/>
<path d="M45.0331 52.8724C46.4531 54.3024 48.3731 54.9224 49.5331 55.1924C49.2631 54.0324 48.6331 52.1224 47.2131 50.6924C45.7831 49.2624 43.8731 48.6324 42.7131 48.3724C42.9831 49.5324 43.6131 51.4524 45.0331 52.8724Z" fill="#6FCF97"/>
<path d="M50.4829 42.3225C49.8429 43.6225 48.9429 45.8925 48.9429 48.4425C48.9429 51.0025 49.8429 53.2625 50.4829 54.5625C51.1229 53.2625 52.0229 50.9925 52.0229 48.4425C52.0229 45.8825 51.1229 43.6225 50.4829 42.3225Z" fill="#6FCF97"/>
<path d="M50.483 56.9124C50.283 56.9124 50.083 56.8324 49.943 56.6824C49.783 56.5224 49.703 56.3024 49.723 56.0724C49.733 55.9124 50.093 52.1824 52.663 49.6124C55.233 47.0424 58.973 46.6824 59.133 46.6624C59.363 46.6424 59.583 46.7224 59.743 46.8824C59.903 47.0424 59.983 47.2624 59.963 47.4924C59.943 47.6524 59.593 51.3824 57.023 53.9524C54.453 56.5224 50.713 56.8824 50.563 56.9024C50.523 56.9124 50.503 56.9124 50.483 56.9124ZM58.243 48.3724C57.083 48.6424 55.173 49.2624 53.743 50.6924C52.323 52.1224 51.693 54.0324 51.423 55.1924C52.583 54.9224 54.493 54.2924 55.923 52.8724C57.353 51.4424 57.983 49.5324 58.243 48.3724ZM56.463 53.4224H56.483H56.463Z" fill="#46587A" stroke="#46587A"/>
<path d="M50.483 56.9125C50.463 56.9125 50.433 56.9125 50.413 56.9125C50.253 56.8925 46.523 56.5425 43.943 53.9625C41.373 51.3925 41.023 47.6524 41.003 47.5024C40.983 47.2724 41.063 47.0524 41.223 46.8924C41.383 46.7324 41.613 46.6525 41.833 46.6725C41.993 46.6825 45.723 47.0424 48.293 49.6124C50.863 52.1824 51.223 55.9224 51.243 56.0824C51.263 56.3124 51.183 56.5325 51.023 56.6925C50.883 56.8325 50.683 56.9125 50.483 56.9125ZM45.033 52.8725C46.453 54.3025 48.373 54.9225 49.533 55.1925C49.263 54.0325 48.633 52.1225 47.213 50.6925C45.783 49.2625 43.873 48.6325 42.713 48.3725C42.983 49.5325 43.613 51.4525 45.033 52.8725Z" fill="#46587A" stroke="#46587A"/>
<path d="M55.383 59.2224C55.273 59.2224 55.163 59.2024 55.053 59.1424L50.483 56.9824L45.913 59.1424C45.523 59.3224 45.063 59.1524 44.883 58.7724C44.703 58.3824 44.863 57.9324 45.253 57.7524L50.153 55.4424C50.363 55.3424 50.603 55.3424 50.813 55.4424L55.713 57.7524C56.103 57.9324 56.263 58.3924 56.083 58.7724C55.943 59.0524 55.673 59.2224 55.383 59.2224Z" fill="#46587A" stroke="#46587A"/>
<path d="M50.4829 60.7624C50.0629 60.7624 49.7129 60.4224 49.7129 59.9924V56.1424C49.7129 55.7224 50.0629 55.3724 50.4829 55.3724C50.9129 55.3724 51.2529 55.7224 51.2529 56.1424V59.9924C51.2529 60.4124 50.9029 60.7624 50.4829 60.7624Z" fill="#46587A" stroke="#46587A"/>
<path d="M50.4828 56.9125C50.2228 56.9125 49.9828 56.7825 49.8428 56.5725C49.7428 56.4225 47.4028 52.8825 47.4028 48.4425C47.4028 44.0125 49.7428 40.4625 49.8428 40.3225C50.1228 39.8925 50.8328 39.8925 51.1228 40.3225C51.2228 40.4725 53.5628 44.0125 53.5628 48.4425C53.5628 52.8825 51.2228 56.4225 51.1228 56.5725C50.9828 56.7825 50.7328 56.9125 50.4828 56.9125ZM50.4828 42.3225C49.8428 43.6225 48.9428 45.8925 48.9428 48.4425C48.9428 51.0025 49.8428 53.2625 50.4828 54.5625C51.1228 53.2625 52.0228 50.9925 52.0228 48.4425C52.0228 45.8825 51.1228 43.6225 50.4828 42.3225Z" fill="#46587A" stroke="#46587A"/>
</svg>
