<svg width="100" height="100" viewBox="0 0 100 100" fill="none" xmlns="http://www.w3.org/2000/svg">
<path d="M53.8549 68.6875H46.1549C44.0249 68.6875 42.3049 66.9675 42.3049 64.8375V64.0675H57.7049V64.8375C57.7049 66.9575 55.9849 68.6875 53.8549 68.6875Z" fill="#F2C94C" stroke="#46587A"/>
<path d="M54.905 62.5276C54.695 62.5276 54.485 62.4476 54.335 62.2776L50.005 57.5175L45.675 62.2776C45.385 62.5976 44.905 62.6176 44.585 62.3276C44.275 62.0376 44.245 61.5576 44.535 61.2476L49.435 55.8576C49.725 55.5376 50.285 55.5376 50.575 55.8576L55.475 61.2476C55.765 61.5576 55.735 62.0476 55.425 62.3276C55.275 62.4576 55.095 62.5276 54.905 62.5276Z" fill="#46587A" stroke="#46587A"/>
<path d="M50.0049 67.1475C49.5749 67.1475 49.2349 66.8075 49.2349 66.3775V56.3675C49.2349 55.9375 49.5749 55.5975 50.0049 55.5975C50.4249 55.5975 50.7749 55.9375 50.7749 56.3675V66.3775C50.7749 66.7975 50.4249 67.1475 50.0049 67.1475Z" fill="#46587A" stroke="#46587A"/>
<path d="M53.085 44.0475C53.085 50.8475 50.0051 56.3675 50.0051 56.3675C50.0051 56.3675 46.925 50.8575 46.925 44.0475C46.925 37.2475 50.0051 31.7275 50.0051 31.7275C50.0051 31.7275 53.085 37.2475 53.085 44.0475Z" fill="#6FCF97"/>
<path d="M50.005 57.1375C49.725 57.1375 49.465 56.9875 49.335 56.7475C49.205 56.5175 46.155 50.9775 46.155 44.0575C46.155 37.1375 49.205 31.5975 49.335 31.3675C49.605 30.8775 50.405 30.8775 50.675 31.3675C50.805 31.5975 53.855 37.1375 53.855 44.0575C53.855 50.9775 50.805 56.5175 50.675 56.7475C50.545 56.9875 50.285 57.1375 50.005 57.1375ZM50.005 33.5175C49.125 35.5375 47.695 39.5175 47.695 44.0575C47.695 48.5875 49.125 52.5675 50.005 54.5975C50.885 52.5775 52.315 48.5875 52.315 44.0575C52.315 39.5175 50.885 35.5375 50.005 33.5175Z" fill="#46587A" stroke="#46587A"/>
<path d="M56.1649 58.6776C52.7649 58.6776 50.0049 56.3676 50.0049 56.3676C50.0049 56.3676 52.7649 54.0576 56.1649 54.0576C59.5649 54.0576 62.3249 56.3676 62.3249 56.3676C62.3249 56.3676 59.5649 58.6776 56.1649 58.6776Z" fill="#6FCF97"/>
<path d="M56.1649 59.4476C52.5249 59.4476 49.6349 57.0676 49.5149 56.9576C49.3349 56.8076 49.2349 56.5976 49.2349 56.3676C49.2349 56.1376 49.3349 55.9276 49.5149 55.7776C49.6349 55.6776 52.5249 53.2876 56.1649 53.2876C59.8049 53.2876 62.7049 55.6676 62.8249 55.7776C62.9949 55.9276 63.1049 56.1376 63.1049 56.3676C63.1049 56.5976 63.0049 56.8076 62.8249 56.9576C62.6949 57.0576 59.8049 59.4476 56.1649 59.4476ZM51.3449 56.3676C52.3449 56.9976 54.1549 57.9076 56.1649 57.9076C58.1849 57.9076 59.9849 56.9976 60.9849 56.3676C59.9749 55.7376 58.1749 54.8276 56.1649 54.8276C54.1449 54.8276 52.3449 55.7376 51.3449 56.3676Z" fill="#46587A" stroke="#46587A"/>
<path d="M43.8451 58.6776C47.2451 58.6776 50.0051 56.3676 50.0051 56.3676C50.0051 56.3676 47.2451 54.0576 43.8451 54.0576C40.4451 54.0576 37.6851 56.3676 37.6851 56.3676C37.6851 56.3676 40.4451 58.6776 43.8451 58.6776Z" fill="#6FCF97"/>
<path d="M43.845 59.4476C40.205 59.4476 37.315 57.0676 37.195 56.9576C37.015 56.8076 36.925 56.5976 36.925 56.3676C36.925 56.1376 37.025 55.9276 37.195 55.7776C37.315 55.6776 40.205 53.2876 43.845 53.2876C47.485 53.2876 50.375 55.6676 50.495 55.7776C50.665 55.9276 50.765 56.1376 50.765 56.3676C50.765 56.5976 50.665 56.8076 50.495 56.9576C50.375 57.0576 47.485 59.4476 43.845 59.4476ZM39.025 56.3676C40.035 56.9976 41.835 57.9076 43.845 57.9076C45.855 57.9076 47.655 56.9976 48.665 56.3676C47.655 55.7376 45.855 54.8276 43.845 54.8276C41.835 54.8276 40.035 55.7376 39.025 56.3676Z" fill="#46587A" stroke="#46587A"/>
<path d="M59.2549 50.3776C55.0449 54.5876 50.0049 56.3676 50.0049 56.3676C50.0049 56.3676 51.7849 51.3176 55.9949 47.1176C60.2049 42.9076 65.2549 41.1276 65.2549 41.1276C65.2549 41.1276 63.4749 46.1676 59.2549 50.3776Z" fill="#6FCF97"/>
<path d="M50.0049 57.1376C49.8049 57.1376 49.6049 57.0576 49.4549 56.9176C49.2449 56.7076 49.1749 56.3976 49.2749 56.1176C49.3549 55.9076 51.1649 50.8576 55.4449 46.5776C59.7349 42.2976 64.7749 40.4876 64.9949 40.4076C65.2749 40.3176 65.5849 40.3876 65.7949 40.5976C66.0049 40.8076 66.0749 41.1176 65.9749 41.3976C65.8949 41.6076 64.0849 46.6576 59.8049 50.9376C55.5249 55.2176 50.4749 57.0276 50.2649 57.1076C50.1749 57.1276 50.0849 57.1376 50.0049 57.1376ZM63.7749 42.6076C61.9749 43.4776 59.0849 45.1176 56.5349 47.6576C53.9849 50.2076 52.3449 53.0876 51.4849 54.8876C53.2749 54.0176 56.1649 52.3776 58.7149 49.8376C61.2649 47.2876 62.9049 44.3976 63.7749 42.6076Z" fill="#46587A" stroke="#46587A"/>
<path d="M40.7549 50.3776C44.9649 54.5876 50.0049 56.3676 50.0049 56.3676C50.0049 56.3676 48.2249 51.3176 44.0149 47.1176C39.8049 42.9076 34.7649 41.1276 34.7649 41.1276C34.7649 41.1276 36.5449 46.1676 40.7549 50.3776Z" fill="#6FCF97"/>
<path d="M50.0049 57.1376C49.9249 57.1376 49.8349 57.1276 49.7549 57.0976C49.5449 57.0176 44.4949 55.2076 40.2149 50.9276C35.9249 46.6476 34.1249 41.5976 34.0449 41.3876C33.9449 41.1076 34.0149 40.7976 34.2249 40.5876C34.4349 40.3776 34.7449 40.3076 35.0249 40.3976C35.2349 40.4776 40.2849 42.2876 44.5649 46.5676C48.8549 50.8476 50.6549 55.8976 50.7349 56.1076C50.8349 56.3876 50.7649 56.6976 50.5549 56.9076C50.4049 57.0576 50.2049 57.1376 50.0049 57.1376ZM36.2449 42.6076C37.1149 44.4076 38.7549 47.2976 41.2949 49.8376C43.8349 52.3876 46.7249 54.0276 48.5249 54.8876C47.6549 53.0876 46.0149 50.2076 43.4749 47.6576C40.9249 45.1076 38.0349 43.4776 36.2449 42.6076Z" fill="#46587A" stroke="#46587A"/>
</svg>
