<svg width="100" height="100" viewBox="0 0 100 100" fill="none" xmlns="http://www.w3.org/2000/svg">
<path d="M49.5 56.8001C49.3 56.8001 49.1 56.7001 49 56.6001C48.8 56.4001 48.8 56.2001 48.8 56.0001C48.8 55.8001 49.2 52.1001 51.7 49.5001C54.2 46.9001 58 46.6001 58.1 46.6001C58.3 46.6001 58.6 46.7001 58.7 46.8001C58.9 47.0001 59 47.2001 59 47.4001C59 47.6001 58.6 51.3001 56.1 53.9001C53.4 56.4001 49.7 56.8001 49.5 56.8001ZM57.2 48.3001C56 48.6001 54.1 49.2001 52.7 50.6001C51.3 52.0001 50.6 53.9001 50.4 55.1001C51.6 54.8001 53.5 54.2001 54.9 52.8001C56.4 51.3001 57 49.4001 57.2 48.3001Z" fill="#46587A" stroke="#46587A"/>
<path d="M49.5 56.8001C49.5 56.8001 49.4 56.8001 49.5 56.8001C49.3 56.8001 45.5 56.4001 43 53.8001C40.4 51.3001 40 47.6001 40 47.4001C40 47.2001 40.1 46.9001 40.2 46.8001C40.4 46.6001 40.6 46.6001 40.8 46.6001C41 46.6001 44.7 46.9001 47.3 49.5001C49.9 52.1001 50.2 55.8001 50.2 56.0001C50.2 56.2001 50.1 56.5001 50 56.6001C49.9 56.7001 49.7 56.8001 49.5 56.8001ZM44 52.8001C45.4 54.2001 47.3 54.9001 48.5 55.1001C48.2 53.9001 47.6 52.0001 46.2 50.6001C44.8 49.2001 42.9 48.5001 41.7 48.3001C42 49.4001 42.6 51.4001 44 52.8001Z" fill="#46587A" stroke="#46587A"/>
<path d="M54.4 59.1C54.3 59.1 54.2 59.1 54.1 59L49.5 56.9L44.9 59.1C44.5 59.3 44.1 59.1 43.9 58.7C43.7 58.3 43.9 57.9 44.3 57.7L49.2 55.4C49.4 55.3 49.6 55.3 49.9 55.4L54.8 57.7C55.2 57.9 55.3 58.3 55.2 58.7C54.9 59 54.7 59.1 54.4 59.1Z" fill="#46587A" stroke="#46587A"/>
<path d="M49.5 60.7C49.1 60.7 48.7 60.4 48.7 59.9V56.1C48.7 55.7 49 55.3 49.5 55.3C49.9 55.3 50.3 55.6 50.3 56.1V59.9C50.2 60.3 49.9 60.7 49.5 60.7Z" fill="#46587A" stroke="#46587A"/>
<path d="M49.5 56.8C49.2 56.8 49 56.7 48.9 56.5C48.8 56.4 46.5 52.8 46.5 48.4C46.5 44 48.8 40.4 48.9 40.3C49.2 39.9 49.9 39.9 50.2 40.3C50.3 40.4 52.6 44 52.6 48.4C52.6 52.8 50.3 56.4 50.2 56.5C50 56.7 49.7 56.8 49.5 56.8ZM49.5 42.2C48.8 43.5 47.9 45.8 47.9 48.3C47.9 50.9 48.8 53.1 49.4 54.4C50.1 53.2 51 50.9 51 48.3C51 45.8 50.1 43.5 49.5 42.2Z" fill="#46587A" stroke="#46587A"/>
</svg>
