<svg width="100" height="100" viewBox="0 0 100 100" fill="none" xmlns="http://www.w3.org/2000/svg">
<path d="M55.2785 56.6876C55.0685 56.6876 54.8585 56.6076 54.7085 56.4376L50.3785 51.6776L46.0485 56.4376C45.7685 56.7576 45.2785 56.7776 44.9585 56.4976C44.6485 56.2176 44.6185 55.7276 44.9085 55.4076L49.8085 50.0176C50.0985 49.6976 50.6585 49.6976 50.9485 50.0176L55.8485 55.4076C56.1385 55.7176 56.1085 56.2076 55.7985 56.4976C55.6485 56.6276 55.4585 56.6876 55.2785 56.6876Z" fill="#46587A" stroke="#46587A"/>
<path d="M50.3786 59.7676C49.9486 59.7676 49.6086 59.4276 49.6086 58.9976V50.5276C49.6086 50.1076 49.9486 49.7576 50.3786 49.7576C50.7986 49.7576 51.1486 50.0976 51.1486 50.5276V58.9976C51.1486 59.4276 50.7986 59.7676 50.3786 59.7676Z" fill="#46587A" stroke="#46587A"/>
<path d="M54.2286 35.1376C54.2286 43.6376 50.3786 50.5376 50.3786 50.5376C50.3786 50.5376 46.5286 43.6476 46.5286 35.1376C46.5286 26.6376 50.3786 19.7476 50.3786 19.7476C50.3786 19.7476 54.2286 26.6376 54.2286 35.1376Z" fill="#6FCF97"/>
<path d="M50.3785 51.3075C50.0985 51.3075 49.8385 51.1575 49.7085 50.9075C49.5485 50.6175 45.7585 43.7375 45.7585 35.1375C45.7585 26.5375 49.5485 19.6575 49.7085 19.3675C49.9785 18.8775 50.7785 18.8775 51.0585 19.3675C51.2185 19.6575 55.0085 26.5375 55.0085 35.1375C55.0085 43.7475 51.2185 50.6175 51.0585 50.9075C50.9085 51.1575 50.6585 51.3075 50.3785 51.3075ZM50.3785 21.4975C49.2985 23.8875 47.2985 29.1275 47.2985 35.1375C47.2985 41.1475 49.2985 46.3875 50.3785 48.7775C51.4585 46.3875 53.4585 41.1475 53.4585 35.1375C53.4585 29.1275 51.4585 23.8875 50.3785 21.4975Z" fill="#46587A" stroke="#46587A"/>
<path d="M62.3484 42.9076C56.9384 48.3176 50.3784 50.5276 50.3784 50.5276C50.3784 50.5276 52.5884 43.9676 57.9984 38.5476C63.4084 33.1376 69.9684 30.9276 69.9684 30.9276C69.9684 30.9276 67.7584 37.4976 62.3484 42.9076Z" fill="#6FCF97"/>
<path d="M50.3784 51.3075C50.1784 51.3075 49.9784 51.2275 49.8284 51.0775C49.6184 50.8675 49.5484 50.5675 49.6484 50.2875C49.7384 50.0175 51.9784 43.4875 57.4484 38.0175C62.9284 32.5375 69.4484 30.3075 69.7184 30.2075C69.9984 30.1175 70.2984 30.1875 70.5084 30.3975C70.7184 30.6075 70.7884 30.9075 70.6884 31.1875C70.5984 31.4675 68.3584 37.9875 62.8884 43.4575C57.4184 48.9275 50.8884 51.1675 50.6184 51.2675C50.5384 51.2875 50.4584 51.3075 50.3784 51.3075ZM68.5784 32.3275C66.3284 33.3275 62.1484 35.4875 58.5384 39.0975C54.9284 42.7075 52.7684 46.8875 51.7684 49.1375C54.0184 48.1375 58.1984 45.9775 61.8084 42.3675C65.4184 38.7575 67.5784 34.5875 68.5784 32.3275Z" fill="#46587A" stroke="#46587A"/>
<path d="M38.3986 42.9076C43.8086 48.3176 50.3786 50.5276 50.3786 50.5276C50.3786 50.5276 48.1686 43.9676 42.7586 38.5476C37.3486 33.1376 30.7786 30.9276 30.7786 30.9276C30.7786 30.9276 32.9886 37.4976 38.3986 42.9076Z" fill="#6FCF97"/>
<path d="M50.3784 51.3075C50.2984 51.3075 50.2084 51.2875 50.1284 51.2675C49.8484 51.1675 43.3284 48.9375 37.8484 43.4575C32.3684 37.9875 30.1284 31.4575 30.0384 31.1875C29.9484 30.9175 30.0184 30.6075 30.2284 30.3975C30.4384 30.1875 30.7484 30.1175 31.0184 30.2075C31.2984 30.2975 37.8184 32.5375 43.2984 38.0175C48.7784 43.4875 51.0084 50.0175 51.0984 50.2875C51.1984 50.5675 51.1184 50.8675 50.9184 51.0775C50.7684 51.2275 50.5784 51.3075 50.3784 51.3075ZM32.1684 32.3275C33.1684 34.5775 35.3284 38.7575 38.9484 42.3675C42.5584 45.9775 46.7384 48.1375 48.9884 49.1375C47.9884 46.8875 45.8284 42.7075 42.2184 39.0975C38.5984 35.4975 34.4184 33.3275 32.1684 32.3275Z" fill="#46587A" stroke="#46587A"/>
<path d="M41.1384 52.8375C46.2484 52.8375 50.3784 50.5275 50.3784 50.5275C50.3784 50.5275 46.2484 48.2175 41.1384 48.2175C36.0384 48.2175 31.8984 50.5275 31.8984 50.5275C31.8984 50.5275 36.0384 52.8375 41.1384 52.8375Z" fill="#6FCF97"/>
<path d="M41.1384 53.6175C35.8984 53.6175 31.6984 51.3075 31.5184 51.2175C31.2784 51.0775 31.1284 50.8175 31.1284 50.5375C31.1284 50.2575 31.2784 50.0075 31.5184 49.8675C31.6984 49.7675 35.8884 47.4675 41.1384 47.4675C46.3784 47.4675 50.5784 49.7775 50.7584 49.8675C50.9984 50.0075 51.1484 50.2675 51.1484 50.5375C51.1484 50.8175 50.9984 51.0775 50.7584 51.2175C50.5784 51.3075 46.3784 53.6175 41.1384 53.6175ZM33.7284 50.5275C35.3184 51.1775 38.0584 52.0675 41.1384 52.0675C44.2184 52.0675 46.9484 51.1775 48.5484 50.5275C46.9584 49.8775 44.2184 48.9875 41.1384 48.9875C38.0584 48.9975 35.3184 49.8875 33.7284 50.5275Z" fill="#46587A" stroke="#46587A"/>
<path d="M59.6084 52.8375C64.7084 52.8375 68.8484 50.5275 68.8484 50.5275C68.8484 50.5275 64.7184 48.2175 59.6084 48.2175C54.5084 48.2175 50.3684 50.5275 50.3684 50.5275C50.3684 50.5275 54.5084 52.8375 59.6084 52.8375Z" fill="#6FCF97"/>
<path d="M59.6086 53.6175C54.3686 53.6175 50.1686 51.3075 49.9986 51.2175C49.7586 51.0775 49.6086 50.8175 49.6086 50.5375C49.6086 50.2575 49.7586 50.0075 49.9986 49.8675C50.1686 49.7675 54.3686 47.4675 59.6086 47.4675C64.8486 47.4675 69.0486 49.7775 69.2186 49.8675C69.4586 50.0075 69.6086 50.2675 69.6086 50.5375C69.6086 50.8175 69.4586 51.0775 69.2186 51.2175C69.0486 51.3075 64.8586 53.6175 59.6086 53.6175ZM52.2086 50.5275C53.7986 51.1775 56.5386 52.0675 59.6186 52.0675C62.6886 52.0675 65.4286 51.1775 67.0186 50.5275C65.4286 49.8775 62.6886 48.9875 59.6186 48.9875C56.5386 48.9975 53.7986 49.8875 52.2086 50.5275Z" fill="#46587A" stroke="#46587A"/>
<path d="M58.8384 66.6975H41.9084C41.0584 66.6975 40.3684 66.0075 40.3684 65.1675V63.6175C40.3684 62.7675 41.0584 62.0775 41.9084 62.0775H58.8384C59.6884 62.0775 60.3784 62.7675 60.3784 63.6175V65.1575C60.3784 66.0075 59.6884 66.6975 58.8384 66.6975Z" fill="#F2C94C" stroke="#46587A"/>
<path d="M58.8386 67.4675H41.9086C40.6386 67.4675 39.5986 66.4375 39.5986 65.1575V63.6175C39.5986 62.3475 40.6386 61.3075 41.9086 61.3075H58.8386C60.1086 61.3075 61.1486 62.3475 61.1486 63.6175V65.1575C61.1486 66.4375 60.1186 67.4675 58.8386 67.4675ZM41.9086 62.8475C41.4886 62.8475 41.1386 63.1875 41.1386 63.6175V65.1575C41.1386 65.5775 41.4886 65.9275 41.9086 65.9275H58.8386C59.2586 65.9275 59.6086 65.5875 59.6086 65.1575V63.6175C59.6086 63.1975 59.2586 62.8475 58.8386 62.8475H41.9086Z" fill="#46587A" stroke="#46587A"/>
<path d="M55.2284 80.5575H45.5184C44.7684 80.5575 44.1284 80.0075 43.9984 79.2675L41.8984 66.6975H58.8384L56.7484 79.2675C56.6284 80.0075 55.9884 80.5575 55.2284 80.5575Z" fill="#F2C94C" stroke="#46587A"/>
<path d="M55.2286 81.3275H45.5186C44.3886 81.3275 43.4286 80.5175 43.2386 79.3975L41.1386 66.8275C41.0986 66.6075 41.1686 66.3775 41.3086 66.2075C41.4586 66.0375 41.6686 65.9375 41.8986 65.9375H58.8386C59.0586 65.9375 59.2786 66.0375 59.4286 66.2075C59.5786 66.3775 59.6386 66.6075 59.5986 66.8275L57.4986 79.3975C57.3186 80.5175 56.3586 81.3275 55.2286 81.3275ZM42.8186 67.4675L44.7686 79.1375C44.8286 79.5075 45.1486 79.7775 45.5286 79.7775H55.2386C55.6186 79.7775 55.9386 79.5075 55.9986 79.1375L57.9386 67.4675H42.8186Z" fill="#46587A" stroke="#46587A"/>
</svg>
