<svg width="100" height="100" viewBox="0 0 100 100" fill="none" xmlns="http://www.w3.org/2000/svg">
<path d="M55.3391 56.7751C55.1391 56.7751 54.9391 56.6751 54.7391 56.4751L50.4391 51.6751L46.0391 56.4751C45.7391 56.7751 45.2391 56.7751 44.9391 56.5751C44.6391 56.2751 44.6391 55.7751 44.8391 55.4751L49.7391 50.0751C50.0391 49.7751 50.5391 49.7751 50.8391 50.0751L55.7391 55.4751C56.0391 55.7751 56.0391 56.2751 55.6391 56.5751C55.6391 56.6751 55.5391 56.7751 55.3391 56.7751Z" fill="#46587A" stroke="#46587A"/>
<path d="M50.4392 59.875C50.0392 59.875 49.6392 59.575 49.6392 59.075V50.575C49.6392 50.175 49.9392 49.775 50.4392 49.775C50.8392 49.775 51.2392 50.075 51.2392 50.575V59.075C51.1392 59.475 50.8392 59.875 50.4392 59.875Z" fill="#46587A" stroke="#46587A"/>
<path d="M54.2391 35.175C54.2391 43.675 50.4391 50.575 50.4391 50.575C50.4391 50.575 46.5391 43.675 46.5391 35.175C46.5391 26.675 50.4391 19.775 50.4391 19.775C50.4391 19.775 54.2391 26.675 54.2391 35.175Z" stroke="#46587A"/>
<path d="M50.4394 51.375C50.1394 51.375 49.9394 51.175 49.7394 50.975C49.5394 50.675 45.8394 43.775 45.8394 35.175C45.8394 26.575 49.6394 19.675 49.7394 19.375C50.0394 18.875 50.8394 18.875 51.0394 19.375C51.2394 19.775 55.0394 26.575 55.0394 35.175C55.0394 43.775 51.2394 50.675 51.1394 50.975C50.9394 51.175 50.6394 51.375 50.4394 51.375ZM50.4394 21.575C49.3394 23.975 47.3394 29.175 47.3394 35.175C47.3394 41.175 49.3394 46.475 50.4394 48.775C51.5394 46.375 53.5394 41.175 53.5394 35.175C53.4394 29.175 51.4394 23.975 50.4394 21.575Z" fill="#46587A" stroke="#46587A"/>
<path d="M62.3394 42.9751C56.9394 48.3751 50.3394 50.5751 50.3394 50.5751C50.3394 50.5751 52.5394 43.9751 57.9394 38.5751C63.3394 33.1751 69.9394 30.9751 69.9394 30.9751C69.9394 30.9751 67.8394 37.5751 62.3394 42.9751Z" stroke="#46587A"/>
<path d="M50.4392 51.3751C50.2392 51.3751 50.0392 51.2751 49.9392 51.1751C49.7392 50.9751 49.6392 50.6751 49.7392 50.3751C49.7392 50.0751 52.0392 43.5751 57.4392 38.0751C62.9392 32.5751 69.4392 30.3751 69.7392 30.2751C70.0392 30.1751 70.3392 30.2751 70.5392 30.4751C70.7392 30.6751 70.8392 30.9751 70.7392 31.2751C70.6392 31.5751 68.4392 38.0751 62.9392 43.5751C57.4392 49.0751 50.9392 51.2751 50.6392 51.3751C50.5392 51.3751 50.5392 51.3751 50.4392 51.3751ZM68.6392 32.3751C66.3392 33.3751 62.2392 35.5751 58.6392 39.1751C55.0392 42.7751 52.8392 46.9751 51.8392 49.1751C54.1392 48.1751 58.2392 45.9751 61.8392 42.3751C65.4392 38.8751 67.6392 34.6751 68.6392 32.3751Z" fill="#46587A" stroke="#46587A"/>
<path d="M38.4394 42.9751C43.8394 48.3751 50.4394 50.5751 50.4394 50.5751C50.4394 50.5751 48.2394 43.9751 42.8394 38.5751C37.4394 33.1751 30.8394 30.9751 30.8394 30.9751C30.8394 30.9751 33.0394 37.5751 38.4394 42.9751Z" stroke="#46587A"/>
<path d="M50.4392 51.3751C50.3392 51.3751 50.2392 51.3751 50.2392 51.3751C49.9392 51.2751 43.4392 49.0751 37.9392 43.5751C32.4392 38.0751 30.1392 31.5751 30.0392 31.2751C29.9392 30.9751 30.0392 30.6751 30.2392 30.4751C30.4392 30.2751 30.7392 30.1751 31.0392 30.2751C31.3392 30.3751 37.8392 32.5751 43.3392 38.0751C48.8392 43.5751 51.0392 50.0751 51.1392 50.3751C51.2392 50.6751 51.1392 50.9751 50.9392 51.1751C50.8392 51.2751 50.6392 51.3751 50.4392 51.3751ZM32.2392 32.3751C33.2392 34.6751 35.4392 38.7751 39.0392 42.3751C42.6392 45.9751 46.8392 48.1751 49.0392 49.1751C48.0392 46.8751 45.8392 42.7751 42.2392 39.1751C38.6392 35.5751 34.4392 33.3751 32.2392 32.3751Z" fill="#46587A" stroke="#46587A"/>
<path d="M41.1392 52.875C46.2392 52.875 50.3392 50.575 50.3392 50.575C50.3392 50.575 46.2392 48.275 41.1392 48.275C36.0392 48.275 31.9392 50.575 31.9392 50.575C31.9392 50.575 36.0392 52.875 41.1392 52.875Z" stroke="#46587A"/>
<path d="M41.1392 53.6751C35.9392 53.6751 31.7392 51.3751 31.5392 51.2751C31.3392 51.1751 31.1392 50.8751 31.1392 50.5751C31.1392 50.2751 31.2392 50.0751 31.5392 49.8751C31.7392 49.7751 35.9392 47.4751 41.1392 47.4751C46.3392 47.4751 50.5392 49.7751 50.7392 49.8751C50.9392 49.9751 51.1392 50.2751 51.1392 50.5751C51.1392 50.8751 50.9392 51.0751 50.7392 51.2751C50.6392 51.3751 46.4392 53.6751 41.1392 53.6751ZM33.7392 50.5751C35.3392 51.2751 38.0392 52.0751 41.1392 52.0751C44.2392 52.0751 46.9392 51.1751 48.5392 50.5751C46.9392 49.9751 44.2392 49.0751 41.1392 49.0751C38.1392 49.0751 35.3392 49.9751 33.7392 50.5751Z" fill="#46587A" stroke="#46587A"/>
<path d="M59.6392 52.875C64.7392 52.875 68.8392 50.575 68.8392 50.575C68.8392 50.575 64.7392 48.275 59.6392 48.275C54.5392 48.275 50.4392 50.575 50.4392 50.575C50.4392 50.575 54.5392 52.875 59.6392 52.875Z" stroke="#46587A"/>
<path d="M59.6392 53.6751C54.4392 53.6751 50.2392 51.3751 50.0392 51.2751C49.8392 51.1751 49.6392 50.8751 49.6392 50.5751C49.6392 50.2751 49.8392 50.0751 50.0392 49.8751C50.2392 49.7751 54.4392 47.4751 59.6392 47.4751C64.8392 47.4751 69.0392 49.7751 69.2392 49.8751C69.4392 49.9751 69.6392 50.2751 69.6392 50.5751C69.6392 50.8751 69.4392 51.0751 69.2392 51.2751C69.0392 51.3751 64.8392 53.6751 59.6392 53.6751ZM52.2392 50.5751C53.8392 51.2751 56.5392 52.0751 59.6392 52.0751C62.7392 52.0751 65.4392 51.1751 67.0392 50.5751C65.4392 49.9751 62.7392 49.0751 59.6392 49.0751C56.5392 49.0751 53.8392 49.9751 52.2392 50.5751Z" fill="#46587A" stroke="#46587A"/>
<path d="M58.8392 66.775H41.9392C41.0392 66.775 40.4392 66.075 40.4392 65.275V63.775C40.4392 62.875 41.1392 62.275 41.9392 62.275H58.8392C59.6392 62.275 60.3392 62.975 60.3392 63.775V65.275C60.4392 66.075 59.7392 66.775 58.8392 66.775Z" stroke="#46587A"/>
<path d="M58.8392 67.5751H41.9392C40.6392 67.5751 39.6392 66.5751 39.6392 65.2751V63.7751C39.6392 62.4751 40.6392 61.4751 41.9392 61.4751H58.8392C60.1392 61.4751 61.1392 62.4751 61.1392 63.7751V65.2751C61.1392 66.4751 60.1392 67.5751 58.8392 67.5751ZM41.9392 62.8751C41.5392 62.8751 41.1392 63.1751 41.1392 63.6751V65.1751C41.1392 65.5751 41.4392 65.9751 41.9392 65.9751H58.8392C59.2392 65.9751 59.6392 65.6751 59.6392 65.1751V63.6751C59.6392 63.2751 59.3392 62.8751 58.8392 62.8751H41.9392Z" fill="#46587A" stroke="#46587A"/>
<path d="M55.2392 80.5751H45.5392C44.7392 80.5751 44.1392 80.0751 44.0392 79.2751L41.9392 66.675H58.8392L56.7392 79.2751C56.6392 80.0751 56.0392 80.5751 55.2392 80.5751Z" stroke="#46587A"/>
<path d="M55.2392 81.3751H45.5392C44.4392 81.3751 43.4392 80.5751 43.2392 79.4751L41.1392 66.8751C41.1392 66.6751 41.1392 66.3751 41.3392 66.2751C41.4392 66.0751 41.7392 65.9751 41.9392 65.9751H58.8392C59.0392 65.9751 59.2392 66.0751 59.4392 66.2751C59.5392 66.4751 59.6392 66.6751 59.6392 66.8751L57.5392 79.4751C57.3392 80.5751 56.4392 81.3751 55.2392 81.3751ZM42.8392 67.5751L44.7392 79.2751C44.8392 79.6751 45.1392 79.8751 45.5392 79.8751H55.2392C55.6392 79.8751 55.9392 79.5751 56.0392 79.2751L57.9392 67.5751H42.8392Z" fill="#46587A" stroke="#46587A"/>
</svg>
