<svg width="64" height="64" viewBox="0 0 64 64" fill="none" xmlns="http://www.w3.org/2000/svg">
<path d="M34.7193 31.8068L45.6108 24.1394V0H18.3892V24.1394L29.2806 31.8068C21.6317 33.1047 15.7871 39.7744 15.7871 47.7871C15.7871 56.7268 23.0603 64 32 64C40.9397 64 48.2128 56.7268 48.2128 47.7871C48.2128 39.7744 42.3684 33.1047 34.7193 31.8068ZM32 31.0286L24.494 25.7444V2.20175H39.5059V25.7444L32 31.0286ZM43.409 22.9967L41.7077 24.1944V2.20175H43.409V22.9967ZM20.5909 2.20175H22.2923V24.1944L20.5909 22.9967V2.20175ZM32 61.7983C24.2742 61.7983 17.9889 55.5129 17.9889 47.7871C17.9889 40.0614 24.2742 33.776 32 33.776C39.7257 33.776 46.0111 40.0614 46.0111 47.7871C46.0111 55.5129 39.7257 61.7983 32 61.7983Z" fill="#46587A"/>
<path d="M32 35.9224C25.4578 35.9224 20.1356 41.2448 20.1356 47.7868C20.1356 54.3288 25.458 59.6512 32 59.6512C38.542 59.6512 43.8644 54.3288 43.8644 47.7868C43.8644 41.2448 38.5422 35.9224 32 35.9224ZM32 57.4494C26.672 57.4494 22.3373 53.1148 22.3373 47.7868C22.3373 42.4587 26.672 38.1241 32 38.1241C37.328 38.1241 41.6627 42.4587 41.6627 47.7868C41.6627 53.1148 37.328 57.4494 32 57.4494Z" fill="#46587A"/>
</svg>
