<svg width="64" height="64" viewBox="0 0 64 64" fill="none" xmlns="http://www.w3.org/2000/svg">
<path fill-rule="evenodd" clip-rule="evenodd" d="M58.6811 29.3808C56.3563 28.3842 53.7218 28.766 51.7762 30.3739L51.2295 30.8257L50.7154 30.337C47.2924 27.0831 42.561 25.3471 37.8765 24.9897L37.1374 24.9333V20.5544L37.4486 20.3142C38.3504 19.6182 39.7961 18.3958 41.0092 16.8916C42.2362 15.3703 43.1373 13.6689 43.1373 11.9997C43.1373 10.2256 42.1675 7.90772 39.9297 4.85227C38.4043 2.76955 36.8926 1.18721 36.8387 1.13101C36.4158 0.689833 35.7094 0.689689 35.2865 1.13081L35.2858 1.13157C35.2324 1.18711 33.7208 2.76944 32.1953 4.85228C29.9573 7.90757 28.9874 10.2255 28.9874 11.9995C28.9874 13.6687 29.8886 15.3702 31.1155 16.8915C32.3287 18.3957 33.7744 19.618 34.6762 20.3141L34.9874 20.5543V24.9318L34.248 24.9879C33.3543 25.0559 32.4636 25.1755 31.5801 25.3446L31.2321 25.4112L30.9489 25.1982C28.4964 23.3534 25.0851 23.8931 23.2847 26.2425L23.2836 26.244L23.2815 26.247C23.2307 26.3173 22.583 27.2238 15.6703 36.8996L13.3902 40.0911L13.3038 40.212L1.34561 48.1021C0.850075 48.4291 0.713327 49.0959 1.04029 49.5915C1.36694 50.0866 2.03356 50.2235 2.52956 49.8968L14.6542 41.897C14.7647 41.824 14.8605 41.7317 14.9371 41.6244L24.9999 27.5394L25.0105 27.5259C26.7361 25.3169 30.2547 26.0957 30.8972 28.8167C31.1253 29.7829 30.9137 30.7943 30.3181 31.5886L30.3158 31.5913L30.3147 31.5925C30.311 31.5948 30.3084 31.5988 28.7152 34.0178L28.7138 34.0198C27.952 35.1765 26.8269 36.8847 25.1648 39.408C24.6955 40.1203 25.2072 41.0744 26.0624 41.0744H26.676H37.9414C40.8525 41.0744 43.6803 40.0386 45.9026 38.1582L53.1029 32.0658C54.4253 30.9465 56.2417 30.6746 57.834 31.3569L60.4231 32.4665L50.1501 47.1423C48.4373 49.589 45.7562 51.2043 42.7928 51.5747C37.9444 52.1807 34.3226 52.6308 31.6131 52.9675L31.608 52.9681C28.5468 53.3485 26.6506 53.5841 25.4654 53.7365C24.3349 53.8819 23.8834 53.9478 23.6862 53.9877L23.6622 53.9927C23.6389 54.0068 23.6096 54.0235 23.5749 54.0412L9.57484 61.1662C9.04582 61.4354 8.83511 62.0827 9.10444 62.6118C9.37338 63.1403 10.0204 63.3519 10.5501 63.0823L24.3824 56.0425L43.0595 53.7079C46.6241 53.2624 49.8511 51.3183 51.9114 48.3751L62.9429 32.6159C63.3339 32.0574 63.1117 31.2797 62.4859 31.0114L58.6811 29.3808ZM35.5551 18.2644L36.0625 18.6806L36.5699 18.2644C37.4867 17.5123 38.5617 16.505 39.4157 15.4412C40.2365 14.4188 40.9874 13.1826 40.9874 11.9995C40.9874 11.419 40.8157 10.7861 40.5698 10.165C40.3197 9.53338 39.9708 8.8595 39.5673 8.18148C38.7601 6.8252 37.7017 5.398 36.6763 4.17497L36.0633 4.68895L35.4499 4.17528C34.4246 5.39957 33.3658 6.8279 32.5583 8.18429C32.1546 8.86237 31.8055 9.53606 31.5554 10.1671C31.3094 10.7876 31.1374 11.4199 31.1374 11.9995C31.1374 13.1825 31.888 14.4185 32.7088 15.441C33.5627 16.5047 34.6378 17.512 35.5551 18.2644ZM48.9111 31.6009L49.5996 32.2138L48.5906 33.0675L44.5139 36.5169C42.679 38.0696 40.3452 38.9244 37.9415 38.9244H32.5604H28.0579L32.0585 32.8514L32.0706 32.8349C33.0232 31.5385 33.3883 29.8626 32.958 28.2038L32.7259 27.3089L33.6449 27.2078C39.31 26.5846 45.1115 28.2187 48.9111 31.6009Z" fill="#46587A"/>
</svg>
