<svg width="64" height="64" viewBox="0 0 64 64" fill="none" xmlns="http://www.w3.org/2000/svg">
<path d="M10.5067 24.9793C10.1698 27.7142 10.4303 30.5515 11.2882 33.491C12.2889 36.9275 14.0213 39.8813 16.1445 42.562C16.8827 43.522 17.7063 44.4132 18.6051 45.2248V54.3544C18.6051 54.8738 18.8115 55.3719 19.1787 55.7392C19.546 56.1064 20.0441 56.3128 20.5635 56.3128H34.1742C34.6936 56.3128 35.1917 56.1064 35.559 55.7392C35.9263 55.3719 36.1326 54.8738 36.1326 54.3544V51.7961C39.0436 52.0643 41.4567 52.076 42.8111 52.2463C43.5114 52.3182 44.2129 52.4243 44.9138 52.424C45.7348 52.4237 46.5296 52.2093 47.2096 51.6488C47.987 51.0081 48.2036 50.0759 48.2144 49.0482C48.2361 46.9849 48.2677 44.9217 48.2749 42.8583C48.276 42.5337 48.3743 42.4077 48.6369 42.3467C49.3143 42.1896 49.9888 42.0155 50.6635 41.8431C51.7808 41.5575 52.1763 40.1611 51.4106 39.2041C51.2506 39.0041 51.0789 38.8161 50.9128 38.6222C49.8986 37.438 48.9256 36.2178 48.186 34.7829C47.8124 34.0686 47.6405 33.2659 47.6888 32.4612C47.7202 31.8968 47.7505 31.3282 47.8377 30.7727C48.0714 29.2831 48.12 27.7954 47.8362 26.3126C47.7495 25.8597 47.6538 25.4152 47.5491 24.9792" stroke="#46587A" stroke-width="2"/>
<path d="M33.4906 26.189L28.5071 30.0059L19.0374 13.7307C18.8772 13.4627 18.8248 13.1437 18.891 12.8384C18.9572 12.5332 19.1371 12.2646 19.394 12.087C19.634 11.9212 19.9251 11.846 20.2154 11.875C20.5056 11.9039 20.7762 12.035 20.9788 12.2449L33.4906 26.189Z" stroke="#46587A" stroke-width="2"/>
<path d="M33.8135 33.6562L35.4893 32.3739L33.4906 26.189L28.507 30.0059L33.8135 33.6562Z" stroke="#46587A" stroke-width="2"/>
<path d="M33.1221 19.7029C33.9195 19.7029 34.5659 19.0565 34.5659 18.2592C34.5659 17.4618 33.9195 16.8154 33.1221 16.8154C32.3248 16.8154 31.6784 17.4618 31.6784 18.2592C31.6784 19.0565 32.3248 19.7029 33.1221 19.7029Z" stroke="#46587A" stroke-width="2"/>
<path d="M20.9788 28.5461C21.7525 28.5461 22.3797 27.9188 22.3797 27.1451C22.3797 26.3714 21.7525 25.7441 20.9788 25.7441C20.205 25.7441 19.5778 26.3714 19.5778 27.1451C19.5778 27.9188 20.205 28.5461 20.9788 28.5461Z" stroke="#46587A" stroke-width="2"/>
<path d="M26.7802 33.8581C27.154 33.0927 26.8366 32.1692 26.0712 31.7954C25.3059 31.4216 24.3824 31.739 24.0086 32.5044C23.6348 33.2697 23.9522 34.1932 24.7175 34.567C25.4829 34.9408 26.4063 34.6234 26.7802 33.8581Z" stroke="#46587A" stroke-width="2"/>
<path d="M38.8761 29.5416C37.0683 28.0592 35.4553 24.8844 37.4785 22.9263C38.2343 22.1949 39.2461 21.799 40.2394 21.4531C40.9501 21.2057 41.7796 21.0762 42.4234 20.6732C43.8095 19.8054 42.6253 18.1891 41.9127 17.2804C38.4969 12.9245 31.0888 9.40704 25.9261 12.7627L25.8388 12.8201" stroke="#46587A" stroke-width="2"/>
<path d="M18.6071 18.8726C18.6071 18.8726 13.2328 26.1236 18.6158 33.1721C23.9989 40.2206 31.8793 39.2909 31.8793 39.2909" stroke="#46587A" stroke-width="2"/>
<path d="M38.1402 40.6357C38.6803 40.7638 39.8316 38.9222 40.0449 36.963C40.1178 36.2929 40.2506 35.0734 39.4945 33.9127C39.3043 33.6208 38.6669 32.6424 37.3913 32.3589C35.9733 32.0439 34.8866 32.8366 34.7451 32.9435C34.6496 33.0156 33.058 34.2551 33.4684 35.7537C33.8449 37.1286 35.7104 37.8058 36.6795 37.511C36.7941 37.4761 36.8693 37.4358 36.9853 37.4582C37.8327 37.6217 37.5032 40.4845 38.1402 40.6357Z" stroke="#46587A" stroke-width="2"/>
</svg>
