<svg width="64" height="64" viewBox="0 0 64 64" fill="none" xmlns="http://www.w3.org/2000/svg">
<path d="M21.2211 37.6792C21.9308 39.9839 23.3605 42.0005 25.3005 43.433C27.2404 44.8654 29.5885 45.6384 32 45.6384C34.4115 45.6384 36.7596 44.8654 38.6995 43.433C40.6395 42.0005 42.0692 39.9839 42.7789 37.6792" stroke="#46587A" stroke-width="2"/>
<path d="M32.1516 55.4704C44.9869 55.4704 55.3919 45.0653 55.3919 32.2301C55.3919 19.3948 44.9869 8.98975 32.1516 8.98975C19.3163 8.98975 8.91125 19.3948 8.91125 32.2301C8.91125 45.0653 19.3163 55.4704 32.1516 55.4704Z" stroke="#46587A" stroke-width="2"/>
<path d="M43.1078 33.0452C47.1178 33.0452 50.3686 29.7944 50.3686 25.7843C50.3686 21.7742 47.1178 18.5234 43.1078 18.5234C39.0977 18.5234 35.8469 21.7742 35.8469 25.7843C35.8469 29.7944 39.0977 33.0452 43.1078 33.0452Z" stroke="#46587A" stroke-width="2"/>
<path d="M21.1953 33.0452C25.2054 33.0452 28.4562 29.7944 28.4562 25.7843C28.4562 21.7742 25.2054 18.5234 21.1953 18.5234C17.1852 18.5234 13.9344 21.7742 13.9344 25.7843C13.9344 29.7944 17.1852 33.0452 21.1953 33.0452Z" stroke="#46587A" stroke-width="2"/>
<path d="M43.1077 28.7361C44.7378 28.7361 46.0593 27.4147 46.0593 25.7846C46.0593 24.1545 44.7378 22.833 43.1077 22.833C41.4776 22.833 40.1561 24.1545 40.1561 25.7846C40.1561 27.4147 41.4776 28.7361 43.1077 28.7361Z" fill="#46587A"/>
<path d="M21.1953 28.7361C22.8254 28.7361 24.1469 27.4147 24.1469 25.7846C24.1469 24.1545 22.8254 22.833 21.1953 22.833C19.5652 22.833 18.2438 24.1545 18.2438 25.7846C18.2438 27.4147 19.5652 28.7361 21.1953 28.7361Z" fill="#46587A"/>
</svg>
