<svg width="64" height="64" viewBox="0 0 64 64" fill="none" xmlns="http://www.w3.org/2000/svg">
<g clip-path="url(#clip0)">
<path d="M20.2667 25.6001C16.1429 25.6001 12.8 28.943 12.8 33.0668C12.8 37.1905 16.1429 40.5334 20.2667 40.5334C24.3904 40.5334 27.7333 37.1905 27.7333 33.0668C27.7333 28.943 24.3904 25.6001 20.2667 25.6001ZM20.2667 38.4001C17.3211 38.4001 14.9333 36.0123 14.9333 33.0668C14.9333 30.1212 17.3211 27.7334 20.2667 27.7334C23.2122 27.7334 25.6 30.1212 25.6 33.0668C25.6 34.4813 25.0381 35.8378 24.0379 36.838C23.0377 37.8382 21.6811 38.4001 20.2667 38.4001Z" fill="#46587A"/>
<path d="M55.4666 63.9998C57.234 63.9998 58.6666 62.5671 58.6666 60.7998V50.1332C58.6666 46.0094 55.3237 42.6665 51.2 42.6665H12.8C8.67625 42.6665 5.33331 46.0094 5.33331 50.1332V60.7998C5.33331 62.5671 6.766 63.9998 8.53331 63.9998H28.8C29.9782 63.9998 30.9333 63.0447 30.9333 61.8665V50.1332H33.0666V60.7998C33.0666 62.5671 34.4993 63.9998 36.2666 63.9998H55.4666ZM28.8 47.9998C28.2109 47.9998 27.7333 48.4774 27.7333 49.0665C27.7333 49.6556 28.2109 50.1332 28.8 50.1332V61.8665H12.8V53.3332C12.8 52.7441 12.3224 52.2665 11.7333 52.2665C11.1442 52.2665 10.6666 52.7441 10.6666 53.3332V61.8665H8.53331C7.94421 61.8665 7.46665 61.3889 7.46665 60.7998V50.1332C7.46665 47.1876 9.85446 44.7998 12.8 44.7998H47.4666C48.3503 44.7998 49.0667 45.5162 49.0667 46.3998C49.0667 47.2835 48.3503 47.9998 47.4666 47.9998H28.8ZM35.2 60.7998V50.1332H47.4666C48.7468 50.1345 49.9378 49.4779 50.6202 48.3948C51.3025 47.3117 51.3805 45.954 50.8266 44.7998H51.2C54.1455 44.7998 56.5333 47.1876 56.5333 50.1332V60.7998C56.5333 61.3889 56.0558 61.8665 55.4666 61.8665H53.3333V53.3332C53.3333 52.7441 52.8558 52.2665 52.2666 52.2665C51.6775 52.2665 51.2 52.7441 51.2 53.3332V61.8665H40.5333V53.3332C40.5333 52.7441 40.0558 52.2665 39.4666 52.2665C38.8775 52.2665 38.4 52.7441 38.4 53.3332V61.8665H36.2666C35.6775 61.8665 35.2 61.3889 35.2 60.7998Z" fill="#46587A"/>
<path d="M52.2667 33.0668C52.2667 28.943 48.9238 25.6001 44.8 25.6001C40.6763 25.6001 37.3334 28.943 37.3334 33.0668C37.3334 37.1905 40.6763 40.5334 44.8 40.5334C48.9238 40.5334 52.2667 37.1905 52.2667 33.0668ZM39.4667 33.0668C39.4667 30.1212 41.8545 27.7334 44.8 27.7334C47.7456 27.7334 50.1334 30.1212 50.1334 33.0668C50.1334 36.0123 47.7456 38.4001 44.8 38.4001C41.8545 38.4001 39.4667 36.0123 39.4667 33.0668Z" fill="#46587A"/>
<path d="M10.6666 8.53349C11.2557 8.53349 11.7333 8.05593 11.7333 7.46683V6.40016C11.7333 5.81106 11.2557 5.3335 10.6666 5.3335C10.0775 5.3335 9.59998 5.81106 9.59998 6.40016V7.46683C9.59998 8.05593 10.0775 8.53349 10.6666 8.53349Z" fill="#46587A"/>
<path d="M19.2 8.53349C19.7891 8.53349 20.2667 8.05593 20.2667 7.46683V6.40016C20.2667 5.81106 19.7891 5.3335 19.2 5.3335C18.6109 5.3335 18.1334 5.81106 18.1334 6.40016V7.46683C18.1334 8.05593 18.6109 8.53349 19.2 8.53349Z" fill="#46587A"/>
<path d="M10.976 10.9759C10.774 11.1762 10.6605 11.4489 10.6605 11.7333C10.6605 12.0177 10.774 12.2903 10.976 12.4906C12.8106 14.3253 17.056 14.3253 18.8906 12.4906C19.2972 12.0758 19.2972 11.412 18.8906 10.9973C18.4746 10.5837 17.8027 10.5837 17.3866 10.9973C15.9147 12.0318 13.952 12.0318 12.48 10.9973C12.0698 10.5777 11.3979 10.5682 10.976 10.9759Z" fill="#46587A"/>
<path d="M53.3334 5.3335C52.7443 5.3335 52.2667 5.81106 52.2667 6.40016V7.46683C52.2667 8.05593 52.7443 8.53349 53.3334 8.53349C53.9225 8.53349 54.4 8.05593 54.4 7.46683V6.40016C54.4 5.81106 53.9225 5.3335 53.3334 5.3335Z" fill="#46587A"/>
<path d="M45.8666 7.46683V6.40016C45.8666 5.81106 45.389 5.3335 44.7999 5.3335C44.2108 5.3335 43.7333 5.81106 43.7333 6.40016V7.46683C43.7333 8.05593 44.2108 8.53349 44.7999 8.53349C45.389 8.53349 45.8666 8.05593 45.8666 7.46683Z" fill="#46587A"/>
<path d="M45.1094 12.0425C44.7028 12.4573 44.7028 13.1211 45.1094 13.5358C45.5254 13.9494 46.1973 13.9494 46.6134 13.5358C48.083 12.5063 50.0397 12.5063 51.5094 13.5358C51.7071 13.7433 51.9801 13.8625 52.2667 13.8665C52.7 13.869 53.0918 13.6091 53.258 13.2089C53.4242 12.8087 53.3317 12.3477 53.024 12.0425C51.2 10.2078 46.9334 10.2078 45.1094 12.0425Z" fill="#46587A"/>
<path d="M60.2667 0H37.8667C35.8048 0 34.1333 1.67147 34.1333 3.73333V15.4667C34.1141 17.337 35.482 18.9329 37.3333 19.2V22.176C37.3331 23.048 37.8059 23.8515 38.5683 24.2747C39.3306 24.698 40.2626 24.6745 41.0026 24.2133C41.1093 24.1493 42.1226 23.264 46.7947 19.2427H60.2667C61.2642 19.2427 62.2203 18.8435 62.9217 18.1342C63.6231 17.4248 64.0114 16.4642 64 15.4667V3.73333C64 1.67147 62.3285 0 60.2667 0ZM61.8667 15.4667C61.8667 16.3503 61.1503 17.0667 60.2667 17.0667H44.8C44.3918 17.0734 44.0233 17.3125 43.8508 17.6824C43.6783 18.0524 43.7321 18.4884 43.9893 18.8053C39.4667 22.6667 39.8187 22.4747 39.6053 22.4C39.392 22.3253 39.4667 22.2933 39.4667 19.2H40.5333C41.1224 19.2 41.6 18.7224 41.6 18.1333C41.6 17.5442 41.1224 17.0667 40.5333 17.0667H37.8667C36.983 17.0667 36.2667 16.3503 36.2667 15.4667V3.73333C36.2667 2.84968 36.983 2.13333 37.8667 2.13333H60.2667C61.1503 2.13333 61.8667 2.84968 61.8667 3.73333V15.4667Z" fill="#46587A"/>
<path d="M3.73333 19.2H17.0667C17.2693 19.2 16.6187 18.656 22.8693 24.0747C23.275 24.3713 23.7641 24.5319 24.2667 24.5333C25.5922 24.5333 26.6667 23.4588 26.6667 22.1333V19.2C28.5018 18.9351 29.8645 17.3635 29.8667 15.5093V3.73333C29.8667 1.67147 28.1952 0 26.1333 0H3.73333C1.67147 0 0 1.67147 0 3.73333V15.4667C0 17.5285 1.67147 19.2 3.73333 19.2ZM2.13333 3.73333C2.13333 2.84968 2.84968 2.13333 3.73333 2.13333H26.1333C27.017 2.13333 27.7333 2.84968 27.7333 3.73333V15.4667C27.7333 16.3503 27.017 17.0667 26.1333 17.0667H23.4667C22.8776 17.0667 22.4 17.5442 22.4 18.1333C22.4 18.7224 22.8776 19.2 23.4667 19.2H24.5333C24.5333 22.336 24.5973 22.2507 24.3947 22.4C24.3248 22.4379 24.2405 22.4379 24.1707 22.4L20.0107 18.8267C20.2813 18.5102 20.3431 18.0653 20.1689 17.6871C19.9947 17.3089 19.6164 17.0666 19.2 17.0667H3.73333C3.30899 17.0667 2.90202 16.8981 2.60196 16.598C2.3019 16.298 2.13333 15.891 2.13333 15.4667V3.73333Z" fill="#46587A"/>
</g>
<defs>
<clipPath id="clip0">
<rect width="64" height="64" fill="white"/>
</clipPath>
</defs>
</svg>
