<svg width="64" height="64" viewBox="0 0 64 64" fill="none" xmlns="http://www.w3.org/2000/svg">
<path d="M18.3607 44.0657H9.96724C8.2289 44.0657 6.8197 45.4749 6.8197 47.2132V55.6067C6.8197 57.345 8.2289 58.7542 9.96724 58.7542H18.3607C20.099 58.7542 21.5082 57.345 21.5082 55.6067V47.2132C21.5082 45.4749 20.099 44.0657 18.3607 44.0657ZM19.4099 55.6067C19.4099 56.1861 18.9401 56.6558 18.3607 56.6558H9.96724C9.3878 56.6558 8.91806 56.1861 8.91806 55.6067V47.2132C8.91806 46.6338 9.3878 46.164 9.96724 46.164H18.3607C18.9401 46.164 19.4099 46.6338 19.4099 47.2132V55.6067Z" fill="#46587A"/>
<path d="M21.9489 13.8386L21.5082 14.1533V13.6392C21.5082 11.9009 20.099 10.4917 18.3607 10.4917H9.96724C8.2289 10.4917 6.8197 11.9009 6.8197 13.6392V22.0327C6.8197 23.771 8.2289 25.1802 9.96724 25.1802H18.3607C20.099 25.1802 21.5082 23.771 21.5082 22.0327V16.7238L23.1659 15.5383C23.5072 15.3362 23.7053 14.9589 23.678 14.5633C23.6507 14.1676 23.4026 13.8212 23.0368 13.6679C22.6711 13.5146 22.2501 13.5806 21.9489 13.8386ZM19.4099 22.0327C19.4099 22.6121 18.9401 23.0819 18.3607 23.0819H9.96724C9.3878 23.0819 8.91806 22.6121 8.91806 22.0327V13.6392C8.91806 13.0598 9.3878 12.5901 9.96724 12.5901H18.3607C18.9401 12.5901 19.4099 13.0598 19.4099 13.6392V15.6432L15.6013 18.371L15.0977 17.3219C14.8144 16.851 14.2158 16.6785 13.7253 16.9265C13.2349 17.1745 13.0189 17.7588 13.2302 18.2661L14.2794 20.3645C14.4181 20.636 14.668 20.8337 14.9641 20.9062C15.2602 20.9787 15.5732 20.9189 15.8217 20.7422L19.4099 18.2242V22.0327Z" fill="#46587A"/>
<path d="M21.9489 30.6257L21.5082 30.9405V30.4264C21.5082 28.688 20.099 27.2788 18.3607 27.2788H9.96724C8.2289 27.2788 6.8197 28.688 6.8197 30.4264V38.8198C6.8197 40.5581 8.2289 41.9673 9.96724 41.9673H18.3607C20.099 41.9673 21.5082 40.5581 21.5082 38.8198V33.5109L23.1659 32.3254C23.5072 32.1233 23.7053 31.746 23.678 31.3504C23.6507 30.9547 23.4026 30.6083 23.0368 30.455C22.6711 30.3017 22.2501 30.3677 21.9489 30.6257ZM19.4099 38.8198C19.4099 39.3992 18.9401 39.869 18.3607 39.869H9.96724C9.3878 39.869 8.91806 39.3992 8.91806 38.8198V30.4264C8.91806 29.8469 9.3878 29.3772 9.96724 29.3772H18.3607C18.9401 29.3772 19.4099 29.8469 19.4099 30.4264V32.4303L15.6013 35.1582L15.0977 34.109C14.9466 33.7459 14.605 33.4979 14.213 33.4665C13.821 33.4351 13.4443 33.6255 13.2372 33.9599C13.0301 34.2942 13.0274 34.7163 13.2302 35.0532L14.2794 37.1516C14.4181 37.4231 14.668 37.6208 14.9641 37.6933C15.2602 37.7658 15.5732 37.706 15.8217 37.5293L19.4099 35.0113V38.8198Z" fill="#46587A"/>
<path d="M27.8033 14.6887H45.6394C46.2188 14.6887 46.6886 14.219 46.6886 13.6395C46.6886 13.0601 46.2188 12.5903 45.6394 12.5903H27.8033C27.2239 12.5903 26.7542 13.0601 26.7542 13.6395C26.7542 14.219 27.2239 14.6887 27.8033 14.6887Z" fill="#46587A"/>
<path d="M27.8033 20.9836H36.1968C36.7762 20.9836 37.246 20.5139 37.246 19.9344C37.246 19.355 36.7762 18.8853 36.1968 18.8853H27.8033C27.2239 18.8853 26.7542 19.355 26.7542 19.9344C26.7542 20.5139 27.2239 20.9836 27.8033 20.9836Z" fill="#46587A"/>
<path d="M27.8033 31.4753H45.6394C46.2188 31.4753 46.6886 31.0056 46.6886 30.4261C46.6886 29.8467 46.2188 29.377 45.6394 29.377H27.8033C27.2239 29.377 26.7542 29.8467 26.7542 30.4261C26.7542 31.0056 27.2239 31.4753 27.8033 31.4753Z" fill="#46587A"/>
<path d="M27.8033 37.7705H36.1968C36.7762 37.7705 37.246 37.3007 37.246 36.7213C37.246 36.1419 36.7762 35.6721 36.1968 35.6721H27.8033C27.2239 35.6721 26.7542 36.1419 26.7542 36.7213C26.7542 37.3007 27.2239 37.7705 27.8033 37.7705Z" fill="#46587A"/>
<path d="M61.3771 50.3607H59.0899C58.5068 48.7299 56.7158 47.8767 55.082 48.4511V47.2131C55.0783 45.8825 54.2382 44.698 52.9837 44.2544V7.34426C52.9837 5.02648 51.1047 3.14754 48.7869 3.14754H39.3443V2.09836C39.3443 0.939468 38.4049 0 37.246 0H16.2624C15.1035 0 14.164 0.939468 14.164 2.09836V3.14754H4.72138C2.40359 3.14754 0.524658 5.02648 0.524658 7.34426V58.7541C0.524658 61.0719 2.40359 62.9508 4.72138 62.9508C52.9207 62.9508 49.3115 63.1082 50.4866 62.5836C51.4601 63.0879 52.6258 63.0494 53.5639 62.4819C54.5019 61.9143 55.077 60.8996 55.082 59.8033V58.5652C56.7158 59.1397 58.5068 58.2864 59.0899 56.6557H61.3771C62.536 56.6557 63.4755 55.7163 63.4755 54.5574V52.459C63.4755 51.3001 62.536 50.3607 61.3771 50.3607ZM16.2624 2.09836H37.246V6.29508H16.2624V2.09836ZM2.62302 58.7541V7.34426C2.62302 6.18537 3.56249 5.2459 4.72138 5.2459H14.164V6.29508C14.164 7.45397 15.1035 8.39344 16.2624 8.39344H37.246C38.4049 8.39344 39.3443 7.45397 39.3443 6.29508V5.2459H48.7869C49.9458 5.2459 50.8853 6.18537 50.8853 7.34426V44.2544C49.6308 44.698 48.7907 45.8825 48.7869 47.2131V50.3607H40.3935V47.2131C40.3935 45.4748 38.9843 44.0656 37.246 44.0656C35.5076 44.0656 34.0984 45.4748 34.0984 47.2131V48.4511C32.4646 47.8767 30.6737 48.7299 30.0906 50.3607H27.8033C26.6445 50.3607 25.705 51.3001 25.705 52.459V54.5574C25.705 55.7163 26.6445 56.6557 27.8033 56.6557H30.0906C30.6737 58.2864 32.4646 59.1397 34.0984 58.5652C34.0207 59.3328 34.0847 60.1081 34.2873 60.8525H4.72138C3.56249 60.8525 2.62302 59.913 2.62302 58.7541ZM27.8033 54.5574V52.459H29.9017V54.5574H27.8033ZM32.0001 51.4098C32.0001 50.8304 32.4698 50.3607 33.0492 50.3607C33.6287 50.3607 34.0984 50.8304 34.0984 51.4098V55.6066C34.0984 56.186 33.6287 56.6557 33.0492 56.6557C32.4698 56.6557 32.0001 56.186 32.0001 55.6066V51.4098ZM36.1968 59.8033V47.2131C36.1968 46.6337 36.6665 46.1639 37.246 46.1639C37.8254 46.1639 38.2951 46.6337 38.2951 47.2131V59.8033C38.2951 60.3827 37.8254 60.8525 37.246 60.8525C36.6665 60.8525 36.1968 60.3827 36.1968 59.8033ZM40.3935 52.459H48.7869V54.5574H40.3935V52.459ZM40.2047 60.8525C40.4565 60.139 40.3935 60.0551 40.3935 56.6557H48.7869C48.7869 59.8033 48.7135 60.0761 48.9758 60.8525C48.5456 60.8525 50.4237 60.8525 40.2047 60.8525ZM52.9837 59.8033C52.9837 60.3827 52.5139 60.8525 51.9345 60.8525C51.355 60.8525 50.8853 60.3827 50.8853 59.8033V47.2131C50.8853 46.6337 51.355 46.1639 51.9345 46.1639C52.5139 46.1639 52.9837 46.6337 52.9837 47.2131V59.8033ZM56.1312 56.6557C55.5518 56.6557 55.082 56.186 55.082 55.6066V51.4098C55.082 50.8304 55.5518 50.3607 56.1312 50.3607C56.7107 50.3607 57.1804 50.8304 57.1804 51.4098V55.6066C57.1804 56.186 56.7107 56.6557 56.1312 56.6557ZM61.3771 54.5574H59.2788V52.459H61.3771V54.5574Z" fill="#46587A"/>
</svg>
