<svg width="64" height="64" viewBox="0 0 64 64" fill="none" xmlns="http://www.w3.org/2000/svg">
<g clip-path="url(#clip0)">
<path d="M60.2667 21.3333H49.6L60.0107 10.9333C61.6284 9.31368 62.2591 6.95407 61.6654 4.7433C61.0716 2.53253 59.3435 0.806464 57.132 0.215298C54.9206 -0.375868 52.5617 0.257676 50.944 1.87728L31.4773 21.3333H23.4667C23.3587 18.3524 22.6817 15.4198 21.472 12.6933C27.296 14.3466 31.072 11.7439 33.1307 6.29328C33.3649 5.68419 33.3075 5.00139 32.9748 4.43998C32.6421 3.87857 32.0708 3.50031 31.424 3.41328C28.6692 2.96836 25.8461 3.24773 23.232 4.22395C20.8853 5.29061 19.3387 7.95728 18.6453 9.38661C17.1413 8.94928 14.1867 8.31995 11.8293 9.38661C9.00267 10.6666 6.784 13.4506 5.70667 15.0186C5.33548 15.5541 5.22933 16.2298 5.41845 16.8533C5.60757 17.4767 6.07123 17.9796 6.67733 18.2186C12.256 20.4373 16.736 19.0826 19.3707 13.2906C20.5438 15.8176 21.2106 18.55 21.3333 21.3333H3.73333C1.67147 21.3333 0 23.0048 0 25.0666C0 27.1285 1.67147 28.7999 3.73333 28.7999H4.26667V36.2666C4.29741 44.3902 8.33718 51.9748 15.0613 56.5333C12.9995 56.6452 11.4187 58.4074 11.5307 60.4693C11.6426 62.5311 13.4048 64.1119 15.4667 64H48.5333C49.8671 64.0724 51.1382 63.4277 51.8678 62.3088C52.5974 61.1899 52.6747 59.7668 52.0705 58.5755C51.4663 57.3842 50.2725 56.6057 48.9387 56.5333C55.6628 51.9748 59.7026 44.3902 59.7333 36.2666V28.7999H60.2667C62.3285 28.7999 64 27.1285 64 25.0666C64 23.0048 62.3285 21.3333 60.2667 21.3333ZM24.0853 6.12261C26.3305 5.30588 28.7506 5.09255 31.104 5.50395C30.5493 6.96528 29.2907 9.59995 27.0933 10.5813C24.896 11.5626 22.0053 10.7199 20.5973 10.1439C21.2587 8.81061 22.5067 6.83728 24.0853 6.12261ZM13.792 16.6186C11.6587 17.6106 8.88533 16.8106 7.46667 16.2239C8.76873 14.1733 10.5614 12.4796 12.6827 11.2959C14.3703 10.7482 16.1907 10.7669 17.8667 11.3493C17.344 12.7999 16.0853 15.5733 13.792 16.6186ZM52.448 3.38128C53.6683 2.1596 55.5047 1.79391 57.0999 2.45489C58.6951 3.11587 59.7347 4.6732 59.7333 6.39995C59.7426 7.53352 59.2924 8.62253 58.4853 9.41861L46.5813 21.3333H34.4853L52.448 3.38128ZM50.1333 60.2666C50.1333 61.1503 49.417 61.8666 48.5333 61.8666H15.4667C14.583 61.8666 13.8667 61.1503 13.8667 60.2666C13.8667 59.383 14.583 58.6666 15.4667 58.6666H48.5333C49.417 58.6666 50.1333 59.383 50.1333 60.2666ZM60.2667 26.6666H53.3333C52.7442 26.6666 52.2667 27.1442 52.2667 27.7333C52.2667 28.3224 52.7442 28.7999 53.3333 28.7999H57.6V36.2666C57.5972 44.9459 52.5808 52.8425 44.7253 56.5333H19.2747C11.4192 52.8425 6.40277 44.9459 6.4 36.2666V28.7999H49.0667C49.6558 28.7999 50.1333 28.3224 50.1333 27.7333C50.1333 27.1442 49.6558 26.6666 49.0667 26.6666H3.73333C2.84968 26.6666 2.13333 25.9503 2.13333 25.0666C2.13333 24.183 2.84968 23.4666 3.73333 23.4666H60.2667C61.1503 23.4666 61.8667 24.183 61.8667 25.0666C61.8667 25.9503 61.1503 26.6666 60.2667 26.6666Z" fill="#46587A"/>
</g>
<defs>
<clipPath id="clip0">
<rect width="64" height="64" fill="white"/>
</clipPath>
</defs>
</svg>
