<svg width="64" height="64" viewBox="0 0 64 64" fill="none" xmlns="http://www.w3.org/2000/svg">
<path d="M32.3535 34.897L32 34.5435L31.6464 34.897L24.5882 41.9553C21.9283 44.6152 18.3945 46.079 14.6328 46.079C10.8711 46.079 7.33726 44.6152 4.6773 41.9553C2.01744 39.2955 0.55365 35.7615 0.55365 32C0.55365 28.2383 2.01744 24.7044 4.67739 22.0447L4.6774 22.0447C7.33726 19.3848 10.8711 17.921 14.6328 17.921C18.3944 17.921 21.9283 19.3848 24.5882 22.0447L31.6464 29.1029L32 29.4565L32.3536 29.1029L39.4118 22.0445C42.0717 19.3847 45.6056 17.9209 49.3672 17.9209C53.1289 17.9209 56.6627 19.3847 59.3226 22.0445C61.9824 24.7044 63.4462 28.2382 63.4462 31.9999C63.4462 35.7615 61.9824 39.2955 59.3226 41.9553C56.6627 44.6151 53.1289 46.079 49.3672 46.079C45.6056 46.079 42.0717 44.6152 39.4118 41.9553L32.3535 34.897ZM34.897 31.6464L34.5434 31.9999L34.897 32.3535L41.9554 39.4118C43.9344 41.3908 46.5683 42.4819 49.3672 42.4819C52.1661 42.4819 54.8 41.3908 56.779 39.4118C58.7582 37.4326 59.8493 34.7988 59.8493 31.9999C59.8493 29.2011 58.7582 26.5671 56.779 24.588C54.8 22.6088 52.1662 21.5179 49.3672 21.5179C46.5684 21.5179 43.9344 22.609 41.9554 24.588L34.897 31.6464ZM29.1029 32.3535L29.4564 31.9999L29.1029 31.6464L22.0445 24.588C20.0655 22.6088 17.4316 21.5179 14.6327 21.5179C11.8338 21.5179 9.19991 22.609 7.22086 24.588C5.24168 26.5672 4.15083 29.2011 4.1506 32V32C4.1506 34.7988 5.24159 37.4327 7.22064 39.4118L7.22065 39.4119C9.19971 41.3909 11.8337 42.4819 14.6326 42.4819C17.4315 42.4819 20.0653 41.3909 22.0444 39.4119L29.1029 32.3535Z" fill="#46587A" stroke="white"/>
<mask id="path-2-inside-1" fill="white">
<path d="M49.3673 46.6325C45.4587 46.6325 41.7841 45.1104 39.0204 42.3467L32 35.3263L24.9797 42.3467C22.216 45.1105 18.5414 46.6325 14.6328 46.6325C10.7242 46.6325 7.04968 45.1104 4.28587 42.3467C1.52205 39.5829 0 35.9083 0 31.9999C0 28.0913 1.52205 24.4167 4.28576 21.6529C7.04958 18.8892 10.7242 17.3672 14.6327 17.3672C18.5413 17.3672 22.2158 18.8892 24.9796 21.6529L32 28.6733L39.0204 21.6529C41.7842 18.8892 45.4587 17.3672 49.3673 17.3672C53.2759 17.3672 56.9505 18.8892 59.7142 21.6529C62.4779 24.4167 64 28.0913 64 31.9999C64 35.9084 62.4778 39.5831 59.7142 42.3468C56.9504 45.1105 53.2758 46.6325 49.3673 46.6325ZM32 35.1746L39.0963 42.2708C41.8397 45.0143 45.4874 46.5251 49.3673 46.5251C53.2471 46.5251 56.8947 45.0143 59.6384 42.2708C62.3818 39.5274 63.8927 35.8797 63.8927 31.9998C63.8927 28.1198 62.3818 24.4722 59.6384 21.7287C56.8949 18.9852 53.2472 17.4744 49.3673 17.4744C45.4875 17.4744 41.8399 18.9853 39.0963 21.7287L32 28.825L24.9037 21.7287C22.1603 18.9853 18.5126 17.4744 14.6327 17.4744C10.7529 17.4744 7.10516 18.9853 4.36163 21.7287C1.6182 24.4722 0.107308 28.12 0.107308 31.9999C0.107308 35.8796 1.6182 39.5272 4.36163 42.2708C7.10516 45.0143 10.7529 46.5251 14.6327 46.5251C18.5125 46.5251 22.1602 45.0143 24.9037 42.2708L32 35.1746ZM49.3673 42.0354C46.6868 42.0354 44.1665 40.9914 42.2711 39.0959L35.1747 31.9997L42.2711 24.9034C44.1665 23.0079 46.6867 21.964 49.3673 21.964C52.048 21.964 54.5681 23.0079 56.4636 24.9034C58.3592 26.7989 59.4032 29.319 59.4032 31.9997C59.4032 34.6801 58.3592 37.2003 56.4636 39.0959C54.5681 40.9915 52.0479 42.0354 49.3673 42.0354ZM35.3264 31.9998L42.3469 39.0202C44.2222 40.8955 46.7154 41.9282 49.3673 41.9282C52.0192 41.9282 54.5124 40.8955 56.3877 39.0202C58.263 37.1447 59.2958 34.6517 59.2958 31.9998C59.2958 29.3478 58.263 26.8546 56.3877 24.9794C54.5124 23.1042 52.0192 22.0714 49.3673 22.0714C46.7154 22.0714 44.2222 23.1042 42.3469 24.9794L35.3264 31.9998ZM14.6327 42.0354C11.952 42.0354 9.43181 40.9915 7.53643 39.096C5.64106 37.2005 4.59717 34.6804 4.59717 31.9998C4.59717 29.319 5.64106 26.7988 7.53654 24.9034C9.43202 23.0079 11.9521 21.964 14.6328 21.964C17.3134 21.964 19.8336 23.0079 21.729 24.9034L28.8254 31.9997L21.729 39.096C19.8336 40.9916 17.3133 42.0354 14.6327 42.0354ZM14.6328 22.0714C11.9809 22.0714 9.48761 23.1042 7.6124 24.9794C5.7372 26.8546 4.70447 29.3478 4.70447 31.9999C4.70447 34.6518 5.7372 37.145 7.6123 39.0203C9.4875 40.8955 11.9807 41.9282 14.6327 41.9282C17.2847 41.9282 19.7779 40.8955 21.6531 39.0203L28.6736 31.9998L21.6531 24.9794C19.778 23.1042 17.2847 22.0714 14.6328 22.0714Z"/>
</mask>
<path d="M49.3673 46.6325C45.4587 46.6325 41.7841 45.1104 39.0204 42.3467L32 35.3263L24.9797 42.3467C22.216 45.1105 18.5414 46.6325 14.6328 46.6325C10.7242 46.6325 7.04968 45.1104 4.28587 42.3467C1.52205 39.5829 0 35.9083 0 31.9999C0 28.0913 1.52205 24.4167 4.28576 21.6529C7.04958 18.8892 10.7242 17.3672 14.6327 17.3672C18.5413 17.3672 22.2158 18.8892 24.9796 21.6529L32 28.6733L39.0204 21.6529C41.7842 18.8892 45.4587 17.3672 49.3673 17.3672C53.2759 17.3672 56.9505 18.8892 59.7142 21.6529C62.4779 24.4167 64 28.0913 64 31.9999C64 35.9084 62.4778 39.5831 59.7142 42.3468C56.9504 45.1105 53.2758 46.6325 49.3673 46.6325ZM32 35.1746L39.0963 42.2708C41.8397 45.0143 45.4874 46.5251 49.3673 46.5251C53.2471 46.5251 56.8947 45.0143 59.6384 42.2708C62.3818 39.5274 63.8927 35.8797 63.8927 31.9998C63.8927 28.1198 62.3818 24.4722 59.6384 21.7287C56.8949 18.9852 53.2472 17.4744 49.3673 17.4744C45.4875 17.4744 41.8399 18.9853 39.0963 21.7287L32 28.825L24.9037 21.7287C22.1603 18.9853 18.5126 17.4744 14.6327 17.4744C10.7529 17.4744 7.10516 18.9853 4.36163 21.7287C1.6182 24.4722 0.107308 28.12 0.107308 31.9999C0.107308 35.8796 1.6182 39.5272 4.36163 42.2708C7.10516 45.0143 10.7529 46.5251 14.6327 46.5251C18.5125 46.5251 22.1602 45.0143 24.9037 42.2708L32 35.1746ZM49.3673 42.0354C46.6868 42.0354 44.1665 40.9914 42.2711 39.0959L35.1747 31.9997L42.2711 24.9034C44.1665 23.0079 46.6867 21.964 49.3673 21.964C52.048 21.964 54.5681 23.0079 56.4636 24.9034C58.3592 26.7989 59.4032 29.319 59.4032 31.9997C59.4032 34.6801 58.3592 37.2003 56.4636 39.0959C54.5681 40.9915 52.0479 42.0354 49.3673 42.0354ZM35.3264 31.9998L42.3469 39.0202C44.2222 40.8955 46.7154 41.9282 49.3673 41.9282C52.0192 41.9282 54.5124 40.8955 56.3877 39.0202C58.263 37.1447 59.2958 34.6517 59.2958 31.9998C59.2958 29.3478 58.263 26.8546 56.3877 24.9794C54.5124 23.1042 52.0192 22.0714 49.3673 22.0714C46.7154 22.0714 44.2222 23.1042 42.3469 24.9794L35.3264 31.9998ZM14.6327 42.0354C11.952 42.0354 9.43181 40.9915 7.53643 39.096C5.64106 37.2005 4.59717 34.6804 4.59717 31.9998C4.59717 29.319 5.64106 26.7988 7.53654 24.9034C9.43202 23.0079 11.9521 21.964 14.6328 21.964C17.3134 21.964 19.8336 23.0079 21.729 24.9034L28.8254 31.9997L21.729 39.096C19.8336 40.9916 17.3133 42.0354 14.6327 42.0354ZM14.6328 22.0714C11.9809 22.0714 9.48761 23.1042 7.6124 24.9794C5.7372 26.8546 4.70447 29.3478 4.70447 31.9999C4.70447 34.6518 5.7372 37.145 7.6123 39.0203C9.4875 40.8955 11.9807 41.9282 14.6327 41.9282C17.2847 41.9282 19.7779 40.8955 21.6531 39.0203L28.6736 31.9998L21.6531 24.9794C19.778 23.1042 17.2847 22.0714 14.6328 22.0714Z" fill="#46587A"/>
<path d="M32 35.3263L32.7071 34.6192L32 33.9121L31.2929 34.6192L32 35.3263ZM24.9797 42.3467L24.2726 41.6396L24.2726 41.6396L24.9797 42.3467ZM4.28587 42.3467L3.57876 43.0538L3.57877 43.0538L4.28587 42.3467ZM4.28576 21.6529L3.57867 20.9458L3.57865 20.9458L4.28576 21.6529ZM24.9796 21.6529L25.6867 20.9458L25.6867 20.9458L24.9796 21.6529ZM32 28.6733L31.2929 29.3804L32 30.0876L32.7071 29.3804L32 28.6733ZM39.0204 21.6529L38.3133 20.9458L38.3133 20.9458L39.0204 21.6529ZM59.7142 42.3468L60.4213 43.0539L60.4214 43.0539L59.7142 42.3468ZM32 35.1746L32.7071 34.4675L32 33.7604L31.2929 34.4675L32 35.1746ZM59.6384 42.2708L60.3455 42.978L60.3455 42.9779L59.6384 42.2708ZM39.0963 21.7287L38.3892 21.0216L38.3891 21.0216L39.0963 21.7287ZM32 28.825L31.2929 29.5321L32 30.2392L32.7071 29.5321L32 28.825ZM4.36163 21.7287L3.65453 21.0216L3.65451 21.0216L4.36163 21.7287ZM4.36163 42.2708L3.65449 42.9779L3.65453 42.9779L4.36163 42.2708ZM24.9037 42.2708L25.6108 42.9779L25.6109 42.9779L24.9037 42.2708ZM42.2711 39.0959L42.9782 38.3888L42.9782 38.3888L42.2711 39.0959ZM35.1747 31.9997L34.4676 31.2925L33.7605 31.9997L34.4676 32.7068L35.1747 31.9997ZM42.2711 24.9034L42.9782 25.6105L42.9782 25.6105L42.2711 24.9034ZM56.4636 24.9034L55.7565 25.6105L55.7565 25.6105L56.4636 24.9034ZM56.4636 39.0959L55.7565 38.3888L55.7564 38.3888L56.4636 39.0959ZM35.3264 31.9998L34.6193 31.2927L33.9122 31.9998L34.6193 32.7069L35.3264 31.9998ZM42.3469 39.0202L43.054 38.313L43.054 38.313L42.3469 39.0202ZM56.3877 39.0202L57.0948 39.7273L57.0948 39.7272L56.3877 39.0202ZM42.3469 24.9794L41.6398 24.2723L41.6398 24.2723L42.3469 24.9794ZM7.53654 24.9034L8.24362 25.6105L8.24364 25.6105L7.53654 24.9034ZM21.729 24.9034L21.0219 25.6105L21.0219 25.6105L21.729 24.9034ZM28.8254 31.9997L29.5325 32.7068L30.2396 31.9997L29.5325 31.2925L28.8254 31.9997ZM21.729 39.096L21.0219 38.3889L21.0219 38.3889L21.729 39.096ZM7.6123 39.0203L6.90515 39.7273L6.90519 39.7274L7.6123 39.0203ZM21.6531 39.0203L20.946 38.3132L21.6531 39.0203ZM28.6736 31.9998L29.3807 32.7069L30.0878 31.9998L29.3807 31.2927L28.6736 31.9998ZM21.6531 24.9794L20.9459 25.6865L20.946 25.6865L21.6531 24.9794ZM49.3673 45.6325C45.7239 45.6325 42.3037 44.2158 39.7275 41.6396L38.3133 43.0538C41.2645 46.0051 45.1935 47.6325 49.3673 47.6325V45.6325ZM39.7275 41.6396L32.7071 34.6192L31.2929 36.0334L38.3133 43.0538L39.7275 41.6396ZM31.2929 34.6192L24.2726 41.6396L25.6868 43.0538L32.7071 36.0334L31.2929 34.6192ZM24.2726 41.6396C21.6964 44.2158 18.2762 45.6325 14.6328 45.6325V47.6325C18.8066 47.6325 22.7356 46.0052 25.6868 43.0538L24.2726 41.6396ZM14.6328 45.6325C10.9894 45.6325 7.56925 44.2158 4.99296 41.6396L3.57877 43.0538C6.53012 46.005 10.459 47.6325 14.6328 47.6325V45.6325ZM4.99297 41.6396C2.41669 39.0633 1 35.6431 1 31.9999H-1C-1 36.1736 0.627414 40.1025 3.57876 43.0538L4.99297 41.6396ZM1 31.9999C1 28.3565 2.4167 24.9362 4.99287 22.3601L3.57865 20.9458C0.627401 23.8971 -1 27.8261 -1 31.9999H1ZM4.99285 22.3601C7.56914 19.7839 10.9894 18.3672 14.6327 18.3672V16.3672C10.459 16.3672 6.53002 17.9946 3.57867 20.9458L4.99285 22.3601ZM14.6327 18.3672C18.276 18.3672 21.6962 19.7839 24.2725 22.3601L25.6867 20.9458C22.7354 17.9946 18.8065 16.3672 14.6327 16.3672V18.3672ZM24.2725 22.3601L31.2929 29.3804L32.7071 27.9662L25.6867 20.9458L24.2725 22.3601ZM32.7071 29.3804L39.7275 22.3601L38.3133 20.9458L31.2929 27.9662L32.7071 29.3804ZM39.7275 22.3601C42.3038 19.7839 45.724 18.3672 49.3673 18.3672V16.3672C45.1935 16.3672 41.2646 17.9946 38.3133 20.9458L39.7275 22.3601ZM49.3673 18.3672C53.0107 18.3672 56.431 19.7839 59.0071 22.3601L60.4213 20.9458C57.4701 17.9946 53.5411 16.3672 49.3673 16.3672V18.3672ZM59.0071 22.3601C61.5833 24.9362 63 28.3565 63 31.9999H65C65 27.8261 63.3726 23.8971 60.4213 20.9458L59.0071 22.3601ZM63 31.9999C63 35.6432 61.5832 39.0635 59.0071 41.6397L60.4214 43.0539C63.3725 40.1027 65 36.1737 65 31.9999H63ZM59.0071 41.6397C56.4309 44.2158 53.0106 45.6325 49.3673 45.6325V47.6325C53.541 47.6325 57.47 46.0052 60.4213 43.0539L59.0071 41.6397ZM31.2929 35.8817L38.3891 42.9779L39.8034 41.5637L32.7071 34.4675L31.2929 35.8817ZM38.3891 42.9779C41.3201 45.9089 45.2222 47.5251 49.3673 47.5251V45.5251C45.7526 45.5251 42.3592 44.1196 39.8034 41.5637L38.3891 42.9779ZM49.3673 47.5251C53.5124 47.5251 57.4143 45.9089 60.3455 42.978L58.9313 41.5637C56.3752 44.1196 52.9819 45.5251 49.3673 45.5251V47.5251ZM60.3455 42.9779C63.2765 40.047 64.8927 36.1449 64.8927 31.9998H62.8927C62.8927 35.6145 61.4872 39.0078 58.9313 41.5637L60.3455 42.9779ZM64.8927 31.9998C64.8927 27.8546 63.2764 23.9527 60.3455 21.0216L58.9313 22.4358C61.4872 24.9918 62.8927 28.3851 62.8927 31.9998H64.8927ZM60.3455 21.0216C57.4145 18.0905 53.5124 16.4744 49.3673 16.4744V18.4744C52.982 18.4744 56.3754 19.8798 58.9313 22.4358L60.3455 21.0216ZM49.3673 16.4744C45.2223 16.4744 41.3203 18.0906 38.3892 21.0216L39.8033 22.4358C42.3595 19.8799 45.7527 18.4744 49.3673 18.4744V16.4744ZM38.3891 21.0216L31.2929 28.1179L32.7071 29.5321L39.8034 22.4358L38.3891 21.0216ZM32.7071 28.1179L25.6109 21.0216L24.1966 22.4358L31.2929 29.5321L32.7071 28.1179ZM25.6109 21.0216C22.6799 18.0906 18.7778 16.4744 14.6327 16.4744V18.4744C18.2474 18.4744 21.6408 19.8799 24.1966 22.4358L25.6109 21.0216ZM14.6327 16.4744C10.4877 16.4744 6.5856 18.0906 3.65453 21.0216L5.06872 22.4358C7.62472 19.8799 11.0181 18.4744 14.6327 18.4744V16.4744ZM3.65451 21.0216C0.72355 23.9527 -0.892692 27.8547 -0.892692 31.9999H1.10731C1.10731 28.3852 2.51285 24.9918 5.06875 22.4358L3.65451 21.0216ZM-0.892692 31.9999C-0.892692 36.1448 0.723563 40.0467 3.65449 42.9779L5.06876 41.5637C2.51284 39.0076 1.10731 35.6144 1.10731 31.9999H-0.892692ZM3.65453 42.9779C6.5856 45.9089 10.4877 47.5251 14.6327 47.5251V45.5251C11.0181 45.5251 7.62472 44.1196 5.06872 41.5637L3.65453 42.9779ZM14.6327 47.5251C18.7777 47.5251 22.6798 45.9089 25.6108 42.9779L24.1967 41.5637C21.6407 44.1196 18.2473 45.5251 14.6327 45.5251V47.5251ZM25.6109 42.9779L32.7071 35.8817L31.2929 34.4675L24.1966 41.5637L25.6109 42.9779ZM49.3673 41.0354C46.952 41.0354 44.6861 40.0968 42.9782 38.3888L41.564 39.803C43.647 41.886 46.4215 43.0354 49.3673 43.0354V41.0354ZM42.9782 38.3888L35.8818 31.2925L34.4676 32.7068L41.564 39.803L42.9782 38.3888ZM35.8818 32.7068L42.9782 25.6105L41.564 24.1963L34.4676 31.2925L35.8818 32.7068ZM42.9782 25.6105C44.6861 23.9026 46.9519 22.964 49.3673 22.964V20.964C46.4214 20.964 43.647 22.1133 41.564 24.1963L42.9782 25.6105ZM49.3673 22.964C51.7827 22.964 54.0485 23.9026 55.7565 25.6105L57.1707 24.1963C55.0877 22.1133 52.3132 20.964 49.3673 20.964V22.964ZM55.7565 25.6105C57.4645 27.3185 58.4032 29.5843 58.4032 31.9997H60.4032C60.4032 29.0538 59.2538 26.2793 57.1707 24.1963L55.7565 25.6105ZM58.4032 31.9997C58.4032 34.4148 57.4645 36.6807 55.7565 38.3888L57.1707 39.803C59.2538 37.7199 60.4032 34.9454 60.4032 31.9997H58.4032ZM55.7564 38.3888C54.0485 40.0969 51.7826 41.0354 49.3673 41.0354V43.0354C52.3131 43.0354 55.0877 41.8861 57.1707 39.803L55.7564 38.3888ZM34.6193 32.7069L41.6398 39.7273L43.054 38.313L36.0335 31.2927L34.6193 32.7069ZM41.6398 39.7273C43.7027 41.7901 46.4502 42.9282 49.3673 42.9282V40.9282C46.9806 40.9282 44.7418 40.0008 43.054 38.313L41.6398 39.7273ZM49.3673 42.9282C52.2844 42.9282 55.032 41.7901 57.0948 39.7273L55.6806 38.313C53.9928 40.0008 51.754 40.9282 49.3673 40.9282V42.9282ZM57.0948 39.7272C59.1576 37.6643 60.2958 34.9169 60.2958 31.9998H58.2958C58.2958 34.3864 57.3684 36.6251 55.6806 38.3131L57.0948 39.7272ZM60.2958 31.9998C60.2958 29.0825 59.1576 26.335 57.0948 24.2723L55.6806 25.6865C57.3684 27.3742 58.2958 29.613 58.2958 31.9998H60.2958ZM57.0948 24.2723C55.032 22.2095 52.2844 21.0714 49.3673 21.0714V23.0714C51.754 23.0714 53.9928 23.9988 55.6806 25.6865L57.0948 24.2723ZM49.3673 21.0714C46.4502 21.0714 43.7027 22.2095 41.6398 24.2723L43.054 25.6865C44.7418 23.9988 46.9806 23.0714 49.3673 23.0714V21.0714ZM41.6398 24.2723L34.6193 31.2927L36.0335 32.7069L43.054 25.6865L41.6398 24.2723ZM14.6327 41.0354C12.2172 41.0354 9.95138 40.0969 8.24356 38.3889L6.8293 39.8031C8.91223 41.8862 11.6868 43.0354 14.6327 43.0354V41.0354ZM8.24356 38.3889C6.5357 36.681 5.59717 34.4152 5.59717 31.9998H3.59717C3.59717 34.9456 4.74641 37.7201 6.8293 39.8031L8.24356 38.3889ZM5.59717 31.9998C5.59717 29.5842 6.53571 27.3183 8.24362 25.6105L6.82945 24.1963C4.7464 26.2792 3.59717 29.0538 3.59717 31.9998H5.59717ZM8.24364 25.6105C9.95159 23.9026 12.2174 22.964 14.6328 22.964V20.964C11.6869 20.964 8.91245 22.1133 6.82943 24.1963L8.24364 25.6105ZM14.6328 22.964C17.0482 22.964 19.314 23.9026 21.0219 25.6105L22.4362 24.1963C20.3531 22.1133 17.5787 20.964 14.6328 20.964V22.964ZM21.0219 25.6105L28.1183 32.7068L29.5325 31.2925L22.4361 24.1963L21.0219 25.6105ZM28.1183 31.2926L21.0219 38.3889L22.4362 39.8031L29.5325 32.7068L28.1183 31.2926ZM21.0219 38.3889C19.314 40.0969 17.0482 41.0354 14.6327 41.0354V43.0354C17.5785 43.0354 20.3531 41.8863 22.4362 39.8031L21.0219 38.3889ZM14.6328 21.0714C11.7157 21.0714 8.96804 22.2095 6.9053 24.2723L8.31951 25.6865C10.0072 23.9988 12.2461 23.0714 14.6328 23.0714V21.0714ZM6.9053 24.2723C4.84256 26.335 3.70447 29.0826 3.70447 31.9999H5.70447C5.70447 29.613 6.63185 27.3741 8.31951 25.6865L6.9053 24.2723ZM3.70447 31.9999C3.70447 34.917 4.84257 37.6645 6.90515 39.7273L8.31944 38.3132C6.63184 36.6254 5.70447 34.3865 5.70447 31.9999H3.70447ZM6.90519 39.7274C8.96793 41.7901 11.7155 42.9282 14.6327 42.9282V40.9282C12.2459 40.9282 10.0071 40.0008 8.3194 38.3132L6.90519 39.7274ZM14.6327 42.9282C17.5499 42.9282 20.2974 41.7901 22.3602 39.7274L20.946 38.3132C19.2583 40.0008 17.0195 40.9282 14.6327 40.9282V42.9282ZM22.3602 39.7274L29.3807 32.7069L27.9665 31.2927L20.946 38.3132L22.3602 39.7274ZM29.3807 31.2927L22.3602 24.2723L20.946 25.6865L27.9665 32.7069L29.3807 31.2927ZM22.3602 24.2723C20.2976 22.2095 17.5499 21.0714 14.6328 21.0714V23.0714C17.0195 23.0714 19.2584 23.9988 20.9459 25.6865L22.3602 24.2723Z" fill="white" mask="url(#path-2-inside-1)"/>
</svg>
