<svg width="64" height="64" viewBox="0 0 64 64" fill="none" xmlns="http://www.w3.org/2000/svg">
<g clip-path="url(#clip0)">
<path d="M32 25.5998C36.1237 25.5998 39.4667 22.2569 39.4667 18.1332C39.4667 14.0094 36.1237 10.6665 32 10.6665C27.8763 10.6665 24.5333 14.0094 24.5333 18.1332C24.5333 22.2569 27.8763 25.5998 32 25.5998ZM32 12.7998C34.9455 12.7998 37.3333 15.1877 37.3333 18.1332C37.3333 21.0787 34.9455 23.4665 32 23.4665C29.0545 23.4665 26.6667 21.0787 26.6667 18.1332C26.6667 15.1877 29.0545 12.7998 32 12.7998Z" fill="#46587A"/>
<path d="M1.06667 64H3.2C3.7891 64 4.26667 63.5225 4.26667 62.9334C4.26667 62.3443 3.7891 61.8667 3.2 61.8667H1.06667C0.477563 61.8667 0 62.3443 0 62.9334C0 63.5225 0.477563 64 1.06667 64Z" fill="#46587A"/>
<path d="M62.9333 61.8668H51.4346C52.8541 59.7929 52.3833 56.9682 50.3679 55.4668L41.2159 48.1921C40.78 47.8325 40.5293 47.2958 40.5332 46.7308V39.2641L43.8293 42.4641C44.5627 43.2498 45.5814 43.7073 46.6559 43.7334H53.6746C55.6884 43.7825 57.3996 42.2712 57.5999 40.2668C57.6741 39.2313 57.3137 38.2117 56.6054 37.4527C55.8971 36.6938 54.9047 36.2641 53.8666 36.2668C49.4186 36.2668 49.5999 36.2668 49.3973 36.1601L42.9972 29.7601C41.696 28.4593 39.9305 27.7301 38.0906 27.7334H25.8986C24.0587 27.7301 22.2932 28.4593 20.9919 29.7601C13.9946 36.7681 14.5919 36.2668 14.3359 36.2668H10.1332C9.1368 36.2477 8.17499 36.6324 7.46658 37.3334C6.36461 38.4246 6.04941 40.0822 6.67399 41.5017C7.29856 42.9212 8.7336 43.8087 10.2826 43.7334H17.9626C19.0106 43.7379 20.0168 43.3231 20.7572 42.5814L23.4666 39.9041V46.7308C23.4666 47.3075 23.1986 47.8514 22.7413 48.2028L13.6319 55.4668C11.6165 56.9682 11.1458 59.7929 12.5652 61.8668H7.46658C6.87748 61.8668 6.39992 62.3443 6.39992 62.9334C6.39992 63.5225 6.87748 64.0001 7.46658 64.0001H62.9333C63.5224 64.0001 63.9999 63.5225 63.9999 62.9334C63.9999 62.3443 63.5224 61.8668 62.9333 61.8668ZM54.9973 38.8801C55.4661 39.3667 55.5814 40.0943 55.2859 40.702C54.9904 41.3098 54.3469 41.6684 53.6746 41.6001H51.1999V38.4001H53.8666C54.2938 38.3959 54.7035 38.5698 54.9973 38.8801ZM8.53325 40.1174C8.50381 39.6739 8.65894 39.238 8.96192 38.9128C9.2649 38.5876 9.68879 38.4021 10.1332 38.4001H12.7999V41.6001H10.3253C9.43662 41.637 8.66344 40.9972 8.53325 40.1174ZM26.1333 61.8668C25.2496 61.8668 24.5333 61.1504 24.5333 60.2668C24.5333 59.3831 25.2496 58.6668 26.1333 58.6668H34.1333V61.8668H26.1333ZM36.2666 61.8668V58.6668H40.5332C41.1224 58.6668 41.5999 58.1892 41.5999 57.6001C41.5999 57.011 41.1224 56.5334 40.5332 56.5334H26.1333C24.8531 56.5321 23.6621 57.1887 22.9797 58.2718C22.2974 59.3549 22.2194 60.7127 22.7733 61.8668H16.6293C15.4149 61.8274 14.3485 61.0487 13.9412 59.9041C13.6825 58.8704 14.0745 57.7829 14.9333 57.1521L24.0746 49.8881C25.0577 49.1194 25.6258 47.936 25.6106 46.6881V35.2001C25.6106 34.611 25.133 34.1334 24.5439 34.1334C23.9548 34.1334 23.4773 34.611 23.4773 35.2001V36.8961L19.2853 41.0668C18.9474 41.4091 18.4862 41.6013 18.0052 41.6001H14.9333V38.3147C15.8613 38.0907 15.4453 38.3148 22.5066 31.2747C23.4039 30.3713 24.6253 29.8643 25.8986 29.8667H38.1013C39.3746 29.8643 40.596 30.3713 41.4933 31.2747C48.5119 38.2934 48.1386 38.0907 49.0666 38.3147V41.6001H46.6559C46.1601 41.6027 45.6838 41.4068 45.3332 41.0561L40.5332 36.2668V35.2001C40.5332 34.611 40.0557 34.1334 39.4666 34.1334C38.8775 34.1334 38.3999 34.611 38.3999 35.2001V46.7308C38.3948 47.9614 38.9625 49.1244 39.9359 49.8774L49.0666 57.1734C49.9099 57.8054 50.2889 58.8835 50.0266 59.9041C49.6236 61.0382 48.573 61.8146 47.3706 61.8668H36.2666Z" fill="#46587A"/>
<path d="M16 13.8665H9.60001C9.01091 13.8665 8.53335 14.3441 8.53335 14.9332C8.53335 15.5223 9.01091 15.9998 9.60001 15.9998H16C18.7446 15.9866 21.0311 13.8925 21.2848 11.1596C21.5385 8.42666 19.6766 5.94742 16.9813 5.42917C16.4715 2.33834 13.7993 0.0708008 10.6667 0.0708008C7.53407 0.0708008 4.86186 2.33834 4.35201 5.42917C1.65672 5.94742 -0.205155 8.42666 0.0485555 11.1596C0.302266 13.8925 2.58872 15.9866 5.33334 15.9998C5.92245 15.9998 6.40001 15.5223 6.40001 14.9332C6.40001 14.3441 5.92245 13.8665 5.33334 13.8665C3.86477 13.8597 2.58936 12.8541 2.24007 11.4276C1.89077 10.0012 2.55727 8.52009 3.85653 7.8355C5.15579 7.1509 6.75427 7.43857 7.73335 8.53318C8.1251 8.975 8.80085 9.0156 9.24268 8.62384C9.68451 8.23209 9.7251 7.55634 9.33335 7.11451C8.58632 6.28454 7.59763 5.70999 6.50668 5.47184C6.8826 3.76842 8.2576 2.46539 9.97876 2.18152C11.6999 1.89764 13.4205 2.69009 14.3236 4.18258C15.2266 5.67506 15.1301 7.56694 14.08 8.95984C13.7265 9.43112 13.8221 10.0997 14.2933 10.4532C14.7646 10.8066 15.4332 10.7111 15.7867 10.2398C16.3649 9.46795 16.7589 8.57405 16.9387 7.62651C18.4221 8.11318 19.3378 9.59924 19.1055 11.1431C18.8733 12.6869 17.5609 13.8378 16 13.8665Z" fill="#46587A"/>
<path d="M59.648 9.69578C59.1382 6.60494 56.466 4.3374 53.3334 4.3374C50.2008 4.3374 47.5285 6.60494 47.0187 9.69578C44.3234 10.214 42.4615 12.6933 42.7152 15.4262C42.969 18.1591 45.2554 20.2532 48 20.2664C48.5891 20.2664 49.0667 19.7889 49.0667 19.1998C49.0667 18.6107 48.5891 18.1331 48 18.1331C46.5315 18.1263 45.256 17.1207 44.9068 15.6942C44.5575 14.2678 45.224 12.7867 46.5232 12.1021C47.8225 11.4175 49.421 11.7052 50.4 12.7998C50.7918 13.2416 51.4675 13.2822 51.9094 12.8904C52.3512 12.4987 52.3918 11.8229 52 11.3811C51.253 10.5511 50.2643 9.97659 49.1734 9.73844C49.5493 8.03502 50.9243 6.73199 52.6454 6.44812C54.3666 6.16424 56.0872 6.95669 56.9903 8.44918C57.8933 9.94166 57.7968 11.8335 56.7467 13.2264C56.5181 13.5313 56.4694 13.935 56.6191 14.2855C56.7688 14.6359 57.0941 14.8799 57.4724 14.9255C57.8508 14.971 58.2247 14.8113 58.4534 14.5064C59.0316 13.7345 59.4256 12.8407 59.6054 11.8931C61.0888 12.3798 62.0044 13.8658 61.7722 15.4097C61.54 16.9535 60.2276 18.1044 58.6667 18.1331H52.2667C51.6776 18.1331 51.2 18.6107 51.2 19.1998C51.2 19.7889 51.6776 20.2664 52.2667 20.2664H58.6667C61.4113 20.2532 63.6978 18.1591 63.9515 15.4262C64.2052 12.6933 62.3433 10.214 59.648 9.69578Z" fill="#46587A"/>
</g>
<defs>
<clipPath id="clip0">
<rect width="64" height="64" fill="white"/>
</clipPath>
</defs>
</svg>
