<svg width="64" height="64" viewBox="0 0 64 64" fill="none" xmlns="http://www.w3.org/2000/svg">
<g clip-path="url(#clip0)">
<path d="M59.4523 17.4508C57.0362 14.3642 53.3823 11.8982 49.1044 10.3982C50.1959 9.05232 51.0635 7.60909 51.6479 6.15722C51.7723 5.84801 51.7565 5.49982 51.6044 5.20312C51.4524 4.90642 51.1793 4.69026 50.8556 4.61044C47.2616 3.72537 43.0464 4.16431 39.0343 5.80127C38.3708 3.59133 37.0679 1.65018 35.278 0.245492C34.9515 -0.010796 34.5124 -0.0713443 34.1287 0.0871455C32.036 0.951074 30.256 2.46449 29.0192 4.40506C25.605 1.75604 21.6757 0.200907 17.9859 0.0813927C17.6492 0.0704624 17.3311 0.204791 17.1047 0.449429C16.878 0.694067 16.7687 1.02485 16.8048 1.35622C16.9732 2.89854 17.4117 4.50775 18.0883 6.08502C13.4903 6.34462 9.23168 7.73809 6.02593 10.0893C5.75713 10.2864 5.58699 10.5905 5.55981 10.9227C5.53248 11.2549 5.65056 11.5827 5.88369 11.8211C6.94882 12.9109 8.19905 13.8919 9.60691 14.7518C7.42271 16.5382 5.65013 18.6181 4.44046 20.8683C4.28254 21.162 4.25982 21.5096 4.37804 21.8213C4.49626 22.1329 4.74392 22.3781 5.05687 22.493C7.16427 23.2677 9.51098 23.6603 12.0317 23.6603C15.1349 23.6603 18.414 23.0386 21.5142 21.8622C23.9022 20.9562 26.1051 19.7577 28.0369 18.3411C23.3384 33.5977 23.4181 53.5513 23.4503 61.4813C23.4506 61.5561 23.4509 61.6268 23.4512 61.699H22.3036C21.6682 61.699 21.1531 62.2142 21.1531 62.8496C21.1531 63.485 21.6682 64.0001 22.3036 64.0001H24.6048H30.3576H32.6587C33.2941 64.0001 33.8093 63.485 33.8093 62.8496C33.8093 62.2142 33.2941 61.699 32.6587 61.699H31.4581C30.918 49.6004 31.1968 38.3049 32.2925 28.1141C32.8849 22.6042 33.5836 18.6798 34.0903 16.2691C35.8007 19.3744 38.3638 22.2741 41.5397 24.6214C45.9989 27.9174 51.0793 29.7324 55.8453 29.7325H55.8454C56.3061 29.7325 56.7663 29.7147 57.2133 29.6796C57.5458 29.6534 57.8504 29.4846 58.0486 29.2163C58.2468 28.9483 58.3188 28.6074 58.2463 28.2819C57.6853 25.7662 56.5251 23.2626 54.8825 20.9346C56.4178 20.4915 57.8385 19.8962 59.1212 19.1566C59.41 18.99 59.6123 18.7064 59.6759 18.3792C59.7392 18.0522 59.6578 17.7135 59.4523 17.4508ZM48.9077 6.58293C48.3324 7.64821 47.5839 8.6945 46.6954 9.67305C46.1794 9.54261 45.657 9.42511 45.1283 9.32242C42.6903 8.84896 40.2527 8.70054 37.9068 8.86924C38.0058 8.8166 38.1037 8.76267 38.2038 8.71133C41.7563 6.89171 45.5778 6.14327 48.9077 6.58293ZM34.3817 2.50275C35.6086 3.63778 36.4895 5.12258 36.9237 6.78629C35.709 7.42485 34.565 8.1556 33.5078 8.97063C32.7042 7.89169 31.7929 6.87143 30.7872 5.92208C31.655 4.44691 32.9022 3.25982 34.3817 2.50275ZM29.057 7.45103C29.1667 7.55271 29.2732 7.65655 29.3805 7.75995C27.0887 6.90264 24.6025 6.35023 22.0143 6.13752C21.5447 6.09883 21.0767 6.07337 20.6105 6.05784C20.0255 4.88283 19.5918 3.68093 19.3277 2.50706C22.6534 2.98469 26.129 4.73829 29.057 7.45103ZM8.55386 11.1683C12.1236 9.01565 16.8726 8.02372 21.8257 8.43088C22.6491 8.49847 23.4597 8.60533 24.2557 8.74555C21.8936 8.9784 19.4841 9.54649 17.1739 10.4231C15.1785 11.1801 13.3124 12.1414 11.6254 13.2632C10.4903 12.6422 9.46108 11.9414 8.55386 11.1683ZM20.6978 19.7107C17.8556 20.7891 14.8588 21.359 12.0316 21.359C10.3083 21.359 8.68459 21.1564 7.18627 20.7554C9.48279 17.276 13.3441 14.3374 17.9902 12.5746C20.8324 11.4963 23.8291 10.9263 26.6564 10.9263C28.3796 10.9263 30.0034 11.1289 31.5017 11.5299C29.2053 15.0094 25.3439 17.948 20.6978 19.7107ZM29.1524 61.699H25.7522C25.7519 61.6247 25.7516 61.549 25.7513 61.4719C25.7201 53.7606 25.6258 30.3203 31.5747 15.1676C31.7598 14.9629 31.9403 14.7558 32.1155 14.5463C30.9478 19.6342 27.9917 35.4932 29.1524 61.699ZM42.9073 22.771C38.9119 19.8178 35.989 15.9445 34.7186 11.9742C38.8792 12.0301 43.504 13.721 47.444 16.6332C51.4393 19.5864 54.3622 23.4598 55.6325 27.4301C51.4723 27.374 46.8473 25.683 42.9073 22.771ZM53.3382 18.962C52.0283 17.4467 50.5075 16.0359 48.8119 14.7827C46.7908 13.2888 44.6418 12.1004 42.4526 11.246C43.1957 11.3254 43.9423 11.4361 44.6897 11.5813C49.5674 12.5286 53.8722 14.7682 56.7267 17.8062C55.6826 18.2875 54.5486 18.674 53.3382 18.962Z" fill="#46587A"/>
</g>
<defs>
<clipPath id="clip0">
<rect width="64" height="64" fill="white"/>
</clipPath>
</defs>
</svg>
