<svg width="64" height="64" viewBox="0 0 64 64" fill="none" xmlns="http://www.w3.org/2000/svg">
<g clip-path="url(#clip0)">
<path d="M19.5567 21.8546C19.27 21.5678 18.8623 21.4382 18.4624 21.5063C18.0628 21.5746 17.7211 21.8324 17.5459 22.1981L0.408734 57.947C0.39936 57.9664 0.390486 57.9861 0.382237 58.0061C-0.340196 59.7384 -0.0238504 61.5202 1.22841 62.7724C2.03758 63.5816 3.06749 64 4.16251 64C4.7622 64 5.38164 63.8743 5.99471 63.6186C6.01471 63.6104 6.03446 63.6014 6.05396 63.5921L41.8029 46.4551C42.1684 46.2799 42.4262 45.9382 42.4945 45.5384C42.5628 45.1389 42.433 44.7309 42.1463 44.4442L19.5567 21.8546ZM19.037 24.8701L31.6821 37.5152C26.7894 37.314 21.42 35.431 15.6678 31.8982L19.037 24.8701ZM5.0053 61.3225C4.54272 61.5096 3.69205 61.7008 2.99587 61.0046C2.30006 60.3088 2.49116 59.458 2.67815 58.9954L6.05208 51.9575C8.4666 53.9801 10.908 55.7779 13.3435 57.3255L5.0053 61.3225ZM29.5031 49.5789C28.0043 49.2069 26.4532 48.6935 24.8843 48.047C24.246 47.7836 23.5154 48.088 23.2523 48.7263C22.9894 49.3643 23.2935 50.095 23.9317 50.3581C24.6721 50.6633 25.4099 50.9401 26.1422 51.1902L16.0239 56.0406C13.0759 54.2816 10.103 52.1291 7.16848 49.6286L10.6655 42.3335C11.7363 43.1789 12.8159 43.9845 13.8892 44.7369C14.1076 44.89 14.3578 44.9635 14.6057 44.9635C14.9994 44.9635 15.387 44.7779 15.6302 44.4309C16.0265 43.8659 15.8895 43.0863 15.3243 42.69C14.1424 41.8614 12.9517 40.9654 11.7742 40.0207L14.5815 34.1645C20.9966 38.0646 27.027 40.0332 32.557 40.0332C33.0905 40.0332 33.62 40.0142 34.1444 39.9775L39.1306 44.9636L29.5031 49.5789Z" fill="#46587A" stroke="white" stroke-width="0.5"/>
<path d="M24.2743 14.5673C24.5146 14.7856 24.8942 15.1303 25.0425 15.3389C24.8698 15.5329 24.5194 15.851 24.2735 16.0744C23.4719 16.8038 23.0026 17.8017 22.9515 18.8842C22.9005 19.9667 23.2742 21.0042 24.0035 21.8057C24.7328 22.6071 25.7307 23.0767 26.8132 23.1275C26.8786 23.1307 26.9436 23.1322 27.0086 23.1322C28.02 23.1322 28.9817 22.7609 29.7345 22.0759C30.3913 21.4793 31.1358 20.8031 31.8253 19.7867C32.7522 18.4201 33.2028 16.9592 33.2028 15.3205C33.2028 11.7149 31.3598 10.0413 29.7337 8.5644C29.4936 8.3463 29.114 8.00158 28.9657 7.7931C29.138 7.59949 29.4876 7.2819 29.7346 7.05754C31.3891 5.55193 31.5102 2.98092 30.0044 1.32633C29.2751 0.524779 28.2772 0.0553228 27.1947 0.00445255C26.1143 -0.0455428 25.0756 0.326797 24.2743 1.05548C23.6175 1.6518 22.8731 2.32761 22.1829 3.34514C21.2559 4.71164 20.8053 6.17262 20.8053 7.81147C20.8054 11.4174 22.6484 13.091 24.2743 14.5673ZM26.931 20.6306C26.5154 20.6111 26.1324 20.4308 25.8524 20.1232C25.5725 19.8155 25.4291 19.4173 25.4486 19.0017C25.4682 18.5861 25.6483 18.203 25.9551 17.9239C26.267 17.6405 26.5676 17.3672 26.8172 17.1001L28.0052 18.3002C28.5392 18.8397 28.5469 19.7062 28.0287 20.2462C27.7245 20.5128 27.3371 20.65 26.931 20.6306ZM30.7031 15.3205C30.7031 16.0222 30.5883 16.6611 30.3491 17.2712C30.1927 17.0117 30.0042 16.7663 29.782 16.5418L26.5661 13.2933C26.5643 13.2915 26.5621 13.2898 26.5601 13.288C26.363 13.0882 26.1555 12.8992 25.9548 12.7169C24.4745 11.3726 23.3051 10.3107 23.3051 7.8116C23.3051 7.10991 23.4199 6.47097 23.659 5.8609C23.8155 6.12038 24.004 6.36586 24.2262 6.59033L27.4419 9.83878C27.444 9.84091 27.4464 9.84266 27.4485 9.84478C27.6455 10.0443 27.8528 10.2331 28.0534 10.4152C29.5339 11.7595 30.7031 12.8215 30.7031 15.3205ZM27.0025 2.49972C27.0273 2.49972 27.0523 2.50034 27.0775 2.50147C27.493 2.52097 27.8761 2.70132 28.156 3.00892C28.7341 3.64411 28.6876 4.63114 28.0514 5.20996C27.7401 5.49269 27.4402 5.76541 27.1912 6.03189L26.0031 4.83162C25.469 4.29218 25.4614 3.42551 25.9798 2.88556C26.2653 2.63558 26.6245 2.49972 27.0025 2.49972Z" fill="#46587A" stroke="white" stroke-width="0.5"/>
<path d="M48.3359 17.4325C49.0669 18.1635 50.0271 18.5289 50.9874 18.5289C51.9476 18.5289 52.9077 18.1634 53.6388 17.4325L55.4065 15.6648C56.8685 14.2028 56.8685 11.824 55.4065 10.3619L53.6388 8.59429C52.1768 7.13243 49.798 7.13218 48.3359 8.59429L46.5682 10.362C45.862 11.0682 45.4729 12.01 45.4729 13.0135C45.4729 14.0169 45.8619 14.9586 46.5682 15.6649L48.3359 17.4325ZM48.3359 12.1296L50.1036 10.362C50.3377 10.1279 50.6515 9.99891 50.9874 9.99891C51.3232 9.99891 51.637 10.1279 51.8711 10.362L53.6388 12.1296C53.8729 12.3637 54.0019 12.6775 54.0019 13.0134C54.0019 13.3492 53.8729 13.6629 53.6388 13.897L51.8711 15.6648C51.637 15.8989 51.3231 16.0278 50.9874 16.0278C50.6514 16.0278 50.3377 15.8989 50.1036 15.6648L48.3359 13.897C48.1018 13.6629 47.9728 13.3491 47.9728 13.0134C47.9728 12.6777 48.1017 12.3637 48.3359 12.1296Z" fill="#46587A" stroke="white" stroke-width="0.5"/>
<path d="M62.6746 33.9962C61.8731 33.2666 60.8358 32.8942 59.7529 32.944C58.6704 32.995 57.6724 33.4645 56.9423 34.267C56.7197 34.5121 56.4017 34.8623 56.2077 35.0351C55.9992 34.8867 55.6544 34.507 55.436 34.2666C53.9594 32.6408 52.2858 30.7981 48.6803 30.7981C47.0414 30.7981 45.5805 31.2486 44.214 32.1756C43.1972 32.8654 42.521 33.61 41.9253 34.266C41.9099 34.2829 41.8957 34.3004 41.8807 34.3175C41.8804 34.3178 41.8801 34.3181 41.8798 34.3185C41.1809 35.1127 40.8231 36.1283 40.8731 37.1878C40.9241 38.2703 41.3936 39.2682 42.195 39.9974C43.8495 41.5032 46.4205 41.3819 47.9284 39.7254C48.1506 39.4805 48.4682 39.1309 48.6619 38.9585C48.8704 39.1067 49.2151 39.4863 49.4332 39.7265C50.9097 41.3526 52.5834 43.1956 56.1893 43.1956C57.8282 43.1956 59.2892 42.745 60.6557 41.8181C61.6719 41.1286 62.348 40.3843 62.9445 39.7276C64.4501 38.0728 64.3291 35.5018 62.6746 33.9962ZM58.7921 35.9485C59.0719 35.6408 59.455 35.4607 59.8706 35.4409C60.2865 35.4232 60.6844 35.5649 60.9921 35.8448C61.6197 36.4159 61.6713 37.3857 61.1147 38.0215C60.5748 38.5395 59.7084 38.5312 59.1693 37.9977L57.9692 36.8095C58.236 36.5602 58.5092 36.2598 58.7921 35.9485ZM46.0778 38.0447C45.7978 38.3524 45.4146 38.5326 44.9991 38.5522C44.5819 38.5726 44.1853 38.4284 43.8776 38.1484C43.5699 37.8686 43.3898 37.4855 43.37 37.07C43.351 36.6647 43.488 36.2763 43.7554 35.971C44.2957 35.4538 45.1614 35.462 45.7002 35.9954L46.9005 37.1835C46.6339 37.4329 46.3609 37.7331 46.0778 38.0447ZM51.2839 38.0458C51.1013 37.8447 50.912 37.637 50.7118 37.4395C50.7103 37.438 50.709 37.4362 50.7075 37.4346L47.459 34.2188C47.2345 33.9965 46.9892 33.8082 46.7297 33.6516C47.3398 33.4125 47.9789 33.2976 48.6804 33.2976C51.1793 33.2976 52.2412 34.4668 53.5858 35.9472C53.7678 36.1476 53.9564 36.3547 54.1559 36.5516C54.1581 36.5538 54.16 36.5563 54.1623 36.5586L57.4107 39.7744C57.6352 39.9966 57.8807 40.1851 58.1402 40.3417C57.5301 40.5808 56.8911 40.6957 56.1895 40.6957C53.6901 40.6955 52.6283 39.5263 51.2839 38.0458Z" fill="#46587A" stroke="white" stroke-width="0.5"/>
<path d="M59.2728 5.97779C59.963 5.97779 60.5227 5.4181 60.5227 4.72791C60.5227 4.03772 59.963 3.47803 59.2728 3.47803H59.2718C58.5817 3.47803 58.0225 4.03772 58.0225 4.72791C58.0225 5.4181 58.5827 5.97779 59.2728 5.97779Z" fill="#46587A" stroke="white" stroke-width="0.5"/>
<path d="M42.197 5.07545C42.8872 5.07545 43.4469 4.51575 43.4469 3.82557C43.4469 3.13538 42.8872 2.57568 42.197 2.57568H42.1962C41.506 2.57568 40.9467 3.13538 40.9467 3.82557C40.9467 4.51575 41.5069 5.07545 42.197 5.07545Z" fill="#46587A" stroke="white" stroke-width="0.5"/>
<path d="M38.2863 16.4104C38.9764 16.4104 39.5361 15.8507 39.5361 15.1605C39.5361 14.4703 38.9764 13.9106 38.2863 13.9106H38.2853C37.5951 13.9106 37.0359 14.4703 37.0359 15.1605C37.0359 15.8507 37.5961 16.4104 38.2863 16.4104Z" fill="#46587A" stroke="white" stroke-width="0.5"/>
<path d="M37.3323 27.919C38.0225 27.919 38.5822 27.3593 38.5822 26.6691C38.5822 25.9789 38.0225 25.4192 37.3323 25.4192H37.3313C36.6411 25.4192 36.0819 25.9789 36.0819 26.6691C36.0819 27.3593 36.6421 27.919 37.3323 27.919Z" fill="#46587A" stroke="white" stroke-width="0.5"/>
<path d="M58.9252 21.8038V21.8048C58.9252 22.495 59.4849 23.0542 60.175 23.0542C60.8652 23.0542 61.4249 22.4941 61.4249 21.8038C61.4249 21.1135 60.8652 20.554 60.175 20.554C59.4849 20.554 58.9252 21.1135 58.9252 21.8038Z" fill="#46587A" stroke="white" stroke-width="0.5"/>
<path d="M47.5906 25.7147V25.7156C47.5906 26.4058 48.1503 26.9651 48.8405 26.9651C49.5306 26.9651 50.0903 26.405 50.0903 25.7147C50.0903 25.0244 49.5306 24.4648 48.8405 24.4648C48.1503 24.4648 47.5906 25.0244 47.5906 25.7147Z" fill="#46587A" stroke="white" stroke-width="0.5"/>
<path d="M19.3577 45.4758H19.3567C18.6664 45.4758 18.1073 46.0355 18.1073 46.7257C18.1073 47.4159 18.6674 47.9756 19.3577 47.9756C20.048 47.9756 20.6076 47.4159 20.6076 46.7257C20.6076 46.0355 20.048 45.4758 19.3577 45.4758Z" fill="#46587A" stroke="white" stroke-width="0.5"/>
</g>
<defs>
<clipPath id="clip0">
<rect width="64" height="64" fill="white"/>
</clipPath>
</defs>
</svg>
