<svg width="64" height="64" viewBox="0 0 64 64" fill="none" xmlns="http://www.w3.org/2000/svg">
<g clip-path="url(#clip0)">
<path d="M26.5 12.125C27.1904 12.125 27.75 11.5654 27.75 10.875C27.75 10.1846 27.1904 9.625 26.5 9.625C25.8096 9.625 25.25 10.1846 25.25 10.875C25.25 11.5654 25.8096 12.125 26.5 12.125Z" fill="#46587A" stroke="white" stroke-width="0.5"/>
<path d="M55.4196 19.3948C55.5555 18.7329 55.625 18.0553 55.625 17.375C55.625 13.5649 53.4903 10.1359 50.1269 8.44375C49.7811 6.23288 48.7038 4.20288 47.0457 2.66525C45.1924 0.9465 42.779 0 40.25 0C37.7943 0 35.4438 0.902625 33.625 2.51262C31.8062 0.902625 29.4557 0 27 0C24.6036 0 22.2854 0.861125 20.4725 2.42462C18.9439 3.743 17.8539 5.488 17.3381 7.41612C12.2499 7.87812 8.25 12.1683 8.25 17.375C8.25 18.1385 8.33713 18.897 8.50825 19.6355C8.25 20.5 8.26 21.6575 8.26 21.6575L14.1125 60.28C14.2688 61.3137 14.7925 62.26 15.585 62.9412C16.3787 63.6237 17.3925 64 18.4387 64H45.5612C46.6074 64 47.6211 63.6237 48.4149 62.9412C49.2075 62.2588 49.7311 61.3125 49.8874 60.2775L53.1786 38.6925C53.2286 38.3625 53.1474 38.0337 52.9499 37.7637C52.7511 37.495 52.4611 37.32 52.1311 37.2687C51.7724 37.215 51.4061 37.32 51.1311 37.5537C50.9036 37.7487 50.7524 38.0187 50.7061 38.3162L47.4162 59.9025C47.2762 60.8288 46.4963 61.5 45.5612 61.5H41.6245L42.635 47.461C44.2965 45.7316 45.6123 43.7954 46.4801 41.7658C48.0524 38.0889 47.9881 34.5309 46.2993 31.7471C45.6916 30.7456 44.899 29.8934 43.9491 29.2022L44.4969 21.5899C44.498 21.5742 44.4974 21.559 44.4979 21.5435C44.4984 21.529 44.5001 21.5146 44.5001 21.5001C44.5001 20.3326 44.9562 19.2351 45.7814 18.4064C46.61 17.58 47.7088 17.125 48.875 17.125C50.0412 17.125 51.14 17.58 51.9688 18.4062C52.775 19.215 53.23 20.2862 53.2487 21.4237L52.3836 27.3188C52.28 28 52.75 28.6388 53.4313 28.7425C53.7886 28.7975 54.1562 28.6925 54.4299 28.4587C54.6586 28.2638 54.8099 27.9925 54.8549 27.695L55.75 21.5C55.75 20.777 55.638 20.0718 55.4196 19.3948ZM18.4375 61.5C17.5188 61.5 16.7212 60.8137 16.585 59.905L10.7513 21.4263C10.77 20.2875 11.225 19.215 12.0312 18.4062C12.86 17.58 13.9587 17.125 15.125 17.125C16.2913 17.125 17.39 17.58 18.2188 18.4062C19.0437 19.2337 19.4987 20.3325 19.5 21.5C19.5 21.5151 19.5018 21.53 19.5023 21.5451C19.5028 21.56 19.5021 21.5748 19.5033 21.5898L20.5112 35.5897C19.4792 36.897 18.6365 38.2921 18.0199 39.7342C16.4476 43.4111 16.5119 46.9691 18.2009 49.7529C19.0519 51.1554 20.2634 52.2671 21.7668 53.0484L22.3755 61.5H18.4375ZM30.75 28.2876C29.1494 28.8565 27.5635 29.632 26.0549 30.603C24.895 31.3495 23.8171 32.1836 22.8374 33.0863L22.0007 21.4666C22.0094 20.3129 22.4641 19.2271 23.2811 18.4064C24.11 17.58 25.2087 17.125 26.375 17.125C27.5413 17.125 28.64 17.58 29.4688 18.4062C30.2938 19.2337 30.7488 20.3325 30.75 21.5V28.2876ZM24.882 61.5L24.3412 53.9922C24.3615 53.997 24.3811 54.0028 24.4015 54.0075C25.3926 54.2362 26.4382 54.3481 27.5173 54.3481C28.57 54.3481 29.6545 54.239 30.75 54.0303V61.5H24.882ZM33.25 61.5V53.3815C35.0199 52.8014 36.7796 51.969 38.4451 50.8971C38.9665 50.5616 39.4706 50.2079 39.9574 49.8386L39.1179 61.5H33.25ZM44.1815 40.7829C42.8693 43.8516 40.3514 46.697 37.092 48.795C33.0995 51.3647 28.5656 52.4026 24.9636 51.5716C22.8829 51.0915 21.2835 50.0142 20.3382 48.4562C19.079 46.3807 19.072 43.6324 20.3185 40.7173C21.6308 37.6485 24.1485 34.803 27.4079 32.7051C30.4945 30.7185 33.904 29.6475 36.9569 29.6475C37.853 29.6475 38.719 29.7399 39.5364 29.9285C41.6171 30.4086 43.2165 31.4859 44.1618 33.0439C45.421 35.1194 45.428 37.8678 44.1815 40.7829ZM40.0985 27.4925C37.9934 27.0068 35.6411 27.0484 33.25 27.5701V21.5C33.25 20.3325 33.7061 19.235 34.5312 18.4062C35.36 17.58 36.4587 17.125 37.625 17.125C38.7913 17.125 39.89 17.58 40.7188 18.4062C41.5358 19.2257 41.9893 20.3114 41.9991 21.4662L41.5348 27.9206C41.0768 27.7514 40.598 27.6077 40.0985 27.4925ZM51.5513 15.165C50.7038 14.8075 49.8037 14.625 48.875 14.625C47.7525 14.625 46.6375 14.9025 45.6525 15.425C44.7025 15.9313 43.8713 16.6637 43.25 17.5462C42.6287 16.6637 41.7975 15.9313 40.8475 15.425C39.8624 14.9025 38.7474 14.625 37.625 14.625C36.5025 14.625 35.3875 14.9025 34.4025 15.425C33.4525 15.9313 32.6213 16.6637 32 17.5462C31.3787 16.6637 30.5475 15.9313 29.5975 15.425C28.6125 14.9025 27.4975 14.625 26.375 14.625C25.2525 14.625 24.1375 14.9025 23.1525 15.425C22.2025 15.9313 21.3713 16.6637 20.75 17.5462C20.1287 16.6637 19.2975 15.9313 18.3475 15.425C17.3625 14.9025 16.2475 14.625 15.125 14.625C14.1975 14.625 13.2962 14.8075 12.4487 15.165C11.875 15.4076 11.3434 15.7255 10.8588 16.1104C11.4434 12.6837 14.3583 10.0425 17.9053 9.88363C19.3149 10.9645 21.4812 11 21.75 11C22.4404 11 23 10.4404 23 9.75C23 9.05962 22.4404 8.5 21.75 8.5C21.2635 8.5 20.345 8.37687 19.7446 8.0935C20.5946 4.81175 23.5363 2.5 27 2.5C29.1798 2.5 31.2498 3.44925 32.679 5.10437C32.9164 5.37937 33.2617 5.53737 33.625 5.53737C33.9883 5.53737 34.3336 5.37925 34.571 5.10437C36.0002 3.44925 38.0702 2.5 40.25 2.5C44.129 2.5 47.4115 5.5255 47.7228 9.38787C47.7605 9.85562 48.057 10.2629 48.4906 10.4425C50.8734 11.4289 52.542 13.5296 52.9987 15.9985C52.553 15.6632 52.069 15.384 51.5513 15.165Z" fill="#46587A" stroke="white" stroke-width="0.5"/>
<path d="M42.3472 8.1996C41.6231 8.3316 40.3174 8.34585 39.8151 7.95722C39.2692 7.53485 38.4842 7.63485 38.0615 8.18085C37.639 8.72685 37.7392 9.51185 38.2851 9.93435C39.1724 10.6208 40.3862 10.7833 41.3366 10.7833C42.0881 10.7833 42.675 10.6817 42.8054 10.6572C43.4826 10.5301 43.9276 9.87922 43.8024 9.2016C43.6769 8.52397 43.0252 8.07635 42.3472 8.1996Z" fill="#46587A" stroke="white" stroke-width="0.5"/>
<path d="M28.7785 41.4455L34.3967 37.9348C34.9822 37.5689 35.1602 36.7978 34.7945 36.2123C34.4285 35.6268 33.6575 35.4488 33.0721 35.8147L27.4537 39.3254C26.8682 39.6913 26.6902 40.4624 27.0561 41.0479C27.2932 41.4274 27.7006 41.6357 28.1174 41.6357C28.3435 41.6357 28.5725 41.5743 28.7785 41.4455Z" fill="#46587A" stroke="white" stroke-width="0.5"/>
<path d="M37.3116 39.0612L28.5131 44.5591C27.9276 44.925 27.7496 45.6961 28.1155 46.2816C28.3526 46.6611 28.76 46.8694 29.1768 46.8694C29.403 46.8694 29.632 46.808 29.838 46.6792L38.6364 41.1814C39.2219 40.8155 39.3999 40.0444 39.0341 39.4589C38.6684 38.8734 37.897 38.6954 37.3116 39.0612Z" fill="#46587A" stroke="white" stroke-width="0.5"/>
<path d="M52.7712 34.3174C53.4616 34.3174 54.0212 33.7578 54.0212 33.0674C54.0212 32.377 53.4616 31.8174 52.7712 31.8174C52.0809 31.8174 51.5212 32.377 51.5212 33.0674C51.5212 33.7578 52.0809 34.3174 52.7712 34.3174Z" fill="#46587A" stroke="white" stroke-width="0.5"/>
</g>
<defs>
<clipPath id="clip0">
<rect width="64" height="64" fill="white"/>
</clipPath>
</defs>
</svg>
