<svg width="64" height="64" viewBox="0 0 64 64" fill="none" xmlns="http://www.w3.org/2000/svg">
<path d="M32 55.9921C44.8222 55.9921 55.2165 45.5977 55.2165 32.7756C55.2165 19.9535 44.8222 9.55908 32 9.55908C19.1779 9.55908 8.78351 19.9535 8.78351 32.7756C8.78351 45.5977 19.1779 55.9921 32 55.9921Z" stroke="#46587A" stroke-width="2"/>
<path d="M21.2211 36.4834C21.9308 38.7881 23.3605 40.8047 25.3005 42.2372C27.2404 43.6696 29.5885 44.4426 32 44.4426C34.4115 44.4426 36.7596 43.6696 38.6995 42.2372C40.6395 40.8047 42.0692 38.7881 42.7789 36.4834" stroke="#46587A" stroke-width="2"/>
<path d="M26.1828 24.6326C26.1828 25.6744 25.7689 26.6736 25.0322 27.4103C24.2955 28.147 23.2963 28.5609 22.2545 28.5609C21.2126 28.5609 20.2134 28.147 19.4767 27.4103C18.74 26.6736 18.3262 25.6744 18.3262 24.6326" stroke="#46587A" stroke-width="2"/>
<path d="M45.6739 24.6326C45.6739 25.6744 45.26 26.6736 44.5233 27.4103C43.7866 28.147 42.7874 28.5609 41.7456 28.5609C40.7037 28.5609 39.7045 28.147 38.9678 27.4103C38.2311 26.6736 37.8173 25.6744 37.8173 24.6326" stroke="#46587A" stroke-width="2"/>
</svg>
