<svg width="64" height="64" viewBox="0 0 64 64" fill="none" xmlns="http://www.w3.org/2000/svg">
<path d="M2.51805 26.8381C-0.82403 35.566 -0.82403 45.221 2.51805 53.9489C2.65823 54.3152 2.56285 54.7299 2.27674 54.9981C-1.54227 58.5128 -0.283258 63.3915 4.02887 63.3915C5.97435 63.3141 7.81218 62.478 9.14887 61.0624C9.41998 60.7813 9.83139 60.6867 10.1981 60.821C20.9207 64.2519 42.1141 64.2519 52.8367 60.821C53.2034 60.6867 53.6148 60.7813 53.8859 61.0624C56.0472 63.2866 59.7508 64.3253 61.8807 62.3528C64.0105 60.3804 63.0138 57.0335 60.7685 55.0086C60.4974 54.7321 60.4006 54.3288 60.5167 53.9594C63.889 45.1758 63.8703 35.4513 60.4643 26.6807C60.3441 26.3239 60.4668 25.9303 60.7685 25.705C63.0033 23.6066 63.9161 20.2597 61.8807 18.3607C59.8453 16.4617 55.9843 17.4584 53.8859 19.6512C53.6073 19.9186 53.2042 20.0113 52.8367 19.8925C51.0723 19.347 49.2744 18.9159 47.4544 18.602C46.875 18.4977 46.3207 18.8829 46.2164 19.4624C46.1121 20.0418 46.4973 20.5961 47.0767 20.7004C48.8074 21.002 50.5174 21.412 52.1967 21.9279C53.3083 22.2858 54.5266 21.9853 55.3443 21.1515C57.4426 19.0532 60.8839 18.7909 60.8839 21.1515C60.7848 22.3483 60.2104 23.4554 59.2892 24.2256C58.3276 25.0466 58.0018 26.3921 58.4813 27.562C61.6395 35.8068 61.6395 44.9278 58.4813 53.1725C57.9839 54.3676 58.2856 55.7462 59.2367 56.6243C60.1578 57.3794 60.7394 58.4708 60.8525 59.6565C60.8525 62.0906 57.4217 61.8387 55.3023 59.6565C54.4908 58.8123 53.268 58.5066 52.1548 58.8696C41.8833 62.164 21.0885 62.164 10.7961 58.8696C9.68282 58.5066 8.46002 58.8123 7.64855 59.6565C5.55018 61.7548 2.09838 62.0486 2.09838 59.6565C2.19516 58.4537 2.77412 57.3412 3.70363 56.5719C4.65215 55.6963 4.95005 54.32 4.44854 53.1306C1.32173 44.9198 1.32173 35.8462 4.44854 27.6355C4.946 26.4404 4.64431 25.0618 3.69314 24.1837C2.77499 23.4199 2.20071 22.3205 2.09838 21.1306C2.09838 18.665 5.58166 19.0322 7.64855 21.1306C8.46002 21.9747 9.68282 22.2804 10.7961 21.9174C17.4479 19.7561 27.4885 19.1161 34.623 19.4099C35.2024 19.4099 35.6721 18.9402 35.6721 18.3607C35.6721 17.7813 35.2024 17.3115 34.623 17.3115C27.2787 17.1017 17.0912 17.6158 10.1246 19.8401C9.75795 19.9744 9.34654 19.8798 9.07543 19.5988C6.98756 17.4165 3.27346 16.3883 1.15412 18.3607C-0.514077 19.903 -0.556045 23.145 2.26625 25.705C2.5705 25.9976 2.66973 26.4441 2.51805 26.8381Z" fill="#46587A"/>
<path d="M10.4918 56.0155C11.0049 56.2762 11.6321 56.0749 11.8977 55.5644C15.6853 48.1677 15.6853 32.6188 11.8977 25.2221C11.6246 24.7248 11.0057 24.5347 10.5005 24.7929C9.99533 25.0512 9.78699 25.6643 10.0302 26.1768C13.503 32.9546 13.524 47.79 10.0302 54.6096C9.77112 55.1255 9.9774 55.7537 10.4918 56.0155Z" fill="#46587A"/>
<path d="M7.34429 51.9345C10.6702 51.9345 10.5967 40.6558 10.3974 37.246C10.1876 33.6368 9.49511 28.8525 7.34429 28.8525C5.19347 28.8525 4.50101 33.6368 4.29117 37.246C4.09183 40.6243 4.01839 51.9345 7.34429 51.9345ZM8.39347 42.4919H6.34757C6.27412 41.0939 6.27412 39.6931 6.34757 38.2952H8.39347C8.46692 39.6931 8.46692 41.0939 8.39347 42.4919ZM6.48396 44.5902H8.20462C8.10522 46.1925 7.81643 47.7773 7.34429 49.3116C6.87215 47.7773 6.58336 46.1925 6.48396 44.5902ZM8.20462 36.1968H6.48396C6.58336 34.5946 6.87215 33.0098 7.34429 31.4755C7.81643 33.0098 8.10522 34.5946 8.20462 36.1968Z" fill="#46587A"/>
<path d="M32.5246 27.8031C32.5246 27.2236 32.0549 26.7539 31.4754 26.7539H29.8072L32.2203 24.3512C32.523 24.0511 32.614 23.5977 32.4505 23.204C32.2871 22.8103 31.9017 22.5547 31.4754 22.5571H27.2787C26.6993 22.5571 26.2295 23.0269 26.2295 23.6063C26.2295 24.1858 26.6993 24.6555 27.2787 24.6555H28.9469L26.5338 27.0581C26.2311 27.3583 26.1402 27.8117 26.3036 28.2054C26.4671 28.5991 26.8525 28.8547 27.2787 28.8522H31.4754C32.0549 28.8522 32.5246 28.3825 32.5246 27.8031Z" fill="#46587A"/>
<path d="M45.1148 22.557C45.1148 21.9776 44.6451 21.5079 44.0657 21.5079H39.2499L44.8106 15.9577C45.1132 15.6575 45.2042 15.2041 45.0407 14.8104C44.8773 14.4168 44.4919 14.1611 44.0657 14.1636H36.7214C36.1419 14.1636 35.6722 14.6333 35.6722 15.2128C35.6722 15.7922 36.1419 16.262 36.7214 16.262H41.5371L35.9765 21.8121C35.6738 22.1123 35.5829 22.5657 35.7463 22.9594C35.9098 23.3531 36.2951 23.6087 36.7214 23.6062H44.0657C44.6451 23.6062 45.1148 23.1365 45.1148 22.557Z" fill="#46587A"/>
<path d="M54.5574 12.0654C55.1369 12.0654 55.6066 11.5957 55.6066 11.0162C55.6066 10.4368 55.1369 9.96705 54.5574 9.96705H47.6433L55.3023 2.31853C55.605 2.01837 55.6959 1.56494 55.5325 1.17127C55.369 0.777603 54.9837 0.521953 54.5574 0.524432H45.1148C44.5353 0.524432 44.0656 0.994166 44.0656 1.57361C44.0656 2.15306 44.5353 2.62279 45.1148 2.62279H52.0289L44.3699 10.2713C44.0672 10.5715 43.9763 11.0249 44.1397 11.4186C44.3032 11.8122 44.6885 12.0679 45.1148 12.0654H54.5574Z" fill="#46587A"/>
<path d="M26.2295 36.1966V37.2458C26.2295 37.8253 26.6993 38.295 27.2787 38.295C27.8582 38.295 28.3279 37.8253 28.3279 37.2458V36.1966C28.3279 35.6172 27.8582 35.1475 27.2787 35.1475C26.6993 35.1475 26.2295 35.6172 26.2295 36.1966Z" fill="#46587A"/>
<path d="M40.918 36.1966V37.2458C40.918 37.8253 41.3878 38.295 41.9672 38.295C42.5466 38.295 43.0164 37.8253 43.0164 37.2458V36.1966C43.0164 35.6172 42.5466 35.1475 41.9672 35.1475C41.3878 35.1475 40.918 35.6172 40.918 36.1966Z" fill="#46587A"/>
<path d="M34.623 46.6881C37.5202 46.6881 39.8689 44.3395 39.8689 41.4422C39.8689 40.8628 39.3991 40.3931 38.8197 40.3931C38.2403 40.3931 37.7705 40.8628 37.7705 41.4422C37.7705 43.1806 36.3613 44.5898 34.623 44.5898C32.8846 44.5898 31.4754 43.1806 31.4754 41.4422C31.4754 40.8628 31.0057 40.3931 30.4263 40.3931C29.8468 40.3931 29.3771 40.8628 29.3771 41.4422C29.3771 44.3395 31.7257 46.6881 34.623 46.6881Z" fill="#46587A"/>
</svg>
