<svg width="64" height="64" viewBox="0 0 64 64" fill="none" xmlns="http://www.w3.org/2000/svg">
<g clip-path="url(#clip0)">
<path d="M37 56.5C36.31 56.5 35.75 57.06 35.75 57.75C35.75 58.44 36.31 59 37 59C37.69 59 38.25 58.44 38.25 57.75C38.25 57.06 37.69 56.5 37 56.5Z" fill="#46587A" stroke="white" stroke-width="0.5"/>
<path d="M54.5 5.75H50.75V3.75C50.75 1.68225 49.0677 0 47 0H17C14.9323 0 13.25 1.68225 13.25 3.75V5.75H9.5C7.43225 5.75 5.75 7.43225 5.75 9.5C5.75 17.6321 9.55525 23.6084 15.7285 25.2722C17.8448 29.9304 21.1908 33.8903 25.4377 36.7516C26.416 37.4108 27 38.5391 27 39.77V46.6574C26.1431 46.8771 25.357 47.3226 24.7149 47.9649C23.7702 48.9096 23.25 50.165 23.25 51.5H22C19.9323 51.5 18.25 53.1823 18.25 55.25V62.75C18.25 63.4404 18.8097 64 19.5 64H44.5C45.1903 64 45.75 63.4404 45.75 62.75V55.25C45.75 53.1823 44.0677 51.5 42 51.5H40.75C40.75 49.1745 39.1541 47.2146 37 46.6582V39.7762C37 38.5414 37.5844 37.4109 38.5635 36.7518C42.8109 33.8901 46.1569 29.9301 48.273 25.2719C54.4454 23.6074 58.25 17.6315 58.25 9.5C58.25 7.43225 56.5677 5.75 54.5 5.75ZM8.25 9.5C8.25 8.81075 8.81075 8.25 9.5 8.25H13.25V13.8375C13.25 16.6869 13.6816 19.4771 14.5337 22.1642C10.5559 20.1939 8.25 15.6432 8.25 9.5ZM42 54C42.6893 54 43.25 54.5607 43.25 55.25V61.5H20.75V55.25C20.75 54.5607 21.3108 54 22 54H42ZM48.25 13.8375C48.25 17.252 47.5703 20.5745 46.2293 23.7125C44.3218 28.1771 41.188 31.969 37.167 34.6781C35.497 35.8022 34.5 37.7081 34.5 39.7762V47.75C34.5 48.4404 35.0597 49 35.75 49C37.1285 49 38.25 50.1215 38.25 51.5H25.75C25.75 50.8327 26.0102 50.2051 26.4826 49.7326C26.9319 49.2834 27.5215 49.0261 28.152 49.0019C28.1844 49.0044 28.217 49.0056 28.2499 49.0056C28.9401 49.0056 29.4999 48.4404 29.4999 47.75V39.77C29.4999 37.7062 28.5035 35.8029 26.8346 34.6784C22.8132 31.9691 19.6795 28.1772 17.7717 23.7122C16.4302 20.5754 15.75 17.253 15.75 13.8375V3.75C15.75 3.06075 16.3108 2.5 17 2.5H47C47.6893 2.5 48.25 3.06075 48.25 3.75V13.8375ZM49.4668 22.164C50.3185 19.4762 50.75 16.6861 50.75 13.8375V8.25H54.5C55.1893 8.25 55.75 8.81075 55.75 9.5C55.75 15.6429 53.4444 20.1934 49.4668 22.164Z" fill="#46587A" stroke="white" stroke-width="0.5"/>
<path d="M41.8924 14.7703C41.7455 14.3177 41.3542 13.9878 40.8832 13.9195L35.4887 13.1365L33.0759 8.24717C32.8652 7.82042 32.4307 7.55029 31.9549 7.55029C31.479 7.55029 31.0445 7.82042 30.8339 8.24717L28.421 13.1365L23.0266 13.9195C22.5556 13.9879 22.1645 14.3178 22.0174 14.7703C21.8704 15.2229 21.993 15.7197 22.3337 16.0518L26.238 19.8568L25.3165 25.2302C25.2361 25.6992 25.4289 26.173 25.8139 26.4528C26.1989 26.7324 26.7092 26.7693 27.1302 26.5479L31.955 24.0113L36.7809 26.5479C37.2046 26.7707 37.7147 26.7307 38.0972 26.4527C38.4821 26.1729 38.6749 25.6989 38.5944 25.2299L37.6719 19.8567L41.576 16.0518C41.9169 15.7197 42.0394 15.2229 41.8924 14.7703ZM35.4562 18.525C35.1616 18.8123 35.027 19.2262 35.0967 19.6318L35.7019 23.1564L32.5365 21.4925C32.1721 21.3012 31.7371 21.3012 31.3732 21.4927L28.2089 23.1564L28.8134 19.6315C28.8829 19.2259 28.7484 18.8122 28.4537 18.525L25.8932 16.0295L29.4309 15.516C29.8381 15.4569 30.1901 15.2012 30.3722 14.8322L31.955 11.6248L33.5377 14.8322C33.7199 15.2012 34.0719 15.4569 34.4791 15.516L38.0169 16.0295L35.4562 18.525Z" fill="#46587A" stroke="white" stroke-width="0.5"/>
<path d="M32 56.5H27C26.3098 56.5 25.75 57.0596 25.75 57.75C25.75 58.4404 26.3098 59 27 59H32C32.6902 59 33.25 58.4404 33.25 57.75C33.25 57.0596 32.6902 56.5 32 56.5Z" fill="#46587A" stroke="white" stroke-width="0.5"/>
<path d="M51.2512 60.2498H51.9481C51.5931 60.1794 51.3543 60.1724 51.2512 60.2498Z" fill="#46587A" stroke="white" stroke-width="0.5"/>
</g>
<defs>
<clipPath id="clip0">
<rect width="64" height="64" fill="white"/>
</clipPath>
</defs>
</svg>
