<svg width="64" height="64" viewBox="0 0 64 64" fill="none" xmlns="http://www.w3.org/2000/svg">
<g clip-path="url(#clip0)">
<path d="M3.2 61.8665H1.06667C0.477563 61.8665 0 62.344 0 62.9331C0 63.5222 0.477563 63.9998 1.06667 63.9998H3.2C3.7891 63.9998 4.26667 63.5222 4.26667 62.9331C4.26667 62.344 3.7891 61.8665 3.2 61.8665Z" fill="#46587A"/>
<path d="M59.648 5.42917C59.1382 2.33834 56.4659 0.0708008 53.3333 0.0708008C50.2007 0.0708008 47.5285 2.33834 47.0187 5.42917C44.3234 5.94742 42.4615 8.42666 42.7152 11.1596C42.9689 13.8925 45.2554 15.9866 48 15.9998H54.4C54.9891 15.9998 55.4667 15.5223 55.4667 14.9332C55.4667 14.3441 54.9891 13.8665 54.4 13.8665H48C46.4391 13.8378 45.1267 12.6869 44.8945 11.1431C44.6623 9.59924 45.5779 8.11318 47.0613 7.62651C47.2411 8.57405 47.6351 9.46795 48.2133 10.2398C48.4148 10.5084 48.7309 10.6665 49.0667 10.6665C49.4707 10.6665 49.84 10.4382 50.0207 10.0769C50.2014 9.7155 50.1624 9.28306 49.92 8.95984C48.8699 7.56694 48.7734 5.67506 49.6764 4.18258C50.5795 2.69009 52.3001 1.89764 54.0213 2.18152C55.7424 2.46539 57.1174 3.76842 57.4933 5.47184C56.3997 5.7158 55.4107 6.29801 54.6667 7.13584C54.3439 7.5825 54.4146 8.20148 54.8296 8.56396C55.2447 8.92644 55.8675 8.9131 56.2667 8.53318C57.2457 7.43857 58.8442 7.1509 60.1435 7.8355C61.4427 8.52009 62.1092 10.0012 61.7599 11.4276C61.4107 12.8541 60.1352 13.8597 58.6667 13.8665C58.0776 13.8665 57.6 14.3441 57.6 14.9332C57.6 15.5223 58.0776 15.9998 58.6667 15.9998C61.4113 15.9866 63.6977 13.8925 63.9515 11.1596C64.2052 8.42666 62.3433 5.94742 59.648 5.42917Z" fill="#46587A"/>
<path d="M12.8 19.1998C12.8 18.6107 12.3224 18.1331 11.7333 18.1331H5.33334C3.77242 18.1044 2.46006 16.9535 2.22783 15.4097C1.9956 13.8658 2.91129 12.3798 4.39468 11.8931C4.57443 12.8407 4.96847 13.7345 5.54668 14.5064C5.74812 14.775 6.06427 14.9331 6.40001 14.9331C6.80404 14.9331 7.17338 14.7048 7.35407 14.3435C7.53475 13.9821 7.49576 13.5497 7.25335 13.2264C6.20321 11.8335 6.10676 9.94166 7.00979 8.44918C7.91282 6.9567 9.63344 6.16424 11.3546 6.44812C13.0758 6.732 14.4508 8.03502 14.8267 9.73844C13.7331 9.9824 12.744 10.5646 12 11.4024C11.6773 11.8491 11.7479 12.4681 12.163 12.8306C12.578 13.193 13.2009 13.1797 13.6 12.7998C14.5791 11.7052 16.1776 11.4175 17.4768 12.1021C18.7761 12.7867 19.4426 14.2678 19.0933 15.6942C18.744 17.1207 17.4686 18.1263 16 18.1331C15.4109 18.1331 14.9333 18.6107 14.9333 19.1998C14.9333 19.7889 15.4109 20.2664 16 20.2664C18.7446 20.2532 21.0311 18.1591 21.2848 15.4262C21.5385 12.6933 19.6766 10.214 16.9813 9.69578C16.4715 6.60494 13.7993 4.3374 10.6667 4.3374C7.53407 4.3374 4.86186 6.60494 4.35201 9.69578C1.65672 10.214 -0.205155 12.6933 0.0485555 15.4262C0.302266 18.1591 2.58872 20.2532 5.33334 20.2664H11.7333C12.3224 20.2664 12.8 19.7889 12.8 19.1998Z" fill="#46587A"/>
<path d="M52.2667 48.0001V42.6668C52.2667 42.0777 51.7891 41.6001 51.2 41.6001C50.6109 41.6001 50.1333 42.0777 50.1333 42.6668V48.0001H45.8667C45.2776 48.0001 44.8 48.4777 44.8 49.0668C44.8 49.6559 45.2776 50.1334 45.8667 50.1334H50.1333C51.3115 50.1334 52.2667 49.1783 52.2667 48.0001Z" fill="#46587A"/>
<path d="M58.6667 31.9999H56.5333V28.7999C56.5333 25.2653 53.668 22.3999 50.1333 22.3999H43.7333C40.1987 22.3999 37.3333 25.2653 37.3333 28.7999V47.9999C37.3333 51.5345 40.1987 54.3999 43.7333 54.3999H45.8667V61.8665H31.7227C31.9371 61.2044 31.9371 60.4914 31.7227 59.8292L29.2267 53.0559C28.6187 51.4132 27.9787 51.0079 24.5333 47.6692V44.4692C25.3333 44.9812 25.3973 44.9279 31.232 46.8159C32.8662 47.0941 34.4423 46.0783 34.8639 44.4751C35.2855 42.8719 34.413 41.2122 32.8533 40.6506C27.1893 38.8372 28.5333 39.5839 25.44 36.6612C24.4436 35.7174 23.1217 35.194 21.7493 35.1999H17.3333C16.247 35.1993 15.1863 35.5306 14.2933 36.1492C11.1787 38.2826 10.1867 38.8159 9.39733 40.1492C7.03999 44.0852 6.76266 44.4159 6.71999 44.4906C6.12243 46.0326 6.79831 47.7759 8.27914 48.5122C9.75997 49.2485 11.5579 48.7351 12.4267 47.3279C14.6773 43.7652 14.56 43.8612 14.9333 43.5199V51.9039C14.9333 53.3332 14.5493 53.6212 11.36 59.2105C10.9061 60.0228 10.8283 60.9923 11.1467 61.8665H7.46666C6.87756 61.8665 6.39999 62.3441 6.39999 62.9332C6.39999 63.5223 6.87756 63.9999 7.46666 63.9999H62.9333C63.5224 63.9999 64 63.5223 64 62.9332C64 62.3441 63.5224 61.8665 62.9333 61.8665H57.6V57.5999H58.6667C61.6122 57.5999 64 55.2121 64 52.2666V37.3332C64 34.3877 61.6122 31.9999 58.6667 31.9999ZM39.4667 47.9999V28.7999C39.4667 26.4435 41.3769 24.5332 43.7333 24.5332H50.1333C52.4897 24.5332 54.4 26.4435 54.4 28.7999V47.9999C54.4 50.3563 52.4897 52.2666 50.1333 52.2666H43.7333C41.3769 52.2666 39.4667 50.3563 39.4667 47.9999ZM14.1333 41.4186C13.0027 42.1972 12.7787 42.7306 10.592 46.2292V46.3359C10.3043 46.7788 9.73585 46.9445 9.25523 46.7256C8.77461 46.5066 8.52658 45.9689 8.67199 45.4612C11.1893 41.3866 11.4347 40.7572 12.224 40.2132L15.5627 37.8986C16.0856 37.5425 16.7008 37.3461 17.3333 37.3332H21.7493C24.384 37.3332 25.056 40.3732 27.9787 41.3546L32.2453 42.7199C32.77 42.8818 33.0861 43.4156 32.9757 43.9535C32.8654 44.4914 32.3647 44.8576 31.8187 44.7999C25.984 42.9119 25.8773 42.9866 25.1733 42.3039C24.4693 41.6212 24.5333 41.7279 24.5333 41.5999C24.5333 41.0108 24.0558 40.5332 23.4667 40.5332C22.8776 40.5332 22.4 41.0108 22.4 41.5999V46.9332H17.0667V42.0692C17.487 41.8688 17.9266 41.7115 18.3787 41.5999C18.9678 41.4644 19.3355 40.877 19.2 40.2879C19.0645 39.6988 18.4771 39.3311 17.888 39.4666C16.5166 39.8547 15.2389 40.519 14.1333 41.4186ZM13.216 60.2665C17.4827 52.7999 17.0667 54.3999 17.0667 49.0666H22.912C26.2827 52.3412 26.8053 52.6612 27.232 53.8025L29.7387 60.5012C29.883 61.0726 29.5368 61.6529 28.9653 61.7972C28.3939 61.9415 27.8137 61.5953 27.6693 61.0239C24.7787 53.3332 25.6 54.7945 22.9653 51.6586C22.3866 50.9711 21.4393 50.72 20.596 51.0305C19.7528 51.3411 19.1946 52.1467 19.2 53.0452C19.1987 53.7485 19.015 54.4395 18.6667 55.0505L15.072 61.3119C14.7774 61.8244 14.1232 62.0011 13.6107 61.7065C13.0981 61.412 12.9214 60.7577 13.216 60.2452V60.2665ZM20.5227 56.1065C21.0485 55.1715 21.3275 54.118 21.3333 53.0452C23.7333 55.8719 22.9013 54.3465 25.6 61.6959L25.664 61.8665H17.1307L20.5227 56.1065ZM55.4667 61.8665H48V54.3999H49.5253C50.3716 56.339 52.2842 57.5946 54.4 57.5999H55.4667V61.8665ZM61.8667 52.2666C61.8667 54.0339 60.434 55.4665 58.6667 55.4665H54.4C53.389 55.4615 52.4398 54.979 51.84 54.1652C54.6121 53.3982 56.532 50.8761 56.5333 47.9999V34.1332H58.6667C60.434 34.1332 61.8667 35.5659 61.8667 37.3332V52.2666Z" fill="#46587A"/>
<path d="M20.2667 24.5334C17.9103 24.5334 16 26.4437 16 28.8001C16 31.1565 17.9103 33.0668 20.2667 33.0668C22.6231 33.0668 24.5333 31.1565 24.5333 28.8001C24.5333 26.4437 22.6231 24.5334 20.2667 24.5334ZM20.2667 30.9335C19.0885 30.9335 18.1333 29.9783 18.1333 28.8001C18.1333 27.6219 19.0885 26.6668 20.2667 26.6668C21.4449 26.6668 22.4 27.6219 22.4 28.8001C22.4 29.9783 21.4449 30.9335 20.2667 30.9335Z" fill="#46587A"/>
<path d="M28.8 10.6667C31.7455 10.6667 34.1333 8.27885 34.1333 5.33333C34.1333 2.38781 31.7455 0 28.8 0C25.8545 0 23.4667 2.38781 23.4667 5.33333C23.4667 8.27885 25.8545 10.6667 28.8 10.6667ZM28.8 2.13333C30.5673 2.13333 32 3.56602 32 5.33333C32 7.10065 30.5673 8.53333 28.8 8.53333C27.0327 8.53333 25.6 7.10065 25.6 5.33333C25.6 3.56602 27.0327 2.13333 28.8 2.13333Z" fill="#46587A"/>
<path d="M51.2 39.4666C51.7891 39.4666 52.2667 38.9891 52.2667 38.4V36.2666C52.2667 35.6775 51.7891 35.2 51.2 35.2C50.6109 35.2 50.1334 35.6775 50.1334 36.2666V38.4C50.1334 38.9891 50.6109 39.4666 51.2 39.4666Z" fill="#46587A"/>
</g>
<defs>
<clipPath id="clip0">
<rect width="64" height="64" fill="white"/>
</clipPath>
</defs>
</svg>
