<svg width="64" height="64" viewBox="0 0 64 64" fill="none" xmlns="http://www.w3.org/2000/svg">
<g clip-path="url(#clip0)">
<path d="M57.1209 20.688C57.1209 17.156 54.577 14.207 51.2251 13.5768C51.2827 13.1997 51.3119 12.8179 51.3119 12.4333C51.3119 8.27492 47.9287 4.89173 43.7706 4.89173C42.6866 4.89173 41.6322 5.12064 40.6619 5.56111C39.1291 2.22869 35.7429 0 31.9999 0C28.2572 0 24.8706 2.22848 23.3377 5.56111C22.3675 5.12043 21.3135 4.89173 20.2293 4.89173C16.071 4.89173 12.6878 8.27492 12.6878 12.4333C12.6878 12.8177 12.7169 13.1997 12.7746 13.5768C9.42304 14.207 6.87903 17.156 6.87903 20.688C6.87903 24.2129 9.35027 27.1282 12.6919 27.784C12.6892 27.8647 12.6878 27.9452 12.6878 28.0257C12.6878 32.1841 16.071 35.5672 20.2293 35.5672C21.9399 35.5672 23.5883 34.9839 24.9117 33.9356C25.5475 34.6431 26.2813 35.2434 27.0831 35.7268V43.727C20.1615 44.6208 15.7459 47.231 15.7459 50.4972C15.7459 53.6697 19.9297 56.2304 26.5316 57.1927C26.4547 57.4265 26.373 57.6588 26.2803 57.8881C25.6414 59.4705 24.6251 60.9058 23.341 62.0392C22.8769 62.4488 22.8327 63.1574 23.2426 63.6215C23.4641 63.8724 23.7731 64.0006 24.0834 64.0006C24.3469 64.0006 24.6117 63.9081 24.8249 63.7201C26.3687 62.3573 27.5909 60.6311 28.3591 58.7283C28.5289 58.3084 28.6751 57.8816 28.8004 57.4493C29.8442 57.5351 30.9166 57.5804 32.0016 57.5804C33.0845 57.5804 34.1557 57.5351 35.1991 57.4493C35.3244 57.8812 35.4704 58.3078 35.6402 58.7275C36.4092 60.6325 37.6324 62.3592 39.1774 63.7208C39.3906 63.9085 39.655 64.0008 39.9184 64.0008C40.229 64.0008 40.5382 63.8724 40.7598 63.6209C41.1693 63.1563 41.1244 62.448 40.6601 62.0385C39.3756 60.9065 38.3586 59.4713 37.7192 57.8873C37.6267 57.6584 37.545 57.4265 37.4683 57.1931C44.0712 56.2326 48.2554 53.6717 48.2554 50.4972C48.2554 47.231 43.8392 44.6206 36.9165 43.727V35.7273C37.7188 35.2438 38.4528 34.6435 39.0888 33.9356C40.412 34.9841 42.0606 35.5674 43.7712 35.5674C47.9293 35.5674 51.3125 32.1843 51.3125 28.0259C51.3125 27.9454 51.3111 27.8649 51.3084 27.7842C54.6496 27.1282 57.1209 24.2129 57.1209 20.688ZM17.988 50.4966C17.988 48.8391 21.3634 46.7859 27.0831 45.9881V53.7392C27.0831 54.1617 27.0568 54.5802 27.0102 54.995C21.3361 54.1872 17.988 52.1415 17.988 50.4966ZM46.0127 50.4966C46.0127 52.143 42.6642 54.189 36.9889 54.9954C36.9422 54.5806 36.9159 54.1619 36.9159 53.7392V45.9881C42.6366 46.7859 46.0127 48.8391 46.0127 50.4966ZM34.76 55.2351C32.9498 55.3696 31.0464 55.3694 29.2393 55.2351C29.2943 54.741 29.3255 54.2424 29.3255 53.7394V36.7099C30.1838 36.9608 31.0825 37.0956 32.0001 37.0956C32.9176 37.0956 33.8159 36.961 34.674 36.7101V53.7392C34.6738 54.2424 34.7048 54.741 34.76 55.2351ZM50.0384 25.6772L48.7208 25.7169L48.9715 27.011C49.0365 27.3472 49.0695 27.6884 49.0695 28.0255C49.0695 30.9474 46.6923 33.3249 43.7704 33.3249C42.2553 33.3249 40.8093 32.6728 39.8024 31.5363L38.8456 30.4556L38.0354 31.6502C36.6752 33.6561 34.4188 34.8536 31.9997 34.8536C29.5805 34.8536 27.3243 33.6561 25.9643 31.6504L25.1541 30.4556L24.1971 31.5365C23.1904 32.6733 21.7442 33.3251 20.2291 33.3251C17.307 33.3251 14.9297 30.9478 14.9297 28.0257C14.9297 27.6888 14.9628 27.3474 15.0278 27.0112L15.2785 25.7171L13.9609 25.6774C11.2469 25.5956 9.12076 23.4041 9.12076 20.688C9.12076 17.9347 11.3609 15.6944 14.1095 15.6946L15.7675 15.7117L15.2328 14.2009C15.0318 13.6322 14.9297 13.0374 14.9297 12.4333C14.9297 9.51135 17.307 7.13387 20.2291 7.13387C21.328 7.13387 22.3824 7.46836 23.279 8.10125L24.5646 9.0083L25.0022 7.4973C25.8991 4.40315 28.7766 2.24214 31.9999 2.24214C35.2233 2.24214 38.1008 4.40315 38.997 7.4973L39.4349 9.0083L40.7202 8.10125C41.6171 7.46856 42.6719 7.13387 43.7706 7.13387C46.6925 7.13387 49.0698 9.51115 49.0698 12.4333C49.0698 13.0378 48.9678 13.6326 48.7669 14.2009L48.2322 15.7117L49.8345 15.6958L49.8851 15.6944C52.6386 15.6944 54.8787 17.9345 54.8787 20.688C54.8787 23.4038 52.7526 25.5954 50.0384 25.6772Z" fill="#46587A"/>
</g>
<defs>
<clipPath id="clip0">
<rect width="64" height="64" fill="white"/>
</clipPath>
</defs>
</svg>
